<?xml version="1.0" encoding="UTF-8" standalone="no"?>
<svg width="873px" height="405px" viewBox="0 0 873 405" version="1.1" xmlns="http://www.w3.org/2000/svg" xmlns:xlink="http://www.w3.org/1999/xlink">
    <!-- Generator: Sketch 3.7.2 (28276) - http://www.bohemiancoding.com/sketch -->
    <title>adjusting-inter-word-spaces</title>
    <desc>Created with Sketch.</desc>
    <defs></defs>
    <g id="Page-8" stroke="none" stroke-width="1" fill="none" fill-rule="evenodd">
        <rect id="Rectangle-1-Copy-17" fill="#FF9B9B" x="216" y="6" width="39" height="132"></rect>
        <rect id="Rectangle-1-Copy-16" fill="#FF9B9B" x="138" y="6" width="39" height="132"></rect>
        <rect id="Rectangle-1-Copy-15" fill="#FF9B9B" x="60" y="6" width="39" height="132"></rect>
        <rect id="Rectangle-1-Copy-14" fill="#FF9B9B" x="171" y="141" width="39" height="132"></rect>
        <rect id="Rectangle-1-Copy-13" fill="#FF9B9B" x="786" y="0" width="45" height="132"></rect>
        <rect id="Rectangle-1-Copy-12" fill="#FF9B9B" x="702" y="0" width="45" height="132"></rect>
        <rect id="Rectangle-1-Copy-11" fill="#FF9B9B" x="618" y="0" width="45" height="132"></rect>
        <rect id="Rectangle-1-Copy-10" fill="#FF9B9B" x="771" y="135" width="15" height="132"></rect>
        <rect id="Rectangle-1-Copy-9" fill="#FF9B9B" x="669" y="135" width="15" height="132"></rect>
        <polygon id="Line-Copy-6" fill="#979797" points="291 16.4982886 291 391.501711 291 393 294 393 294 391.501711 294 16.4982886 294 15 291 15"></polygon>
        <polygon id="Line-Copy-5" fill="#979797" points="0 7.4989331 0 403.501067 0 405 3 405 3 403.501067 3 7.4989331 3 6 0 6"></polygon>
        <path d="M287.079696,55.0125968 C284.917101,52.1350395 282.466159,49.545238 279.871045,47.2431921 C277.275931,44.9411463 274.248298,42.9268562 270.932319,41.3441997 C270.4998,41.056444 270.067281,40.9125661 269.778935,41.056444 C269.490589,41.2003218 269.346416,41.6319554 269.202243,42.2074669 L267.039648,51.5595281 C268.481378,52.2789174 269.634762,52.8544289 270.4998,53.2860625 C271.364838,53.717696 271.94153,54.0054518 272.229876,54.1493296 C273.38326,54.868719 274.680817,55.7319861 275.978374,56.7391312 C277.275931,57.7462762 278.717661,59.041177 280.159391,60.4799557 C282.321986,62.6381236 284.052062,65.0840473 285.34962,67.6738489 C286.647177,70.2636504 287.512215,73.1412077 287.944734,76.1626429 C288.088907,77.3136658 288.23308,78.3208108 288.23308,79.0402002 C288.23308,79.7595895 288.088907,80.3351009 287.944734,80.6228567 C287.656388,81.1983681 286.79135,81.7738796 285.34962,82.349391 C283.907889,82.9249025 281.889467,83.500414 279.294353,84.0759254 C276.987585,84.6514369 274.969163,85.0830705 273.38326,85.3708262 C271.797357,85.6585819 270.4998,85.8024598 269.490589,85.8024598 C267.760513,85.8024598 266.318783,85.6585819 265.309571,85.5147041 C264.30036,85.3708262 263.579495,85.0830705 263.146976,84.6514369 C262.85863,84.3636811 262.570284,83.7881697 262.426111,83.0687804 C262.281938,82.349391 262.137765,81.342246 261.993592,80.0473452 C261.849419,79.9034674 261.705246,79.7595895 261.4169,79.7595895 L260.407689,79.7595895 L259.254305,79.7595895 C258.965959,79.7595895 258.821786,79.9034674 258.821786,80.0473452 C258.245094,82.7810246 257.812575,85.3708262 257.668402,87.8167499 C257.524229,90.2626736 257.524229,92.4208415 257.668402,94.4351316 C258.389267,95.0106431 259.542651,95.4422767 260.984381,95.7300324 C262.426111,96.0177882 264.156187,96.161666 266.17461,96.161666 C268.481378,96.161666 270.932319,95.8739103 273.527433,95.4422767 C276.122547,95.0106431 278.861834,94.2912538 281.601121,93.4279866 C284.052062,92.7085973 285.926312,91.989208 287.368042,91.2698186 C288.809772,90.5504293 289.818983,89.9749179 290.251502,89.5432843 C290.395675,89.1116507 290.539848,88.3922613 290.828194,87.5289942 C291.11654,86.665727 291.404886,85.5147041 291.837405,84.0759254 C292.269924,82.2055132 292.702443,80.4789788 292.990789,79.0402002 C293.279135,77.6014215 293.423308,76.1626429 293.423308,74.8677421 C293.423308,71.4146734 292.846616,68.1054825 291.693232,64.7962916 C290.539848,61.4871007 288.809772,58.3217877 286.503004,55.3003526 L287.079696,55.0125968 Z M209.226272,55.0125968 C207.063676,52.1350395 204.612735,49.545238 202.017621,47.2431921 C199.422507,44.9411463 196.394874,42.9268562 193.078895,41.3441997 C192.646376,41.056444 192.213857,40.9125661 191.925511,41.056444 C191.637165,41.2003218 191.492992,41.6319554 191.348819,42.2074669 L189.186223,51.5595281 C190.627954,52.2789174 191.781338,52.8544289 192.646376,53.2860625 C193.511414,53.717696 194.088106,54.0054518 194.376452,54.1493296 C195.529836,54.868719 196.827393,55.7319861 198.12495,56.7391312 C199.422507,57.7462762 200.864237,59.041177 202.305967,60.4799557 C204.468562,62.6381236 206.198638,65.0840473 207.496195,67.6738489 C208.793753,70.2636504 209.658791,73.1412077 210.09131,76.1626429 C210.235483,77.3136658 210.379656,78.3208108 210.379656,79.0402002 C210.379656,79.7595895 210.235483,80.3351009 210.09131,80.6228567 C209.802964,81.1983681 208.937926,81.7738796 207.496195,82.349391 C206.054465,82.9249025 204.036043,83.500414 201.440929,84.0759254 C199.134161,84.6514369 197.115739,85.0830705 195.529836,85.3708262 C193.943933,85.6585819 192.646376,85.8024598 191.637165,85.8024598 C189.907089,85.8024598 188.465358,85.6585819 187.456147,85.5147041 C186.446936,85.3708262 185.726071,85.0830705 185.293552,84.6514369 C185.005206,84.3636811 184.71686,83.7881697 184.572687,83.0687804 C184.428514,82.349391 184.284341,81.342246 184.140168,80.0473452 C183.995995,79.9034674 183.851822,79.7595895 183.563476,79.7595895 L182.554265,79.7595895 L181.400881,79.7595895 C181.112535,79.7595895 180.968362,79.9034674 180.968362,80.0473452 C180.39167,82.7810246 179.959151,85.3708262 179.814978,87.8167499 C179.670805,90.2626736 179.670805,92.4208415 179.814978,94.4351316 C180.535843,95.0106431 181.689227,95.4422767 183.130957,95.7300324 C184.572687,96.0177882 186.302763,96.161666 188.321185,96.161666 C190.627954,96.161666 193.078895,95.8739103 195.674009,95.4422767 C198.269123,95.0106431 201.00841,94.2912538 203.747697,93.4279866 C206.198638,92.7085973 208.072887,91.989208 209.514618,91.2698186 C210.956348,90.5504293 211.965559,89.9749179 212.398078,89.5432843 C212.542251,89.1116507 212.686424,88.3922613 212.97477,87.5289942 C213.263116,86.665727 213.551462,85.5147041 213.983981,84.0759254 C214.4165,82.2055132 214.849019,80.4789788 215.137365,79.0402002 C215.425711,77.6014215 215.569884,76.1626429 215.569884,74.8677421 C215.569884,71.4146734 214.993192,68.1054825 213.839808,64.7962916 C212.686424,61.4871007 210.956348,58.3217877 208.649579,55.3003526 L209.226272,55.0125968 Z M131.372847,55.0125968 C129.210252,52.1350395 126.759311,49.545238 124.164197,47.2431921 C121.569083,44.9411463 118.54145,42.9268562 115.225471,41.3441997 C114.792952,41.056444 114.360433,40.9125661 114.072087,41.056444 C113.78374,41.2003218 113.639567,41.6319554 113.495394,42.2074669 L111.332799,51.5595281 C112.774529,52.2789174 113.927913,52.8544289 114.792952,53.2860625 C115.65799,53.717696 116.234682,54.0054518 116.523028,54.1493296 C117.676412,54.868719 118.973969,55.7319861 120.271526,56.7391312 C121.569083,57.7462762 123.010813,59.041177 124.452543,60.4799557 C126.615138,62.6381236 128.345214,65.0840473 129.642771,67.6738489 C130.940328,70.2636504 131.805366,73.1412077 132.237885,76.1626429 C132.382058,77.3136658 132.526231,78.3208108 132.526231,79.0402002 C132.526231,79.7595895 132.382058,80.3351009 132.237885,80.6228567 C131.949539,81.1983681 131.084501,81.7738796 129.642771,82.349391 C128.201041,82.9249025 126.182619,83.500414 123.587505,84.0759254 C121.280737,84.6514369 119.262315,85.0830705 117.676412,85.3708262 C116.090509,85.6585819 114.792952,85.8024598 113.78374,85.8024598 C112.053664,85.8024598 110.611934,85.6585819 109.602723,85.5147041 C108.593512,85.3708262 107.872647,85.0830705 107.440128,84.6514369 C107.151782,84.3636811 106.863436,83.7881697 106.719263,83.0687804 C106.57509,82.349391 106.430917,81.342246 106.286744,80.0473452 C106.142571,79.9034674 105.998398,79.7595895 105.710052,79.7595895 L104.700841,79.7595895 L103.547457,79.7595895 C103.259111,79.7595895 103.114938,79.9034674 103.114938,80.0473452 C102.538246,82.7810246 102.105727,85.3708262 101.961554,87.8167499 C101.817381,90.2626736 101.817381,92.4208415 101.961554,94.4351316 C102.682419,95.0106431 103.835803,95.4422767 105.277533,95.7300324 C106.719263,96.0177882 108.449339,96.161666 110.467761,96.161666 C112.774529,96.161666 115.225471,95.8739103 117.820585,95.4422767 C120.415699,95.0106431 123.154986,94.2912538 125.894273,93.4279866 C128.345214,92.7085973 130.219463,91.989208 131.661193,91.2698186 C133.102924,90.5504293 134.112135,89.9749179 134.544654,89.5432843 C134.688827,89.1116507 134.833,88.3922613 135.121346,87.5289942 C135.409692,86.665727 135.698038,85.5147041 136.130557,84.0759254 C136.563076,82.2055132 136.995595,80.4789788 137.283941,79.0402002 C137.572287,77.6014215 137.71646,76.1626429 137.71646,74.8677421 C137.71646,71.4146734 137.139768,68.1054825 135.986384,64.7962916 C134.833,61.4871007 133.102924,58.3217877 130.796155,55.3003526 L131.372847,55.0125968 Z M53.5194233,55.0125968 C51.3568282,52.1350395 48.9058871,49.545238 46.3107729,47.2431921 C43.7156588,44.9411463 40.6880256,42.9268562 37.3720465,41.3441997 C36.9395274,41.056444 36.5070084,40.9125661 36.2186624,41.056444 C35.9303164,41.2003218 35.7861434,41.6319554 35.6419704,42.2074669 L33.4793753,51.5595281 C34.9211053,52.2789174 36.0744894,52.8544289 36.9395274,53.2860625 C37.8045655,53.717696 38.3812575,54.0054518 38.6696035,54.1493296 C39.8229876,54.868719 41.1205447,55.7319861 42.4181017,56.7391312 C43.7156588,57.7462762 45.1573889,59.041177 46.5991189,60.4799557 C48.7617141,62.6381236 50.4917901,65.0840473 51.7893472,67.6738489 C53.0869043,70.2636504 53.9519423,73.1412077 54.3844614,76.1626429 C54.5286344,77.3136658 54.6728074,78.3208108 54.6728074,79.0402002 C54.6728074,79.7595895 54.5286344,80.3351009 54.3844614,80.6228567 C54.0961153,81.1983681 53.2310773,81.7738796 51.7893472,82.349391 C50.3476171,82.9249025 48.329195,83.500414 45.7340809,84.0759254 C43.4273128,84.6514369 41.4088907,85.0830705 39.8229876,85.3708262 C38.2370845,85.6585819 36.9395274,85.8024598 35.9303164,85.8024598 C34.2002403,85.8024598 32.7585102,85.6585819 31.7492992,85.5147041 C30.7400881,85.3708262 30.0192231,85.0830705 29.586704,84.6514369 C29.298358,84.3636811 29.010012,83.7881697 28.865839,83.0687804 C28.721666,82.349391 28.577493,81.342246 28.43332,80.0473452 C28.289147,79.9034674 28.144974,79.7595895 27.856628,79.7595895 L26.8474169,79.7595895 L25.6940328,79.7595895 C25.4056868,79.7595895 25.2615138,79.9034674 25.2615138,80.0473452 C24.6848218,82.7810246 24.2523028,85.3708262 24.1081298,87.8167499 C23.9639567,90.2626736 23.9639567,92.4208415 24.1081298,94.4351316 C24.8289948,95.0106431 25.9823789,95.4422767 27.4241089,95.7300324 C28.865839,96.0177882 30.5959151,96.161666 32.6143372,96.161666 C34.9211053,96.161666 37.3720465,95.8739103 39.9671606,95.4422767 C42.5622747,95.0106431 45.3015619,94.2912538 48.040849,93.4279866 C50.4917901,92.7085973 52.3660392,91.989208 53.8077693,91.2698186 C55.2494994,90.5504293 56.2587105,89.9749179 56.6912295,89.5432843 C56.8354025,89.1116507 56.9795755,88.3922613 57.2679215,87.5289942 C57.5562675,86.665727 57.8446135,85.5147041 58.2771326,84.0759254 C58.7096516,82.2055132 59.1421706,80.4789788 59.4305166,79.0402002 C59.7188626,77.6014215 59.8630356,76.1626429 59.8630356,74.8677421 C59.8630356,71.4146734 59.2863436,68.1054825 58.1329596,64.7962916 C56.9795755,61.4871007 55.2494994,58.3217877 52.9427313,55.3003526 L53.5194233,55.0125968 Z M243.251101,216.347642 C246.855427,216.347642 250.892271,216.059886 255.217461,215.628253 C259.542651,215.196619 264.30036,214.47723 269.346416,213.470085 C274.536644,212.46294 278.717661,211.455795 281.889467,210.592527 C285.061274,209.72926 287.223869,208.865993 288.377253,208.002726 C289.386464,207.283337 290.539848,205.269046 291.837405,201.959856 C293.134962,198.650665 293.855827,196.348619 293.855827,194.90984 C293.855827,193.471062 293.423308,191.312894 292.55827,188.579214 C291.693232,185.845535 290.395675,182.392466 288.809772,178.363886 C288.665599,177.932252 288.521426,177.788374 288.377253,177.788374 C288.23308,177.788374 288.088907,177.932252 287.944734,178.363886 L282.610332,187.859825 C284.196235,190.737382 285.493793,193.183306 286.358831,195.053718 C287.223869,196.92413 287.656388,198.362909 287.656388,199.226176 C287.656388,200.089443 285.926312,200.952711 282.610332,201.959856 C279.294353,202.967001 274.248298,203.974146 267.472167,204.981291 C263.579495,205.556802 259.830997,205.988436 256.226672,206.276192 C252.622347,206.563947 249.018022,206.707825 245.557869,206.707825 C236.186624,206.707825 229.122147,205.556802 224.364437,203.254756 C219.606728,200.952711 217.29996,197.499642 217.29996,192.89555 C217.29996,192.176161 217.444133,191.025138 217.732479,189.586359 C218.020825,188.147581 218.597517,186.277168 219.318382,184.119 C219.606728,183.111855 219.895074,182.248588 220.18342,181.529199 C220.471766,180.80981 220.760112,180.378176 220.904285,180.09042 C220.471766,179.658787 220.039247,179.371031 219.462555,179.083275 C218.885863,178.795519 218.453344,178.651642 218.309171,178.651642 C217.876652,178.651642 217.29996,179.227153 216.579095,180.378176 C215.85823,181.529199 214.993192,183.255733 213.983981,185.557779 C212.830597,188.003703 211.965559,190.305749 211.388867,192.463917 C210.812175,194.622085 210.523829,196.636375 210.523829,198.506787 C210.523829,204.549657 213.263116,209.153749 218.597517,212.175184 C223.931918,215.196619 232.005607,216.779276 242.818582,216.779276 L243.251101,216.347642 Z M221.192631,180.80981 L221.192631,180.09042 C221.192631,179.946542 221.048458,179.802664 220.904285,179.802664 L220.615939,180.09042 C220.760112,180.234298 220.904285,180.378176 221.048458,180.522054 C221.192631,180.665932 221.192631,180.80981 221.192631,180.953687 L221.192631,180.80981 Z M249.738887,227.28236 L242.097717,235.051764 L250.315579,242.10178 L257.524229,234.476253 L249.738887,227.28236 Z M118.397277,216.347642 C122.001602,216.347642 126.038446,216.059886 130.363636,215.628253 C134.688827,215.196619 139.446536,214.47723 144.492591,213.470085 C149.682819,212.46294 153.863837,211.455795 157.035643,210.592527 C160.207449,209.72926 162.370044,208.865993 163.523428,208.002726 C164.532639,207.283337 165.686023,205.269046 166.98358,201.959856 C168.281137,198.650665 169.002002,196.348619 169.002002,194.90984 C169.002002,193.471062 168.569483,191.312894 167.704445,188.579214 C166.839407,185.845535 165.54185,182.392466 163.955947,178.363886 C163.811774,177.932252 163.667601,177.788374 163.523428,177.788374 C163.379255,177.788374 163.235082,177.932252 163.090909,178.363886 L157.756508,187.859825 C159.342411,190.737382 160.639968,193.183306 161.505006,195.053718 C162.370044,196.92413 162.802563,198.362909 162.802563,199.226176 C162.802563,200.089443 161.072487,200.952711 157.756508,201.959856 C154.440529,202.967001 149.394473,203.974146 142.618342,204.981291 C138.725671,205.556802 134.977173,205.988436 131.372847,206.276192 C127.768522,206.563947 124.164197,206.707825 120.704045,206.707825 C111.332799,206.707825 104.268322,205.556802 99.5106127,203.254756 C94.7529035,200.952711 92.4461354,197.499642 92.4461354,192.89555 C92.4461354,192.176161 92.5903084,191.025138 92.8786544,189.586359 C93.1670004,188.147581 93.7436924,186.277168 94.4645575,184.119 C94.7529035,183.111855 95.0412495,182.248588 95.3295955,181.529199 C95.6179415,180.80981 95.9062875,180.378176 96.0504606,180.09042 C95.6179415,179.658787 95.1854225,179.371031 94.6087305,179.083275 C94.0320384,178.795519 93.5995194,178.651642 93.4553464,178.651642 C93.0228274,178.651642 92.4461354,179.227153 91.7252703,180.378176 C91.0044053,181.529199 90.1393672,183.255733 89.1301562,185.557779 C87.9767721,188.003703 87.1117341,190.305749 86.5350421,192.463917 C85.95835,194.622085 85.670004,196.636375 85.670004,198.506787 C85.670004,204.549657 88.4092911,209.153749 93.7436924,212.175184 C99.0780937,215.196619 107.151782,216.779276 117.964758,216.779276 L118.397277,216.347642 Z M96.3388066,180.80981 L96.3388066,180.09042 C96.3388066,179.946542 96.1946336,179.802664 96.0504606,179.802664 L95.7621145,180.09042 C95.9062875,180.234298 96.0504606,180.378176 96.1946336,180.522054 C96.3388066,180.665932 96.3388066,180.80981 96.3388066,180.953687 L96.3388066,180.80981 Z M124.885062,227.28236 L117.243893,235.051764 L125.461754,242.10178 L132.670404,234.476253 L124.885062,227.28236 Z M243.251101,336.245862 C246.855427,336.245862 250.892271,335.958107 255.217461,335.526473 C259.542651,335.094839 264.30036,334.37545 269.346416,333.368305 C274.536644,332.36116 278.717661,331.354015 281.889467,330.490748 C285.061274,329.627481 287.223869,328.764213 288.377253,327.900946 C289.386464,327.181557 290.539848,325.167267 291.837405,321.858076 C293.134962,318.548885 293.855827,316.246839 293.855827,314.808061 C293.855827,313.369282 293.423308,311.211114 292.55827,308.477434 C291.693232,305.743755 290.395675,302.290686 288.809772,298.262106 C288.665599,297.830473 288.521426,297.686595 288.377253,297.686595 C288.23308,297.686595 288.088907,297.830473 287.944734,298.262106 L282.610332,307.758045 C284.196235,310.635602 285.493793,313.081526 286.358831,314.951938 C287.223869,316.822351 287.656388,318.261129 287.656388,319.124396 C287.656388,319.987664 285.926312,320.850931 282.610332,321.858076 C279.294353,322.865221 274.248298,323.872366 267.472167,324.879511 C263.579495,325.455022 259.830997,325.886656 256.226672,326.174412 C252.622347,326.462168 249.018022,326.606045 245.557869,326.606045 C236.186624,326.606045 229.122147,325.455022 224.364437,323.152977 C219.606728,320.850931 217.29996,317.397862 217.29996,312.79377 C217.29996,312.074381 217.444133,310.923358 217.732479,309.48458 C218.020825,308.045801 218.597517,306.175389 219.318382,304.017221 C219.606728,303.010076 219.895074,302.146808 220.18342,301.427419 C220.471766,300.70803 220.760112,300.276396 220.904285,299.98864 C220.471766,299.557007 220.039247,299.269251 219.462555,298.981495 C218.885863,298.69374 218.453344,298.549862 218.309171,298.549862 C217.876652,298.549862 217.29996,299.125373 216.579095,300.276396 C215.85823,301.427419 214.993192,303.153953 213.983981,305.455999 C212.830597,307.901923 211.965559,310.203969 211.388867,312.362137 C210.812175,314.520305 210.523829,316.534595 210.523829,318.405007 C210.523829,324.447877 213.263116,329.051969 218.597517,332.073404 C223.931918,335.094839 232.005607,336.677496 242.818582,336.677496 L243.251101,336.245862 Z M221.192631,300.70803 L221.192631,299.98864 C221.192631,299.844763 221.048458,299.700885 220.904285,299.700885 L220.615939,299.98864 C220.760112,300.132518 220.904285,300.276396 221.048458,300.420274 C221.192631,300.564152 221.192631,300.70803 221.192631,300.851908 L221.192631,300.70803 Z M249.738887,347.18058 L242.097717,354.949985 L250.315579,362 L257.524229,354.374473 L249.738887,347.18058 Z" id="د-د-د-د-ب-ب-ب-copy" fill="#000000"></path>
        <polygon id="Line-Copy-4" fill="#979797" points="870 16.4995255 870 253.500474 870 255 873 255 873 253.500474 873 16.4995255 873 15 870 15"></polygon>
        <polygon id="Line-Copy-3" fill="#979797" points="579 7.49898482 579 250.501015 579 252 582 252 582 250.501015 582 7.49898482 582 6 579 6"></polygon>
        <path d="M862.38886,55.0055049 C860.231746,52.129404 857.787016,49.5409131 855.19848,47.2400324 C852.609943,44.9391517 849.589984,42.925881 846.282409,41.3440255 C845.850986,41.0564154 845.419563,40.9126104 845.131948,41.0564154 C844.844333,41.2002205 844.700525,41.6316356 844.556718,42.2068558 L842.399604,51.5541838 C843.83768,52.273209 844.98814,52.8484292 845.850986,53.2798443 C846.713832,53.7112595 847.289062,53.9988696 847.576677,54.1426746 C848.727138,54.8616999 850.021406,55.7245301 851.315675,56.7311655 C852.609943,57.7378008 854.048019,59.0320462 855.486095,60.4700967 C857.643209,62.6271723 859.3689,65.0718581 860.663168,67.660349 C861.957437,70.2488398 862.820282,73.1249407 863.251705,76.1448467 C863.395513,77.2952871 863.53932,78.3019224 863.53932,79.0209476 C863.53932,79.7399728 863.395513,80.315193 863.251705,80.6028031 C862.96409,81.1780233 862.101244,81.7532435 860.663168,82.3284637 C859.225092,82.9036839 857.211786,83.4789041 854.623249,84.0541242 C852.322328,84.6293444 850.309021,85.0607596 848.727138,85.3483697 C847.145254,85.6359797 845.850986,85.7797848 844.844333,85.7797848 C843.118642,85.7797848 841.680566,85.6359797 840.673913,85.4921747 C839.667259,85.3483697 838.948221,85.0607596 838.516799,84.6293444 C838.229183,84.3417343 837.941568,83.7665141 837.797761,83.0474889 C837.653953,82.3284637 837.510145,81.3218284 837.366338,80.0275829 C837.22253,79.8837779 837.078723,79.7399728 836.791108,79.7399728 L835.784454,79.7399728 L834.633994,79.7399728 C834.346378,79.7399728 834.202571,79.8837779 834.202571,80.0275829 C833.62734,82.7598788 833.195918,85.3483697 833.05211,87.7930554 C832.908302,90.2377412 832.908302,92.3948169 833.05211,94.4080876 C833.771148,94.9833077 834.921609,95.4147229 836.359685,95.702333 C837.797761,95.9899431 839.523452,96.1337481 841.536758,96.1337481 C843.83768,96.1337481 846.282409,95.846138 848.870946,95.4147229 C851.459482,94.9833077 854.191827,94.2642825 856.924171,93.4014522 C859.3689,92.682427 861.238399,91.9634018 862.676475,91.2443765 C864.114551,90.5253513 865.121204,89.9501311 865.552627,89.518716 C865.696434,89.0873009 865.840242,88.3682756 866.127857,87.5054453 C866.415472,86.6426151 866.703087,85.4921747 867.13451,84.0541242 C867.565933,82.1846586 867.997356,80.4589981 868.284971,79.0209476 C868.572586,77.5828972 868.716394,76.1448467 868.716394,74.8506013 C868.716394,71.3992802 868.141163,68.0917641 866.990703,64.784248 C865.840242,61.476732 864.114551,58.313021 861.813629,55.293115 L862.38886,55.0055049 Z M778.740775,55.0055049 C776.583661,52.129404 774.138932,49.5409131 771.550395,47.2400324 C768.961858,44.9391517 765.941899,42.925881 762.634324,41.3440255 C762.202901,41.0564154 761.771478,40.9126104 761.483863,41.0564154 C761.196248,41.2002205 761.05244,41.6316356 760.908633,42.2068558 L758.751519,51.5541838 C760.189595,52.273209 761.340056,52.8484292 762.202901,53.2798443 C763.065747,53.7112595 763.640977,53.9988696 763.928592,54.1426746 C765.079053,54.8616999 766.373322,55.7245301 767.66759,56.7311655 C768.961858,57.7378008 770.399934,59.0320462 771.83801,60.4700967 C773.995124,62.6271723 775.720815,65.0718581 777.015084,67.660349 C778.309352,70.2488398 779.172198,73.1249407 779.60362,76.1448467 C779.747428,77.2952871 779.891236,78.3019224 779.891236,79.0209476 C779.891236,79.7399728 779.747428,80.315193 779.60362,80.6028031 C779.316005,81.1780233 778.45316,81.7532435 777.015084,82.3284637 C775.577008,82.9036839 773.563701,83.4789041 770.975165,84.0541242 C768.674243,84.6293444 766.660937,85.0607596 765.079053,85.3483697 C763.49717,85.6359797 762.202901,85.7797848 761.196248,85.7797848 C759.470557,85.7797848 758.032481,85.6359797 757.025828,85.4921747 C756.019175,85.3483697 755.300137,85.0607596 754.868714,84.6293444 C754.581099,84.3417343 754.293483,83.7665141 754.149676,83.0474889 C754.005868,82.3284637 753.862061,81.3218284 753.718253,80.0275829 C753.574446,79.8837779 753.430638,79.7399728 753.143023,79.7399728 L752.13637,79.7399728 L750.985909,79.7399728 C750.698294,79.7399728 750.554486,79.8837779 750.554486,80.0275829 C749.979256,82.7598788 749.547833,85.3483697 749.404025,87.7930554 C749.260218,90.2377412 749.260218,92.3948169 749.404025,94.4080876 C750.123063,94.9833077 751.273524,95.4147229 752.7116,95.702333 C754.149676,95.9899431 755.875367,96.1337481 757.888673,96.1337481 C760.189595,96.1337481 762.634324,95.846138 765.222861,95.4147229 C767.811397,94.9833077 770.543742,94.2642825 773.276086,93.4014522 C775.720815,92.682427 777.590314,91.9634018 779.02839,91.2443765 C780.466466,90.5253513 781.473119,89.9501311 781.904542,89.518716 C782.048349,89.0873009 782.192157,88.3682756 782.479772,87.5054453 C782.767387,86.6426151 783.055003,85.4921747 783.486425,84.0541242 C783.917848,82.1846586 784.349271,80.4589981 784.636886,79.0209476 C784.924501,77.5828972 785.068309,76.1448467 785.068309,74.8506013 C785.068309,71.3992802 784.493079,68.0917641 783.342618,64.784248 C782.192157,61.476732 780.466466,58.313021 778.165544,55.293115 L778.740775,55.0055049 Z M695.09269,55.0055049 C692.935576,52.129404 690.490847,49.5409131 687.90231,47.2400324 C685.313773,44.9391517 682.293814,42.925881 678.986239,41.3440255 C678.554816,41.0564154 678.123394,40.9126104 677.835779,41.0564154 C677.548163,41.2002205 677.404356,41.6316356 677.260548,42.2068558 L675.103434,51.5541838 C676.54151,52.273209 677.691971,52.8484292 678.554816,53.2798443 C679.417662,53.7112595 679.992892,53.9988696 680.280508,54.1426746 C681.430968,54.8616999 682.725237,55.7245301 684.019505,56.7311655 C685.313773,57.7378008 686.751849,59.0320462 688.189925,60.4700967 C690.347039,62.6271723 692.07273,65.0718581 693.366999,67.660349 C694.661267,70.2488398 695.524113,73.1249407 695.955536,76.1448467 C696.099343,77.2952871 696.243151,78.3019224 696.243151,79.0209476 C696.243151,79.7399728 696.099343,80.315193 695.955536,80.6028031 C695.66792,81.1780233 694.805075,81.7532435 693.366999,82.3284637 C691.928923,82.9036839 689.915617,83.4789041 687.32708,84.0541242 C685.026158,84.6293444 683.012852,85.0607596 681.430968,85.3483697 C679.849085,85.6359797 678.554816,85.7797848 677.548163,85.7797848 C675.822472,85.7797848 674.384396,85.6359797 673.377743,85.4921747 C672.37109,85.3483697 671.652052,85.0607596 671.220629,84.6293444 C670.933014,84.3417343 670.645399,83.7665141 670.501591,83.0474889 C670.357784,82.3284637 670.213976,81.3218284 670.070168,80.0275829 C669.926361,79.8837779 669.782553,79.7399728 669.494938,79.7399728 L668.488285,79.7399728 L667.337824,79.7399728 C667.050209,79.7399728 666.906401,79.8837779 666.906401,80.0275829 C666.331171,82.7598788 665.899748,85.3483697 665.75594,87.7930554 C665.612133,90.2377412 665.612133,92.3948169 665.75594,94.4080876 C666.474978,94.9833077 667.625439,95.4147229 669.063515,95.702333 C670.501591,95.9899431 672.227282,96.1337481 674.240589,96.1337481 C676.54151,96.1337481 678.986239,95.846138 681.574776,95.4147229 C684.163313,94.9833077 686.895657,94.2642825 689.628001,93.4014522 C692.07273,92.682427 693.942229,91.9634018 695.380305,91.2443765 C696.818381,90.5253513 697.825034,89.9501311 698.256457,89.518716 C698.400265,89.0873009 698.544072,88.3682756 698.831687,87.5054453 C699.119303,86.6426151 699.406918,85.4921747 699.838341,84.0541242 C700.269763,82.1846586 700.701186,80.4589981 700.988801,79.0209476 C701.276417,77.5828972 701.420224,76.1448467 701.420224,74.8506013 C701.420224,71.3992802 700.844994,68.0917641 699.694533,64.784248 C698.544072,61.476732 696.818381,58.313021 694.51746,55.293115 L695.09269,55.0055049 Z M611.444605,55.0055049 C609.287491,52.129404 606.842762,49.5409131 604.254225,47.2400324 C601.665689,44.9391517 598.645729,42.925881 595.338154,41.3440255 C594.906732,41.0564154 594.475309,40.9126104 594.187694,41.0564154 C593.900079,41.2002205 593.756271,41.6316356 593.612463,42.2068558 L591.455349,51.5541838 C592.893425,52.273209 594.043886,52.8484292 594.906732,53.2798443 C595.769577,53.7112595 596.344808,53.9988696 596.632423,54.1426746 C597.782884,54.8616999 599.077152,55.7245301 600.37142,56.7311655 C601.665689,57.7378008 603.103765,59.0320462 604.541841,60.4700967 C606.698955,62.6271723 608.424646,65.0718581 609.718914,67.660349 C611.013182,70.2488398 611.876028,73.1249407 612.307451,76.1448467 C612.451258,77.2952871 612.595066,78.3019224 612.595066,79.0209476 C612.595066,79.7399728 612.451258,80.315193 612.307451,80.6028031 C612.019836,81.1780233 611.15699,81.7532435 609.718914,82.3284637 C608.280838,82.9036839 606.267532,83.4789041 603.678995,84.0541242 C601.378074,84.6293444 599.364767,85.0607596 597.782884,85.3483697 C596.201,85.6359797 594.906732,85.7797848 593.900079,85.7797848 C592.174387,85.7797848 590.736311,85.6359797 589.729658,85.4921747 C588.723005,85.3483697 588.003967,85.0607596 587.572544,84.6293444 C587.284929,84.3417343 586.997314,83.7665141 586.853506,83.0474889 C586.709699,82.3284637 586.565891,81.3218284 586.422084,80.0275829 C586.278276,79.8837779 586.134468,79.7399728 585.846853,79.7399728 L584.8402,79.7399728 L583.689739,79.7399728 C583.402124,79.7399728 583.258316,79.8837779 583.258316,80.0275829 C582.683086,82.7598788 582.251663,85.3483697 582.107856,87.7930554 C581.964048,90.2377412 581.964048,92.3948169 582.107856,94.4080876 C582.826894,94.9833077 583.977354,95.4147229 585.41543,95.702333 C586.853506,95.9899431 588.579197,96.1337481 590.592504,96.1337481 C592.893425,96.1337481 595.338154,95.846138 597.926691,95.4147229 C600.515228,94.9833077 603.247572,94.2642825 605.979917,93.4014522 C608.424646,92.682427 610.294144,91.9634018 611.73222,91.2443765 C613.170296,90.5253513 614.17695,89.9501311 614.608372,89.518716 C614.75218,89.0873009 614.895987,88.3682756 615.183603,87.5054453 C615.471218,86.6426151 615.758833,85.4921747 616.190256,84.0541242 C616.621679,82.1846586 617.053101,80.4589981 617.340717,79.0209476 C617.628332,77.5828972 617.772139,76.1448467 617.772139,74.8506013 C617.772139,71.3992802 617.196909,68.0917641 616.046448,64.784248 C614.895987,61.476732 613.170296,58.313021 610.869375,55.293115 L611.444605,55.0055049 Z M821.523534,216.258897 C825.118724,216.258897 829.145337,215.971287 833.459564,215.539871 C837.773792,215.108456 842.519443,214.389431 847.552709,213.382796 C852.729782,212.37616 856.900202,211.369525 860.06397,210.506695 C863.227737,209.643865 865.384851,208.781034 866.535311,207.918204 C867.541965,207.199179 868.692425,205.185908 869.986694,201.878392 C871.280962,198.570876 872,196.269995 872,194.831945 C872,193.393894 871.568577,191.236819 870.705732,188.504523 C869.842886,185.772227 868.548618,182.320906 866.966734,178.294365 C866.822927,177.862949 866.679119,177.719144 866.535311,177.719144 C866.391504,177.719144 866.247696,177.862949 866.103889,178.294365 L860.783008,187.785498 C862.364891,190.661598 863.659159,193.106284 864.522005,194.97575 C865.384851,196.845215 865.816273,198.283266 865.816273,199.146096 C865.816273,200.008927 864.090582,200.871757 860.783008,201.878392 C857.475433,202.885027 852.442167,203.891663 845.68321,204.898298 C841.800405,205.473518 838.061407,205.904933 834.466218,206.192543 C830.871028,206.480154 827.275838,206.623959 823.824455,206.623959 C814.476962,206.623959 807.43039,205.473518 802.684739,203.172638 C797.939088,200.871757 795.638167,197.420436 795.638167,192.818674 C795.638167,192.099649 795.781974,190.949209 796.06959,189.511158 C796.357205,188.073108 796.932435,186.203642 797.651473,184.046566 C797.939088,183.039931 798.226703,182.177101 798.514319,181.458076 C798.801934,180.73905 799.089549,180.307635 799.233357,180.020025 C798.801934,179.58861 798.370511,179.301 797.795281,179.01339 C797.22005,178.72578 796.788627,178.581975 796.64482,178.581975 C796.213397,178.581975 795.638167,179.157195 794.919129,180.307635 C794.200091,181.458076 793.337245,183.183736 792.330592,185.484617 C791.180131,187.929303 790.317286,190.230183 789.742055,192.387259 C789.166825,194.544335 788.87921,196.557605 788.87921,198.427071 C788.87921,204.466883 791.611554,209.068644 796.932435,212.08855 C802.253316,215.108456 810.306541,216.690312 821.092111,216.690312 L821.523534,216.258897 Z M799.520972,180.73905 L799.520972,180.020025 C799.520972,179.87622 799.377164,179.732415 799.233357,179.732415 L798.945741,180.020025 C799.089549,180.16383 799.233357,180.307635 799.377164,180.45144 C799.520972,180.595245 799.520972,180.73905 799.520972,180.882855 L799.520972,180.73905 Z M827.994876,227.18808 L820.373073,234.953553 L828.570106,242 L835.760486,234.378333 L827.994876,227.18808 Z M718.557295,216.258897 C722.152485,216.258897 726.179098,215.971287 730.493326,215.539871 C734.807554,215.108456 739.553204,214.389431 744.58647,213.382796 C749.763544,212.37616 753.933964,211.369525 757.097731,210.506695 C760.261498,209.643865 762.418612,208.781034 763.569073,207.918204 C764.575726,207.199179 765.726187,205.185908 767.020455,201.878392 C768.314724,198.570876 769.033762,196.269995 769.033762,194.831945 C769.033762,193.393894 768.602339,191.236819 767.739493,188.504523 C766.876648,185.772227 765.582379,182.320906 764.000496,178.294365 C763.856688,177.862949 763.712881,177.719144 763.569073,177.719144 C763.425265,177.719144 763.281458,177.862949 763.13765,178.294365 L757.816769,187.785498 C759.398653,190.661598 760.692921,193.106284 761.555767,194.97575 C762.418612,196.845215 762.850035,198.283266 762.850035,199.146096 C762.850035,200.008927 761.124344,200.871757 757.816769,201.878392 C754.509194,202.885027 749.475929,203.891663 742.716972,204.898298 C738.834166,205.473518 735.095169,205.904933 731.499979,206.192543 C727.904789,206.480154 724.309599,206.623959 720.858217,206.623959 C711.510723,206.623959 704.464151,205.473518 699.7185,203.172638 C694.97285,200.871757 692.671928,197.420436 692.671928,192.818674 C692.671928,192.099649 692.815736,190.949209 693.103351,189.511158 C693.390966,188.073108 693.966197,186.203642 694.685235,184.046566 C694.97285,183.039931 695.260465,182.177101 695.54808,181.458076 C695.835695,180.73905 696.123311,180.307635 696.267118,180.020025 C695.835695,179.58861 695.404273,179.301 694.829042,179.01339 C694.253812,178.72578 693.822389,178.581975 693.678581,178.581975 C693.247159,178.581975 692.671928,179.157195 691.95289,180.307635 C691.233852,181.458076 690.371007,183.183736 689.364354,185.484617 C688.213893,187.929303 687.351047,190.230183 686.775817,192.387259 C686.200586,194.544335 685.912971,196.557605 685.912971,198.427071 C685.912971,204.466883 688.645316,209.068644 693.966197,212.08855 C699.287078,215.108456 707.340303,216.690312 718.125873,216.690312 L718.557295,216.258897 Z M696.554733,180.73905 L696.554733,180.020025 C696.554733,179.87622 696.410926,179.732415 696.267118,179.732415 L695.979503,180.020025 C696.123311,180.16383 696.267118,180.307635 696.410926,180.45144 C696.554733,180.595245 696.554733,180.73905 696.554733,180.882855 L696.554733,180.73905 Z M725.028637,227.18808 L717.406835,234.953553 L725.603868,242 L732.794247,234.378333 L725.028637,227.18808 Z M615.591057,216.258897 C619.186247,216.258897 623.21286,215.971287 627.527087,215.539871 C631.841315,215.108456 636.586966,214.389431 641.620232,213.382796 C646.797305,212.37616 650.967726,211.369525 654.131493,210.506695 C657.29526,209.643865 659.452374,208.781034 660.602834,207.918204 C661.609488,207.199179 662.759948,205.185908 664.054217,201.878392 C665.348485,198.570876 666.067523,196.269995 666.067523,194.831945 C666.067523,193.393894 665.6361,191.236819 664.773255,188.504523 C663.910409,185.772227 662.616141,182.320906 661.034257,178.294365 C660.89045,177.862949 660.746642,177.719144 660.602834,177.719144 C660.459027,177.719144 660.315219,177.862949 660.171412,178.294365 L654.850531,187.785498 C656.432414,190.661598 657.726683,193.106284 658.589528,194.97575 C659.452374,196.845215 659.883796,198.283266 659.883796,199.146096 C659.883796,200.008927 658.158105,200.871757 654.850531,201.878392 C651.542956,202.885027 646.50969,203.891663 639.750733,204.898298 C635.867928,205.473518 632.128931,205.904933 628.533741,206.192543 C624.938551,206.480154 621.343361,206.623959 617.891979,206.623959 C608.544485,206.623959 601.497913,205.473518 596.752262,203.172638 C592.006611,200.871757 589.70569,197.420436 589.70569,192.818674 C589.70569,192.099649 589.849497,190.949209 590.137113,189.511158 C590.424728,188.073108 590.999958,186.203642 591.718996,184.046566 C592.006611,183.039931 592.294227,182.177101 592.581842,181.458076 C592.869457,180.73905 593.157072,180.307635 593.30088,180.020025 C592.869457,179.58861 592.438034,179.301 591.862804,179.01339 C591.287573,178.72578 590.856151,178.581975 590.712343,178.581975 C590.28092,178.581975 589.70569,179.157195 588.986652,180.307635 C588.267614,181.458076 587.404768,183.183736 586.398115,185.484617 C585.247654,187.929303 584.384809,190.230183 583.809578,192.387259 C583.234348,194.544335 582.946733,196.557605 582.946733,198.427071 C582.946733,204.466883 585.679077,209.068644 590.999958,212.08855 C596.320839,215.108456 604.374065,216.690312 615.159634,216.690312 L615.591057,216.258897 Z M593.588495,180.73905 L593.588495,180.020025 C593.588495,179.87622 593.444687,179.732415 593.30088,179.732415 L593.013265,180.020025 C593.157072,180.16383 593.30088,180.307635 593.444687,180.45144 C593.588495,180.595245 593.588495,180.73905 593.588495,180.882855 L593.588495,180.73905 Z M622.062399,227.18808 L614.440596,234.953553 L622.637629,242 L629.828009,234.378333 L622.062399,227.18808 Z" id="د-د-د-د--ب-ب-ب-copy" fill="#000000"></path>
        <polygon id="←-copy-2" fill="#D0011B" transform="translate(440.500000, 164.500000) scale(-1, 1) translate(-440.500000, -164.500000) " points="372.379403 203 378.437773 196.367041 349.444146 169.402622 548 169.402622 548 159.597378 349.444146 159.597378 378.437773 132.632959 372.379403 126 333 164.21161 333 164.78839"></polygon>
    </g>
</svg>