<?xml version="1.0" encoding="UTF-8" standalone="no"?>
<svg width="459px" height="95px" viewBox="0 0 459 95" version="1.1" xmlns="http://www.w3.org/2000/svg" xmlns:xlink="http://www.w3.org/1999/xlink">
    <!-- Generator: Sketch 3.7.2 (28276) - http://www.bohemiancoding.com/sketch -->
    <title>directional-runs</title>
    <desc>Created with Sketch.</desc>
    <defs></defs>
    <g id="Directional-runs" stroke="none" stroke-width="1" fill="none" fill-rule="evenodd">
        <g id="Group-Copy" transform="translate(0.000000, -1.000000)">
            <path d="M0.32,39 L4.304,39 L4.304,24.168 L18.944,24.168 L18.944,39 L22.976,39 L22.976,7.512 L18.944,7.512 L18.944,20.712 L4.304,20.712 L4.304,7.512 L0.32,7.512 L0.32,39 Z M40.688,39.576 C43.856,39.576 46.352,38.472 48.368,37.176 L46.976,34.584 C45.248,35.688 43.376,36.408 41.168,36.408 C36.704,36.408 33.68,33.24 33.392,28.296 L49.136,28.296 C49.232,27.72 49.28,26.856 49.28,26.04 C49.28,19.368 45.92,15.096 39.968,15.096 C34.64,15.096 29.504,19.752 29.504,27.384 C29.504,35.016 34.448,39.576 40.688,39.576 L40.688,39.576 Z M33.344,25.464 C33.824,20.856 36.8,18.216 40.064,18.216 C43.712,18.216 45.824,20.76 45.824,25.464 L33.344,25.464 Z M59.216,39.576 C60.272,39.576 60.944,39.432 61.472,39.192 L60.944,36.216 C60.512,36.312 60.32,36.312 60.08,36.312 C59.504,36.312 58.976,35.832 58.976,34.584 L58.976,4.824 L55.04,4.824 L55.04,34.296 C55.04,37.704 56.24,39.576 59.216,39.576 L59.216,39.576 Z M71.456,39.576 C72.512,39.576 73.184,39.432 73.712,39.192 L73.184,36.216 C72.752,36.312 72.56,36.312 72.32,36.312 C71.744,36.312 71.216,35.832 71.216,34.584 L71.216,4.824 L67.28,4.824 L67.28,34.296 C67.28,37.704 68.48,39.576 71.456,39.576 L71.456,39.576 Z M88.592,39.576 C94.304,39.576 99.392,35.112 99.392,27.384 C99.392,19.56 94.304,15.096 88.592,15.096 C82.88,15.096 77.792,19.56 77.792,27.384 C77.792,35.112 82.88,39.576 88.592,39.576 L88.592,39.576 Z M88.592,36.312 C84.608,36.312 81.872,32.712 81.872,27.384 C81.872,22.008 84.608,18.36 88.592,18.36 C92.624,18.36 95.312,22.008 95.312,27.384 C95.312,32.712 92.624,36.312 88.592,36.312 L88.592,36.312 Z M115.136,39 L119.072,39 L119.072,15.672 L115.136,15.672 L115.136,39 Z M117.152,10.872 C118.688,10.872 119.888,9.816 119.888,8.328 C119.888,6.792 118.688,5.784 117.152,5.784 C115.616,5.784 114.416,6.792 114.416,8.328 C114.416,9.816 115.616,10.872 117.152,10.872 L117.152,10.872 Z M213.328,34.5507209 L213.328,34.456 L214.672,34.456 C216.528,34.456 217.936,33.88 218.896,32.792 C219.856,31.704 220.304,30.104 220.304,27.992 C220.496,27.928 220.688,27.864 220.88,27.8 C221.072,27.736 221.264,27.736 221.456,27.736 C221.648,27.736 221.84,27.736 222.032,27.8 C222.224,27.864 222.352,27.928 222.48,27.992 C222.48,29.336 222.544,30.424 222.608,31.256 C222.672,32.088 222.8,32.664 222.992,32.984 C223.248,33.432 223.632,33.816 224.08,34.072 C224.528,34.328 225.04,34.456 225.616,34.456 C226.96,34.456 228.048,33.944 228.816,32.856 C229.584,31.768 230.032,30.168 230.224,28.056 C230.416,27.928 230.608,27.864 230.736,27.8 C230.864,27.736 231.056,27.736 231.248,27.736 C231.44,27.736 231.632,27.736 231.824,27.8 C232.016,27.864 232.208,27.928 232.4,28.056 C232.4,29.08 232.464,29.976 232.528,30.744 C232.592,31.512 232.72,32.088 232.912,32.472 C233.168,33.112 233.552,33.624 234.064,33.944 C234.576,34.264 235.28,34.456 236.112,34.456 C236.688,34.456 237.264,34.328 237.84,34.136 C238.416,33.944 238.992,33.624 239.568,33.176 C240.016,32.856 240.4,32.536 240.656,32.216 C240.912,31.896 241.04,31.576 241.04,31.32 C241.04,31.128 240.784,30.68 240.336,29.976 C239.888,29.272 239.184,28.312 238.288,27.096 L240.144,22.552 C240.272,22.296 240.4,22.168 240.528,22.168 C240.656,22.168 240.784,22.232 240.912,22.424 C241.168,22.872 241.424,23.448 241.744,24.088 C242.064,24.728 242.384,25.432 242.704,26.264 L242.192,25.944 C242.512,26.904 242.768,27.736 242.96,28.504 C243.152,29.272 243.28,29.912 243.28,30.424 C243.28,31.256 243.088,32.088 242.704,32.984 C242.32,33.88 241.744,34.776 240.912,35.736 C240.08,36.76 239.184,37.528 238.288,38.04 C237.392,38.552 236.432,38.808 235.472,38.808 C234.384,38.808 233.424,38.488 232.528,37.848 C231.632,37.208 231.056,36.312 230.8,35.224 C230.16,36.44 229.456,37.336 228.624,37.912 C227.792,38.488 226.896,38.808 225.936,38.808 C224.848,38.808 223.888,38.488 223.056,37.912 C222.224,37.336 221.52,36.44 220.944,35.288 C220.304,36.44 219.536,37.336 218.64,37.912 C217.744,38.488 216.72,38.808 215.632,38.808 L215.44,38.808 L215.44,39.064 L213.584,39.064 C212.368,39.064 211.344,38.616 210.448,37.72 C209.552,36.824 208.848,35.48 208.336,33.752 C207.888,32.408 207.568,30.808 207.376,29.016 C207.184,27.224 207.056,25.24 207.056,23 L207.056,20.952 C207.056,19.608 207.12,17.56 207.184,14.808 C206.352,18.456 205.392,21.656 204.304,24.408 C203.216,27.16 202,29.464 200.72,31.32 C199.888,32.536 198.864,33.688 197.712,34.776 C196.56,35.864 195.216,36.952 193.68,37.976 C192.912,38.168 192.016,38.36 191.056,38.488 C190.096,38.616 189.008,38.744 187.856,38.872 C187.28,38.936 186.32,39 184.976,39 C183.632,39 181.84,38.936 179.6,38.872 L179.216,38.872 C179.152,38.872 179.088,38.808 179.088,38.744 C179.088,38.552 179.344,38.36 179.856,38.104 C180.368,37.848 181.136,37.528 182.16,37.208 C184.016,36.632 185.424,36.184 186.448,35.864 C187.472,35.544 188.112,35.288 188.368,35.16 C190.352,34.392 192.08,33.624 193.552,32.856 C195.024,32.088 196.176,31.32 197.072,30.552 C196.88,29.464 196.688,28.568 196.496,27.928 C196.304,27.288 196.176,26.84 196.112,26.584 C195.6,25.24 194.896,23.832 194,22.36 C193.104,20.888 192.016,19.352 190.736,17.688 C190.608,17.56 190.224,17.176 189.584,16.472 C188.944,15.768 188.048,14.808 186.832,13.592 L185.616,14.36 C184.272,13.144 183.248,12.184 182.544,11.48 C181.84,10.776 181.52,10.328 181.52,10.136 C181.52,9.688 181.648,8.984 181.84,7.96 C182.032,6.936 182.352,5.656 182.736,4.12 C182.8,3.928 182.864,3.864 182.992,3.864 C183.12,3.864 183.312,3.928 183.504,4.12 C184.976,5.336 186.576,6.872 188.24,8.728 C189.904,10.584 191.696,12.696 193.552,15.128 C194.448,16.28 195.216,17.432 195.856,18.52 C196.496,19.608 197.008,20.696 197.456,21.784 C197.776,22.616 198.032,23.576 198.288,24.664 C198.544,25.752 198.8,26.968 198.992,28.312 C200.464,26.072 201.872,23 203.152,19.096 C204.432,15.192 205.648,10.392 206.736,4.76 C207.184,4.184 207.632,3.608 208.08,3.032 C208.528,2.456 208.976,1.88 209.424,1.368 C209.488,1.304 209.552,1.24 209.616,1.176 C209.68,1.112 209.744,1.048 209.808,0.984 C209.872,1.048 209.936,1.112 209.936,1.24 L209.936,1.752 C209.936,3.352 210,6.168 210.128,10.2 C210.256,14.232 210.384,19.416 210.512,25.752 C210.576,28.696 210.896,30.936 211.472,32.408 C211.929304,33.5766647 212.54797,34.3015809 213.328,34.5507209 Z M133.04,39.576 C138.56,39.576 141.584,36.408 141.584,32.616 C141.584,28.2 137.84,26.808 134.48,25.56 C131.84,24.552 129.296,23.736 129.296,21.528 C129.296,19.752 130.64,18.168 133.568,18.168 C135.632,18.168 137.312,19.032 138.896,20.232 L140.768,17.736 C138.992,16.296 136.448,15.096 133.52,15.096 C128.48,15.096 125.504,17.976 125.504,21.72 C125.504,25.656 129.152,27.24 132.464,28.44 C135.008,29.4 137.792,30.456 137.792,32.856 C137.792,34.872 136.256,36.504 133.184,36.504 C130.4,36.504 128.336,35.352 126.32,33.72 L124.352,36.36 C126.56,38.184 129.728,39.576 133.04,39.576 Z M164.752,31.32 C164.56,31 164.432,30.488 164.368,29.784 C164.304,29.08 164.24,28.248 164.24,27.224 C164.24,26.84 164.368,26.52 164.56,26.328 C164.752,26.136 165.072,26.008 165.52,26.008 C167.312,26.008 168.848,26.392 170.128,27.16 C171.408,27.928 172.432,29.08 173.2,30.68 C171.856,30.616 170.512,30.68 169.104,30.808 C167.696,30.936 166.224,31.128 164.688,31.32 L164.752,31.32 Z M160.528,51.48 L160.528,50.776 L160.528,50.008 C160.528,49.432 160.464,48.472 160.4,47.064 C160.336,45.656 160.208,43.864 160.08,41.688 C160.016,40.664 159.952,39.832 159.888,39.128 C159.824,38.424 159.76,37.912 159.696,37.528 C159.888,37.272 160.272,37.016 160.848,36.76 C161.424,36.504 162.192,36.248 163.152,35.992 C164.176,35.672 165.2,35.416 166.16,35.224 C167.12,35.032 168.016,34.904 168.848,34.84 C169.168,34.776 169.488,34.712 169.744,34.712 L170.32,34.712 L171.408,34.712 L172.496,34.712 L172.624,34.712 C173.2,34.712 173.648,34.648 173.968,34.584 C174.288,34.52 174.48,34.392 174.544,34.264 C174.8,33.752 175.184,32.792 175.632,31.448 C176.08,30.104 176.336,29.208 176.336,28.76 C176.336,28.44 176.208,27.992 175.952,27.48 C175.696,26.968 175.248,26.392 174.672,25.688 C174.16,25.112 173.712,24.6 173.264,24.216 C172.816,23.832 172.432,23.512 172.048,23.32 C171.088,22.68 170.064,22.168 169.04,21.848 C168.016,21.528 166.992,21.336 165.968,21.336 C165.264,21.336 164.624,21.528 164.048,21.848 C163.472,22.168 162.96,22.68 162.512,23.32 C162.128,23.896 161.808,24.536 161.616,25.176 C161.424,25.816 161.296,26.52 161.296,27.224 C161.296,27.928 161.36,28.696 161.552,29.464 C161.744,30.232 162,31 162.32,31.832 L159.952,33.048 C159.376,33.368 158.928,33.624 158.608,33.88 C158.288,34.136 158.032,34.392 157.904,34.584 C157.712,35.288 157.52,36.056 157.328,36.824 C157.136,37.592 156.944,38.296 156.752,39 C156.944,39.96 157.136,40.984 157.264,42.072 C157.392,43.16 157.456,44.248 157.52,45.4 C157.584,46.872 157.648,48.408 157.648,50.008 C157.648,51.608 157.712,53.272 157.776,55 C158.224,54.744 158.8,54.168 159.504,53.336 C160.208,52.504 160.592,51.864 160.592,51.416 L160.528,51.48 Z M257.328,39 L261.264,39 L261.264,15.672 L257.328,15.672 L257.328,39 Z M259.344,10.872 C260.88,10.872 262.08,9.816 262.08,8.328 C262.08,6.792 260.88,5.784 259.344,5.784 C257.808,5.784 256.608,6.792 256.608,8.328 C256.608,9.816 257.808,10.872 259.344,10.872 L259.344,10.872 Z M269.136,39 L273.072,39 L273.072,22.104 C275.424,19.752 277.056,18.504 279.456,18.504 C282.528,18.504 283.872,20.376 283.872,24.744 L283.872,39 L287.808,39 L287.808,24.216 C287.808,18.264 285.6,15.096 280.704,15.096 C277.488,15.096 275.088,16.824 272.88,19.032 L272.736,19.032 L272.4,15.672 L269.136,15.672 L269.136,39 Z M305.376,39 L309.36,39 L309.36,26.52 L314.544,26.52 C321.456,26.52 326.16,23.4 326.16,16.776 C326.16,9.864 321.408,7.512 314.352,7.512 L305.376,7.512 L305.376,39 Z M309.36,23.256 L309.36,10.728 L313.872,10.728 C319.392,10.728 322.176,12.216 322.176,16.776 C322.176,21.24 319.536,23.256 314.064,23.256 L309.36,23.256 Z M340.464,39.576 C343.632,39.576 346.128,38.472 348.144,37.176 L346.752,34.584 C345.024,35.688 343.152,36.408 340.944,36.408 C336.48,36.408 333.456,33.24 333.168,28.296 L348.912,28.296 C349.008,27.72 349.056,26.856 349.056,26.04 C349.056,19.368 345.696,15.096 339.744,15.096 C334.416,15.096 329.28,19.752 329.28,27.384 C329.28,35.016 334.224,39.576 340.464,39.576 L340.464,39.576 Z M333.12,25.464 C333.6,20.856 336.576,18.216 339.84,18.216 C343.488,18.216 345.6,20.76 345.6,25.464 L333.12,25.464 Z M354.816,39 L358.752,39 L358.752,24.024 C360.336,20.088 362.688,18.648 364.656,18.648 C365.616,18.648 366.144,18.792 366.912,19.032 L367.68,15.576 C366.912,15.24 366.192,15.096 365.184,15.096 C362.544,15.096 360.144,16.968 358.56,19.896 L358.416,19.896 L358.08,15.672 L354.816,15.672 L354.816,39 Z M377.376,39.576 C382.896,39.576 385.92,36.408 385.92,32.616 C385.92,28.2 382.176,26.808 378.816,25.56 C376.176,24.552 373.632,23.736 373.632,21.528 C373.632,19.752 374.976,18.168 377.904,18.168 C379.968,18.168 381.648,19.032 383.232,20.232 L385.104,17.736 C383.328,16.296 380.784,15.096 377.856,15.096 C372.816,15.096 369.84,17.976 369.84,21.72 C369.84,25.656 373.488,27.24 376.8,28.44 C379.344,29.4 382.128,30.456 382.128,32.856 C382.128,34.872 380.592,36.504 377.52,36.504 C374.736,36.504 372.672,35.352 370.656,33.72 L368.688,36.36 C370.896,38.184 374.064,39.576 377.376,39.576 L377.376,39.576 Z M391.392,39 L395.328,39 L395.328,15.672 L391.392,15.672 L391.392,39 Z M393.408,10.872 C394.944,10.872 396.144,9.816 396.144,8.328 C396.144,6.792 394.944,5.784 393.408,5.784 C391.872,5.784 390.672,6.792 390.672,8.328 C390.672,9.816 391.872,10.872 393.408,10.872 L393.408,10.872 Z M408.576,39.576 C411.504,39.576 414.096,38.04 416.304,36.216 L416.448,36.216 L416.784,39 L420.048,39 L420.048,24.696 C420.048,18.888 417.648,15.096 411.936,15.096 C408.192,15.096 404.928,16.728 402.768,18.12 L404.304,20.856 C406.128,19.608 408.576,18.36 411.264,18.36 C415.104,18.36 416.064,21.24 416.064,24.216 C406.128,25.32 401.76,27.864 401.76,32.952 C401.76,37.128 404.688,39.576 408.576,39.576 L408.576,39.576 Z M409.728,36.408 C407.424,36.408 405.6,35.304 405.6,32.664 C405.6,29.688 408.288,27.768 416.064,26.808 L416.064,33.288 C413.808,35.304 411.984,36.408 409.728,36.408 L409.728,36.408 Z M427.392,39 L431.328,39 L431.328,22.104 C433.68,19.752 435.312,18.504 437.712,18.504 C440.784,18.504 442.128,20.376 442.128,24.744 L442.128,39 L446.064,39 L446.064,24.216 C446.064,18.264 443.856,15.096 438.96,15.096 C435.744,15.096 433.344,16.824 431.136,19.032 L430.992,19.032 L430.656,15.672 L427.392,15.672 L427.392,39 Z M455.712,39.576 C457.248,39.576 458.544,38.328 458.544,36.6 C458.544,34.776 457.248,33.528 455.712,33.528 C454.128,33.528 452.832,34.776 452.832,36.6 C452.832,38.328 454.128,39.576 455.712,39.576 L455.712,39.576 Z" id="Hello-is-سلام-in-Per" fill="#000000"></path>
            <polygon id="←" fill="#D0011B" points="169.104 87.632 171.12 85.424 161.472 76.448 242.544 76.448 242.544 73.184 161.472 73.184 171.12 64.208 169.104 62 156 74.72 156 74.912"></polygon>
            <polygon id="←-copy" fill="#D0011B" transform="translate(70.772000, 74.816000) scale(-1, 1) translate(-70.772000, -74.816000) " points="13.104 87.632 15.12 85.424 5.472 76.448 141.544 76.448 141.544 73.184 5.472 73.184 15.12 64.208 13.104 62 0 74.72 0 74.912"></polygon>
            <polygon id="←-copy-2" fill="#D0011B" transform="translate(357.272000, 74.816000) scale(-1, 1) translate(-357.272000, -74.816000) " points="269.104 87.632 271.12 85.424 261.472 76.448 458.544 76.448 458.544 73.184 261.472 73.184 271.12 64.208 269.104 62 256 74.72 256 74.912"></polygon>
            <path d="M52.574,88.862 L52.574,83.84 L54.932,83.84 C57.02,83.84 58.19,84.488 58.19,86.27 C58.19,88.016 57.02,88.862 54.932,88.862 L52.574,88.862 Z M59.27,95 L55.994,89.492 C57.866,89.258 59.036,88.16 59.036,86.27 C59.036,84.002 57.506,83.138 55.148,83.138 L51.746,83.138 L51.746,95 L52.574,95 L52.574,89.546 L55.094,89.546 L58.316,95 L59.27,95 Z M63.932,95.216 C65.12,95.216 66.02,94.55 66.866,93.56 L66.902,93.56 L66.992,95 L67.658,95 L67.658,86.36 L66.866,86.36 L66.866,92.732 C65.858,93.956 65.102,94.496 64.076,94.496 C62.69,94.496 62.114,93.632 62.114,91.796 L62.114,86.36 L61.322,86.36 L61.322,91.904 C61.322,94.136 62.15,95.216 63.932,95.216 L63.932,95.216 Z M70.97,95 L71.762,95 L71.762,88.484 C72.824,87.404 73.562,86.864 74.588,86.864 C75.992,86.864 76.568,87.728 76.568,89.564 L76.568,95 L77.36,95 L77.36,89.456 C77.36,87.224 76.532,86.144 74.75,86.144 C73.562,86.144 72.662,86.81 71.78,87.692 L71.726,87.692 L71.654,86.36 L70.97,86.36 L70.97,95 Z M84.002,95 L90.014,95 L90.014,94.298 L87.512,94.298 L87.512,83.498 L86.864,83.498 C86.324,83.804 85.586,84.056 84.65,84.218 L84.65,84.758 L86.702,84.758 L86.702,94.298 L84.002,94.298 L84.002,95 Z" id="Run-1" fill="#000000"></path>
            <path d="M180.574,88.862 L180.574,83.84 L182.932,83.84 C185.02,83.84 186.19,84.488 186.19,86.27 C186.19,88.016 185.02,88.862 182.932,88.862 L180.574,88.862 Z M187.27,95 L183.994,89.492 C185.866,89.258 187.036,88.16 187.036,86.27 C187.036,84.002 185.506,83.138 183.148,83.138 L179.746,83.138 L179.746,95 L180.574,95 L180.574,89.546 L183.094,89.546 L186.316,95 L187.27,95 Z M191.932,95.216 C193.12,95.216 194.02,94.55 194.866,93.56 L194.902,93.56 L194.992,95 L195.658,95 L195.658,86.36 L194.866,86.36 L194.866,92.732 C193.858,93.956 193.102,94.496 192.076,94.496 C190.69,94.496 190.114,93.632 190.114,91.796 L190.114,86.36 L189.322,86.36 L189.322,91.904 C189.322,94.136 190.15,95.216 191.932,95.216 L191.932,95.216 Z M198.97,95 L199.762,95 L199.762,88.484 C200.824,87.404 201.562,86.864 202.588,86.864 C203.992,86.864 204.568,87.728 204.568,89.564 L204.568,95 L205.36,95 L205.36,89.456 C205.36,87.224 204.532,86.144 202.75,86.144 C201.562,86.144 200.662,86.81 199.78,87.692 L199.726,87.692 L199.654,86.36 L198.97,86.36 L198.97,95 Z M211.228,95 L218.284,95 L218.284,94.28 L214.36,94.28 C213.73,94.28 213.064,94.334 212.434,94.37 C215.62,90.986 217.708,88.79 217.708,86.504 C217.708,84.56 216.52,83.282 214.468,83.282 C213.064,83.282 212.056,84.02 211.192,84.974 L211.714,85.478 C212.416,84.614 213.352,83.966 214.396,83.966 C216.124,83.966 216.898,85.082 216.898,86.522 C216.898,88.52 215.008,90.662 211.228,94.496 L211.228,95 Z" id="Run-2" fill="#000000"></path>
            <path d="M338.574,88.862 L338.574,83.84 L340.932,83.84 C343.02,83.84 344.19,84.488 344.19,86.27 C344.19,88.016 343.02,88.862 340.932,88.862 L338.574,88.862 Z M345.27,95 L341.994,89.492 C343.866,89.258 345.036,88.16 345.036,86.27 C345.036,84.002 343.506,83.138 341.148,83.138 L337.746,83.138 L337.746,95 L338.574,95 L338.574,89.546 L341.094,89.546 L344.316,95 L345.27,95 Z M349.932,95.216 C351.12,95.216 352.02,94.55 352.866,93.56 L352.902,93.56 L352.992,95 L353.658,95 L353.658,86.36 L352.866,86.36 L352.866,92.732 C351.858,93.956 351.102,94.496 350.076,94.496 C348.69,94.496 348.114,93.632 348.114,91.796 L348.114,86.36 L347.322,86.36 L347.322,91.904 C347.322,94.136 348.15,95.216 349.932,95.216 L349.932,95.216 Z M356.97,95 L357.762,95 L357.762,88.484 C358.824,87.404 359.562,86.864 360.588,86.864 C361.992,86.864 362.568,87.728 362.568,89.564 L362.568,95 L363.36,95 L363.36,89.456 C363.36,87.224 362.532,86.144 360.75,86.144 C359.562,86.144 358.662,86.81 357.78,87.692 L357.726,87.692 L357.654,86.36 L356.97,86.36 L356.97,95 Z M372.666,95.216 C374.646,95.216 376.176,93.956 376.176,91.958 C376.176,90.338 374.988,89.276 373.566,88.97 L373.566,88.898 C374.826,88.466 375.762,87.566 375.762,86.054 C375.762,84.29 374.394,83.282 372.612,83.282 C371.28,83.282 370.29,83.912 369.498,84.686 L369.966,85.226 C370.632,84.524 371.55,83.966 372.612,83.966 C374.016,83.966 374.934,84.812 374.934,86.108 C374.934,87.494 373.998,88.61 371.334,88.61 L371.334,89.312 C374.214,89.312 375.348,90.392 375.348,91.976 C375.348,93.506 374.214,94.514 372.666,94.514 C371.082,94.514 370.164,93.794 369.48,93.038 L369.012,93.596 C369.75,94.37 370.83,95.216 372.666,95.216 L372.666,95.216 Z" id="Run-3" fill="#000000"></path>
        </g>
    </g>
</svg>