<?xml version="1.0" encoding="UTF-8"?>
<svg width="713px" height="158px" viewBox="0 0 713 158" version="1.1" xmlns="http://www.w3.org/2000/svg" xmlns:xlink="http://www.w3.org/1999/xlink">
    <!-- Generator: Sketch 3.7.2 (28276) - http://www.bohemiancoding.com/sketch -->
    <title>joining-and-text-border</title>
    <desc>Created with Sketch.</desc>
    <defs></defs>
    <g id="Page-1" stroke="none" stroke-width="1" fill="none" fill-rule="evenodd">
        <g id="Text-border-(export)" transform="translate(-1.000000, 2.000000)" fill="#000000">
            <g id="Group">
                <path d="M44.2984104,76.064 L46.432,76.064 C47.584,76.064 49.024,75.488 50.752,74.192 C52.48,72.896 54.496,71.024 56.8,68.576 C59.68,65.408 62.128,62.816 64.144,60.944 C66.16,59.072 67.6,57.776 68.608,57.2 C69.616,56.624 70.624,56.192 71.632,55.904 C72.64,55.616 73.792,55.472 74.944,55.472 C76.096,55.472 77.104,55.616 77.824,55.76 C78.544,55.904 79.12,56.192 79.408,56.48 C80.992,58.352 82.576,60.224 84.16,62.096 C85.744,63.968 87.328,65.984 88.912,68 C91.072,70.736 93.232,72.752 95.248,74.048 C97.264,75.344 99.136,76.064 101.008,76.064 L101.728,76.064 L102.448,76.064 C103.456,76.064 104.608,75.92 105.76,75.632 C106.912,75.344 108.064,75.056 109.36,74.624 C110.944,74.192 112.24,73.616 113.104,72.896 C113.968,72.176 114.4,71.456 114.256,70.736 L111.664,26.672 C111.52,23.936 111.376,21.344 111.088,18.896 C110.8,16.448 110.512,14.144 110.224,11.984 C110.224,11.84 110.512,11.408 110.944,10.688 C111.376,9.968 112.096,8.96 112.96,7.664 C113.392,6.944 113.968,6.08 114.544,5.072 C115.12,4.064 115.84,2.912 116.704,1.616 C116.848,1.472 116.992,1.328 117.136,1.184 C117.28,1.04 117.424,0.896 117.568,0.752 C117.712,0.896 117.856,1.04 117.856,1.328 L117.856,2.48 C118.576,22.208 119.152,37.472 119.728,48.128 C120.304,58.784 120.736,64.832 120.88,66.128 C121.456,69.44 122.32,71.888 123.472,73.616 C124.624,75.344 126.064,76.208 127.936,76.208 L131.248,76.208 L131.239403,76.496 L131.392,76.496 C135.856,76.496 139.888,76.064 143.488,75.2 C147.088,74.336 150.256,73.04 152.992,71.456 C154.432,70.592 155.584,69.728 156.304,69.008 C157.024,68.288 157.456,67.568 157.456,66.848 C157.456,64.4 156.592,61.952 154.864,59.36 C153.136,56.768 150.4,54.176 146.8,51.584 C145.792,50.864 144.496,50 142.912,48.992 C141.328,47.984 139.456,46.832 137.296,45.536 C135.712,44.528 134.56,43.808 133.84,43.232 C133.12,42.656 132.688,42.224 132.688,41.936 C132.688,41.216 132.688,40.352 132.832,39.2 C132.976,38.048 133.12,36.752 133.264,35.168 C133.408,33.296 133.552,31.856 133.696,30.848 C133.84,29.84 133.984,29.264 134.128,29.12 C140.608,24.368 147.664,19.616 155.44,15.008 C163.216,10.4 171.712,5.936 180.784,1.472 C181.36,1.184 181.792,1.04 182.224,0.896 C182.656,0.752 182.944,0.752 183.088,0.752 L183.376,0.752 L183.376,1.04 C183.376,1.184 183.232,1.472 183.088,1.76 C182.944,2.048 182.8,2.48 182.656,2.912 L182.368,3.2 C181.936,4.064 181.36,5.36 180.496,7.088 C179.632,8.816 178.624,10.832 177.328,13.28 C168.976,17.456 161.488,21.344 154.864,25.088 C148.24,28.832 142.48,32.432 137.728,35.888 C138.448,36.32 139.456,36.896 140.752,37.616 C142.048,38.336 143.488,39.344 145.216,40.496 C147.376,41.792 149.392,43.232 151.264,44.672 C153.136,46.112 154.864,47.696 156.448,49.424 C158.32,51.584 159.76,53.744 160.624,55.904 C161.488,58.064 161.92,60.08 161.92,62.096 C161.92,65.408 161.776,68 161.632,70.016 C161.488,72.032 161.2,73.472 160.768,74.192 C158.464,78.224 154.864,81.248 149.824,83.264 C144.784,85.28 138.448,86.288 130.816,86.288 L127.648,86.288 L127.648,85.856 C125.2,85.856 123.04,85.136 121.312,83.696 C119.584,82.256 118.144,80.096 117.136,77.36 C115.264,80.096 113.104,82.256 110.512,83.696 C107.92,85.136 105.04,85.856 101.872,85.856 L99.136,85.856 L99.136,85.4187155 C97.4885138,85.3585321 95.7125138,84.7842936 93.808,83.696 C91.792,82.544 89.632,80.816 87.328,78.512 C87.184,78.944 86.752,79.664 86.176,80.672 C85.6,81.68 84.88,82.976 84.016,84.56 C83.008,86.144 82.144,87.44 81.568,88.304 C80.992,89.168 80.56,89.6 80.416,89.6 C78.544,89.6 76.528,89.312 74.368,88.736 C72.208,88.16 69.904,87.152 67.6,85.856 C65.44,84.56 63.424,83.264 61.696,81.824 C59.968,80.384 58.384,78.944 57.088,77.36 C55.216,80.096 53.488,82.256 51.904,83.696 C50.4311858,85.034922 48.9583715,85.7513745 47.6013126,85.8453575 L47.584,86.144 L45.28,86.144 C43.12,86.144 41.248,85.712 39.664,84.992 C38.08,84.272 36.64,83.12 35.488,81.68 C34.624,80.672 33.76,79.376 33.04,77.648 C32.32,75.92 31.6,73.904 30.88,71.456 C29.872,72.608 28.864,73.76 27.856,74.912 C26.848,76.064 25.696,77.216 24.4,78.368 C22.528,78.512 20.512,78.512 18.352,78.368 C16.192,78.224 13.744,77.792 11.152,77.216 C7.84,76.64 5.248,75.92 3.52,74.912 C1.792,73.904 0.928,72.752 0.928,71.456 C0.928,71.024 1.648,68.864 2.944,64.832 C4.24,60.8 4.96,58.784 5.104,58.64 C6.688,57.056 9.136,55.328 12.592,53.6 C16.048,51.872 20.368,50 25.696,48.128 L24.112,38.768 C24.256,38.336 24.688,37.328 25.408,35.888 C26.128,34.448 27.136,32.432 28.288,29.84 C28.72,28.832 29.008,28.832 29.152,29.696 C29.296,30.56 30.88,38.48 33.76,53.456 C34.48,56.768 35.056,59.504 35.632,61.664 C36.208,63.824 36.64,65.552 37.072,66.848 C38.08,69.872 39.376,72.176 40.816,73.76 C41.9143294,74.9681623 43.0964315,75.7574609 44.2984104,76.064 Z M70.768,76.784 C69.76,76.208 68.608,75.344 67.312,74.336 C66.016,73.328 64.576,72.176 62.992,70.88 C63.28,70.448 63.712,70.016 64.288,69.44 C64.864,68.864 65.584,68.288 66.448,67.568 C67.456,66.704 68.464,65.984 69.328,65.552 C70.192,65.12 71.056,64.832 71.776,64.832 C73.504,64.832 75.088,65.264 76.384,66.128 C77.68,66.992 78.832,68.288 79.696,70.016 C80.416,71.312 80.992,72.896 81.28,74.624 C81.568,76.352 81.712,78.08 81.568,79.952 C79.264,79.52 77.248,79.088 75.52,78.512 C73.792,77.936 72.208,77.36 70.912,76.64 L70.768,76.784 Z M9.568,65.84 C9.424,65.696 9.28,65.552 9.136,65.408 C8.992,65.264 8.992,65.12 8.992,64.976 C8.992,63.968 9.856,62.816 11.44,61.664 C13.024,60.512 15.472,59.216 18.64,57.92 L26.992,54.608 C27.712,58.208 28.432,61.232 29.008,63.68 C29.584,66.128 30.016,67.856 30.304,68.864 C24.976,68.72 20.512,68.432 17.056,68 C13.6,67.568 11.152,66.848 9.712,65.84 L9.568,65.84 Z" id="کلمه"></path>
                <path d="M51.16,150 L53.056,150 L53.056,141.768 C53.056,140.112 52.912,138.432 52.792,136.848 L52.888,136.848 L54.592,140.088 L60.304,150 L62.368,150 L62.368,134.256 L60.472,134.256 L60.472,142.392 C60.472,144.048 60.616,145.824 60.712,147.408 L60.616,147.408 L58.912,144.144 L53.224,134.256 L51.16,134.256 L51.16,150 Z M71.032,150.288 C73.888,150.288 76.432,148.056 76.432,144.192 C76.432,140.28 73.888,138.048 71.032,138.048 C68.176,138.048 65.632,140.28 65.632,144.192 C65.632,148.056 68.176,150.288 71.032,150.288 L71.032,150.288 Z M71.032,148.656 C69.04,148.656 67.672,146.856 67.672,144.192 C67.672,141.504 69.04,139.68 71.032,139.68 C73.048,139.68 74.392,141.504 74.392,144.192 C74.392,146.856 73.048,148.656 71.032,148.656 L71.032,148.656 Z M79.504,150 L81.472,150 L81.472,142.512 C82.264,140.544 83.44,139.824 84.424,139.824 C84.904,139.824 85.168,139.896 85.552,140.016 L85.936,138.288 C85.552,138.12 85.192,138.048 84.688,138.048 C83.368,138.048 82.168,138.984 81.376,140.448 L81.304,140.448 L81.136,138.336 L79.504,138.336 L79.504,150 Z M87.832,150 L89.8,150 L89.8,141.552 C90.88,140.352 91.864,139.752 92.728,139.752 C94.216,139.752 94.912,140.688 94.912,142.872 L94.912,150 L96.88,150 L96.88,141.552 C97.96,140.352 98.896,139.752 99.808,139.752 C101.272,139.752 101.968,140.688 101.968,142.872 L101.968,150 L103.936,150 L103.936,142.608 C103.936,139.632 102.784,138.048 100.384,138.048 C98.968,138.048 97.768,138.96 96.544,140.28 C96.064,138.888 95.104,138.048 93.328,138.048 C91.936,138.048 90.712,138.912 89.704,140.016 L89.632,140.016 L89.464,138.336 L87.832,138.336 L87.832,150 Z M110.416,150.288 C111.88,150.288 113.176,149.52 114.28,148.608 L114.352,148.608 L114.52,150 L116.152,150 L116.152,142.848 C116.152,139.944 114.952,138.048 112.096,138.048 C110.224,138.048 108.592,138.864 107.512,139.56 L108.28,140.928 C109.192,140.304 110.416,139.68 111.76,139.68 C113.68,139.68 114.16,141.12 114.16,142.608 C109.192,143.16 107.008,144.432 107.008,146.976 C107.008,149.064 108.472,150.288 110.416,150.288 L110.416,150.288 Z M110.992,148.704 C109.84,148.704 108.928,148.152 108.928,146.832 C108.928,145.344 110.272,144.384 114.16,143.904 L114.16,147.144 C113.032,148.152 112.12,148.704 110.992,148.704 L110.992,148.704 Z M121.912,150.288 C122.44,150.288 122.776,150.216 123.04,150.096 L122.776,148.608 C122.56,148.656 122.464,148.656 122.344,148.656 C122.056,148.656 121.792,148.416 121.792,147.792 L121.792,132.912 L119.824,132.912 L119.824,147.648 C119.824,149.352 120.424,150.288 121.912,150.288 L121.912,150.288 Z" id="Normal"></path>
            </g>
            <g id="Group-6" transform="translate(258.000000, 0.000000)">
                <path d="M50.2984104,76.064 L52.432,76.064 C53.584,76.064 55.024,75.488 56.752,74.192 C58.48,72.896 60.496,71.024 62.8,68.576 C65.68,65.408 68.128,62.816 70.144,60.944 C72.16,59.072 73.6,57.776 74.608,57.2 C75.616,56.624 76.624,56.192 77.632,55.904 C78.64,55.616 79.792,55.472 80.944,55.472 C82.096,55.472 83.104,55.616 83.824,55.76 C84.544,55.904 85.12,56.192 85.408,56.48 C86.992,58.352 88.576,60.224 90.16,62.096 C91.744,63.968 93.328,65.984 94.912,68 C97.072,70.736 99.232,72.752 101.248,74.048 C103.264,75.344 105.136,76.064 107.008,76.064 L107.728,76.064 L108.448,76.064 C109.456,76.064 110.608,75.92 111.76,75.632 C112.912,75.344 114.064,75.056 115.36,74.624 C116.944,74.192 118.24,73.616 119.104,72.896 C119.968,72.176 120.4,71.456 120.256,70.736 L117.664,26.672 C117.52,23.936 117.376,21.344 117.088,18.896 C116.8,16.448 116.512,14.144 116.224,11.984 C116.224,11.84 116.512,11.408 116.944,10.688 C117.376,9.968 118.096,8.96 118.96,7.664 C119.392,6.944 119.968,6.08 120.544,5.072 C121.12,4.064 121.84,2.912 122.704,1.616 C122.848,1.472 122.992,1.328 123.136,1.184 C123.28,1.04 123.424,0.896 123.568,0.752 C123.712,0.896 123.856,1.04 123.856,1.328 L123.856,2.48 C124.576,22.208 125.152,37.472 125.728,48.128 C126.304,58.784 126.736,64.832 126.88,66.128 C127.456,69.44 128.32,71.888 129.472,73.616 C130.624,75.344 132.064,76.208 133.936,76.208 L137.248,76.208 L137.239403,76.496 L137.392,76.496 C141.856,76.496 145.888,76.064 149.488,75.2 C153.088,74.336 156.256,73.04 158.992,71.456 C160.432,70.592 161.584,69.728 162.304,69.008 C163.024,68.288 163.456,67.568 163.456,66.848 C163.456,64.4 162.592,61.952 160.864,59.36 C159.136,56.768 156.4,54.176 152.8,51.584 C151.792,50.864 150.496,50 148.912,48.992 C147.328,47.984 145.456,46.832 143.296,45.536 C141.712,44.528 140.56,43.808 139.84,43.232 C139.12,42.656 138.688,42.224 138.688,41.936 C138.688,41.216 138.688,40.352 138.832,39.2 C138.976,38.048 139.12,36.752 139.264,35.168 C139.408,33.296 139.552,31.856 139.696,30.848 C139.84,29.84 139.984,29.264 140.128,29.12 C146.608,24.368 153.664,19.616 161.44,15.008 C169.216,10.4 177.712,5.936 186.784,1.472 C187.36,1.184 187.792,1.04 188.224,0.896 C188.656,0.752 188.944,0.752 189.088,0.752 L189.376,0.752 L189.376,1.04 C189.376,1.184 189.232,1.472 189.088,1.76 C188.944,2.048 188.8,2.48 188.656,2.912 L188.368,3.2 C187.936,4.064 187.36,5.36 186.496,7.088 C185.632,8.816 184.624,10.832 183.328,13.28 C174.976,17.456 167.488,21.344 160.864,25.088 C154.24,28.832 148.48,32.432 143.728,35.888 C144.448,36.32 145.456,36.896 146.752,37.616 C148.048,38.336 149.488,39.344 151.216,40.496 C153.376,41.792 155.392,43.232 157.264,44.672 C159.136,46.112 160.864,47.696 162.448,49.424 C164.32,51.584 165.76,53.744 166.624,55.904 C167.488,58.064 167.92,60.08 167.92,62.096 C167.92,65.408 167.776,68 167.632,70.016 C167.488,72.032 167.2,73.472 166.768,74.192 C164.464,78.224 160.864,81.248 155.824,83.264 C150.784,85.28 144.448,86.288 136.816,86.288 L133.648,86.288 L133.648,85.856 C131.2,85.856 129.04,85.136 127.312,83.696 C125.584,82.256 124.144,80.096 123.136,77.36 C121.264,80.096 119.104,82.256 116.512,83.696 C113.92,85.136 111.04,85.856 107.872,85.856 L105.136,85.856 L105.136,85.4187155 C103.488514,85.3585321 101.712514,84.7842936 99.808,83.696 C97.792,82.544 95.632,80.816 93.328,78.512 C93.184,78.944 92.752,79.664 92.176,80.672 C91.6,81.68 90.88,82.976 90.016,84.56 C89.008,86.144 88.144,87.44 87.568,88.304 C86.992,89.168 86.56,89.6 86.416,89.6 C84.544,89.6 82.528,89.312 80.368,88.736 C78.208,88.16 75.904,87.152 73.6,85.856 C71.44,84.56 69.424,83.264 67.696,81.824 C65.968,80.384 64.384,78.944 63.088,77.36 C61.216,80.096 59.488,82.256 57.904,83.696 C56.4311858,85.034922 54.9583715,85.7513745 53.6013126,85.8453575 L53.584,86.144 L51.28,86.144 C49.12,86.144 47.248,85.712 45.664,84.992 C44.08,84.272 42.64,83.12 41.488,81.68 C40.624,80.672 39.76,79.376 39.04,77.648 C38.32,75.92 37.6,73.904 36.88,71.456 C35.872,72.608 34.864,73.76 33.856,74.912 C32.848,76.064 31.696,77.216 30.4,78.368 C28.528,78.512 26.512,78.512 24.352,78.368 C22.192,78.224 19.744,77.792 17.152,77.216 C13.84,76.64 11.248,75.92 9.52,74.912 C7.792,73.904 6.928,72.752 6.928,71.456 C6.928,71.024 7.648,68.864 8.944,64.832 C10.24,60.8 10.96,58.784 11.104,58.64 C12.688,57.056 15.136,55.328 18.592,53.6 C22.048,51.872 26.368,50 31.696,48.128 L30.112,38.768 C30.256,38.336 30.688,37.328 31.408,35.888 C32.128,34.448 33.136,32.432 34.288,29.84 C34.72,28.832 35.008,28.832 35.152,29.696 C35.296,30.56 36.88,38.48 39.76,53.456 C40.48,56.768 41.056,59.504 41.632,61.664 C42.208,63.824 42.64,65.552 43.072,66.848 C44.08,69.872 45.376,72.176 46.816,73.76 C47.9143294,74.9681623 49.0964315,75.7574609 50.2984104,76.064 Z M76.768,76.784 C75.76,76.208 74.608,75.344 73.312,74.336 C72.016,73.328 70.576,72.176 68.992,70.88 C69.28,70.448 69.712,70.016 70.288,69.44 C70.864,68.864 71.584,68.288 72.448,67.568 C73.456,66.704 74.464,65.984 75.328,65.552 C76.192,65.12 77.056,64.832 77.776,64.832 C79.504,64.832 81.088,65.264 82.384,66.128 C83.68,66.992 84.832,68.288 85.696,70.016 C86.416,71.312 86.992,72.896 87.28,74.624 C87.568,76.352 87.712,78.08 87.568,79.952 C85.264,79.52 83.248,79.088 81.52,78.512 C79.792,77.936 78.208,77.36 76.912,76.64 L76.768,76.784 Z M15.568,65.84 C15.424,65.696 15.28,65.552 15.136,65.408 C14.992,65.264 14.992,65.12 14.992,64.976 C14.992,63.968 15.856,62.816 17.44,61.664 C19.024,60.512 21.472,59.216 24.64,57.92 L32.992,54.608 C33.712,58.208 34.432,61.232 35.008,63.68 C35.584,66.128 36.016,67.856 36.304,68.864 C30.976,68.72 26.512,68.432 23.056,68 C19.6,67.568 17.152,66.848 15.712,65.84 L15.568,65.84 Z" id="کلمه-copy-3"></path>
                <path d="M188.656,2.912 C188.8,2.48 188.944,2.048 189.088,1.76 C189.232,1.472 189.376,1.184 189.376,1.04 L189.376,0.752 L189.088,0.752 C188.944,0.752 188.656,0.752 188.224,0.896 C187.792,1.04 187.36,1.184 186.784,1.472 C177.712,5.936 169.216,10.4 161.44,15.008 C153.664,19.616 146.608,24.368 140.128,29.12 C139.984,29.264 139.84,29.84 139.696,30.848 C139.552,31.856 139.408,33.296 139.264,35.168 C139.12,36.752 138.976,38.048 138.832,39.2 C138.688,40.352 138.688,41.216 138.688,41.936 C138.688,42.224 139.12,42.656 139.84,43.232 C140.56,43.808 141.712,44.528 143.296,45.536 C145.456,46.832 147.328,47.984 148.912,48.992 C150.496,50 151.792,50.864 152.8,51.584 C156.4,54.176 159.136,56.768 160.864,59.36 C162.592,61.952 163.456,64.4 163.456,66.848 C163.456,67.568 163.024,68.288 162.304,69.008 C161.584,69.728 160.432,70.592 158.992,71.456 C156.256,73.04 153.088,74.336 149.488,75.2 C145.888,76.064 141.856,76.496 137.392,76.496 L133.648,76.496 L133.648,86.288 L136.816,86.288 C144.448,86.288 150.784,85.28 155.824,83.264 C160.864,81.248 164.464,78.224 166.768,74.192 C167.2,73.472 167.488,72.032 167.632,70.016 C167.776,68 167.92,65.408 167.92,62.096 C167.92,60.08 167.488,58.064 166.624,55.904 C165.76,53.744 164.32,51.584 162.448,49.424 C160.864,47.696 159.136,46.112 157.264,44.672 C155.392,43.232 153.376,41.792 151.216,40.496 C149.488,39.344 148.048,38.336 146.752,37.616 C145.456,36.896 144.448,36.32 143.728,35.888 C148.48,32.432 154.24,28.832 160.864,25.088 C167.488,21.344 174.976,17.456 183.328,13.28 C184.624,10.832 185.632,8.816 186.496,7.088 C187.36,5.36 187.936,4.064 188.368,3.2 L188.656,2.912 Z M137.248,76.208 L133.936,76.208 C132.064,76.208 130.624,75.344 129.472,73.616 C128.32,71.888 127.456,69.44 126.88,66.128 C126.736,64.832 126.304,58.784 125.728,48.128 C125.152,37.472 124.576,22.208 123.856,2.48 L123.856,1.328 C123.856,1.04 123.712,0.896 123.568,0.752 C123.424,0.896 123.28,1.04 123.136,1.184 C122.992,1.328 122.848,1.472 122.704,1.616 C121.84,2.912 121.12,4.064 120.544,5.072 C119.968,6.08 119.392,6.944 118.96,7.664 C118.096,8.96 117.376,9.968 116.944,10.688 C116.512,11.408 116.224,11.84 116.224,11.984 C116.512,14.144 116.8,16.448 117.088,18.896 C117.376,21.344 117.52,23.936 117.664,26.672 L120.256,70.736 C120.4,71.456 119.968,72.176 119.104,72.896 C118.24,73.616 116.944,74.192 115.36,74.624 C114.064,75.056 112.912,75.344 111.76,75.632 C110.608,75.92 109.456,76.064 108.448,76.064 L105.136,76.064 L105.136,85.856 L107.872,85.856 C111.04,85.856 113.92,85.136 116.512,83.696 C119.104,82.256 121.264,80.096 123.136,77.36 C124.144,80.096 125.584,82.256 127.312,83.696 C129.04,85.136 131.2,85.856 133.648,85.856 L136.96,85.856 L137.248,76.208 Z M109.456,76.064 L107.008,76.064 C105.136,76.064 103.264,75.344 101.248,74.048 C99.232,72.752 97.072,70.736 94.912,68 C93.328,65.984 91.744,63.968 90.16,62.096 C88.576,60.224 86.992,58.352 85.408,56.48 C85.12,56.192 84.544,55.904 83.824,55.76 C83.104,55.616 82.096,55.472 80.944,55.472 C79.792,55.472 78.64,55.616 77.632,55.904 C76.624,56.192 75.616,56.624 74.608,57.2 C73.6,57.776 72.16,59.072 70.144,60.944 C68.128,62.816 65.68,65.408 62.8,68.576 C60.496,71.024 58.48,72.896 56.752,74.192 C55.024,75.488 53.584,76.064 52.432,76.064 L50.128,76.064 L50.128,85.856 L53.296,85.856 C54.736,85.856 56.32,85.136 57.904,83.696 C59.488,82.256 61.216,80.096 63.088,77.36 C64.384,78.944 65.968,80.384 67.696,81.824 C69.424,83.264 71.44,84.56 73.6,85.856 C75.904,87.152 78.208,88.16 80.368,88.736 C82.528,89.312 84.544,89.6 86.416,89.6 C86.56,89.6 86.992,89.168 87.568,88.304 C88.144,87.44 89.008,86.144 90.016,84.56 C90.88,82.976 91.6,81.68 92.176,80.672 C92.752,79.664 93.184,78.944 93.328,78.512 C95.632,80.816 97.792,82.544 99.808,83.696 C101.824,84.848 103.696,85.424 105.424,85.424 L109.312,85.424 L109.456,76.064 Z M54.16,76.208 L51.424,76.208 C49.84,76.208 48.256,75.344 46.816,73.76 C45.376,72.176 44.08,69.872 43.072,66.848 C42.64,65.552 42.208,63.824 41.632,61.664 C41.056,59.504 40.48,56.768 39.76,53.456 C36.88,38.48 35.296,30.56 35.152,29.696 C35.008,28.832 34.72,28.832 34.288,29.84 C33.136,32.432 32.128,34.448 31.408,35.888 C30.688,37.328 30.256,38.336 30.112,38.768 L31.696,48.128 C26.368,50 22.048,51.872 18.592,53.6 C15.136,55.328 12.688,57.056 11.104,58.64 C10.96,58.784 10.24,60.8 8.944,64.832 C7.648,68.864 6.928,71.024 6.928,71.456 C6.928,72.752 7.792,73.904 9.52,74.912 C11.248,75.92 13.84,76.64 17.152,77.216 C19.744,77.792 22.192,78.224 24.352,78.368 C26.512,78.512 28.528,78.512 30.4,78.368 C31.696,77.216 32.848,76.064 33.856,74.912 C34.864,73.76 35.872,72.608 36.88,71.456 C37.6,73.904 38.32,75.92 39.04,77.648 C39.76,79.376 40.624,80.672 41.488,81.68 C42.64,83.12 44.08,84.272 45.664,84.992 C47.248,85.712 49.12,86.144 51.28,86.144 L53.584,86.144 L54.16,76.208 Z M76.768,76.784 C75.76,76.208 74.608,75.344 73.312,74.336 C72.016,73.328 70.576,72.176 68.992,70.88 C69.28,70.448 69.712,70.016 70.288,69.44 C70.864,68.864 71.584,68.288 72.448,67.568 C73.456,66.704 74.464,65.984 75.328,65.552 C76.192,65.12 77.056,64.832 77.776,64.832 C79.504,64.832 81.088,65.264 82.384,66.128 C83.68,66.992 84.832,68.288 85.696,70.016 C86.416,71.312 86.992,72.896 87.28,74.624 C87.568,76.352 87.712,78.08 87.568,79.952 C85.264,79.52 83.248,79.088 81.52,78.512 C79.792,77.936 78.208,77.36 76.912,76.64 L76.768,76.784 Z M15.568,65.84 C15.424,65.696 15.28,65.552 15.136,65.408 C14.992,65.264 14.992,65.12 14.992,64.976 C14.992,63.968 15.856,62.816 17.44,61.664 C19.024,60.512 21.472,59.216 24.64,57.92 L32.992,54.608 C33.712,58.208 34.432,61.232 35.008,63.68 C35.584,66.128 36.016,67.856 36.304,68.864 C30.976,68.72 26.512,68.432 23.056,68 C19.6,67.568 17.152,66.848 15.712,65.84 L15.568,65.84 Z" id="کلمه-copy-2" stroke="#4990E2" stroke-width="3"></path>
                <path d="M3.888,150 L6.264,150 L8.592,140.52 C8.856,139.296 9.144,138.168 9.384,136.944 L9.48,136.944 C9.72,138.168 9.96,139.296 10.248,140.52 L12.624,150 L15.024,150 L18.288,134.256 L16.368,134.256 L14.712,142.824 C14.4,144.504 14.112,146.208 13.824,147.912 L13.728,147.912 C13.344,146.208 12.96,144.48 12.576,142.824 L10.392,134.256 L8.568,134.256 L6.384,142.824 C6.024,144.504 5.64,146.208 5.28,147.912 L5.184,147.912 C4.896,146.208 4.56,144.528 4.272,142.824 L2.616,134.256 L0.552,134.256 L3.888,150 Z M20.832,150 L22.8,150 L22.8,142.512 C23.592,140.544 24.768,139.824 25.752,139.824 C26.232,139.824 26.496,139.896 26.88,140.016 L27.264,138.288 C26.88,138.12 26.52,138.048 26.016,138.048 C24.696,138.048 23.496,138.984 22.704,140.448 L22.632,140.448 L22.464,138.336 L20.832,138.336 L20.832,150 Z M33.456,150.288 C36.312,150.288 38.856,148.056 38.856,144.192 C38.856,140.28 36.312,138.048 33.456,138.048 C30.6,138.048 28.056,140.28 28.056,144.192 C28.056,148.056 30.6,150.288 33.456,150.288 L33.456,150.288 Z M33.456,148.656 C31.464,148.656 30.096,146.856 30.096,144.192 C30.096,141.504 31.464,139.68 33.456,139.68 C35.472,139.68 36.816,141.504 36.816,144.192 C36.816,146.856 35.472,148.656 33.456,148.656 L33.456,148.656 Z M41.928,150 L43.896,150 L43.896,141.552 C45.072,140.376 45.888,139.752 47.088,139.752 C48.624,139.752 49.296,140.688 49.296,142.872 L49.296,150 L51.264,150 L51.264,142.608 C51.264,139.632 50.16,138.048 47.712,138.048 C46.104,138.048 44.904,138.912 43.8,140.016 L43.728,140.016 L43.56,138.336 L41.928,138.336 L41.928,150 Z M58.992,155.376 C62.616,155.376 64.896,153.504 64.896,151.344 C64.896,149.4 63.528,148.56 60.816,148.56 L58.56,148.56 C56.976,148.56 56.496,148.032 56.496,147.288 C56.496,146.64 56.832,146.256 57.24,145.896 C57.768,146.16 58.416,146.304 58.992,146.304 C61.368,146.304 63.264,144.744 63.264,142.248 C63.264,141.264 62.856,140.376 62.304,139.848 L64.704,139.848 L64.704,138.336 L60.648,138.336 C60.216,138.168 59.64,138.048 58.992,138.048 C56.616,138.048 54.6,139.656 54.6,142.2 C54.6,143.592 55.344,144.72 56.112,145.344 L56.112,145.44 C55.512,145.848 54.84,146.616 54.84,147.6 C54.84,148.512 55.296,149.136 55.872,149.496 L55.872,149.592 C54.816,150.312 54.168,151.248 54.168,152.232 C54.168,154.248 56.136,155.376 58.992,155.376 L58.992,155.376 Z M58.992,144.984 C57.648,144.984 56.52,143.904 56.52,142.2 C56.52,140.496 57.624,139.488 58.992,139.488 C60.36,139.488 61.464,140.496 61.464,142.2 C61.464,143.904 60.336,144.984 58.992,144.984 L58.992,144.984 Z M59.28,154.008 C57.168,154.008 55.896,153.216 55.896,151.968 C55.896,151.296 56.256,150.6 57.096,150 C57.6,150.144 58.152,150.192 58.608,150.192 L60.624,150.192 C62.136,150.192 62.976,150.552 62.976,151.632 C62.976,152.856 61.512,154.008 59.28,154.008 L59.28,154.008 Z M75.408,150 L77.424,150 L77.424,135.936 L82.176,135.936 L82.176,134.256 L70.656,134.256 L70.656,135.936 L75.408,135.936 L75.408,150 Z M87.96,150.288 C89.544,150.288 90.792,149.736 91.8,149.088 L91.104,147.792 C90.24,148.344 89.304,148.704 88.2,148.704 C85.968,148.704 84.456,147.12 84.312,144.648 L92.184,144.648 C92.232,144.36 92.256,143.928 92.256,143.52 C92.256,140.184 90.576,138.048 87.6,138.048 C84.936,138.048 82.368,140.376 82.368,144.192 C82.368,148.008 84.84,150.288 87.96,150.288 L87.96,150.288 Z M84.288,143.232 C84.528,140.928 86.016,139.608 87.648,139.608 C89.472,139.608 90.528,140.88 90.528,143.232 L84.288,143.232 Z M93.336,150 L95.4,150 L96.984,147.288 C97.368,146.568 97.752,145.872 98.16,145.2 L98.256,145.2 C98.688,145.872 99.12,146.592 99.528,147.288 L101.232,150 L103.368,150 L99.576,144.12 L103.104,138.336 L101.04,138.336 L99.624,140.904 C99.264,141.528 98.904,142.2 98.568,142.848 L98.472,142.848 C98.064,142.2 97.68,141.528 97.32,140.904 L95.76,138.336 L93.624,138.336 L97.152,143.904 L93.336,150 Z M108.768,150.288 C109.488,150.288 110.28,150.072 110.928,149.856 L110.544,148.368 C110.16,148.512 109.632,148.68 109.224,148.68 C107.88,148.68 107.424,147.864 107.424,146.424 L107.424,139.944 L110.568,139.944 L110.568,138.336 L107.424,138.336 L107.424,135.072 L105.768,135.072 L105.528,138.336 L103.704,138.456 L103.704,139.944 L105.432,139.944 L105.432,146.4 C105.432,148.704 106.272,150.288 108.768,150.288 L108.768,150.288 Z M118.2,150 L123.216,150 C126.744,150 129.192,148.488 129.192,145.392 C129.192,143.232 127.872,141.984 125.976,141.624 L125.976,141.528 C127.464,141.048 128.28,139.656 128.28,138.096 C128.28,135.336 126.072,134.256 122.88,134.256 L118.2,134.256 L118.2,150 Z M120.192,140.952 L120.192,135.84 L122.616,135.84 C125.064,135.84 126.312,136.536 126.312,138.36 C126.312,139.968 125.208,140.952 122.52,140.952 L120.192,140.952 Z M120.192,148.416 L120.192,142.488 L122.928,142.488 C125.688,142.488 127.224,143.376 127.224,145.32 C127.224,147.432 125.64,148.416 122.928,148.416 L120.192,148.416 Z M136.656,150.288 C139.512,150.288 142.056,148.056 142.056,144.192 C142.056,140.28 139.512,138.048 136.656,138.048 C133.8,138.048 131.256,140.28 131.256,144.192 C131.256,148.056 133.8,150.288 136.656,150.288 L136.656,150.288 Z M136.656,148.656 C134.664,148.656 133.296,146.856 133.296,144.192 C133.296,141.504 134.664,139.68 136.656,139.68 C138.672,139.68 140.016,141.504 140.016,144.192 C140.016,146.856 138.672,148.656 136.656,148.656 L136.656,148.656 Z M145.128,150 L147.096,150 L147.096,142.512 C147.888,140.544 149.064,139.824 150.048,139.824 C150.528,139.824 150.792,139.896 151.176,140.016 L151.56,138.288 C151.176,138.12 150.816,138.048 150.312,138.048 C148.992,138.048 147.792,138.984 147,140.448 L146.928,140.448 L146.76,138.336 L145.128,138.336 L145.128,150 Z M157.2,150.288 C158.568,150.288 159.816,149.52 160.728,148.632 L160.8,148.632 L160.968,150 L162.6,150 L162.6,132.912 L160.608,132.912 L160.608,137.4 L160.704,139.392 C159.672,138.552 158.784,138.048 157.44,138.048 C154.776,138.048 152.376,140.4 152.376,144.192 C152.376,148.08 154.272,150.288 157.2,150.288 L157.2,150.288 Z M157.632,148.632 C155.592,148.632 154.416,146.952 154.416,144.168 C154.416,141.504 155.904,139.704 157.776,139.704 C158.736,139.704 159.624,140.04 160.608,140.928 L160.608,147.024 C159.648,148.104 158.712,148.632 157.632,148.632 L157.632,148.632 Z M171.264,150.288 C172.848,150.288 174.096,149.736 175.104,149.088 L174.408,147.792 C173.544,148.344 172.608,148.704 171.504,148.704 C169.272,148.704 167.76,147.12 167.616,144.648 L175.488,144.648 C175.536,144.36 175.56,143.928 175.56,143.52 C175.56,140.184 173.88,138.048 170.904,138.048 C168.24,138.048 165.672,140.376 165.672,144.192 C165.672,148.008 168.144,150.288 171.264,150.288 L171.264,150.288 Z M167.592,143.232 C167.832,140.928 169.32,139.608 170.952,139.608 C172.776,139.608 173.832,140.88 173.832,143.232 L167.592,143.232 Z M178.44,150 L180.408,150 L180.408,142.512 C181.2,140.544 182.376,139.824 183.36,139.824 C183.84,139.824 184.104,139.896 184.488,140.016 L184.872,138.288 C184.488,138.12 184.128,138.048 183.624,138.048 C182.304,138.048 181.104,138.984 180.312,140.448 L180.24,140.448 L180.072,138.336 L178.44,138.336 L178.44,150 Z" id="Wrong-Text-Border"></path>
            </g>
            <g id="Group-2-Copy" transform="translate(521.000000, 1.000000)">
                <path d="M7.112,149.288 C9.152,149.288 10.688,148.448 11.936,147.008 L10.832,145.76 C9.824,146.864 8.696,147.536 7.184,147.536 C4.208,147.536 2.312,145.04 2.312,141.08 C2.312,137.168 4.28,134.72 7.256,134.72 C8.6,134.72 9.632,135.32 10.472,136.208 L11.552,134.912 C10.64,133.88 9.152,132.968 7.232,132.968 C3.224,132.968 0.248,136.064 0.248,141.128 C0.248,146.264 3.176,149.288 7.112,149.288 L7.112,149.288 Z M19.208,149.288 C22.064,149.288 24.608,147.056 24.608,143.192 C24.608,139.28 22.064,137.048 19.208,137.048 C16.352,137.048 13.808,139.28 13.808,143.192 C13.808,147.056 16.352,149.288 19.208,149.288 L19.208,149.288 Z M19.208,147.656 C17.216,147.656 15.848,145.856 15.848,143.192 C15.848,140.504 17.216,138.68 19.208,138.68 C21.224,138.68 22.568,140.504 22.568,143.192 C22.568,145.856 21.224,147.656 19.208,147.656 L19.208,147.656 Z M27.68,149 L29.648,149 L29.648,141.512 C30.44,139.544 31.616,138.824 32.6,138.824 C33.08,138.824 33.344,138.896 33.728,139.016 L34.112,137.288 C33.728,137.12 33.368,137.048 32.864,137.048 C31.544,137.048 30.344,137.984 29.552,139.448 L29.48,139.448 L29.312,137.336 L27.68,137.336 L27.68,149 Z M36.008,149 L37.976,149 L37.976,141.512 C38.768,139.544 39.944,138.824 40.928,138.824 C41.408,138.824 41.672,138.896 42.056,139.016 L42.44,137.288 C42.056,137.12 41.696,137.048 41.192,137.048 C39.872,137.048 38.672,137.984 37.88,139.448 L37.808,139.448 L37.64,137.336 L36.008,137.336 L36.008,149 Z M48.824,149.288 C50.408,149.288 51.656,148.736 52.664,148.088 L51.968,146.792 C51.104,147.344 50.168,147.704 49.064,147.704 C46.832,147.704 45.32,146.12 45.176,143.648 L53.048,143.648 C53.096,143.36 53.12,142.928 53.12,142.52 C53.12,139.184 51.44,137.048 48.464,137.048 C45.8,137.048 43.232,139.376 43.232,143.192 C43.232,147.008 45.704,149.288 48.824,149.288 L48.824,149.288 Z M45.152,142.232 C45.392,139.928 46.88,138.608 48.512,138.608 C50.336,138.608 51.392,139.88 51.392,142.232 L45.152,142.232 Z M60.608,149.288 C62,149.288 63.32,148.736 64.376,147.8 L63.512,146.48 C62.792,147.128 61.856,147.656 60.776,147.656 C58.64,147.656 57.176,145.856 57.176,143.192 C57.176,140.504 58.712,138.68 60.824,138.68 C61.76,138.68 62.48,139.112 63.152,139.712 L64.16,138.416 C63.344,137.672 62.288,137.048 60.752,137.048 C57.752,137.048 55.136,139.28 55.136,143.192 C55.136,147.056 57.512,149.288 60.608,149.288 L60.608,149.288 Z M70.376,149.288 C71.096,149.288 71.888,149.072 72.536,148.856 L72.152,147.368 C71.768,147.512 71.24,147.68 70.832,147.68 C69.488,147.68 69.032,146.864 69.032,145.424 L69.032,138.944 L72.176,138.944 L72.176,137.336 L69.032,137.336 L69.032,134.072 L67.376,134.072 L67.136,137.336 L65.312,137.456 L65.312,138.944 L67.04,138.944 L67.04,145.4 C67.04,147.704 67.88,149.288 70.376,149.288 L70.376,149.288 Z M83.072,149 L85.088,149 L85.088,134.936 L89.84,134.936 L89.84,133.256 L78.32,133.256 L78.32,134.936 L83.072,134.936 L83.072,149 Z M95.624,149.288 C97.208,149.288 98.456,148.736 99.464,148.088 L98.768,146.792 C97.904,147.344 96.968,147.704 95.864,147.704 C93.632,147.704 92.12,146.12 91.976,143.648 L99.848,143.648 C99.896,143.36 99.92,142.928 99.92,142.52 C99.92,139.184 98.24,137.048 95.264,137.048 C92.6,137.048 90.032,139.376 90.032,143.192 C90.032,147.008 92.504,149.288 95.624,149.288 L95.624,149.288 Z M91.952,142.232 C92.192,139.928 93.68,138.608 95.312,138.608 C97.136,138.608 98.192,139.88 98.192,142.232 L91.952,142.232 Z M101,149 L103.064,149 L104.648,146.288 C105.032,145.568 105.416,144.872 105.824,144.2 L105.92,144.2 C106.352,144.872 106.784,145.592 107.192,146.288 L108.896,149 L111.032,149 L107.24,143.12 L110.768,137.336 L108.704,137.336 L107.288,139.904 C106.928,140.528 106.568,141.2 106.232,141.848 L106.136,141.848 C105.728,141.2 105.344,140.528 104.984,139.904 L103.424,137.336 L101.288,137.336 L104.816,142.904 L101,149 Z M116.432,149.288 C117.152,149.288 117.944,149.072 118.592,148.856 L118.208,147.368 C117.824,147.512 117.296,147.68 116.888,147.68 C115.544,147.68 115.088,146.864 115.088,145.424 L115.088,138.944 L118.232,138.944 L118.232,137.336 L115.088,137.336 L115.088,134.072 L113.432,134.072 L113.192,137.336 L111.368,137.456 L111.368,138.944 L113.096,138.944 L113.096,145.4 C113.096,147.704 113.936,149.288 116.432,149.288 L116.432,149.288 Z M125.864,149 L130.88,149 C134.408,149 136.856,147.488 136.856,144.392 C136.856,142.232 135.536,140.984 133.64,140.624 L133.64,140.528 C135.128,140.048 135.944,138.656 135.944,137.096 C135.944,134.336 133.736,133.256 130.544,133.256 L125.864,133.256 L125.864,149 Z M127.856,139.952 L127.856,134.84 L130.28,134.84 C132.728,134.84 133.976,135.536 133.976,137.36 C133.976,138.968 132.872,139.952 130.184,139.952 L127.856,139.952 Z M127.856,147.416 L127.856,141.488 L130.592,141.488 C133.352,141.488 134.888,142.376 134.888,144.32 C134.888,146.432 133.304,147.416 130.592,147.416 L127.856,147.416 Z M144.32,149.288 C147.176,149.288 149.72,147.056 149.72,143.192 C149.72,139.28 147.176,137.048 144.32,137.048 C141.464,137.048 138.92,139.28 138.92,143.192 C138.92,147.056 141.464,149.288 144.32,149.288 L144.32,149.288 Z M144.32,147.656 C142.328,147.656 140.96,145.856 140.96,143.192 C140.96,140.504 142.328,138.68 144.32,138.68 C146.336,138.68 147.68,140.504 147.68,143.192 C147.68,145.856 146.336,147.656 144.32,147.656 L144.32,147.656 Z M152.792,149 L154.76,149 L154.76,141.512 C155.552,139.544 156.728,138.824 157.712,138.824 C158.192,138.824 158.456,138.896 158.84,139.016 L159.224,137.288 C158.84,137.12 158.48,137.048 157.976,137.048 C156.656,137.048 155.456,137.984 154.664,139.448 L154.592,139.448 L154.424,137.336 L152.792,137.336 L152.792,149 Z M164.864,149.288 C166.232,149.288 167.48,148.52 168.392,147.632 L168.464,147.632 L168.632,149 L170.264,149 L170.264,131.912 L168.272,131.912 L168.272,136.4 L168.368,138.392 C167.336,137.552 166.448,137.048 165.104,137.048 C162.44,137.048 160.04,139.4 160.04,143.192 C160.04,147.08 161.936,149.288 164.864,149.288 L164.864,149.288 Z M165.296,147.632 C163.256,147.632 162.08,145.952 162.08,143.168 C162.08,140.504 163.568,138.704 165.44,138.704 C166.4,138.704 167.288,139.04 168.272,139.928 L168.272,146.024 C167.312,147.104 166.376,147.632 165.296,147.632 L165.296,147.632 Z M178.928,149.288 C180.512,149.288 181.76,148.736 182.768,148.088 L182.072,146.792 C181.208,147.344 180.272,147.704 179.168,147.704 C176.936,147.704 175.424,146.12 175.28,143.648 L183.152,143.648 C183.2,143.36 183.224,142.928 183.224,142.52 C183.224,139.184 181.544,137.048 178.568,137.048 C175.904,137.048 173.336,139.376 173.336,143.192 C173.336,147.008 175.808,149.288 178.928,149.288 L178.928,149.288 Z M175.256,142.232 C175.496,139.928 176.984,138.608 178.616,138.608 C180.44,138.608 181.496,139.88 181.496,142.232 L175.256,142.232 Z M186.104,149 L188.072,149 L188.072,141.512 C188.864,139.544 190.04,138.824 191.024,138.824 C191.504,138.824 191.768,138.896 192.152,139.016 L192.536,137.288 C192.152,137.12 191.792,137.048 191.288,137.048 C189.968,137.048 188.768,137.984 187.976,139.448 L187.904,139.448 L187.736,137.336 L186.104,137.336 L186.104,149 Z" id="Correct-Text-Border"></path>
                <path d="M48.3704104,75.312 L50.504,75.312 C51.656,75.312 53.096,74.736 54.824,73.44 C56.552,72.144 58.568,70.272 60.872,67.824 C63.752,64.656 66.2,62.064 68.216,60.192 C70.232,58.32 71.672,57.024 72.68,56.448 C73.688,55.872 74.696,55.44 75.704,55.152 C76.712,54.864 77.864,54.72 79.016,54.72 C80.168,54.72 81.176,54.864 81.896,55.008 C82.616,55.152 83.192,55.44 83.48,55.728 C85.064,57.6 86.648,59.472 88.232,61.344 C89.816,63.216 91.4,65.232 92.984,67.248 C95.144,69.984 97.304,72 99.32,73.296 C101.336,74.592 103.208,75.312 105.08,75.312 L105.8,75.312 L106.52,75.312 C107.528,75.312 108.68,75.168 109.832,74.88 C110.984,74.592 112.136,74.304 113.432,73.872 C115.016,73.44 116.312,72.864 117.176,72.144 C118.04,71.424 118.472,70.704 118.328,69.984 L115.736,25.92 C115.592,23.184 115.448,20.592 115.16,18.144 C114.872,15.696 114.584,13.392 114.296,11.232 C114.296,11.088 114.584,10.656 115.016,9.936 C115.448,9.216 116.168,8.208 117.032,6.912 C117.464,6.192 118.04,5.328 118.616,4.32 C119.192,3.312 119.912,2.16 120.776,0.864 L121.208,0.432 C121.352,0.288 121.496,0.144 121.64,0 C121.784,0.144 121.928,0.288 121.928,0.576 L121.928,1.728 C122.648,21.456 123.224,36.72 123.8,47.376 C124.376,58.032 124.808,64.08 124.952,65.376 C125.528,68.688 126.392,71.136 127.544,72.864 C128.696,74.592 130.136,75.456 132.008,75.456 L135.32,75.456 L135.311403,75.744 L135.464,75.744 C139.928,75.744 143.96,75.312 147.56,74.448 C151.16,73.584 154.328,72.288 157.064,70.704 C158.504,69.84 159.656,68.976 160.376,68.256 C161.096,67.536 161.528,66.816 161.528,66.096 C161.528,63.648 160.664,61.2 158.936,58.608 C157.208,56.016 154.472,53.424 150.872,50.832 C149.864,50.112 148.568,49.248 146.984,48.24 C145.4,47.232 143.528,46.08 141.368,44.784 C139.784,43.776 138.632,43.056 137.912,42.48 C137.192,41.904 136.76,41.472 136.76,41.184 C136.76,40.464 136.76,39.6 136.904,38.448 C137.048,37.296 137.192,36 137.336,34.416 C137.48,32.544 137.624,31.104 137.768,30.096 C137.912,29.088 138.056,28.512 138.2,28.368 C144.68,23.616 151.736,18.864 159.512,14.256 C167.288,9.648 175.784,5.184 184.856,0.72 C185.432,0.432 185.864,0.288 186.296,0.144 C186.728,0 187.016,0 187.16,0 L187.448,0 L187.448,0.288 C187.448,0.432 187.304,0.72 187.16,1.008 C187.016,1.296 186.872,1.728 186.728,2.16 L186.44,2.448 C186.008,3.312 185.432,4.608 184.568,6.336 C183.704,8.064 182.696,10.08 181.4,12.528 C173.048,16.704 165.56,20.592 158.936,24.336 C152.312,28.08 146.552,31.68 141.8,35.136 C142.52,35.568 143.528,36.144 144.824,36.864 C146.12,37.584 147.56,38.592 149.288,39.744 C151.448,41.04 153.464,42.48 155.336,43.92 C157.208,45.36 158.936,46.944 160.52,48.672 C162.392,50.832 163.832,52.992 164.696,55.152 C165.56,57.312 165.992,59.328 165.992,61.344 C165.992,64.656 165.848,67.248 165.704,69.264 C165.56,71.28 165.272,72.72 164.84,73.44 C162.536,77.472 158.936,80.496 153.896,82.512 C148.856,84.528 142.52,85.536 134.888,85.536 L131.72,85.536 L131.72,85.104 C129.272,85.104 127.112,84.384 125.384,82.944 C123.656,81.504 122.216,79.344 121.208,76.608 C119.336,79.344 117.176,81.504 114.584,82.944 C111.992,84.384 109.112,85.104 105.944,85.104 L103.208,85.104 L103.208,84.6667155 C101.560514,84.6065321 99.7845138,84.0322936 97.88,82.944 C95.864,81.792 93.704,80.064 91.4,77.76 C91.256,78.192 90.824,78.912 90.248,79.92 C89.672,80.928 88.952,82.224 88.088,83.808 C87.08,85.392 86.216,86.688 85.64,87.552 C85.064,88.416 84.632,88.848 84.488,88.848 C82.616,88.848 80.6,88.56 78.44,87.984 C76.28,87.408 73.976,86.4 71.672,85.104 C69.512,83.808 67.496,82.512 65.768,81.072 C64.04,79.632 62.456,78.192 61.16,76.608 C59.288,79.344 57.56,81.504 55.976,82.944 C54.5031858,84.282922 53.0303715,84.9993745 51.6733126,85.0933575 L51.656,85.392 L49.352,85.392 C47.192,85.392 45.32,84.96 43.736,84.24 C42.152,83.52 40.712,82.368 39.56,80.928 C38.696,79.92 37.832,78.624 37.112,76.896 C36.392,75.168 35.672,73.152 34.952,70.704 C33.944,71.856 32.936,73.008 31.928,74.16 C30.92,75.312 29.768,76.464 28.472,77.616 C26.6,77.76 24.584,77.76 22.424,77.616 C20.264,77.472 17.816,77.04 15.224,76.464 C11.912,75.888 9.32,75.168 7.592,74.16 C5.864,73.152 5,72 5,70.704 C5,70.272 5.72,68.112 7.016,64.08 C8.312,60.048 9.032,58.032 9.176,57.888 C10.76,56.304 13.208,54.576 16.664,52.848 C20.12,51.12 24.44,49.248 29.768,47.376 L28.184,38.016 C28.328,37.584 28.76,36.576 29.48,35.136 C30.2,33.696 31.208,31.68 32.36,29.088 C32.792,28.08 33.08,28.08 33.224,28.944 C33.368,29.808 34.952,37.728 37.832,52.704 C38.552,56.016 39.128,58.752 39.704,60.912 C40.28,63.072 40.712,64.8 41.144,66.096 C42.152,69.12 43.448,71.424 44.888,73.008 C45.9863294,74.2161623 47.1684315,75.0054609 48.3704104,75.312 Z M74.84,76.032 C73.832,75.456 72.68,74.592 71.384,73.584 C70.088,72.576 68.648,71.424 67.064,70.128 C67.352,69.696 67.784,69.264 68.36,68.688 C68.936,68.112 69.656,67.536 70.52,66.816 C71.528,65.952 72.536,65.232 73.4,64.8 C74.264,64.368 75.128,64.08 75.848,64.08 C77.576,64.08 79.16,64.512 80.456,65.376 C81.752,66.24 82.904,67.536 83.768,69.264 C84.488,70.56 85.064,72.144 85.352,73.872 C85.64,75.6 85.784,77.328 85.64,79.2 C83.336,78.768 81.32,78.336 79.592,77.76 C77.864,77.184 76.28,76.608 74.984,75.888 L74.84,76.032 Z M13.64,65.088 L13.208,64.656 C13.064,64.512 13.064,64.368 13.064,64.224 C13.064,63.216 13.928,62.064 15.512,60.912 C17.096,59.76 19.544,58.464 22.712,57.168 L31.064,53.856 C31.784,57.456 32.504,60.48 33.08,62.928 C33.656,65.376 34.088,67.104 34.376,68.112 C29.048,67.968 24.584,67.68 21.128,67.248 C17.672,66.816 15.224,66.096 13.784,65.088 L13.64,65.088 Z" id="کلمه-copy-5" stroke="#4990E2" stroke-width="3"></path>
            </g>
        </g>
    </g>
</svg>