<?xml version="1.0" encoding="UTF-8"?>
<svg width="713px" height="156px" viewBox="0 0 713 156" version="1.1" xmlns="http://www.w3.org/2000/svg" xmlns:xlink="http://www.w3.org/1999/xlink">
    <!-- Generator: Sketch 3.7.2 (28276) - http://www.bohemiancoding.com/sketch -->
    <title>joining-and-transparency</title>
    <desc>Created with Sketch.</desc>
    <defs></defs>
    <g id="Page-1" stroke="none" stroke-width="1" fill="none" fill-rule="evenodd">
        <g id="Group-Copy-2" fill="#000000">
            <g id="Group-2">
                <path d="M44.2984104,76.064 L46.432,76.064 C47.584,76.064 49.024,75.488 50.752,74.192 C52.48,72.896 54.496,71.024 56.8,68.576 C59.68,65.408 62.128,62.816 64.144,60.944 C66.16,59.072 67.6,57.776 68.608,57.2 C69.616,56.624 70.624,56.192 71.632,55.904 C72.64,55.616 73.792,55.472 74.944,55.472 C76.096,55.472 77.104,55.616 77.824,55.76 C78.544,55.904 79.12,56.192 79.408,56.48 C80.992,58.352 82.576,60.224 84.16,62.096 C85.744,63.968 87.328,65.984 88.912,68 C91.072,70.736 93.232,72.752 95.248,74.048 C97.264,75.344 99.136,76.064 101.008,76.064 L101.728,76.064 L102.448,76.064 C103.456,76.064 104.608,75.92 105.76,75.632 C106.912,75.344 108.064,75.056 109.36,74.624 C110.944,74.192 112.24,73.616 113.104,72.896 C113.968,72.176 114.4,71.456 114.256,70.736 L111.664,26.672 C111.52,23.936 111.376,21.344 111.088,18.896 C110.8,16.448 110.512,14.144 110.224,11.984 C110.224,11.84 110.512,11.408 110.944,10.688 C111.376,9.968 112.096,8.96 112.96,7.664 C113.392,6.944 113.968,6.08 114.544,5.072 C115.12,4.064 115.84,2.912 116.704,1.616 C116.848,1.472 116.992,1.328 117.136,1.184 C117.28,1.04 117.424,0.896 117.568,0.752 C117.712,0.896 117.856,1.04 117.856,1.328 L117.856,2.48 C118.576,22.208 119.152,37.472 119.728,48.128 C120.304,58.784 120.736,64.832 120.88,66.128 C121.456,69.44 122.32,71.888 123.472,73.616 C124.624,75.344 126.064,76.208 127.936,76.208 L131.248,76.208 L131.239403,76.496 L131.392,76.496 C135.856,76.496 139.888,76.064 143.488,75.2 C147.088,74.336 150.256,73.04 152.992,71.456 C154.432,70.592 155.584,69.728 156.304,69.008 C157.024,68.288 157.456,67.568 157.456,66.848 C157.456,64.4 156.592,61.952 154.864,59.36 C153.136,56.768 150.4,54.176 146.8,51.584 C145.792,50.864 144.496,50 142.912,48.992 C141.328,47.984 139.456,46.832 137.296,45.536 C135.712,44.528 134.56,43.808 133.84,43.232 C133.12,42.656 132.688,42.224 132.688,41.936 C132.688,41.216 132.688,40.352 132.832,39.2 C132.976,38.048 133.12,36.752 133.264,35.168 C133.408,33.296 133.552,31.856 133.696,30.848 C133.84,29.84 133.984,29.264 134.128,29.12 C140.608,24.368 147.664,19.616 155.44,15.008 C163.216,10.4 171.712,5.936 180.784,1.472 C181.36,1.184 181.792,1.04 182.224,0.896 C182.656,0.752 182.944,0.752 183.088,0.752 L183.376,0.752 L183.376,1.04 C183.376,1.184 183.232,1.472 183.088,1.76 C182.944,2.048 182.8,2.48 182.656,2.912 L182.368,3.2 C181.936,4.064 181.36,5.36 180.496,7.088 C179.632,8.816 178.624,10.832 177.328,13.28 C168.976,17.456 161.488,21.344 154.864,25.088 C148.24,28.832 142.48,32.432 137.728,35.888 C138.448,36.32 139.456,36.896 140.752,37.616 C142.048,38.336 143.488,39.344 145.216,40.496 C147.376,41.792 149.392,43.232 151.264,44.672 C153.136,46.112 154.864,47.696 156.448,49.424 C158.32,51.584 159.76,53.744 160.624,55.904 C161.488,58.064 161.92,60.08 161.92,62.096 C161.92,65.408 161.776,68 161.632,70.016 C161.488,72.032 161.2,73.472 160.768,74.192 C158.464,78.224 154.864,81.248 149.824,83.264 C144.784,85.28 138.448,86.288 130.816,86.288 L127.648,86.288 L127.648,85.856 C125.2,85.856 123.04,85.136 121.312,83.696 C119.584,82.256 118.144,80.096 117.136,77.36 C115.264,80.096 113.104,82.256 110.512,83.696 C107.92,85.136 105.04,85.856 101.872,85.856 L99.136,85.856 L99.136,85.4187155 C97.4885138,85.3585321 95.7125138,84.7842936 93.808,83.696 C91.792,82.544 89.632,80.816 87.328,78.512 C87.184,78.944 86.752,79.664 86.176,80.672 C85.6,81.68 84.88,82.976 84.016,84.56 C83.008,86.144 82.144,87.44 81.568,88.304 C80.992,89.168 80.56,89.6 80.416,89.6 C78.544,89.6 76.528,89.312 74.368,88.736 C72.208,88.16 69.904,87.152 67.6,85.856 C65.44,84.56 63.424,83.264 61.696,81.824 C59.968,80.384 58.384,78.944 57.088,77.36 C55.216,80.096 53.488,82.256 51.904,83.696 C50.4311858,85.034922 48.9583715,85.7513745 47.6013126,85.8453575 L47.584,86.144 L45.28,86.144 C43.12,86.144 41.248,85.712 39.664,84.992 C38.08,84.272 36.64,83.12 35.488,81.68 C34.624,80.672 33.76,79.376 33.04,77.648 C32.32,75.92 31.6,73.904 30.88,71.456 C29.872,72.608 28.864,73.76 27.856,74.912 C26.848,76.064 25.696,77.216 24.4,78.368 C22.528,78.512 20.512,78.512 18.352,78.368 C16.192,78.224 13.744,77.792 11.152,77.216 C7.84,76.64 5.248,75.92 3.52,74.912 C1.792,73.904 0.928,72.752 0.928,71.456 C0.928,71.024 1.648,68.864 2.944,64.832 C4.24,60.8 4.96,58.784 5.104,58.64 C6.688,57.056 9.136,55.328 12.592,53.6 C16.048,51.872 20.368,50 25.696,48.128 L24.112,38.768 C24.256,38.336 24.688,37.328 25.408,35.888 C26.128,34.448 27.136,32.432 28.288,29.84 C28.72,28.832 29.008,28.832 29.152,29.696 C29.296,30.56 30.88,38.48 33.76,53.456 C34.48,56.768 35.056,59.504 35.632,61.664 C36.208,63.824 36.64,65.552 37.072,66.848 C38.08,69.872 39.376,72.176 40.816,73.76 C41.9143294,74.9681623 43.0964315,75.7574609 44.2984104,76.064 Z M70.768,76.784 C69.76,76.208 68.608,75.344 67.312,74.336 C66.016,73.328 64.576,72.176 62.992,70.88 C63.28,70.448 63.712,70.016 64.288,69.44 C64.864,68.864 65.584,68.288 66.448,67.568 C67.456,66.704 68.464,65.984 69.328,65.552 C70.192,65.12 71.056,64.832 71.776,64.832 C73.504,64.832 75.088,65.264 76.384,66.128 C77.68,66.992 78.832,68.288 79.696,70.016 C80.416,71.312 80.992,72.896 81.28,74.624 C81.568,76.352 81.712,78.08 81.568,79.952 C79.264,79.52 77.248,79.088 75.52,78.512 C73.792,77.936 72.208,77.36 70.912,76.64 L70.768,76.784 Z M9.568,65.84 C9.424,65.696 9.28,65.552 9.136,65.408 C8.992,65.264 8.992,65.12 8.992,64.976 C8.992,63.968 9.856,62.816 11.44,61.664 C13.024,60.512 15.472,59.216 18.64,57.92 L26.992,54.608 C27.712,58.208 28.432,61.232 29.008,63.68 C29.584,66.128 30.016,67.856 30.304,68.864 C24.976,68.72 20.512,68.432 17.056,68 C13.6,67.568 11.152,66.848 9.712,65.84 L9.568,65.84 Z" id="کلمه"></path>
                <path d="M51.16,150 L53.056,150 L53.056,141.768 C53.056,140.112 52.912,138.432 52.792,136.848 L52.888,136.848 L54.592,140.088 L60.304,150 L62.368,150 L62.368,134.256 L60.472,134.256 L60.472,142.392 C60.472,144.048 60.616,145.824 60.712,147.408 L60.616,147.408 L58.912,144.144 L53.224,134.256 L51.16,134.256 L51.16,150 Z M71.032,150.288 C73.888,150.288 76.432,148.056 76.432,144.192 C76.432,140.28 73.888,138.048 71.032,138.048 C68.176,138.048 65.632,140.28 65.632,144.192 C65.632,148.056 68.176,150.288 71.032,150.288 L71.032,150.288 Z M71.032,148.656 C69.04,148.656 67.672,146.856 67.672,144.192 C67.672,141.504 69.04,139.68 71.032,139.68 C73.048,139.68 74.392,141.504 74.392,144.192 C74.392,146.856 73.048,148.656 71.032,148.656 L71.032,148.656 Z M79.504,150 L81.472,150 L81.472,142.512 C82.264,140.544 83.44,139.824 84.424,139.824 C84.904,139.824 85.168,139.896 85.552,140.016 L85.936,138.288 C85.552,138.12 85.192,138.048 84.688,138.048 C83.368,138.048 82.168,138.984 81.376,140.448 L81.304,140.448 L81.136,138.336 L79.504,138.336 L79.504,150 Z M87.832,150 L89.8,150 L89.8,141.552 C90.88,140.352 91.864,139.752 92.728,139.752 C94.216,139.752 94.912,140.688 94.912,142.872 L94.912,150 L96.88,150 L96.88,141.552 C97.96,140.352 98.896,139.752 99.808,139.752 C101.272,139.752 101.968,140.688 101.968,142.872 L101.968,150 L103.936,150 L103.936,142.608 C103.936,139.632 102.784,138.048 100.384,138.048 C98.968,138.048 97.768,138.96 96.544,140.28 C96.064,138.888 95.104,138.048 93.328,138.048 C91.936,138.048 90.712,138.912 89.704,140.016 L89.632,140.016 L89.464,138.336 L87.832,138.336 L87.832,150 Z M110.416,150.288 C111.88,150.288 113.176,149.52 114.28,148.608 L114.352,148.608 L114.52,150 L116.152,150 L116.152,142.848 C116.152,139.944 114.952,138.048 112.096,138.048 C110.224,138.048 108.592,138.864 107.512,139.56 L108.28,140.928 C109.192,140.304 110.416,139.68 111.76,139.68 C113.68,139.68 114.16,141.12 114.16,142.608 C109.192,143.16 107.008,144.432 107.008,146.976 C107.008,149.064 108.472,150.288 110.416,150.288 L110.416,150.288 Z M110.992,148.704 C109.84,148.704 108.928,148.152 108.928,146.832 C108.928,145.344 110.272,144.384 114.16,143.904 L114.16,147.144 C113.032,148.152 112.12,148.704 110.992,148.704 L110.992,148.704 Z M121.912,150.288 C122.44,150.288 122.776,150.216 123.04,150.096 L122.776,148.608 C122.56,148.656 122.464,148.656 122.344,148.656 C122.056,148.656 121.792,148.416 121.792,147.792 L121.792,132.912 L119.824,132.912 L119.824,147.648 C119.824,149.352 120.424,150.288 121.912,150.288 L121.912,150.288 Z" id="Normal"></path>
            </g>
            <g id="Group-3" transform="translate(239.500000, 0.000000)">
                <g id="Group-5" transform="translate(16.000000, 0.000000)" opacity="0.5">
                    <path d="M48.16,76.208 L45.424,76.208 C43.84,76.208 42.256,75.344 40.816,73.76 C39.376,72.176 38.08,69.872 37.072,66.848 C36.64,65.552 36.208,63.824 35.632,61.664 C35.056,59.504 34.48,56.768 33.76,53.456 C30.88,38.48 29.296,30.56 29.152,29.696 C29.008,28.832 28.72,28.832 28.288,29.84 C27.136,32.432 26.128,34.448 25.408,35.888 C24.688,37.328 24.256,38.336 24.112,38.768 L25.696,48.128 C20.368,50 16.048,51.872 12.592,53.6 C9.136,55.328 6.688,57.056 5.104,58.64 C4.96,58.784 4.24,60.8 2.944,64.832 C1.648,68.864 0.928,71.024 0.928,71.456 C0.928,72.752 1.792,73.904 3.52,74.912 C5.248,75.92 7.84,76.64 11.152,77.216 C13.744,77.792 16.192,78.224 18.352,78.368 C20.512,78.512 22.528,78.512 24.4,78.368 C25.696,77.216 26.848,76.064 27.856,74.912 C28.864,73.76 29.872,72.608 30.88,71.456 C31.6,73.904 32.32,75.92 33.04,77.648 C33.76,79.376 34.624,80.672 35.488,81.68 C36.64,83.12 38.08,84.272 39.664,84.992 C41.248,85.712 43.12,86.144 45.28,86.144 L47.584,86.144 L48.16,76.208 Z M9.568,65.84 C9.424,65.696 9.28,65.552 9.136,65.408 C8.992,65.264 8.992,65.12 8.992,64.976 C8.992,63.968 9.856,62.816 11.44,61.664 C13.024,60.512 15.472,59.216 18.64,57.92 L26.992,54.608 C27.712,58.208 28.432,61.232 29.008,63.68 C29.584,66.128 30.016,67.856 30.304,68.864 C24.976,68.72 20.512,68.432 17.056,68 C13.6,67.568 11.152,66.848 9.712,65.84 L9.568,65.84 Z" id="Combined-Shape"></path>
                    <path d="M103.456,76.064 L101.008,76.064 C99.136,76.064 97.264,75.344 95.248,74.048 C93.232,72.752 91.072,70.736 88.912,68 C87.328,65.984 85.744,63.968 84.16,62.096 C82.576,60.224 80.992,58.352 79.408,56.48 C79.12,56.192 78.544,55.904 77.824,55.76 C77.104,55.616 76.096,55.472 74.944,55.472 C73.792,55.472 72.64,55.616 71.632,55.904 C70.624,56.192 69.616,56.624 68.608,57.2 C67.6,57.776 66.16,59.072 64.144,60.944 C62.128,62.816 59.68,65.408 56.8,68.576 C54.496,71.024 52.48,72.896 50.752,74.192 C49.024,75.488 47.584,76.064 46.432,76.064 L44.128,76.064 L44.128,85.856 L47.296,85.856 C48.736,85.856 50.32,85.136 51.904,83.696 C53.488,82.256 55.216,80.096 57.088,77.36 C58.384,78.944 59.968,80.384 61.696,81.824 C63.424,83.264 65.44,84.56 67.6,85.856 C69.904,87.152 72.208,88.16 74.368,88.736 C76.528,89.312 78.544,89.6 80.416,89.6 C80.56,89.6 80.992,89.168 81.568,88.304 C82.144,87.44 83.008,86.144 84.016,84.56 C84.88,82.976 85.6,81.68 86.176,80.672 C86.752,79.664 87.184,78.944 87.328,78.512 C89.632,80.816 91.792,82.544 93.808,83.696 C95.824,84.848 97.696,85.424 99.424,85.424 L103.312,85.424 L103.456,76.064 Z M70.768,76.784 C69.76,76.208 68.608,75.344 67.312,74.336 C66.016,73.328 64.576,72.176 62.992,70.88 C63.28,70.448 63.712,70.016 64.288,69.44 C64.864,68.864 65.584,68.288 66.448,67.568 C67.456,66.704 68.464,65.984 69.328,65.552 C70.192,65.12 71.056,64.832 71.776,64.832 C73.504,64.832 75.088,65.264 76.384,66.128 C77.68,66.992 78.832,68.288 79.696,70.016 C80.416,71.312 80.992,72.896 81.28,74.624 C81.568,76.352 81.712,78.08 81.568,79.952 C79.264,79.52 77.248,79.088 75.52,78.512 C73.792,77.936 72.208,77.36 70.912,76.64 L70.768,76.784 Z" id="Combined-Shape"></path>
                    <path d="M131.248,76.208 L127.936,76.208 C126.064,76.208 124.624,75.344 123.472,73.616 C122.32,71.888 121.456,69.44 120.88,66.128 C120.736,64.832 120.304,58.784 119.728,48.128 C119.152,37.472 118.576,22.208 117.856,2.48 L117.856,1.328 C117.856,1.04 117.712,0.896 117.568,0.752 C117.424,0.896 117.28,1.04 117.136,1.184 C116.992,1.328 116.848,1.472 116.704,1.616 C115.84,2.912 115.12,4.064 114.544,5.072 C113.968,6.08 113.392,6.944 112.96,7.664 C112.096,8.96 111.376,9.968 110.944,10.688 C110.512,11.408 110.224,11.84 110.224,11.984 C110.512,14.144 110.8,16.448 111.088,18.896 C111.376,21.344 111.52,23.936 111.664,26.672 L114.256,70.736 C114.4,71.456 113.968,72.176 113.104,72.896 C112.24,73.616 110.944,74.192 109.36,74.624 C108.064,75.056 106.912,75.344 105.76,75.632 C104.608,75.92 103.456,76.064 102.448,76.064 L99.136,76.064 L99.136,85.856 L101.872,85.856 C105.04,85.856 107.92,85.136 110.512,83.696 C113.104,82.256 115.264,80.096 117.136,77.36 C118.144,80.096 119.584,82.256 121.312,83.696 C123.04,85.136 125.2,85.856 127.648,85.856 L130.96,85.856 L131.248,76.208 Z" id="Path"></path>
                    <path d="M182.656,2.912 C182.8,2.48 182.944,2.048 183.088,1.76 C183.232,1.472 183.376,1.184 183.376,1.04 L183.376,0.752 L183.088,0.752 C182.944,0.752 182.656,0.752 182.224,0.896 C181.792,1.04 181.36,1.184 180.784,1.472 C171.712,5.936 163.216,10.4 155.44,15.008 C147.664,19.616 140.608,24.368 134.128,29.12 C133.984,29.264 133.84,29.84 133.696,30.848 C133.552,31.856 133.408,33.296 133.264,35.168 C133.12,36.752 132.976,38.048 132.832,39.2 C132.688,40.352 132.688,41.216 132.688,41.936 C132.688,42.224 133.12,42.656 133.84,43.232 C134.56,43.808 135.712,44.528 137.296,45.536 C139.456,46.832 141.328,47.984 142.912,48.992 C144.496,50 145.792,50.864 146.8,51.584 C150.4,54.176 153.136,56.768 154.864,59.36 C156.592,61.952 157.456,64.4 157.456,66.848 C157.456,67.568 157.024,68.288 156.304,69.008 C155.584,69.728 154.432,70.592 152.992,71.456 C150.256,73.04 147.088,74.336 143.488,75.2 C139.888,76.064 135.856,76.496 131.392,76.496 L127.648,76.496 L127.648,86.288 L130.816,86.288 C138.448,86.288 144.784,85.28 149.824,83.264 C154.864,81.248 158.464,78.224 160.768,74.192 C161.2,73.472 161.488,72.032 161.632,70.016 C161.776,68 161.92,65.408 161.92,62.096 C161.92,60.08 161.488,58.064 160.624,55.904 C159.76,53.744 158.32,51.584 156.448,49.424 C154.864,47.696 153.136,46.112 151.264,44.672 C149.392,43.232 147.376,41.792 145.216,40.496 C143.488,39.344 142.048,38.336 140.752,37.616 C139.456,36.896 138.448,36.32 137.728,35.888 C142.48,32.432 148.24,28.832 154.864,25.088 C161.488,21.344 168.976,17.456 177.328,13.28 C178.624,10.832 179.632,8.816 180.496,7.088 C181.36,5.36 181.936,4.064 182.368,3.2 L182.656,2.912 Z" id="Path"></path>
                </g>
                <path d="M5.424,150 L7.44,150 L7.44,135.936 L12.192,135.936 L12.192,134.256 L0.672,134.256 L0.672,135.936 L5.424,135.936 L5.424,150 Z M13.728,150 L15.696,150 L15.696,142.512 C16.488,140.544 17.664,139.824 18.648,139.824 C19.128,139.824 19.392,139.896 19.776,140.016 L20.16,138.288 C19.776,138.12 19.416,138.048 18.912,138.048 C17.592,138.048 16.392,138.984 15.6,140.448 L15.528,140.448 L15.36,138.336 L13.728,138.336 L13.728,150 Z M24.168,150.288 C25.632,150.288 26.928,149.52 28.032,148.608 L28.104,148.608 L28.272,150 L29.904,150 L29.904,142.848 C29.904,139.944 28.704,138.048 25.848,138.048 C23.976,138.048 22.344,138.864 21.264,139.56 L22.032,140.928 C22.944,140.304 24.168,139.68 25.512,139.68 C27.432,139.68 27.912,141.12 27.912,142.608 C22.944,143.16 20.76,144.432 20.76,146.976 C20.76,149.064 22.224,150.288 24.168,150.288 L24.168,150.288 Z M24.744,148.704 C23.592,148.704 22.68,148.152 22.68,146.832 C22.68,145.344 24.024,144.384 27.912,143.904 L27.912,147.144 C26.784,148.152 25.872,148.704 24.744,148.704 L24.744,148.704 Z M33.576,150 L35.544,150 L35.544,141.552 C36.72,140.376 37.536,139.752 38.736,139.752 C40.272,139.752 40.944,140.688 40.944,142.872 L40.944,150 L42.912,150 L42.912,142.608 C42.912,139.632 41.808,138.048 39.36,138.048 C37.752,138.048 36.552,138.912 35.448,140.016 L35.376,140.016 L35.208,138.336 L33.576,138.336 L33.576,150 Z M49.752,150.288 C52.512,150.288 54.024,148.704 54.024,146.808 C54.024,144.6 52.152,143.904 50.472,143.28 C49.152,142.776 47.88,142.368 47.88,141.264 C47.88,140.376 48.552,139.584 50.016,139.584 C51.048,139.584 51.888,140.016 52.68,140.616 L53.616,139.368 C52.728,138.648 51.456,138.048 49.992,138.048 C47.472,138.048 45.984,139.488 45.984,141.36 C45.984,143.328 47.808,144.12 49.464,144.72 C50.736,145.2 52.128,145.728 52.128,146.928 C52.128,147.936 51.36,148.752 49.824,148.752 C48.432,148.752 47.4,148.176 46.392,147.36 L45.408,148.68 C46.512,149.592 48.096,150.288 49.752,150.288 L49.752,150.288 Z M56.76,154.92 L58.728,154.92 L58.728,150.984 L58.68,148.944 C59.76,149.784 60.84,150.288 61.92,150.288 C64.584,150.288 66.96,147.96 66.96,144 C66.96,140.376 65.352,138.048 62.352,138.048 C60.984,138.048 59.688,138.792 58.632,139.68 L58.56,139.68 L58.392,138.336 L56.76,138.336 L56.76,154.92 Z M61.584,148.632 C60.816,148.632 59.784,148.296 58.728,147.408 L58.728,141.288 C59.88,140.256 60.864,139.704 61.848,139.704 C64.056,139.704 64.92,141.432 64.92,144 C64.92,146.88 63.504,148.632 61.584,148.632 L61.584,148.632 Z M72.432,150.288 C73.896,150.288 75.192,149.52 76.296,148.608 L76.368,148.608 L76.536,150 L78.168,150 L78.168,142.848 C78.168,139.944 76.968,138.048 74.112,138.048 C72.24,138.048 70.608,138.864 69.528,139.56 L70.296,140.928 C71.208,140.304 72.432,139.68 73.776,139.68 C75.696,139.68 76.176,141.12 76.176,142.608 C71.208,143.16 69.024,144.432 69.024,146.976 C69.024,149.064 70.488,150.288 72.432,150.288 L72.432,150.288 Z M73.008,148.704 C71.856,148.704 70.944,148.152 70.944,146.832 C70.944,145.344 72.288,144.384 76.176,143.904 L76.176,147.144 C75.048,148.152 74.136,148.704 73.008,148.704 L73.008,148.704 Z M81.84,150 L83.808,150 L83.808,142.512 C84.6,140.544 85.776,139.824 86.76,139.824 C87.24,139.824 87.504,139.896 87.888,140.016 L88.272,138.288 C87.888,138.12 87.528,138.048 87.024,138.048 C85.704,138.048 84.504,138.984 83.712,140.448 L83.64,140.448 L83.472,138.336 L81.84,138.336 L81.84,150 Z M94.656,150.288 C96.24,150.288 97.488,149.736 98.496,149.088 L97.8,147.792 C96.936,148.344 96,148.704 94.896,148.704 C92.664,148.704 91.152,147.12 91.008,144.648 L98.88,144.648 C98.928,144.36 98.952,143.928 98.952,143.52 C98.952,140.184 97.272,138.048 94.296,138.048 C91.632,138.048 89.064,140.376 89.064,144.192 C89.064,148.008 91.536,150.288 94.656,150.288 L94.656,150.288 Z M90.984,143.232 C91.224,140.928 92.712,139.608 94.344,139.608 C96.168,139.608 97.224,140.88 97.224,143.232 L90.984,143.232 Z M101.832,150 L103.8,150 L103.8,141.552 C104.976,140.376 105.792,139.752 106.992,139.752 C108.528,139.752 109.2,140.688 109.2,142.872 L109.2,150 L111.168,150 L111.168,142.608 C111.168,139.632 110.064,138.048 107.616,138.048 C106.008,138.048 104.808,138.912 103.704,140.016 L103.632,140.016 L103.464,138.336 L101.832,138.336 L101.832,150 Z M118.632,150.288 C119.352,150.288 120.144,150.072 120.792,149.856 L120.408,148.368 C120.024,148.512 119.496,148.68 119.088,148.68 C117.744,148.68 117.288,147.864 117.288,146.424 L117.288,139.944 L120.432,139.944 L120.432,138.336 L117.288,138.336 L117.288,135.072 L115.632,135.072 L115.392,138.336 L113.568,138.456 L113.568,139.944 L115.296,139.944 L115.296,146.4 C115.296,148.704 116.136,150.288 118.632,150.288 L118.632,150.288 Z M131.04,154.224 L132.264,153.648 C130.416,150.6 129.504,146.976 129.504,143.328 C129.504,139.68 130.416,136.056 132.264,133.008 L131.04,132.432 C129.048,135.648 127.872,139.104 127.872,143.328 C127.872,147.552 129.048,151.008 131.04,154.224 L131.04,154.224 Z M136.992,150 L139.296,150 L140.928,143.76 C141.24,142.656 141.48,141.552 141.744,140.376 L141.84,140.376 C142.128,141.552 142.344,142.632 142.632,143.736 L144.312,150 L146.712,150 L149.832,138.336 L147.96,138.336 L146.256,145.08 C146.016,146.184 145.8,147.24 145.536,148.32 L145.44,148.32 C145.176,147.24 144.912,146.184 144.624,145.08 L142.8,138.336 L140.88,138.336 L139.08,145.08 C138.792,146.16 138.552,147.24 138.288,148.32 L138.192,148.32 C137.976,147.24 137.76,146.184 137.496,145.08 L135.768,138.336 L133.752,138.336 L136.992,150 Z M152.376,150 L154.344,150 L154.344,142.512 C155.136,140.544 156.312,139.824 157.296,139.824 C157.776,139.824 158.04,139.896 158.424,140.016 L158.808,138.288 C158.424,138.12 158.064,138.048 157.56,138.048 C156.24,138.048 155.04,138.984 154.248,140.448 L154.176,140.448 L154.008,138.336 L152.376,138.336 L152.376,150 Z M165,150.288 C167.856,150.288 170.4,148.056 170.4,144.192 C170.4,140.28 167.856,138.048 165,138.048 C162.144,138.048 159.6,140.28 159.6,144.192 C159.6,148.056 162.144,150.288 165,150.288 L165,150.288 Z M165,148.656 C163.008,148.656 161.64,146.856 161.64,144.192 C161.64,141.504 163.008,139.68 165,139.68 C167.016,139.68 168.36,141.504 168.36,144.192 C168.36,146.856 167.016,148.656 165,148.656 L165,148.656 Z M173.472,150 L175.44,150 L175.44,141.552 C176.616,140.376 177.432,139.752 178.632,139.752 C180.168,139.752 180.84,140.688 180.84,142.872 L180.84,150 L182.808,150 L182.808,142.608 C182.808,139.632 181.704,138.048 179.256,138.048 C177.648,138.048 176.448,138.912 175.344,140.016 L175.272,140.016 L175.104,138.336 L173.472,138.336 L173.472,150 Z M190.536,155.376 C194.16,155.376 196.44,153.504 196.44,151.344 C196.44,149.4 195.072,148.56 192.36,148.56 L190.104,148.56 C188.52,148.56 188.04,148.032 188.04,147.288 C188.04,146.64 188.376,146.256 188.784,145.896 C189.312,146.16 189.96,146.304 190.536,146.304 C192.912,146.304 194.808,144.744 194.808,142.248 C194.808,141.264 194.4,140.376 193.848,139.848 L196.248,139.848 L196.248,138.336 L192.192,138.336 C191.76,138.168 191.184,138.048 190.536,138.048 C188.16,138.048 186.144,139.656 186.144,142.2 C186.144,143.592 186.888,144.72 187.656,145.344 L187.656,145.44 C187.056,145.848 186.384,146.616 186.384,147.6 C186.384,148.512 186.84,149.136 187.416,149.496 L187.416,149.592 C186.36,150.312 185.712,151.248 185.712,152.232 C185.712,154.248 187.68,155.376 190.536,155.376 L190.536,155.376 Z M190.536,144.984 C189.192,144.984 188.064,143.904 188.064,142.2 C188.064,140.496 189.168,139.488 190.536,139.488 C191.904,139.488 193.008,140.496 193.008,142.2 C193.008,143.904 191.88,144.984 190.536,144.984 L190.536,144.984 Z M190.824,154.008 C188.712,154.008 187.44,153.216 187.44,151.968 C187.44,151.296 187.8,150.6 188.64,150 C189.144,150.144 189.696,150.192 190.152,150.192 L192.168,150.192 C193.68,150.192 194.52,150.552 194.52,151.632 C194.52,152.856 193.056,154.008 190.824,154.008 L190.824,154.008 Z M199.2,154.224 C201.192,151.008 202.368,147.552 202.368,143.328 C202.368,139.104 201.192,135.648 199.2,132.432 L197.976,133.008 C199.824,136.056 200.736,139.68 200.736,143.328 C200.736,146.976 199.824,150.6 197.976,153.648 L199.2,154.224 Z" id="Transparent-(wrong)"></path>
            </g>
            <g id="Group-4" transform="translate(503.000000, 1.000000)">
                <path d="M5.424,149 L7.44,149 L7.44,134.936 L12.192,134.936 L12.192,133.256 L0.672,133.256 L0.672,134.936 L5.424,134.936 L5.424,149 Z M13.728,149 L15.696,149 L15.696,141.512 C16.488,139.544 17.664,138.824 18.648,138.824 C19.128,138.824 19.392,138.896 19.776,139.016 L20.16,137.288 C19.776,137.12 19.416,137.048 18.912,137.048 C17.592,137.048 16.392,137.984 15.6,139.448 L15.528,139.448 L15.36,137.336 L13.728,137.336 L13.728,149 Z M24.168,149.288 C25.632,149.288 26.928,148.52 28.032,147.608 L28.104,147.608 L28.272,149 L29.904,149 L29.904,141.848 C29.904,138.944 28.704,137.048 25.848,137.048 C23.976,137.048 22.344,137.864 21.264,138.56 L22.032,139.928 C22.944,139.304 24.168,138.68 25.512,138.68 C27.432,138.68 27.912,140.12 27.912,141.608 C22.944,142.16 20.76,143.432 20.76,145.976 C20.76,148.064 22.224,149.288 24.168,149.288 L24.168,149.288 Z M24.744,147.704 C23.592,147.704 22.68,147.152 22.68,145.832 C22.68,144.344 24.024,143.384 27.912,142.904 L27.912,146.144 C26.784,147.152 25.872,147.704 24.744,147.704 L24.744,147.704 Z M33.576,149 L35.544,149 L35.544,140.552 C36.72,139.376 37.536,138.752 38.736,138.752 C40.272,138.752 40.944,139.688 40.944,141.872 L40.944,149 L42.912,149 L42.912,141.608 C42.912,138.632 41.808,137.048 39.36,137.048 C37.752,137.048 36.552,137.912 35.448,139.016 L35.376,139.016 L35.208,137.336 L33.576,137.336 L33.576,149 Z M49.752,149.288 C52.512,149.288 54.024,147.704 54.024,145.808 C54.024,143.6 52.152,142.904 50.472,142.28 C49.152,141.776 47.88,141.368 47.88,140.264 C47.88,139.376 48.552,138.584 50.016,138.584 C51.048,138.584 51.888,139.016 52.68,139.616 L53.616,138.368 C52.728,137.648 51.456,137.048 49.992,137.048 C47.472,137.048 45.984,138.488 45.984,140.36 C45.984,142.328 47.808,143.12 49.464,143.72 C50.736,144.2 52.128,144.728 52.128,145.928 C52.128,146.936 51.36,147.752 49.824,147.752 C48.432,147.752 47.4,147.176 46.392,146.36 L45.408,147.68 C46.512,148.592 48.096,149.288 49.752,149.288 L49.752,149.288 Z M56.76,153.92 L58.728,153.92 L58.728,149.984 L58.68,147.944 C59.76,148.784 60.84,149.288 61.92,149.288 C64.584,149.288 66.96,146.96 66.96,143 C66.96,139.376 65.352,137.048 62.352,137.048 C60.984,137.048 59.688,137.792 58.632,138.68 L58.56,138.68 L58.392,137.336 L56.76,137.336 L56.76,153.92 Z M61.584,147.632 C60.816,147.632 59.784,147.296 58.728,146.408 L58.728,140.288 C59.88,139.256 60.864,138.704 61.848,138.704 C64.056,138.704 64.92,140.432 64.92,143 C64.92,145.88 63.504,147.632 61.584,147.632 L61.584,147.632 Z M72.432,149.288 C73.896,149.288 75.192,148.52 76.296,147.608 L76.368,147.608 L76.536,149 L78.168,149 L78.168,141.848 C78.168,138.944 76.968,137.048 74.112,137.048 C72.24,137.048 70.608,137.864 69.528,138.56 L70.296,139.928 C71.208,139.304 72.432,138.68 73.776,138.68 C75.696,138.68 76.176,140.12 76.176,141.608 C71.208,142.16 69.024,143.432 69.024,145.976 C69.024,148.064 70.488,149.288 72.432,149.288 L72.432,149.288 Z M73.008,147.704 C71.856,147.704 70.944,147.152 70.944,145.832 C70.944,144.344 72.288,143.384 76.176,142.904 L76.176,146.144 C75.048,147.152 74.136,147.704 73.008,147.704 L73.008,147.704 Z M81.84,149 L83.808,149 L83.808,141.512 C84.6,139.544 85.776,138.824 86.76,138.824 C87.24,138.824 87.504,138.896 87.888,139.016 L88.272,137.288 C87.888,137.12 87.528,137.048 87.024,137.048 C85.704,137.048 84.504,137.984 83.712,139.448 L83.64,139.448 L83.472,137.336 L81.84,137.336 L81.84,149 Z M94.656,149.288 C96.24,149.288 97.488,148.736 98.496,148.088 L97.8,146.792 C96.936,147.344 96,147.704 94.896,147.704 C92.664,147.704 91.152,146.12 91.008,143.648 L98.88,143.648 C98.928,143.36 98.952,142.928 98.952,142.52 C98.952,139.184 97.272,137.048 94.296,137.048 C91.632,137.048 89.064,139.376 89.064,143.192 C89.064,147.008 91.536,149.288 94.656,149.288 L94.656,149.288 Z M90.984,142.232 C91.224,139.928 92.712,138.608 94.344,138.608 C96.168,138.608 97.224,139.88 97.224,142.232 L90.984,142.232 Z M101.832,149 L103.8,149 L103.8,140.552 C104.976,139.376 105.792,138.752 106.992,138.752 C108.528,138.752 109.2,139.688 109.2,141.872 L109.2,149 L111.168,149 L111.168,141.608 C111.168,138.632 110.064,137.048 107.616,137.048 C106.008,137.048 104.808,137.912 103.704,139.016 L103.632,139.016 L103.464,137.336 L101.832,137.336 L101.832,149 Z M118.632,149.288 C119.352,149.288 120.144,149.072 120.792,148.856 L120.408,147.368 C120.024,147.512 119.496,147.68 119.088,147.68 C117.744,147.68 117.288,146.864 117.288,145.424 L117.288,138.944 L120.432,138.944 L120.432,137.336 L117.288,137.336 L117.288,134.072 L115.632,134.072 L115.392,137.336 L113.568,137.456 L113.568,138.944 L115.296,138.944 L115.296,145.4 C115.296,147.704 116.136,149.288 118.632,149.288 L118.632,149.288 Z M131.04,153.224 L132.264,152.648 C130.416,149.6 129.504,145.976 129.504,142.328 C129.504,138.68 130.416,135.056 132.264,132.008 L131.04,131.432 C129.048,134.648 127.872,138.104 127.872,142.328 C127.872,146.552 129.048,150.008 131.04,153.224 L131.04,153.224 Z M139.752,149.288 C141.144,149.288 142.464,148.736 143.52,147.8 L142.656,146.48 C141.936,147.128 141,147.656 139.92,147.656 C137.784,147.656 136.32,145.856 136.32,143.192 C136.32,140.504 137.856,138.68 139.968,138.68 C140.904,138.68 141.624,139.112 142.296,139.712 L143.304,138.416 C142.488,137.672 141.432,137.048 139.896,137.048 C136.896,137.048 134.28,139.28 134.28,143.192 C134.28,147.056 136.656,149.288 139.752,149.288 L139.752,149.288 Z M150.12,149.288 C152.976,149.288 155.52,147.056 155.52,143.192 C155.52,139.28 152.976,137.048 150.12,137.048 C147.264,137.048 144.72,139.28 144.72,143.192 C144.72,147.056 147.264,149.288 150.12,149.288 L150.12,149.288 Z M150.12,147.656 C148.128,147.656 146.76,145.856 146.76,143.192 C146.76,140.504 148.128,138.68 150.12,138.68 C152.136,138.68 153.48,140.504 153.48,143.192 C153.48,145.856 152.136,147.656 150.12,147.656 L150.12,147.656 Z M158.592,149 L160.56,149 L160.56,141.512 C161.352,139.544 162.528,138.824 163.512,138.824 C163.992,138.824 164.256,138.896 164.64,139.016 L165.024,137.288 C164.64,137.12 164.28,137.048 163.776,137.048 C162.456,137.048 161.256,137.984 160.464,139.448 L160.392,139.448 L160.224,137.336 L158.592,137.336 L158.592,149 Z M166.92,149 L168.888,149 L168.888,141.512 C169.68,139.544 170.856,138.824 171.84,138.824 C172.32,138.824 172.584,138.896 172.968,139.016 L173.352,137.288 C172.968,137.12 172.608,137.048 172.104,137.048 C170.784,137.048 169.584,137.984 168.792,139.448 L168.72,139.448 L168.552,137.336 L166.92,137.336 L166.92,149 Z M179.736,149.288 C181.32,149.288 182.568,148.736 183.576,148.088 L182.88,146.792 C182.016,147.344 181.08,147.704 179.976,147.704 C177.744,147.704 176.232,146.12 176.088,143.648 L183.96,143.648 C184.008,143.36 184.032,142.928 184.032,142.52 C184.032,139.184 182.352,137.048 179.376,137.048 C176.712,137.048 174.144,139.376 174.144,143.192 C174.144,147.008 176.616,149.288 179.736,149.288 L179.736,149.288 Z M176.064,142.232 C176.304,139.928 177.792,138.608 179.424,138.608 C181.248,138.608 182.304,139.88 182.304,142.232 L176.064,142.232 Z M191.52,149.288 C192.912,149.288 194.232,148.736 195.288,147.8 L194.424,146.48 C193.704,147.128 192.768,147.656 191.688,147.656 C189.552,147.656 188.088,145.856 188.088,143.192 C188.088,140.504 189.624,138.68 191.736,138.68 C192.672,138.68 193.392,139.112 194.064,139.712 L195.072,138.416 C194.256,137.672 193.2,137.048 191.664,137.048 C188.664,137.048 186.048,139.28 186.048,143.192 C186.048,147.056 188.424,149.288 191.52,149.288 L191.52,149.288 Z M201.288,149.288 C202.008,149.288 202.8,149.072 203.448,148.856 L203.064,147.368 C202.68,147.512 202.152,147.68 201.744,147.68 C200.4,147.68 199.944,146.864 199.944,145.424 L199.944,138.944 L203.088,138.944 L203.088,137.336 L199.944,137.336 L199.944,134.072 L198.288,134.072 L198.048,137.336 L196.224,137.456 L196.224,138.944 L197.952,138.944 L197.952,145.4 C197.952,147.704 198.792,149.288 201.288,149.288 L201.288,149.288 Z M205.896,153.224 C207.888,150.008 209.064,146.552 209.064,142.328 C209.064,138.104 207.888,134.648 205.896,131.432 L204.672,132.008 C206.52,135.056 207.432,138.68 207.432,142.328 C207.432,145.976 206.52,149.6 204.672,152.648 L205.896,153.224 Z" id="Transparent-(correct"></path>
                <path d="M58.3704104,75.312 L60.504,75.312 C61.656,75.312 63.096,74.736 64.824,73.44 C66.552,72.144 68.568,70.272 70.872,67.824 C73.752,64.656 76.2,62.064 78.216,60.192 C80.232,58.32 81.672,57.024 82.68,56.448 C83.688,55.872 84.696,55.44 85.704,55.152 C86.712,54.864 87.864,54.72 89.016,54.72 C90.168,54.72 91.176,54.864 91.896,55.008 C92.616,55.152 93.192,55.44 93.48,55.728 C95.064,57.6 96.648,59.472 98.232,61.344 C99.816,63.216 101.4,65.232 102.984,67.248 C105.144,69.984 107.304,72 109.32,73.296 C111.336,74.592 113.208,75.312 115.08,75.312 L115.8,75.312 L116.52,75.312 C117.528,75.312 118.68,75.168 119.832,74.88 C120.984,74.592 122.136,74.304 123.432,73.872 C125.016,73.44 126.312,72.864 127.176,72.144 C128.04,71.424 128.472,70.704 128.328,69.984 L125.736,25.92 C125.592,23.184 125.448,20.592 125.16,18.144 C124.872,15.696 124.584,13.392 124.296,11.232 C124.296,11.088 124.584,10.656 125.016,9.936 C125.448,9.216 126.168,8.208 127.032,6.912 C127.464,6.192 128.04,5.328 128.616,4.32 C129.192,3.312 129.912,2.16 130.776,0.864 L131.208,0.432 C131.352,0.288 131.496,0.144 131.64,5.68434189e-14 C131.784,0.144 131.928,0.288 131.928,0.576 L131.928,1.728 C132.648,21.456 133.224,36.72 133.8,47.376 C134.376,58.032 134.808,64.08 134.952,65.376 C135.528,68.688 136.392,71.136 137.544,72.864 C138.696,74.592 140.136,75.456 142.008,75.456 L145.32,75.456 L145.311403,75.744 L145.464,75.744 C149.928,75.744 153.96,75.312 157.56,74.448 C161.16,73.584 164.328,72.288 167.064,70.704 C168.504,69.84 169.656,68.976 170.376,68.256 C171.096,67.536 171.528,66.816 171.528,66.096 C171.528,63.648 170.664,61.2 168.936,58.608 C167.208,56.016 164.472,53.424 160.872,50.832 C159.864,50.112 158.568,49.248 156.984,48.24 C155.4,47.232 153.528,46.08 151.368,44.784 C149.784,43.776 148.632,43.056 147.912,42.48 C147.192,41.904 146.76,41.472 146.76,41.184 C146.76,40.464 146.76,39.6 146.904,38.448 C147.048,37.296 147.192,36 147.336,34.416 C147.48,32.544 147.624,31.104 147.768,30.096 C147.912,29.088 148.056,28.512 148.2,28.368 C154.68,23.616 161.736,18.864 169.512,14.256 C177.288,9.648 185.784,5.184 194.856,0.72 C195.432,0.432 195.864,0.288 196.296,0.144 C196.728,5.68434189e-14 197.016,5.68434189e-14 197.16,5.68434189e-14 L197.448,5.68434189e-14 L197.448,0.288 C197.448,0.432 197.304,0.72 197.16,1.008 C197.016,1.296 196.872,1.728 196.728,2.16 L196.44,2.448 C196.008,3.312 195.432,4.608 194.568,6.336 C193.704,8.064 192.696,10.08 191.4,12.528 C183.048,16.704 175.56,20.592 168.936,24.336 C162.312,28.08 156.552,31.68 151.8,35.136 C152.52,35.568 153.528,36.144 154.824,36.864 C156.12,37.584 157.56,38.592 159.288,39.744 C161.448,41.04 163.464,42.48 165.336,43.92 C167.208,45.36 168.936,46.944 170.52,48.672 C172.392,50.832 173.832,52.992 174.696,55.152 C175.56,57.312 175.992,59.328 175.992,61.344 C175.992,64.656 175.848,67.248 175.704,69.264 C175.56,71.28 175.272,72.72 174.84,73.44 C172.536,77.472 168.936,80.496 163.896,82.512 C158.856,84.528 152.52,85.536 144.888,85.536 L141.72,85.536 L141.72,85.104 C139.272,85.104 137.112,84.384 135.384,82.944 C133.656,81.504 132.216,79.344 131.208,76.608 C129.336,79.344 127.176,81.504 124.584,82.944 C121.992,84.384 119.112,85.104 115.944,85.104 L113.208,85.104 L113.208,84.6667155 C111.560514,84.6065321 109.784514,84.0322936 107.88,82.944 C105.864,81.792 103.704,80.064 101.4,77.76 C101.256,78.192 100.824,78.912 100.248,79.92 C99.672,80.928 98.952,82.224 98.088,83.808 C97.08,85.392 96.216,86.688 95.64,87.552 C95.064,88.416 94.632,88.848 94.488,88.848 C92.616,88.848 90.6,88.56 88.44,87.984 C86.28,87.408 83.976,86.4 81.672,85.104 C79.512,83.808 77.496,82.512 75.768,81.072 C74.04,79.632 72.456,78.192 71.16,76.608 C69.288,79.344 67.56,81.504 65.976,82.944 C64.5031858,84.282922 63.0303715,84.9993745 61.6733126,85.0933575 L61.656,85.392 L59.352,85.392 C57.192,85.392 55.32,84.96 53.736,84.24 C52.152,83.52 50.712,82.368 49.56,80.928 C48.696,79.92 47.832,78.624 47.112,76.896 C46.392,75.168 45.672,73.152 44.952,70.704 C43.944,71.856 42.936,73.008 41.928,74.16 C40.92,75.312 39.768,76.464 38.472,77.616 C36.6,77.76 34.584,77.76 32.424,77.616 C30.264,77.472 27.816,77.04 25.224,76.464 C21.912,75.888 19.32,75.168 17.592,74.16 C15.864,73.152 15,72 15,70.704 C15,70.272 15.72,68.112 17.016,64.08 C18.312,60.048 19.032,58.032 19.176,57.888 C20.76,56.304 23.208,54.576 26.664,52.848 C30.12,51.12 34.44,49.248 39.768,47.376 L38.184,38.016 C38.328,37.584 38.76,36.576 39.48,35.136 C40.2,33.696 41.208,31.68 42.36,29.088 C42.792,28.08 43.08,28.08 43.224,28.944 C43.368,29.808 44.952,37.728 47.832,52.704 C48.552,56.016 49.128,58.752 49.704,60.912 C50.28,63.072 50.712,64.8 51.144,66.096 C52.152,69.12 53.448,71.424 54.888,73.008 C55.9863294,74.2161623 57.1684315,75.0054609 58.3704104,75.312 Z M84.84,76.032 C83.832,75.456 82.68,74.592 81.384,73.584 C80.088,72.576 78.648,71.424 77.064,70.128 C77.352,69.696 77.784,69.264 78.36,68.688 C78.936,68.112 79.656,67.536 80.52,66.816 C81.528,65.952 82.536,65.232 83.4,64.8 C84.264,64.368 85.128,64.08 85.848,64.08 C87.576,64.08 89.16,64.512 90.456,65.376 C91.752,66.24 92.904,67.536 93.768,69.264 C94.488,70.56 95.064,72.144 95.352,73.872 C95.64,75.6 95.784,77.328 95.64,79.2 C93.336,78.768 91.32,78.336 89.592,77.76 C87.864,77.184 86.28,76.608 84.984,75.888 L84.84,76.032 Z M23.64,65.088 C23.496,64.944 23.352,64.8 23.208,64.656 C23.064,64.512 23.064,64.368 23.064,64.224 C23.064,63.216 23.928,62.064 25.512,60.912 C27.096,59.76 29.544,58.464 32.712,57.168 L41.064,53.856 C41.784,57.456 42.504,60.48 43.08,62.928 C43.656,65.376 44.088,67.104 44.376,68.112 C39.048,67.968 34.584,67.68 31.128,67.248 C27.672,66.816 25.224,66.096 23.784,65.088 L23.64,65.088 Z" id="کلمه-copy-4" opacity="0.5"></path>
            </g>
        </g>
    </g>
</svg>