<?xml version="1.0" encoding="UTF-8" standalone="no"?>
<svg width="1280px" height="660px" viewBox="0 0 1280 660" version="1.1" xmlns="http://www.w3.org/2000/svg" xmlns:xlink="http://www.w3.org/1999/xlink">
    <!-- Generator: Sketch 3.7.2 (28276) - http://www.bohemiancoding.com/sketch -->
    <title>logical-visual-orders</title>
    <desc>Created with Sketch.</desc>
    <defs></defs>
    <g id="Page-6" stroke="none" stroke-width="1" fill="none" fill-rule="evenodd">
        <g id="Visual-order-Copy" transform="translate(0.000000, 390.000000)" fill="#000000">
            <g id="U+06A9" transform="translate(1175.000000, 99.000000)">
                <path d="M31.456,86 L42.976,86 C49.024,86 54.496,85.568 59.392,84.704 C64.288,83.84 68.464,82.544 72.064,80.672 C74.224,79.664 76.096,78.512 77.536,77.216 C78.976,75.92 80.128,74.48 80.992,72.896 C81.424,72.176 81.712,70.88 81.856,69.008 C82,67.136 82.144,64.688 82.144,61.664 C82.144,59.648 81.712,57.632 80.704,55.472 C79.696,53.312 78.256,51.152 76.384,48.992 C74.944,47.264 73.216,45.68 71.344,44.24 C69.472,42.8 67.456,41.36 65.296,40.064 C64.144,39.344 62.992,38.624 61.696,37.904 C60.4,37.184 59.104,36.32 57.664,35.456 C62.704,32 68.608,28.4 75.376,24.656 C82.144,20.912 89.776,17.024 98.272,13.136 C100.144,9.248 101.584,6.368 102.592,4.352 C103.6,2.336 104.032,1.328 104.032,1.184 C104.032,1.04 104.032,0.896 103.888,0.896 L103.456,0.896 C103.312,0.896 103.024,1.04 102.736,1.184 C102.448,1.328 102.016,1.472 101.584,1.616 C92.224,6.224 83.728,10.832 75.952,15.44 C68.176,20.048 61.12,24.656 54.928,29.264 C54.784,29.408 54.64,29.984 54.496,30.992 C54.352,32 54.208,33.44 54.064,35.312 C53.92,36.896 53.776,38.192 53.632,39.344 C53.488,40.496 53.488,41.36 53.488,42.08 C53.488,42.368 53.92,42.8 54.64,43.376 C55.36,43.952 56.512,44.672 58.096,45.536 C60.112,46.832 61.84,47.984 63.424,48.992 C65.008,50 66.304,51.008 67.312,51.872 C70.912,54.752 73.648,57.488 75.376,60.08 C77.104,62.672 77.968,64.976 77.968,67.136 C77.968,68 77.392,68.864 76.24,69.728 C75.088,70.592 73.216,71.6 70.768,72.608 C69.184,73.328 67.6,73.904 66.016,74.336 C64.432,74.768 62.848,75.2 61.408,75.488 L57.808,75.776 C53.776,75.92 49.888,76.064 46.288,76.208 C42.688,76.352 39.232,76.496 35.92,76.496 L33.472,76.496 L32.32,76.496 C24.112,76.496 17.92,75.344 13.744,73.04 C9.568,70.736 7.552,67.28 7.552,62.672 C7.552,61.952 7.696,60.8 7.984,59.36 C8.272,57.92 8.848,56.048 9.568,53.888 C9.856,52.88 10.144,52.016 10.432,51.296 C10.72,50.576 10.864,50.144 11.008,49.856 C10.576,49.568 10.144,49.28 9.568,48.992 C8.992,48.704 8.56,48.56 8.416,48.56 C7.984,48.56 7.408,49.136 6.688,50.288 C5.968,51.44 5.104,53.168 4.096,55.472 C3.088,57.92 2.224,60.224 1.648,62.384 C1.072,64.544 0.784,66.56 0.784,68.432 C0.784,74.336 3.376,78.8 8.416,81.824 C13.456,84.848 21.088,86.432 31.168,86.432 L31.456,86 Z M11.44,50.432 L11.44,49.568 L11.44,49.28 L11.152,49.28 C11.152,49.28 11.008,49.424 10.864,49.568 C11.008,49.712 11.152,49.856 11.296,50 C11.44,50.144 11.44,50.288 11.44,50.432 L11.44,50.432 Z" id="ک"></path>
                <path d="M7.112,170.384 C10.76,170.384 14.248,168.496 14.248,161.904 L14.248,148.912 L12.872,148.912 L12.872,161.744 C12.872,167.344 10.152,169.04 7.112,169.04 C4.136,169.04 1.512,167.344 1.512,161.744 L1.512,148.912 L0.04,148.912 L0.04,161.904 C0.04,168.496 3.496,170.384 7.112,170.384 L7.112,170.384 Z M24.296,166.48 L25.608,166.48 L25.608,160.048 L31.528,160.048 L31.528,158.832 L25.608,158.832 L25.608,152.4 L24.296,152.4 L24.296,158.832 L18.376,158.832 L18.376,160.048 L24.296,160.048 L24.296,166.48 Z M40.264,170.384 C44.168,170.384 46.376,166.512 46.376,159.696 C46.376,152.912 44.168,149.168 40.264,149.168 C36.36,149.168 34.152,152.912 34.152,159.696 C34.152,166.512 36.36,170.384 40.264,170.384 L40.264,170.384 Z M40.264,169.168 C37.448,169.168 35.592,165.936 35.592,159.696 C35.592,153.456 37.448,150.384 40.264,150.384 C43.112,150.384 44.936,153.456 44.936,159.696 C44.936,165.936 43.112,169.168 40.264,169.168 L40.264,169.168 Z M56.328,169.168 C53,169.168 51.336,166.256 51.08,161.936 C52.744,159.696 54.6,158.864 56.04,158.864 C59.144,158.864 60.456,161.04 60.456,163.984 C60.456,166.896 58.696,169.168 56.328,169.168 L56.328,169.168 Z M61.448,151.152 C60.392,149.968 59.048,149.168 57.128,149.168 C53.192,149.168 49.608,152.144 49.608,160.72 C49.608,166.928 52.2,170.384 56.296,170.384 C59.336,170.384 61.896,167.696 61.896,163.984 C61.896,159.856 59.784,157.648 56.2,157.648 C54.312,157.648 52.456,158.768 51.048,160.496 C51.112,152.976 53.896,150.416 57.128,150.416 C58.44,150.416 59.688,150.992 60.584,152.112 L61.448,151.152 Z M67.944,161.52 L69.288,157.584 C70.152,155.088 70.888,152.88 71.624,150.288 L71.752,150.288 C72.488,152.88 73.224,155.088 74.088,157.584 L75.432,161.52 L67.944,161.52 Z M78.312,170 L79.848,170 L72.424,148.912 L70.952,148.912 L63.528,170 L65,170 L67.496,162.768 L75.848,162.768 L78.312,170 Z M87.336,160.688 C84.2,160.688 82.888,158.512 82.888,155.536 C82.888,152.624 84.68,150.384 87.016,150.384 C90.344,150.384 92.04,153.264 92.296,157.584 C90.664,159.824 88.776,160.688 87.336,160.688 L87.336,160.688 Z M81.896,168.4 C82.92,169.584 84.328,170.384 86.216,170.384 C90.184,170.384 93.736,167.376 93.736,158.8 C93.736,152.592 91.144,149.168 87.08,149.168 C84.04,149.168 81.48,151.824 81.48,155.536 C81.48,159.664 83.592,161.872 87.144,161.872 C89.064,161.872 90.92,160.752 92.328,159.056 C92.264,166.576 89.48,169.136 86.248,169.136 C84.904,169.136 83.656,168.56 82.76,167.44 L81.896,168.4 Z"></path>
            </g>
            <g id="U+0644" transform="translate(1004.000000, 99.000000)">
                <path d="M68.616,9.248 L68.616,9.104 L68.616,9.248 Z M42.84,119.264 C46.296,119.264 49.752,118.832 53.208,117.968 C56.664,117.104 60.12,115.808 63.576,114.224 C66.168,112.928 68.328,111.776 70.056,110.624 C71.784,109.472 73.08,108.32 73.8,107.312 C74.232,106.88 74.664,106.16 75.24,105.008 C75.816,103.856 76.536,102.416 77.256,100.544 C77.976,98.672 78.552,97.088 78.984,95.792 C79.416,94.496 79.704,93.632 79.704,93.056 L79.704,75.2 L78.552,27.68 L78.12,16.592 C79.128,16.88 79.992,17.168 80.712,17.312 C81.432,17.456 82.008,17.6 82.44,17.6 C82.44,17.456 82.152,16.736 81.72,15.44 C81.288,14.144 80.568,12.272 79.56,9.824 C78.264,6.8 77.256,4.496 76.536,2.912 C75.816,1.328 75.384,0.32 75.24,0.032 C73.656,1.904 72.36,3.488 71.208,4.928 C70.056,6.368 69.048,7.52 68.328,8.528 C68.472,8.672 68.616,9.392 68.76,10.688 C68.904,11.984 69.192,13.712 69.48,15.872 C70.488,23.36 71.352,30.56 71.928,37.328 C72.504,44.096 72.792,50.576 72.936,56.624 L73.8,97.376 C73.8,98.384 72.648,99.68 70.344,101.12 C68.04,102.56 64.44,104.144 59.688,106.016 C57.384,106.88 54.936,107.6 52.344,108.032 C49.752,108.464 47.016,108.752 43.992,108.752 C41.688,108.752 39.528,108.464 37.512,108.032 C35.496,107.6 33.48,106.88 31.608,105.872 C29.448,104.576 27.72,103.136 26.568,101.408 C25.416,99.68 24.84,97.664 24.84,95.504 C24.84,94.64 24.984,93.344 25.272,91.616 C25.56,89.888 25.992,87.728 26.568,85.28 C26.856,84.128 27.144,83.12 27.288,82.256 C27.432,81.392 27.576,80.816 27.72,80.384 C27.288,80.096 26.712,79.808 25.992,79.52 C25.272,79.232 24.84,79.088 24.552,79.088 C24.264,79.088 23.832,79.664 23.256,80.96 C22.68,82.256 21.96,84.128 21.096,86.576 C20.088,89.312 19.368,91.904 18.936,94.208 C18.504,96.512 18.216,98.528 18.216,100.4 C18.216,103.712 18.936,106.592 20.232,109.04 C21.528,111.488 23.544,113.504 26.28,115.088 C28.44,116.384 30.888,117.392 33.624,117.968 C36.36,118.544 39.528,118.832 42.984,118.832 L42.84,119.264 Z M28.152,80.96 L28.152,80.096 L28.152,79.808 C28.152,79.808 28.152,79.808 28.152,79.952 C28.152,80.096 28.008,80.24 27.864,80.384 C28.008,80.528 28.152,80.672 28.296,80.816 C28.44,80.96 28.44,81.104 28.44,81.248 L28.152,80.96 Z" id="ل"></path>
                <path d="M7.82628571,170.384 C11.4742857,170.384 14.9622857,168.496 14.9622857,161.904 L14.9622857,148.912 L13.5862857,148.912 L13.5862857,161.744 C13.5862857,167.344 10.8662857,169.04 7.82628571,169.04 C4.85028571,169.04 2.22628571,167.344 2.22628571,161.744 L2.22628571,148.912 L0.754285714,148.912 L0.754285714,161.904 C0.754285714,168.496 4.21028571,170.384 7.82628571,170.384 L7.82628571,170.384 Z M25.0102857,166.48 L26.3222857,166.48 L26.3222857,160.048 L32.2422857,160.048 L32.2422857,158.832 L26.3222857,158.832 L26.3222857,152.4 L25.0102857,152.4 L25.0102857,158.832 L19.0902857,158.832 L19.0902857,160.048 L25.0102857,160.048 L25.0102857,166.48 Z M40.9782857,170.384 C44.8822857,170.384 47.0902857,166.512 47.0902857,159.696 C47.0902857,152.912 44.8822857,149.168 40.9782857,149.168 C37.0742857,149.168 34.8662857,152.912 34.8662857,159.696 C34.8662857,166.512 37.0742857,170.384 40.9782857,170.384 L40.9782857,170.384 Z M40.9782857,169.168 C38.1622857,169.168 36.3062857,165.936 36.3062857,159.696 C36.3062857,153.456 38.1622857,150.384 40.9782857,150.384 C43.8262857,150.384 45.6502857,153.456 45.6502857,159.696 C45.6502857,165.936 43.8262857,169.168 40.9782857,169.168 L40.9782857,169.168 Z M57.0422857,169.168 C53.7142857,169.168 52.0502857,166.256 51.7942857,161.936 C53.4582857,159.696 55.3142857,158.864 56.7542857,158.864 C59.8582857,158.864 61.1702857,161.04 61.1702857,163.984 C61.1702857,166.896 59.4102857,169.168 57.0422857,169.168 L57.0422857,169.168 Z M62.1622857,151.152 C61.1062857,149.968 59.7622857,149.168 57.8422857,149.168 C53.9062857,149.168 50.3222857,152.144 50.3222857,160.72 C50.3222857,166.928 52.9142857,170.384 57.0102857,170.384 C60.0502857,170.384 62.6102857,167.696 62.6102857,163.984 C62.6102857,159.856 60.4982857,157.648 56.9142857,157.648 C55.0262857,157.648 53.1702857,158.768 51.7622857,160.496 C51.8262857,152.976 54.6102857,150.416 57.8422857,150.416 C59.1542857,150.416 60.4022857,150.992 61.2982857,152.112 L62.1622857,151.152 Z M66.2262857,162.672 L72.2422857,154.224 C72.8182857,153.296 73.3942857,152.528 73.9062857,151.664 L74.0342857,151.664 C73.9702857,152.592 73.9062857,154.256 73.9062857,155.184 L73.9062857,162.672 L66.2262857,162.672 Z M78.3222857,162.672 L75.2822857,162.672 L75.2822857,149.552 L74.0022857,149.552 L64.4982857,163.056 L64.4982857,163.888 L73.9062857,163.888 L73.9062857,170 L75.2822857,170 L75.2822857,163.888 L78.3222857,163.888 L78.3222857,162.672 Z M81.5542857,162.672 L87.5702857,154.224 C88.1462857,153.296 88.7222857,152.528 89.2342857,151.664 L89.3622857,151.664 C89.2982857,152.592 89.2342857,154.256 89.2342857,155.184 L89.2342857,162.672 L81.5542857,162.672 Z M93.6502857,162.672 L90.6102857,162.672 L90.6102857,149.552 L89.3302857,149.552 L79.8262857,163.056 L79.8262857,163.888 L89.2342857,163.888 L89.2342857,170 L90.6102857,170 L90.6102857,163.888 L93.6502857,163.888 L93.6502857,162.672 Z"></path>
            </g>
            <g id="U+0645" transform="translate(838.000000, 145.000000)">
                <path d="M46.072,22.72 C45.64,22 45.352,20.848 45.208,19.264 C45.064,17.68 44.92,15.808 44.92,13.504 C44.92,12.64 45.208,11.92 45.64,11.488 C46.072,11.056 46.792,10.768 47.8,10.768 C51.832,10.768 55.288,11.632 58.168,13.36 C61.048,15.088 63.352,17.68 65.08,21.28 C62.056,21.136 59.032,21.28 55.864,21.568 C52.696,21.856 49.384,22.288 45.928,22.72 L46.072,22.72 Z M36.568,68.08 L36.568,66.496 L36.568,64.768 C36.568,63.472 36.424,61.312 36.28,58.144 C36.136,54.976 35.848,50.944 35.56,46.048 C35.416,43.744 35.272,41.872 35.128,40.288 C34.984,38.704 34.84,37.552 34.696,36.688 C35.128,36.112 35.992,35.536 37.288,34.96 C38.584,34.384 40.312,33.808 42.472,33.232 C44.776,32.512 47.08,31.936 49.24,31.504 C51.4,31.072 53.416,30.784 55.288,30.64 C56.008,30.496 56.728,30.352 57.304,30.352 L58.6,30.352 L61.048,30.352 L63.496,30.352 L63.784,30.352 C65.08,30.352 66.088,30.208 66.808,30.064 C67.528,29.92 67.96,29.632 68.104,29.344 C68.68,28.192 69.544,26.032 70.552,23.008 C71.56,19.984 72.136,17.968 72.136,16.96 C72.136,16.24 71.848,15.232 71.272,14.08 C70.696,12.928 69.688,11.632 68.392,10.048 C67.24,8.752 66.232,7.6 65.224,6.736 C64.216,5.872 63.352,5.152 62.488,4.72 C60.328,3.28 58.024,2.128 55.72,1.408 C53.416,0.688 51.112,0.256 48.808,0.256 C47.224,0.256 45.784,0.688 44.488,1.408 C43.192,2.128 42.04,3.28 41.032,4.72 C40.168,6.016 39.448,7.456 39.016,8.896 C38.584,10.336 38.296,11.92 38.296,13.504 C38.296,15.088 38.44,16.816 38.872,18.544 C39.304,20.272 39.88,22 40.6,23.872 L35.272,26.608 C33.976,27.328 32.968,27.904 32.248,28.48 C31.528,29.056 30.952,29.632 30.664,30.064 C30.232,31.648 29.8,33.376 29.368,35.104 C28.936,36.832 28.504,38.416 28.072,40 C28.504,42.16 28.936,44.464 29.224,46.912 C29.512,49.36 29.656,51.808 29.8,54.4 C29.944,57.712 30.088,61.168 30.088,64.768 C30.088,68.368 30.232,72.112 30.376,76 C31.384,75.424 32.68,74.128 34.264,72.256 C35.848,70.384 36.712,68.944 36.712,67.936 L36.568,68.08 Z" id="م"></path>
                <path d="M7.54057143,124.384 C11.1885714,124.384 14.6765714,122.496 14.6765714,115.904 L14.6765714,102.912 L13.3005714,102.912 L13.3005714,115.744 C13.3005714,121.344 10.5805714,123.04 7.54057143,123.04 C4.56457143,123.04 1.94057143,121.344 1.94057143,115.744 L1.94057143,102.912 L0.468571429,102.912 L0.468571429,115.904 C0.468571429,122.496 3.92457143,124.384 7.54057143,124.384 L7.54057143,124.384 Z M24.7245714,120.48 L26.0365714,120.48 L26.0365714,114.048 L31.9565714,114.048 L31.9565714,112.832 L26.0365714,112.832 L26.0365714,106.4 L24.7245714,106.4 L24.7245714,112.832 L18.8045714,112.832 L18.8045714,114.048 L24.7245714,114.048 L24.7245714,120.48 Z M40.6925714,124.384 C44.5965714,124.384 46.8045714,120.512 46.8045714,113.696 C46.8045714,106.912 44.5965714,103.168 40.6925714,103.168 C36.7885714,103.168 34.5805714,106.912 34.5805714,113.696 C34.5805714,120.512 36.7885714,124.384 40.6925714,124.384 L40.6925714,124.384 Z M40.6925714,123.168 C37.8765714,123.168 36.0205714,119.936 36.0205714,113.696 C36.0205714,107.456 37.8765714,104.384 40.6925714,104.384 C43.5405714,104.384 45.3645714,107.456 45.3645714,113.696 C45.3645714,119.936 43.5405714,123.168 40.6925714,123.168 L40.6925714,123.168 Z M56.7565714,123.168 C53.4285714,123.168 51.7645714,120.256 51.5085714,115.936 C53.1725714,113.696 55.0285714,112.864 56.4685714,112.864 C59.5725714,112.864 60.8845714,115.04 60.8845714,117.984 C60.8845714,120.896 59.1245714,123.168 56.7565714,123.168 L56.7565714,123.168 Z M61.8765714,105.152 C60.8205714,103.968 59.4765714,103.168 57.5565714,103.168 C53.6205714,103.168 50.0365714,106.144 50.0365714,114.72 C50.0365714,120.928 52.6285714,124.384 56.7245714,124.384 C59.7645714,124.384 62.3245714,121.696 62.3245714,117.984 C62.3245714,113.856 60.2125714,111.648 56.6285714,111.648 C54.7405714,111.648 52.8845714,112.768 51.4765714,114.496 C51.5405714,106.976 54.3245714,104.416 57.5565714,104.416 C58.8685714,104.416 60.1165714,104.992 61.0125714,106.112 L61.8765714,105.152 Z M65.9405714,116.672 L71.9565714,108.224 C72.5325714,107.296 73.1085714,106.528 73.6205714,105.664 L73.7485714,105.664 C73.6845714,106.592 73.6205714,108.256 73.6205714,109.184 L73.6205714,116.672 L65.9405714,116.672 Z M78.0365714,116.672 L74.9965714,116.672 L74.9965714,103.552 L73.7165714,103.552 L64.2125714,117.056 L64.2125714,117.888 L73.6205714,117.888 L73.6205714,124 L74.9965714,124 L74.9965714,117.888 L78.0365714,117.888 L78.0365714,116.672 Z M86.2925714,124.384 C89.5885714,124.384 92.8205714,121.92 92.8205714,117.568 C92.8205714,113.088 90.0365714,111.104 86.5805714,111.104 C85.0765714,111.104 83.9885714,111.552 82.9325714,112.192 L83.5725714,104.8 L91.7325714,104.8 L91.7325714,103.552 L82.2925714,103.552 L81.5565714,113.12 L82.5485714,113.728 C83.7645714,112.896 84.7885714,112.352 86.3565714,112.352 C89.3965714,112.352 91.3485714,114.336 91.3485714,117.632 C91.3485714,120.928 88.9805714,123.136 86.2605714,123.136 C83.4765714,123.136 81.8765714,121.888 80.6605714,120.64 L79.8605714,121.632 C81.1725714,122.944 83.0285714,124.384 86.2925714,124.384 L86.2925714,124.384 Z"></path>
            </g>
            <g id="U+0647" transform="translate(672.000000, 142.000000)">
                <path d="M44.7348571,0.376 C42.5748571,5.272 40.8468571,9.16 39.5508571,12.04 C38.2548571,14.92 37.5348571,16.792 37.2468571,17.512 C35.9508571,20.536 34.9428571,23.272 34.2228571,25.576 C33.5028571,27.88 33.2148571,29.896 33.2148571,31.48 C33.2148571,33.352 33.5028571,34.936 34.0788571,36.376 C34.6548571,37.816 35.5188571,39.112 36.6708571,40.12 C37.8228571,41.128 39.1188571,41.848 40.7028571,42.424 C42.2868571,43 44.0148571,43.288 45.8868571,43.288 C49.4868571,43.288 52.5108571,42.856 54.9588571,42.136 C57.4068571,41.416 59.2788571,40.264 60.5748571,38.824 C61.5828571,37.816 62.7348571,35.8 64.0308571,32.776 C65.3268571,29.752 65.9028571,27.592 65.9028571,26.296 C65.9028571,20.968 64.1748571,16.216 60.5748571,12.04 C56.9748571,7.864 51.6468571,4.12 44.4468571,0.952 L44.7348571,0.376 Z M54.5268571,32.92 C52.9428571,33.352 51.6468571,33.64 50.4948571,33.928 C49.3428571,34.216 48.3348571,34.36 47.6148571,34.36 C46.7508571,34.36 45.8868571,34.216 45.0228571,33.928 C44.1588571,33.64 43.2948571,33.208 42.4308571,32.632 C41.5668571,32.056 40.8468571,31.336 40.4148571,30.616 C39.9828571,29.896 39.6948571,29.176 39.6948571,28.456 C39.6948571,27.16 40.1268571,25.288 40.9908571,22.696 C41.8548571,20.104 43.2948571,16.792 45.1668571,12.904 C49.9188571,15.64 53.5188571,18.376 55.9668571,21.256 C58.4148571,24.136 59.5668571,27.016 59.5668571,30.04 C59.5668571,30.616 59.1348571,31.192 58.2708571,31.768 C57.4068571,32.344 56.1108571,32.92 54.3828571,33.352 L54.5268571,32.92 Z" id="ه"></path>
                <path d="M7.25485714,127.384 C10.9028571,127.384 14.3908571,125.496 14.3908571,118.904 L14.3908571,105.912 L13.0148571,105.912 L13.0148571,118.744 C13.0148571,124.344 10.2948571,126.04 7.25485714,126.04 C4.27885714,126.04 1.65485714,124.344 1.65485714,118.744 L1.65485714,105.912 L0.182857143,105.912 L0.182857143,118.904 C0.182857143,125.496 3.63885714,127.384 7.25485714,127.384 L7.25485714,127.384 Z M24.4388571,123.48 L25.7508571,123.48 L25.7508571,117.048 L31.6708571,117.048 L31.6708571,115.832 L25.7508571,115.832 L25.7508571,109.4 L24.4388571,109.4 L24.4388571,115.832 L18.5188571,115.832 L18.5188571,117.048 L24.4388571,117.048 L24.4388571,123.48 Z M40.4068571,127.384 C44.3108571,127.384 46.5188571,123.512 46.5188571,116.696 C46.5188571,109.912 44.3108571,106.168 40.4068571,106.168 C36.5028571,106.168 34.2948571,109.912 34.2948571,116.696 C34.2948571,123.512 36.5028571,127.384 40.4068571,127.384 L40.4068571,127.384 Z M40.4068571,126.168 C37.5908571,126.168 35.7348571,122.936 35.7348571,116.696 C35.7348571,110.456 37.5908571,107.384 40.4068571,107.384 C43.2548571,107.384 45.0788571,110.456 45.0788571,116.696 C45.0788571,122.936 43.2548571,126.168 40.4068571,126.168 L40.4068571,126.168 Z M56.4708571,126.168 C53.1428571,126.168 51.4788571,123.256 51.2228571,118.936 C52.8868571,116.696 54.7428571,115.864 56.1828571,115.864 C59.2868571,115.864 60.5988571,118.04 60.5988571,120.984 C60.5988571,123.896 58.8388571,126.168 56.4708571,126.168 L56.4708571,126.168 Z M61.5908571,108.152 C60.5348571,106.968 59.1908571,106.168 57.2708571,106.168 C53.3348571,106.168 49.7508571,109.144 49.7508571,117.72 C49.7508571,123.928 52.3428571,127.384 56.4388571,127.384 C59.4788571,127.384 62.0388571,124.696 62.0388571,120.984 C62.0388571,116.856 59.9268571,114.648 56.3428571,114.648 C54.4548571,114.648 52.5988571,115.768 51.1908571,117.496 C51.2548571,109.976 54.0388571,107.416 57.2708571,107.416 C58.5828571,107.416 59.8308571,107.992 60.7268571,109.112 L61.5908571,108.152 Z M65.6548571,119.672 L71.6708571,111.224 C72.2468571,110.296 72.8228571,109.528 73.3348571,108.664 L73.4628571,108.664 C73.3988571,109.592 73.3348571,111.256 73.3348571,112.184 L73.3348571,119.672 L65.6548571,119.672 Z M77.7508571,119.672 L74.7108571,119.672 L74.7108571,106.552 L73.4308571,106.552 L63.9268571,120.056 L63.9268571,120.888 L73.3348571,120.888 L73.3348571,127 L74.7108571,127 L74.7108571,120.888 L77.7508571,120.888 L77.7508571,119.672 Z M84.7588571,127 L86.2948571,127 C86.6148571,119 87.8308571,113.88 92.7268571,107.384 L92.7268571,106.552 L80.1508571,106.552 L80.1508571,107.8 L90.9348571,107.8 C86.8068571,113.56 85.0788571,118.744 84.7588571,127 L84.7588571,127 Z"></path>
            </g>
            <g id="U+0064" transform="translate(501.000000, 109.000000)">
                <path d="M41.76,87.44 C48.6,87.44 54.84,83.6 59.4,79.16 L59.76,79.16 L60.6,86 L68.76,86 L68.76,0.56 L58.8,0.56 L58.8,23 L59.28,32.96 C54.12,28.76 49.68,26.24 42.96,26.24 C29.64,26.24 17.64,38 17.64,56.96 C17.64,76.4 27.12,87.44 41.76,87.44 L41.76,87.44 Z M43.92,79.16 C33.72,79.16 27.84,70.76 27.84,56.84 C27.84,43.52 35.28,34.52 44.64,34.52 C49.44,34.52 53.88,36.2 58.8,40.64 L58.8,71.12 C54,76.52 49.32,79.16 43.92,79.16 L43.92,79.16 Z" id="d"></path>
                <path d="M7.112,160.384 C10.76,160.384 14.248,158.496 14.248,151.904 L14.248,138.912 L12.872,138.912 L12.872,151.744 C12.872,157.344 10.152,159.04 7.112,159.04 C4.136,159.04 1.512,157.344 1.512,151.744 L1.512,138.912 L0.04,138.912 L0.04,151.904 C0.04,158.496 3.496,160.384 7.112,160.384 L7.112,160.384 Z M24.296,156.48 L25.608,156.48 L25.608,150.048 L31.528,150.048 L31.528,148.832 L25.608,148.832 L25.608,142.4 L24.296,142.4 L24.296,148.832 L18.376,148.832 L18.376,150.048 L24.296,150.048 L24.296,156.48 Z M40.264,160.384 C44.168,160.384 46.376,156.512 46.376,149.696 C46.376,142.912 44.168,139.168 40.264,139.168 C36.36,139.168 34.152,142.912 34.152,149.696 C34.152,156.512 36.36,160.384 40.264,160.384 L40.264,160.384 Z M40.264,159.168 C37.448,159.168 35.592,155.936 35.592,149.696 C35.592,143.456 37.448,140.384 40.264,140.384 C43.112,140.384 44.936,143.456 44.936,149.696 C44.936,155.936 43.112,159.168 40.264,159.168 L40.264,159.168 Z M55.592,160.384 C59.496,160.384 61.704,156.512 61.704,149.696 C61.704,142.912 59.496,139.168 55.592,139.168 C51.688,139.168 49.48,142.912 49.48,149.696 C49.48,156.512 51.688,160.384 55.592,160.384 L55.592,160.384 Z M55.592,159.168 C52.776,159.168 50.92,155.936 50.92,149.696 C50.92,143.456 52.776,140.384 55.592,140.384 C58.44,140.384 60.264,143.456 60.264,149.696 C60.264,155.936 58.44,159.168 55.592,159.168 L55.592,159.168 Z M71.656,159.168 C68.328,159.168 66.664,156.256 66.408,151.936 C68.072,149.696 69.928,148.864 71.368,148.864 C74.472,148.864 75.784,151.04 75.784,153.984 C75.784,156.896 74.024,159.168 71.656,159.168 L71.656,159.168 Z M76.776,141.152 C75.72,139.968 74.376,139.168 72.456,139.168 C68.52,139.168 64.936,142.144 64.936,150.72 C64.936,156.928 67.528,160.384 71.624,160.384 C74.664,160.384 77.224,157.696 77.224,153.984 C77.224,149.856 75.112,147.648 71.528,147.648 C69.64,147.648 67.784,148.768 66.376,150.496 C66.44,142.976 69.224,140.416 72.456,140.416 C73.768,140.416 75.016,140.992 75.912,142.112 L76.776,141.152 Z M80.84,152.672 L86.856,144.224 C87.432,143.296 88.008,142.528 88.52,141.664 L88.648,141.664 C88.584,142.592 88.52,144.256 88.52,145.184 L88.52,152.672 L80.84,152.672 Z M92.936,152.672 L89.896,152.672 L89.896,139.552 L88.616,139.552 L79.112,153.056 L79.112,153.888 L88.52,153.888 L88.52,160 L89.896,160 L89.896,153.888 L92.936,153.888 L92.936,152.672 Z"></path>
            </g>
            <g id="U+0072" transform="translate(335.000000, 135.000000)">
                <path d="M34.6257143,60 L44.4657143,60 L44.4657143,22.56 C48.4257143,12.72 54.3057143,9.12 59.2257143,9.12 C61.6257143,9.12 62.9457143,9.48 64.8657143,10.08 L66.7857143,1.44 C64.8657143,0.6 63.0657143,0.24 60.5457143,0.24 C53.9457143,0.24 47.9457143,4.92 43.9857143,12.24 L43.6257143,12.24 L42.7857143,1.68 L34.6257143,1.68 L34.6257143,60 Z" id="r"></path>
                <path d="M7.39771429,134.384 C11.0457143,134.384 14.5337143,132.496 14.5337143,125.904 L14.5337143,112.912 L13.1577143,112.912 L13.1577143,125.744 C13.1577143,131.344 10.4377143,133.04 7.39771429,133.04 C4.42171429,133.04 1.79771429,131.344 1.79771429,125.744 L1.79771429,112.912 L0.325714286,112.912 L0.325714286,125.904 C0.325714286,132.496 3.78171429,134.384 7.39771429,134.384 L7.39771429,134.384 Z M24.5817143,130.48 L25.8937143,130.48 L25.8937143,124.048 L31.8137143,124.048 L31.8137143,122.832 L25.8937143,122.832 L25.8937143,116.4 L24.5817143,116.4 L24.5817143,122.832 L18.6617143,122.832 L18.6617143,124.048 L24.5817143,124.048 L24.5817143,130.48 Z M40.5497143,134.384 C44.4537143,134.384 46.6617143,130.512 46.6617143,123.696 C46.6617143,116.912 44.4537143,113.168 40.5497143,113.168 C36.6457143,113.168 34.4377143,116.912 34.4377143,123.696 C34.4377143,130.512 36.6457143,134.384 40.5497143,134.384 L40.5497143,134.384 Z M40.5497143,133.168 C37.7337143,133.168 35.8777143,129.936 35.8777143,123.696 C35.8777143,117.456 37.7337143,114.384 40.5497143,114.384 C43.3977143,114.384 45.2217143,117.456 45.2217143,123.696 C45.2217143,129.936 43.3977143,133.168 40.5497143,133.168 L40.5497143,133.168 Z M55.8777143,134.384 C59.7817143,134.384 61.9897143,130.512 61.9897143,123.696 C61.9897143,116.912 59.7817143,113.168 55.8777143,113.168 C51.9737143,113.168 49.7657143,116.912 49.7657143,123.696 C49.7657143,130.512 51.9737143,134.384 55.8777143,134.384 L55.8777143,134.384 Z M55.8777143,133.168 C53.0617143,133.168 51.2057143,129.936 51.2057143,123.696 C51.2057143,117.456 53.0617143,114.384 55.8777143,114.384 C58.7257143,114.384 60.5497143,117.456 60.5497143,123.696 C60.5497143,129.936 58.7257143,133.168 55.8777143,133.168 L55.8777143,133.168 Z M69.5737143,134 L71.1097143,134 C71.4297143,126 72.6457143,120.88 77.5417143,114.384 L77.5417143,113.552 L64.9657143,113.552 L64.9657143,114.8 L75.7497143,114.8 C71.6217143,120.56 69.8937143,125.744 69.5737143,134 L69.5737143,134 Z M80.1977143,134 L92.7417143,134 L92.7417143,132.72 L85.7657143,132.72 C84.6457143,132.72 83.4617143,132.816 82.3417143,132.88 C88.0057143,126.864 91.7177143,122.96 91.7177143,118.896 C91.7177143,115.44 89.6057143,113.168 85.9577143,113.168 C83.4617143,113.168 81.6697143,114.48 80.1337143,116.176 L81.0617143,117.072 C82.3097143,115.536 83.9737143,114.384 85.8297143,114.384 C88.9017143,114.384 90.2777143,116.368 90.2777143,118.928 C90.2777143,122.48 86.9177143,126.288 80.1977143,133.104 L80.1977143,134 Z"></path>
            </g>
            <g id="U+006F" transform="translate(169.000000, 135.000000)">
                <path d="M45.52,61.44 C59.8,61.44 72.52,50.28 72.52,30.96 C72.52,11.4 59.8,0.24 45.52,0.24 C31.24,0.24 18.52,11.4 18.52,30.96 C18.52,50.28 31.24,61.44 45.52,61.44 L45.52,61.44 Z M45.52,53.28 C35.56,53.28 28.72,44.28 28.72,30.96 C28.72,17.52 35.56,8.4 45.52,8.4 C55.6,8.4 62.32,17.52 62.32,30.96 C62.32,44.28 55.6,53.28 45.52,53.28 L45.52,53.28 Z" id="o"></path>
                <path d="M7.68342857,134.384 C11.3314286,134.384 14.8194286,132.496 14.8194286,125.904 L14.8194286,112.912 L13.4434286,112.912 L13.4434286,125.744 C13.4434286,131.344 10.7234286,133.04 7.68342857,133.04 C4.70742857,133.04 2.08342857,131.344 2.08342857,125.744 L2.08342857,112.912 L0.611428571,112.912 L0.611428571,125.904 C0.611428571,132.496 4.06742857,134.384 7.68342857,134.384 L7.68342857,134.384 Z M24.8674286,130.48 L26.1794286,130.48 L26.1794286,124.048 L32.0994286,124.048 L32.0994286,122.832 L26.1794286,122.832 L26.1794286,116.4 L24.8674286,116.4 L24.8674286,122.832 L18.9474286,122.832 L18.9474286,124.048 L24.8674286,124.048 L24.8674286,130.48 Z M40.8354286,134.384 C44.7394286,134.384 46.9474286,130.512 46.9474286,123.696 C46.9474286,116.912 44.7394286,113.168 40.8354286,113.168 C36.9314286,113.168 34.7234286,116.912 34.7234286,123.696 C34.7234286,130.512 36.9314286,134.384 40.8354286,134.384 L40.8354286,134.384 Z M40.8354286,133.168 C38.0194286,133.168 36.1634286,129.936 36.1634286,123.696 C36.1634286,117.456 38.0194286,114.384 40.8354286,114.384 C43.6834286,114.384 45.5074286,117.456 45.5074286,123.696 C45.5074286,129.936 43.6834286,133.168 40.8354286,133.168 L40.8354286,133.168 Z M56.1634286,134.384 C60.0674286,134.384 62.2754286,130.512 62.2754286,123.696 C62.2754286,116.912 60.0674286,113.168 56.1634286,113.168 C52.2594286,113.168 50.0514286,116.912 50.0514286,123.696 C50.0514286,130.512 52.2594286,134.384 56.1634286,134.384 L56.1634286,134.384 Z M56.1634286,133.168 C53.3474286,133.168 51.4914286,129.936 51.4914286,123.696 C51.4914286,117.456 53.3474286,114.384 56.1634286,114.384 C59.0114286,114.384 60.8354286,117.456 60.8354286,123.696 C60.8354286,129.936 59.0114286,133.168 56.1634286,133.168 L56.1634286,133.168 Z M72.2274286,133.168 C68.8994286,133.168 67.2354286,130.256 66.9794286,125.936 C68.6434286,123.696 70.4994286,122.864 71.9394286,122.864 C75.0434286,122.864 76.3554286,125.04 76.3554286,127.984 C76.3554286,130.896 74.5954286,133.168 72.2274286,133.168 L72.2274286,133.168 Z M77.3474286,115.152 C76.2914286,113.968 74.9474286,113.168 73.0274286,113.168 C69.0914286,113.168 65.5074286,116.144 65.5074286,124.72 C65.5074286,130.928 68.0994286,134.384 72.1954286,134.384 C75.2354286,134.384 77.7954286,131.696 77.7954286,127.984 C77.7954286,123.856 75.6834286,121.648 72.0994286,121.648 C70.2114286,121.648 68.3554286,122.768 66.9474286,124.496 C67.0114286,116.976 69.7954286,114.416 73.0274286,114.416 C74.3394286,114.416 75.5874286,114.992 76.4834286,116.112 L77.3474286,115.152 Z M82.2754286,134 L83.7474286,134 L83.7474286,123.856 L92.2274286,123.856 L92.2274286,122.576 L83.7474286,122.576 L83.7474286,114.192 L93.7634286,114.192 L93.7634286,112.912 L82.2754286,112.912 L82.2754286,134 Z"></path>
            </g>
            <g id="U+0077" transform="translate(3.000000, 136.000000)">
                <path d="M21.9371429,59 L33.4571429,59 L41.6171429,27.8 C43.1771429,22.28 44.3771429,16.76 45.6971429,10.88 L46.1771429,10.88 C47.6171429,16.76 48.6971429,22.16 50.1371429,27.68 L58.5371429,59 L70.5371429,59 L86.1371429,0.68 L76.7771429,0.68 L68.2571429,34.4 C67.0571429,39.92 65.9771429,45.2 64.6571429,50.6 L64.1771429,50.6 C62.8571429,45.2 61.5371429,39.92 60.0971429,34.4 L50.9771429,0.68 L41.3771429,0.68 L32.3771429,34.4 C30.9371429,39.8 29.7371429,45.2 28.4171429,50.6 L27.9371429,50.6 C26.8571429,45.2 25.7771429,39.92 24.4571429,34.4 L15.8171429,0.68 L5.73714286,0.68 L21.9371429,59 Z" id="w"></path>
                <path d="M7.96914286,133.384 C11.6171429,133.384 15.1051429,131.496 15.1051429,124.904 L15.1051429,111.912 L13.7291429,111.912 L13.7291429,124.744 C13.7291429,130.344 11.0091429,132.04 7.96914286,132.04 C4.99314286,132.04 2.36914286,130.344 2.36914286,124.744 L2.36914286,111.912 L0.897142857,111.912 L0.897142857,124.904 C0.897142857,131.496 4.35314286,133.384 7.96914286,133.384 L7.96914286,133.384 Z M25.1531429,129.48 L26.4651429,129.48 L26.4651429,123.048 L32.3851429,123.048 L32.3851429,121.832 L26.4651429,121.832 L26.4651429,115.4 L25.1531429,115.4 L25.1531429,121.832 L19.2331429,121.832 L19.2331429,123.048 L25.1531429,123.048 L25.1531429,129.48 Z M41.1211429,133.384 C45.0251429,133.384 47.2331429,129.512 47.2331429,122.696 C47.2331429,115.912 45.0251429,112.168 41.1211429,112.168 C37.2171429,112.168 35.0091429,115.912 35.0091429,122.696 C35.0091429,129.512 37.2171429,133.384 41.1211429,133.384 L41.1211429,133.384 Z M41.1211429,132.168 C38.3051429,132.168 36.4491429,128.936 36.4491429,122.696 C36.4491429,116.456 38.3051429,113.384 41.1211429,113.384 C43.9691429,113.384 45.7931429,116.456 45.7931429,122.696 C45.7931429,128.936 43.9691429,132.168 41.1211429,132.168 L41.1211429,132.168 Z M56.4491429,133.384 C60.3531429,133.384 62.5611429,129.512 62.5611429,122.696 C62.5611429,115.912 60.3531429,112.168 56.4491429,112.168 C52.5451429,112.168 50.3371429,115.912 50.3371429,122.696 C50.3371429,129.512 52.5451429,133.384 56.4491429,133.384 L56.4491429,133.384 Z M56.4491429,132.168 C53.6331429,132.168 51.7771429,128.936 51.7771429,122.696 C51.7771429,116.456 53.6331429,113.384 56.4491429,113.384 C59.2971429,113.384 61.1211429,116.456 61.1211429,122.696 C61.1211429,128.936 59.2971429,132.168 56.4491429,132.168 L56.4491429,132.168 Z M70.1451429,133 L71.6811429,133 C72.0011429,125 73.2171429,119.88 78.1131429,113.384 L78.1131429,112.552 L65.5371429,112.552 L65.5371429,113.8 L76.3211429,113.8 C72.1931429,119.56 70.4651429,124.744 70.1451429,133 L70.1451429,133 Z M85.4731429,133 L87.0091429,133 C87.3291429,125 88.5451429,119.88 93.4411429,113.384 L93.4411429,112.552 L80.8651429,112.552 L80.8651429,113.8 L91.6491429,113.8 C87.5211429,119.56 85.7931429,124.744 85.4731429,133 L85.4731429,133 Z"></path>
            </g>
            <path d="M10.656,35 L13.008,35 L23.376,3.368 L21.12,3.368 L15.264,21.848 C14.064,25.688 13.248,28.616 11.952,32.456 L11.76,32.456 C10.464,28.616 9.6,25.688 8.4,21.848 L2.544,3.368 L0.192,3.368 L10.656,35 Z M27.984,35 L30.096,35 L30.096,11.96 L27.984,11.96 L27.984,35 Z M29.088,6.392 C30.144,6.392 31.008,5.624 31.008,4.52 C31.008,3.32 30.144,2.6 29.088,2.6 C28.032,2.6 27.168,3.32 27.168,4.52 C27.168,5.624 28.032,6.392 29.088,6.392 L29.088,6.392 Z M44.544,35.576 C49.536,35.576 52.32,32.552 52.32,29.096 C52.32,24.584 48.384,23.384 44.784,22.04 C42.048,21.032 39.36,20.024 39.36,17.384 C39.36,15.272 40.992,13.208 44.544,13.208 C46.896,13.208 48.528,14.12 50.064,15.272 L51.216,13.784 C49.536,12.392 47.088,11.384 44.64,11.384 C39.84,11.384 37.2,14.168 37.2,17.528 C37.2,21.464 41.04,22.856 44.544,24.104 C47.184,25.064 50.16,26.312 50.16,29.192 C50.16,31.64 48.288,33.752 44.688,33.752 C41.376,33.752 39.312,32.456 37.344,30.824 L36.096,32.408 C38.16,34.136 41.136,35.576 44.544,35.576 L44.544,35.576 Z M65.04,35.576 C68.208,35.576 70.608,33.8 72.864,31.16 L72.96,31.16 L73.2,35 L74.976,35 L74.976,11.96 L72.864,11.96 L72.864,28.952 C70.176,32.216 68.16,33.656 65.424,33.656 C61.728,33.656 60.192,31.352 60.192,26.456 L60.192,11.96 L58.08,11.96 L58.08,26.744 C58.08,32.696 60.288,35.576 65.04,35.576 L65.04,35.576 Z M88.848,35.576 C91.872,35.576 94.656,33.896 97.008,32.024 L97.152,32.024 L97.344,35 L99.168,35 L99.168,20.264 C99.168,15.32 97.296,11.384 91.872,11.384 C88.128,11.384 84.912,13.208 83.28,14.36 L84.24,15.944 C85.824,14.792 88.512,13.256 91.584,13.256 C96.144,13.256 97.104,17.048 97.056,20.552 C86.784,21.704 82.176,24.152 82.176,29.24 C82.176,33.608 85.2,35.576 88.848,35.576 L88.848,35.576 Z M89.232,33.752 C86.592,33.752 84.336,32.456 84.336,29.144 C84.336,25.496 87.552,23.288 97.056,22.184 L97.056,30.008 C94.176,32.456 91.872,33.752 89.232,33.752 L89.232,33.752 Z M110.208,35.576 C110.88,35.576 111.312,35.48 111.744,35.336 L111.36,33.608 C110.88,33.704 110.688,33.704 110.496,33.704 C109.92,33.704 109.488,33.224 109.488,32.216 L109.488,0.488 L107.376,0.488 L107.376,31.928 C107.376,34.424 108.336,35.576 110.208,35.576 L110.208,35.576 Z M136.752,35.576 C142.32,35.576 147.12,31.16 147.12,23.528 C147.12,15.8 142.32,11.384 136.752,11.384 C131.232,11.384 126.432,15.8 126.432,23.528 C126.432,31.16 131.232,35.576 136.752,35.576 L136.752,35.576 Z M136.752,33.704 C132.096,33.704 128.64,29.576 128.64,23.528 C128.64,17.432 132.096,13.256 136.752,13.256 C141.408,13.256 144.912,17.432 144.912,23.528 C144.912,29.576 141.408,33.704 136.752,33.704 L136.752,33.704 Z M154.032,35 L156.144,35 L156.144,19.304 C157.92,14.984 160.368,13.4 162.432,13.4 C163.344,13.4 163.776,13.496 164.544,13.784 L165.024,11.864 C164.256,11.48 163.584,11.384 162.72,11.384 C159.984,11.384 157.728,13.4 156.192,16.232 L156.048,16.232 L155.856,11.96 L154.032,11.96 L154.032,35 Z M176.4,35.576 C179.472,35.576 182.016,33.896 183.888,32.024 L184.032,32.024 L184.224,35 L186.048,35 L186.048,0.488 L183.936,0.488 L183.936,9.992 L184.032,14.216 C181.728,12.44 179.856,11.384 177.072,11.384 C171.6,11.384 166.848,16.088 166.848,23.528 C166.848,31.304 170.592,35.576 176.4,35.576 L176.4,35.576 Z M176.688,33.704 C171.792,33.704 169.104,29.624 169.104,23.528 C169.104,17.72 172.608,13.256 177.216,13.256 C179.472,13.256 181.488,14.072 183.936,16.232 L183.936,29.912 C181.488,32.36 179.232,33.704 176.688,33.704 L176.688,33.704 Z M203.616,35.576 C206.976,35.576 209.04,34.424 210.864,33.32 L210,31.688 C208.272,32.936 206.304,33.752 203.808,33.752 C198.624,33.752 195.216,29.576 195.12,23.768 L211.728,23.768 C211.824,23.192 211.824,22.616 211.824,22.04 C211.824,15.272 208.464,11.384 202.992,11.384 C197.856,11.384 192.96,15.992 192.96,23.528 C192.96,31.064 197.712,35.576 203.616,35.576 L203.616,35.576 Z M195.12,22.04 C195.6,16.52 199.104,13.208 203.04,13.208 C207.168,13.208 209.808,16.136 209.808,22.04 L195.12,22.04 Z M218.064,35 L220.176,35 L220.176,19.304 C221.952,14.984 224.4,13.4 226.464,13.4 C227.376,13.4 227.808,13.496 228.576,13.784 L229.056,11.864 C228.288,11.48 227.616,11.384 226.752,11.384 C224.016,11.384 221.76,13.4 220.224,16.232 L220.08,16.232 L219.888,11.96 L218.064,11.96 L218.064,35 Z" id="Visual-order"></path>
        </g>
        <g id="Logical-order-Copy" transform="translate(4.000000, 0.000000)" fill="#000000">
            <g id="U+0064" transform="translate(1166.000000, 109.000000)">
                <path d="M41.76,87.44 C48.6,87.44 54.84,83.6 59.4,79.16 L59.76,79.16 L60.6,86 L68.76,86 L68.76,0.56 L58.8,0.56 L58.8,23 L59.28,32.96 C54.12,28.76 49.68,26.24 42.96,26.24 C29.64,26.24 17.64,38 17.64,56.96 C17.64,76.4 27.12,87.44 41.76,87.44 L41.76,87.44 Z M43.92,79.16 C33.72,79.16 27.84,70.76 27.84,56.84 C27.84,43.52 35.28,34.52 44.64,34.52 C49.44,34.52 53.88,36.2 58.8,40.64 L58.8,71.12 C54,76.52 49.32,79.16 43.92,79.16 L43.92,79.16 Z" id="d"></path>
                <path d="M7.112,160.384 C10.76,160.384 14.248,158.496 14.248,151.904 L14.248,138.912 L12.872,138.912 L12.872,151.744 C12.872,157.344 10.152,159.04 7.112,159.04 C4.136,159.04 1.512,157.344 1.512,151.744 L1.512,138.912 L0.04,138.912 L0.04,151.904 C0.04,158.496 3.496,160.384 7.112,160.384 L7.112,160.384 Z M24.296,156.48 L25.608,156.48 L25.608,150.048 L31.528,150.048 L31.528,148.832 L25.608,148.832 L25.608,142.4 L24.296,142.4 L24.296,148.832 L18.376,148.832 L18.376,150.048 L24.296,150.048 L24.296,156.48 Z M40.264,160.384 C44.168,160.384 46.376,156.512 46.376,149.696 C46.376,142.912 44.168,139.168 40.264,139.168 C36.36,139.168 34.152,142.912 34.152,149.696 C34.152,156.512 36.36,160.384 40.264,160.384 L40.264,160.384 Z M40.264,159.168 C37.448,159.168 35.592,155.936 35.592,149.696 C35.592,143.456 37.448,140.384 40.264,140.384 C43.112,140.384 44.936,143.456 44.936,149.696 C44.936,155.936 43.112,159.168 40.264,159.168 L40.264,159.168 Z M55.592,160.384 C59.496,160.384 61.704,156.512 61.704,149.696 C61.704,142.912 59.496,139.168 55.592,139.168 C51.688,139.168 49.48,142.912 49.48,149.696 C49.48,156.512 51.688,160.384 55.592,160.384 L55.592,160.384 Z M55.592,159.168 C52.776,159.168 50.92,155.936 50.92,149.696 C50.92,143.456 52.776,140.384 55.592,140.384 C58.44,140.384 60.264,143.456 60.264,149.696 C60.264,155.936 58.44,159.168 55.592,159.168 L55.592,159.168 Z M71.656,159.168 C68.328,159.168 66.664,156.256 66.408,151.936 C68.072,149.696 69.928,148.864 71.368,148.864 C74.472,148.864 75.784,151.04 75.784,153.984 C75.784,156.896 74.024,159.168 71.656,159.168 L71.656,159.168 Z M76.776,141.152 C75.72,139.968 74.376,139.168 72.456,139.168 C68.52,139.168 64.936,142.144 64.936,150.72 C64.936,156.928 67.528,160.384 71.624,160.384 C74.664,160.384 77.224,157.696 77.224,153.984 C77.224,149.856 75.112,147.648 71.528,147.648 C69.64,147.648 67.784,148.768 66.376,150.496 C66.44,142.976 69.224,140.416 72.456,140.416 C73.768,140.416 75.016,140.992 75.912,142.112 L76.776,141.152 Z M80.84,152.672 L86.856,144.224 C87.432,143.296 88.008,142.528 88.52,141.664 L88.648,141.664 C88.584,142.592 88.52,144.256 88.52,145.184 L88.52,152.672 L80.84,152.672 Z M92.936,152.672 L89.896,152.672 L89.896,139.552 L88.616,139.552 L79.112,153.056 L79.112,153.888 L88.52,153.888 L88.52,160 L89.896,160 L89.896,153.888 L92.936,153.888 L92.936,152.672 Z"></path>
            </g>
            <g id="U+0072" transform="translate(1000.000000, 135.000000)">
                <path d="M34.6257143,60 L44.4657143,60 L44.4657143,22.56 C48.4257143,12.72 54.3057143,9.12 59.2257143,9.12 C61.6257143,9.12 62.9457143,9.48 64.8657143,10.08 L66.7857143,1.44 C64.8657143,0.6 63.0657143,0.24 60.5457143,0.24 C53.9457143,0.24 47.9457143,4.92 43.9857143,12.24 L43.6257143,12.24 L42.7857143,1.68 L34.6257143,1.68 L34.6257143,60 Z" id="r"></path>
                <path d="M7.39771429,134.384 C11.0457143,134.384 14.5337143,132.496 14.5337143,125.904 L14.5337143,112.912 L13.1577143,112.912 L13.1577143,125.744 C13.1577143,131.344 10.4377143,133.04 7.39771429,133.04 C4.42171429,133.04 1.79771429,131.344 1.79771429,125.744 L1.79771429,112.912 L0.325714286,112.912 L0.325714286,125.904 C0.325714286,132.496 3.78171429,134.384 7.39771429,134.384 L7.39771429,134.384 Z M24.5817143,130.48 L25.8937143,130.48 L25.8937143,124.048 L31.8137143,124.048 L31.8137143,122.832 L25.8937143,122.832 L25.8937143,116.4 L24.5817143,116.4 L24.5817143,122.832 L18.6617143,122.832 L18.6617143,124.048 L24.5817143,124.048 L24.5817143,130.48 Z M40.5497143,134.384 C44.4537143,134.384 46.6617143,130.512 46.6617143,123.696 C46.6617143,116.912 44.4537143,113.168 40.5497143,113.168 C36.6457143,113.168 34.4377143,116.912 34.4377143,123.696 C34.4377143,130.512 36.6457143,134.384 40.5497143,134.384 L40.5497143,134.384 Z M40.5497143,133.168 C37.7337143,133.168 35.8777143,129.936 35.8777143,123.696 C35.8777143,117.456 37.7337143,114.384 40.5497143,114.384 C43.3977143,114.384 45.2217143,117.456 45.2217143,123.696 C45.2217143,129.936 43.3977143,133.168 40.5497143,133.168 L40.5497143,133.168 Z M55.8777143,134.384 C59.7817143,134.384 61.9897143,130.512 61.9897143,123.696 C61.9897143,116.912 59.7817143,113.168 55.8777143,113.168 C51.9737143,113.168 49.7657143,116.912 49.7657143,123.696 C49.7657143,130.512 51.9737143,134.384 55.8777143,134.384 L55.8777143,134.384 Z M55.8777143,133.168 C53.0617143,133.168 51.2057143,129.936 51.2057143,123.696 C51.2057143,117.456 53.0617143,114.384 55.8777143,114.384 C58.7257143,114.384 60.5497143,117.456 60.5497143,123.696 C60.5497143,129.936 58.7257143,133.168 55.8777143,133.168 L55.8777143,133.168 Z M69.5737143,134 L71.1097143,134 C71.4297143,126 72.6457143,120.88 77.5417143,114.384 L77.5417143,113.552 L64.9657143,113.552 L64.9657143,114.8 L75.7497143,114.8 C71.6217143,120.56 69.8937143,125.744 69.5737143,134 L69.5737143,134 Z M80.1977143,134 L92.7417143,134 L92.7417143,132.72 L85.7657143,132.72 C84.6457143,132.72 83.4617143,132.816 82.3417143,132.88 C88.0057143,126.864 91.7177143,122.96 91.7177143,118.896 C91.7177143,115.44 89.6057143,113.168 85.9577143,113.168 C83.4617143,113.168 81.6697143,114.48 80.1337143,116.176 L81.0617143,117.072 C82.3097143,115.536 83.9737143,114.384 85.8297143,114.384 C88.9017143,114.384 90.2777143,116.368 90.2777143,118.928 C90.2777143,122.48 86.9177143,126.288 80.1977143,133.104 L80.1977143,134 Z"></path>
            </g>
            <g id="U+006F" transform="translate(834.000000, 135.000000)">
                <path d="M45.52,61.44 C59.8,61.44 72.52,50.28 72.52,30.96 C72.52,11.4 59.8,0.24 45.52,0.24 C31.24,0.24 18.52,11.4 18.52,30.96 C18.52,50.28 31.24,61.44 45.52,61.44 L45.52,61.44 Z M45.52,53.28 C35.56,53.28 28.72,44.28 28.72,30.96 C28.72,17.52 35.56,8.4 45.52,8.4 C55.6,8.4 62.32,17.52 62.32,30.96 C62.32,44.28 55.6,53.28 45.52,53.28 L45.52,53.28 Z" id="o"></path>
                <path d="M7.68342857,134.384 C11.3314286,134.384 14.8194286,132.496 14.8194286,125.904 L14.8194286,112.912 L13.4434286,112.912 L13.4434286,125.744 C13.4434286,131.344 10.7234286,133.04 7.68342857,133.04 C4.70742857,133.04 2.08342857,131.344 2.08342857,125.744 L2.08342857,112.912 L0.611428571,112.912 L0.611428571,125.904 C0.611428571,132.496 4.06742857,134.384 7.68342857,134.384 L7.68342857,134.384 Z M24.8674286,130.48 L26.1794286,130.48 L26.1794286,124.048 L32.0994286,124.048 L32.0994286,122.832 L26.1794286,122.832 L26.1794286,116.4 L24.8674286,116.4 L24.8674286,122.832 L18.9474286,122.832 L18.9474286,124.048 L24.8674286,124.048 L24.8674286,130.48 Z M40.8354286,134.384 C44.7394286,134.384 46.9474286,130.512 46.9474286,123.696 C46.9474286,116.912 44.7394286,113.168 40.8354286,113.168 C36.9314286,113.168 34.7234286,116.912 34.7234286,123.696 C34.7234286,130.512 36.9314286,134.384 40.8354286,134.384 L40.8354286,134.384 Z M40.8354286,133.168 C38.0194286,133.168 36.1634286,129.936 36.1634286,123.696 C36.1634286,117.456 38.0194286,114.384 40.8354286,114.384 C43.6834286,114.384 45.5074286,117.456 45.5074286,123.696 C45.5074286,129.936 43.6834286,133.168 40.8354286,133.168 L40.8354286,133.168 Z M56.1634286,134.384 C60.0674286,134.384 62.2754286,130.512 62.2754286,123.696 C62.2754286,116.912 60.0674286,113.168 56.1634286,113.168 C52.2594286,113.168 50.0514286,116.912 50.0514286,123.696 C50.0514286,130.512 52.2594286,134.384 56.1634286,134.384 L56.1634286,134.384 Z M56.1634286,133.168 C53.3474286,133.168 51.4914286,129.936 51.4914286,123.696 C51.4914286,117.456 53.3474286,114.384 56.1634286,114.384 C59.0114286,114.384 60.8354286,117.456 60.8354286,123.696 C60.8354286,129.936 59.0114286,133.168 56.1634286,133.168 L56.1634286,133.168 Z M72.2274286,133.168 C68.8994286,133.168 67.2354286,130.256 66.9794286,125.936 C68.6434286,123.696 70.4994286,122.864 71.9394286,122.864 C75.0434286,122.864 76.3554286,125.04 76.3554286,127.984 C76.3554286,130.896 74.5954286,133.168 72.2274286,133.168 L72.2274286,133.168 Z M77.3474286,115.152 C76.2914286,113.968 74.9474286,113.168 73.0274286,113.168 C69.0914286,113.168 65.5074286,116.144 65.5074286,124.72 C65.5074286,130.928 68.0994286,134.384 72.1954286,134.384 C75.2354286,134.384 77.7954286,131.696 77.7954286,127.984 C77.7954286,123.856 75.6834286,121.648 72.0994286,121.648 C70.2114286,121.648 68.3554286,122.768 66.9474286,124.496 C67.0114286,116.976 69.7954286,114.416 73.0274286,114.416 C74.3394286,114.416 75.5874286,114.992 76.4834286,116.112 L77.3474286,115.152 Z M82.2754286,134 L83.7474286,134 L83.7474286,123.856 L92.2274286,123.856 L92.2274286,122.576 L83.7474286,122.576 L83.7474286,114.192 L93.7634286,114.192 L93.7634286,112.912 L82.2754286,112.912 L82.2754286,134 Z"></path>
            </g>
            <g id="U+0077" transform="translate(668.000000, 136.000000)">
                <path d="M21.9371429,59 L33.4571429,59 L41.6171429,27.8 C43.1771429,22.28 44.3771429,16.76 45.6971429,10.88 L46.1771429,10.88 C47.6171429,16.76 48.6971429,22.16 50.1371429,27.68 L58.5371429,59 L70.5371429,59 L86.1371429,0.68 L76.7771429,0.68 L68.2571429,34.4 C67.0571429,39.92 65.9771429,45.2 64.6571429,50.6 L64.1771429,50.6 C62.8571429,45.2 61.5371429,39.92 60.0971429,34.4 L50.9771429,0.68 L41.3771429,0.68 L32.3771429,34.4 C30.9371429,39.8 29.7371429,45.2 28.4171429,50.6 L27.9371429,50.6 C26.8571429,45.2 25.7771429,39.92 24.4571429,34.4 L15.8171429,0.68 L5.73714286,0.68 L21.9371429,59 Z" id="w"></path>
                <path d="M7.96914286,133.384 C11.6171429,133.384 15.1051429,131.496 15.1051429,124.904 L15.1051429,111.912 L13.7291429,111.912 L13.7291429,124.744 C13.7291429,130.344 11.0091429,132.04 7.96914286,132.04 C4.99314286,132.04 2.36914286,130.344 2.36914286,124.744 L2.36914286,111.912 L0.897142857,111.912 L0.897142857,124.904 C0.897142857,131.496 4.35314286,133.384 7.96914286,133.384 L7.96914286,133.384 Z M25.1531429,129.48 L26.4651429,129.48 L26.4651429,123.048 L32.3851429,123.048 L32.3851429,121.832 L26.4651429,121.832 L26.4651429,115.4 L25.1531429,115.4 L25.1531429,121.832 L19.2331429,121.832 L19.2331429,123.048 L25.1531429,123.048 L25.1531429,129.48 Z M41.1211429,133.384 C45.0251429,133.384 47.2331429,129.512 47.2331429,122.696 C47.2331429,115.912 45.0251429,112.168 41.1211429,112.168 C37.2171429,112.168 35.0091429,115.912 35.0091429,122.696 C35.0091429,129.512 37.2171429,133.384 41.1211429,133.384 L41.1211429,133.384 Z M41.1211429,132.168 C38.3051429,132.168 36.4491429,128.936 36.4491429,122.696 C36.4491429,116.456 38.3051429,113.384 41.1211429,113.384 C43.9691429,113.384 45.7931429,116.456 45.7931429,122.696 C45.7931429,128.936 43.9691429,132.168 41.1211429,132.168 L41.1211429,132.168 Z M56.4491429,133.384 C60.3531429,133.384 62.5611429,129.512 62.5611429,122.696 C62.5611429,115.912 60.3531429,112.168 56.4491429,112.168 C52.5451429,112.168 50.3371429,115.912 50.3371429,122.696 C50.3371429,129.512 52.5451429,133.384 56.4491429,133.384 L56.4491429,133.384 Z M56.4491429,132.168 C53.6331429,132.168 51.7771429,128.936 51.7771429,122.696 C51.7771429,116.456 53.6331429,113.384 56.4491429,113.384 C59.2971429,113.384 61.1211429,116.456 61.1211429,122.696 C61.1211429,128.936 59.2971429,132.168 56.4491429,132.168 L56.4491429,132.168 Z M70.1451429,133 L71.6811429,133 C72.0011429,125 73.2171429,119.88 78.1131429,113.384 L78.1131429,112.552 L65.5371429,112.552 L65.5371429,113.8 L76.3211429,113.8 C72.1931429,119.56 70.4651429,124.744 70.1451429,133 L70.1451429,133 Z M85.4731429,133 L87.0091429,133 C87.3291429,125 88.5451429,119.88 93.4411429,113.384 L93.4411429,112.552 L80.8651429,112.552 L80.8651429,113.8 L91.6491429,113.8 C87.5211429,119.56 85.7931429,124.744 85.4731429,133 L85.4731429,133 Z"></path>
            </g>
            <g id="U+0647" transform="translate(503.000000, 142.000000)">
                <path d="M44.7348571,0.376 C42.5748571,5.272 40.8468571,9.16 39.5508571,12.04 C38.2548571,14.92 37.5348571,16.792 37.2468571,17.512 C35.9508571,20.536 34.9428571,23.272 34.2228571,25.576 C33.5028571,27.88 33.2148571,29.896 33.2148571,31.48 C33.2148571,33.352 33.5028571,34.936 34.0788571,36.376 C34.6548571,37.816 35.5188571,39.112 36.6708571,40.12 C37.8228571,41.128 39.1188571,41.848 40.7028571,42.424 C42.2868571,43 44.0148571,43.288 45.8868571,43.288 C49.4868571,43.288 52.5108571,42.856 54.9588571,42.136 C57.4068571,41.416 59.2788571,40.264 60.5748571,38.824 C61.5828571,37.816 62.7348571,35.8 64.0308571,32.776 C65.3268571,29.752 65.9028571,27.592 65.9028571,26.296 C65.9028571,20.968 64.1748571,16.216 60.5748571,12.04 C56.9748571,7.864 51.6468571,4.12 44.4468571,0.952 L44.7348571,0.376 Z M54.5268571,32.92 C52.9428571,33.352 51.6468571,33.64 50.4948571,33.928 C49.3428571,34.216 48.3348571,34.36 47.6148571,34.36 C46.7508571,34.36 45.8868571,34.216 45.0228571,33.928 C44.1588571,33.64 43.2948571,33.208 42.4308571,32.632 C41.5668571,32.056 40.8468571,31.336 40.4148571,30.616 C39.9828571,29.896 39.6948571,29.176 39.6948571,28.456 C39.6948571,27.16 40.1268571,25.288 40.9908571,22.696 C41.8548571,20.104 43.2948571,16.792 45.1668571,12.904 C49.9188571,15.64 53.5188571,18.376 55.9668571,21.256 C58.4148571,24.136 59.5668571,27.016 59.5668571,30.04 C59.5668571,30.616 59.1348571,31.192 58.2708571,31.768 C57.4068571,32.344 56.1108571,32.92 54.3828571,33.352 L54.5268571,32.92 Z" id="ه"></path>
                <path d="M7.25485714,127.384 C10.9028571,127.384 14.3908571,125.496 14.3908571,118.904 L14.3908571,105.912 L13.0148571,105.912 L13.0148571,118.744 C13.0148571,124.344 10.2948571,126.04 7.25485714,126.04 C4.27885714,126.04 1.65485714,124.344 1.65485714,118.744 L1.65485714,105.912 L0.182857143,105.912 L0.182857143,118.904 C0.182857143,125.496 3.63885714,127.384 7.25485714,127.384 L7.25485714,127.384 Z M24.4388571,123.48 L25.7508571,123.48 L25.7508571,117.048 L31.6708571,117.048 L31.6708571,115.832 L25.7508571,115.832 L25.7508571,109.4 L24.4388571,109.4 L24.4388571,115.832 L18.5188571,115.832 L18.5188571,117.048 L24.4388571,117.048 L24.4388571,123.48 Z M40.4068571,127.384 C44.3108571,127.384 46.5188571,123.512 46.5188571,116.696 C46.5188571,109.912 44.3108571,106.168 40.4068571,106.168 C36.5028571,106.168 34.2948571,109.912 34.2948571,116.696 C34.2948571,123.512 36.5028571,127.384 40.4068571,127.384 L40.4068571,127.384 Z M40.4068571,126.168 C37.5908571,126.168 35.7348571,122.936 35.7348571,116.696 C35.7348571,110.456 37.5908571,107.384 40.4068571,107.384 C43.2548571,107.384 45.0788571,110.456 45.0788571,116.696 C45.0788571,122.936 43.2548571,126.168 40.4068571,126.168 L40.4068571,126.168 Z M56.4708571,126.168 C53.1428571,126.168 51.4788571,123.256 51.2228571,118.936 C52.8868571,116.696 54.7428571,115.864 56.1828571,115.864 C59.2868571,115.864 60.5988571,118.04 60.5988571,120.984 C60.5988571,123.896 58.8388571,126.168 56.4708571,126.168 L56.4708571,126.168 Z M61.5908571,108.152 C60.5348571,106.968 59.1908571,106.168 57.2708571,106.168 C53.3348571,106.168 49.7508571,109.144 49.7508571,117.72 C49.7508571,123.928 52.3428571,127.384 56.4388571,127.384 C59.4788571,127.384 62.0388571,124.696 62.0388571,120.984 C62.0388571,116.856 59.9268571,114.648 56.3428571,114.648 C54.4548571,114.648 52.5988571,115.768 51.1908571,117.496 C51.2548571,109.976 54.0388571,107.416 57.2708571,107.416 C58.5828571,107.416 59.8308571,107.992 60.7268571,109.112 L61.5908571,108.152 Z M65.6548571,119.672 L71.6708571,111.224 C72.2468571,110.296 72.8228571,109.528 73.3348571,108.664 L73.4628571,108.664 C73.3988571,109.592 73.3348571,111.256 73.3348571,112.184 L73.3348571,119.672 L65.6548571,119.672 Z M77.7508571,119.672 L74.7108571,119.672 L74.7108571,106.552 L73.4308571,106.552 L63.9268571,120.056 L63.9268571,120.888 L73.3348571,120.888 L73.3348571,127 L74.7108571,127 L74.7108571,120.888 L77.7508571,120.888 L77.7508571,119.672 Z M84.7588571,127 L86.2948571,127 C86.6148571,119 87.8308571,113.88 92.7268571,107.384 L92.7268571,106.552 L80.1508571,106.552 L80.1508571,107.8 L90.9348571,107.8 C86.8068571,113.56 85.0788571,118.744 84.7588571,127 L84.7588571,127 Z"></path>
            </g>
            <g id="U+0645" transform="translate(337.000000, 145.000000)">
                <path d="M46.072,22.72 C45.64,22 45.352,20.848 45.208,19.264 C45.064,17.68 44.92,15.808 44.92,13.504 C44.92,12.64 45.208,11.92 45.64,11.488 C46.072,11.056 46.792,10.768 47.8,10.768 C51.832,10.768 55.288,11.632 58.168,13.36 C61.048,15.088 63.352,17.68 65.08,21.28 C62.056,21.136 59.032,21.28 55.864,21.568 C52.696,21.856 49.384,22.288 45.928,22.72 L46.072,22.72 Z M36.568,68.08 L36.568,66.496 L36.568,64.768 C36.568,63.472 36.424,61.312 36.28,58.144 C36.136,54.976 35.848,50.944 35.56,46.048 C35.416,43.744 35.272,41.872 35.128,40.288 C34.984,38.704 34.84,37.552 34.696,36.688 C35.128,36.112 35.992,35.536 37.288,34.96 C38.584,34.384 40.312,33.808 42.472,33.232 C44.776,32.512 47.08,31.936 49.24,31.504 C51.4,31.072 53.416,30.784 55.288,30.64 C56.008,30.496 56.728,30.352 57.304,30.352 L58.6,30.352 L61.048,30.352 L63.496,30.352 L63.784,30.352 C65.08,30.352 66.088,30.208 66.808,30.064 C67.528,29.92 67.96,29.632 68.104,29.344 C68.68,28.192 69.544,26.032 70.552,23.008 C71.56,19.984 72.136,17.968 72.136,16.96 C72.136,16.24 71.848,15.232 71.272,14.08 C70.696,12.928 69.688,11.632 68.392,10.048 C67.24,8.752 66.232,7.6 65.224,6.736 C64.216,5.872 63.352,5.152 62.488,4.72 C60.328,3.28 58.024,2.128 55.72,1.408 C53.416,0.688 51.112,0.256 48.808,0.256 C47.224,0.256 45.784,0.688 44.488,1.408 C43.192,2.128 42.04,3.28 41.032,4.72 C40.168,6.016 39.448,7.456 39.016,8.896 C38.584,10.336 38.296,11.92 38.296,13.504 C38.296,15.088 38.44,16.816 38.872,18.544 C39.304,20.272 39.88,22 40.6,23.872 L35.272,26.608 C33.976,27.328 32.968,27.904 32.248,28.48 C31.528,29.056 30.952,29.632 30.664,30.064 C30.232,31.648 29.8,33.376 29.368,35.104 C28.936,36.832 28.504,38.416 28.072,40 C28.504,42.16 28.936,44.464 29.224,46.912 C29.512,49.36 29.656,51.808 29.8,54.4 C29.944,57.712 30.088,61.168 30.088,64.768 C30.088,68.368 30.232,72.112 30.376,76 C31.384,75.424 32.68,74.128 34.264,72.256 C35.848,70.384 36.712,68.944 36.712,67.936 L36.568,68.08 Z" id="م"></path>
                <path d="M7.54057143,124.384 C11.1885714,124.384 14.6765714,122.496 14.6765714,115.904 L14.6765714,102.912 L13.3005714,102.912 L13.3005714,115.744 C13.3005714,121.344 10.5805714,123.04 7.54057143,123.04 C4.56457143,123.04 1.94057143,121.344 1.94057143,115.744 L1.94057143,102.912 L0.468571429,102.912 L0.468571429,115.904 C0.468571429,122.496 3.92457143,124.384 7.54057143,124.384 L7.54057143,124.384 Z M24.7245714,120.48 L26.0365714,120.48 L26.0365714,114.048 L31.9565714,114.048 L31.9565714,112.832 L26.0365714,112.832 L26.0365714,106.4 L24.7245714,106.4 L24.7245714,112.832 L18.8045714,112.832 L18.8045714,114.048 L24.7245714,114.048 L24.7245714,120.48 Z M40.6925714,124.384 C44.5965714,124.384 46.8045714,120.512 46.8045714,113.696 C46.8045714,106.912 44.5965714,103.168 40.6925714,103.168 C36.7885714,103.168 34.5805714,106.912 34.5805714,113.696 C34.5805714,120.512 36.7885714,124.384 40.6925714,124.384 L40.6925714,124.384 Z M40.6925714,123.168 C37.8765714,123.168 36.0205714,119.936 36.0205714,113.696 C36.0205714,107.456 37.8765714,104.384 40.6925714,104.384 C43.5405714,104.384 45.3645714,107.456 45.3645714,113.696 C45.3645714,119.936 43.5405714,123.168 40.6925714,123.168 L40.6925714,123.168 Z M56.7565714,123.168 C53.4285714,123.168 51.7645714,120.256 51.5085714,115.936 C53.1725714,113.696 55.0285714,112.864 56.4685714,112.864 C59.5725714,112.864 60.8845714,115.04 60.8845714,117.984 C60.8845714,120.896 59.1245714,123.168 56.7565714,123.168 L56.7565714,123.168 Z M61.8765714,105.152 C60.8205714,103.968 59.4765714,103.168 57.5565714,103.168 C53.6205714,103.168 50.0365714,106.144 50.0365714,114.72 C50.0365714,120.928 52.6285714,124.384 56.7245714,124.384 C59.7645714,124.384 62.3245714,121.696 62.3245714,117.984 C62.3245714,113.856 60.2125714,111.648 56.6285714,111.648 C54.7405714,111.648 52.8845714,112.768 51.4765714,114.496 C51.5405714,106.976 54.3245714,104.416 57.5565714,104.416 C58.8685714,104.416 60.1165714,104.992 61.0125714,106.112 L61.8765714,105.152 Z M65.9405714,116.672 L71.9565714,108.224 C72.5325714,107.296 73.1085714,106.528 73.6205714,105.664 L73.7485714,105.664 C73.6845714,106.592 73.6205714,108.256 73.6205714,109.184 L73.6205714,116.672 L65.9405714,116.672 Z M78.0365714,116.672 L74.9965714,116.672 L74.9965714,103.552 L73.7165714,103.552 L64.2125714,117.056 L64.2125714,117.888 L73.6205714,117.888 L73.6205714,124 L74.9965714,124 L74.9965714,117.888 L78.0365714,117.888 L78.0365714,116.672 Z M86.2925714,124.384 C89.5885714,124.384 92.8205714,121.92 92.8205714,117.568 C92.8205714,113.088 90.0365714,111.104 86.5805714,111.104 C85.0765714,111.104 83.9885714,111.552 82.9325714,112.192 L83.5725714,104.8 L91.7325714,104.8 L91.7325714,103.552 L82.2925714,103.552 L81.5565714,113.12 L82.5485714,113.728 C83.7645714,112.896 84.7885714,112.352 86.3565714,112.352 C89.3965714,112.352 91.3485714,114.336 91.3485714,117.632 C91.3485714,120.928 88.9805714,123.136 86.2605714,123.136 C83.4765714,123.136 81.8765714,121.888 80.6605714,120.64 L79.8605714,121.632 C81.1725714,122.944 83.0285714,124.384 86.2925714,124.384 L86.2925714,124.384 Z"></path>
            </g>
            <g id="U+0644" transform="translate(171.000000, 99.000000)">
                <path d="M68.616,9.248 L68.616,9.104 L68.616,9.248 Z M42.84,119.264 C46.296,119.264 49.752,118.832 53.208,117.968 C56.664,117.104 60.12,115.808 63.576,114.224 C66.168,112.928 68.328,111.776 70.056,110.624 C71.784,109.472 73.08,108.32 73.8,107.312 C74.232,106.88 74.664,106.16 75.24,105.008 C75.816,103.856 76.536,102.416 77.256,100.544 C77.976,98.672 78.552,97.088 78.984,95.792 C79.416,94.496 79.704,93.632 79.704,93.056 L79.704,75.2 L78.552,27.68 L78.12,16.592 C79.128,16.88 79.992,17.168 80.712,17.312 C81.432,17.456 82.008,17.6 82.44,17.6 C82.44,17.456 82.152,16.736 81.72,15.44 C81.288,14.144 80.568,12.272 79.56,9.824 C78.264,6.8 77.256,4.496 76.536,2.912 C75.816,1.328 75.384,0.32 75.24,0.032 C73.656,1.904 72.36,3.488 71.208,4.928 C70.056,6.368 69.048,7.52 68.328,8.528 C68.472,8.672 68.616,9.392 68.76,10.688 C68.904,11.984 69.192,13.712 69.48,15.872 C70.488,23.36 71.352,30.56 71.928,37.328 C72.504,44.096 72.792,50.576 72.936,56.624 L73.8,97.376 C73.8,98.384 72.648,99.68 70.344,101.12 C68.04,102.56 64.44,104.144 59.688,106.016 C57.384,106.88 54.936,107.6 52.344,108.032 C49.752,108.464 47.016,108.752 43.992,108.752 C41.688,108.752 39.528,108.464 37.512,108.032 C35.496,107.6 33.48,106.88 31.608,105.872 C29.448,104.576 27.72,103.136 26.568,101.408 C25.416,99.68 24.84,97.664 24.84,95.504 C24.84,94.64 24.984,93.344 25.272,91.616 C25.56,89.888 25.992,87.728 26.568,85.28 C26.856,84.128 27.144,83.12 27.288,82.256 C27.432,81.392 27.576,80.816 27.72,80.384 C27.288,80.096 26.712,79.808 25.992,79.52 C25.272,79.232 24.84,79.088 24.552,79.088 C24.264,79.088 23.832,79.664 23.256,80.96 C22.68,82.256 21.96,84.128 21.096,86.576 C20.088,89.312 19.368,91.904 18.936,94.208 C18.504,96.512 18.216,98.528 18.216,100.4 C18.216,103.712 18.936,106.592 20.232,109.04 C21.528,111.488 23.544,113.504 26.28,115.088 C28.44,116.384 30.888,117.392 33.624,117.968 C36.36,118.544 39.528,118.832 42.984,118.832 L42.84,119.264 Z M28.152,80.96 L28.152,80.096 L28.152,79.808 C28.152,79.808 28.152,79.808 28.152,79.952 C28.152,80.096 28.008,80.24 27.864,80.384 C28.008,80.528 28.152,80.672 28.296,80.816 C28.44,80.96 28.44,81.104 28.44,81.248 L28.152,80.96 Z" id="ل"></path>
                <path d="M7.82628571,170.384 C11.4742857,170.384 14.9622857,168.496 14.9622857,161.904 L14.9622857,148.912 L13.5862857,148.912 L13.5862857,161.744 C13.5862857,167.344 10.8662857,169.04 7.82628571,169.04 C4.85028571,169.04 2.22628571,167.344 2.22628571,161.744 L2.22628571,148.912 L0.754285714,148.912 L0.754285714,161.904 C0.754285714,168.496 4.21028571,170.384 7.82628571,170.384 L7.82628571,170.384 Z M25.0102857,166.48 L26.3222857,166.48 L26.3222857,160.048 L32.2422857,160.048 L32.2422857,158.832 L26.3222857,158.832 L26.3222857,152.4 L25.0102857,152.4 L25.0102857,158.832 L19.0902857,158.832 L19.0902857,160.048 L25.0102857,160.048 L25.0102857,166.48 Z M40.9782857,170.384 C44.8822857,170.384 47.0902857,166.512 47.0902857,159.696 C47.0902857,152.912 44.8822857,149.168 40.9782857,149.168 C37.0742857,149.168 34.8662857,152.912 34.8662857,159.696 C34.8662857,166.512 37.0742857,170.384 40.9782857,170.384 L40.9782857,170.384 Z M40.9782857,169.168 C38.1622857,169.168 36.3062857,165.936 36.3062857,159.696 C36.3062857,153.456 38.1622857,150.384 40.9782857,150.384 C43.8262857,150.384 45.6502857,153.456 45.6502857,159.696 C45.6502857,165.936 43.8262857,169.168 40.9782857,169.168 L40.9782857,169.168 Z M57.0422857,169.168 C53.7142857,169.168 52.0502857,166.256 51.7942857,161.936 C53.4582857,159.696 55.3142857,158.864 56.7542857,158.864 C59.8582857,158.864 61.1702857,161.04 61.1702857,163.984 C61.1702857,166.896 59.4102857,169.168 57.0422857,169.168 L57.0422857,169.168 Z M62.1622857,151.152 C61.1062857,149.968 59.7622857,149.168 57.8422857,149.168 C53.9062857,149.168 50.3222857,152.144 50.3222857,160.72 C50.3222857,166.928 52.9142857,170.384 57.0102857,170.384 C60.0502857,170.384 62.6102857,167.696 62.6102857,163.984 C62.6102857,159.856 60.4982857,157.648 56.9142857,157.648 C55.0262857,157.648 53.1702857,158.768 51.7622857,160.496 C51.8262857,152.976 54.6102857,150.416 57.8422857,150.416 C59.1542857,150.416 60.4022857,150.992 61.2982857,152.112 L62.1622857,151.152 Z M66.2262857,162.672 L72.2422857,154.224 C72.8182857,153.296 73.3942857,152.528 73.9062857,151.664 L74.0342857,151.664 C73.9702857,152.592 73.9062857,154.256 73.9062857,155.184 L73.9062857,162.672 L66.2262857,162.672 Z M78.3222857,162.672 L75.2822857,162.672 L75.2822857,149.552 L74.0022857,149.552 L64.4982857,163.056 L64.4982857,163.888 L73.9062857,163.888 L73.9062857,170 L75.2822857,170 L75.2822857,163.888 L78.3222857,163.888 L78.3222857,162.672 Z M81.5542857,162.672 L87.5702857,154.224 C88.1462857,153.296 88.7222857,152.528 89.2342857,151.664 L89.3622857,151.664 C89.2982857,152.592 89.2342857,154.256 89.2342857,155.184 L89.2342857,162.672 L81.5542857,162.672 Z M93.6502857,162.672 L90.6102857,162.672 L90.6102857,149.552 L89.3302857,149.552 L79.8262857,163.056 L79.8262857,163.888 L89.2342857,163.888 L89.2342857,170 L90.6102857,170 L90.6102857,163.888 L93.6502857,163.888 L93.6502857,162.672 Z"></path>
            </g>
            <g id="U+06A9" transform="translate(4.000000, 99.000000)">
                <path d="M31.456,86 L42.976,86 C49.024,86 54.496,85.568 59.392,84.704 C64.288,83.84 68.464,82.544 72.064,80.672 C74.224,79.664 76.096,78.512 77.536,77.216 C78.976,75.92 80.128,74.48 80.992,72.896 C81.424,72.176 81.712,70.88 81.856,69.008 C82,67.136 82.144,64.688 82.144,61.664 C82.144,59.648 81.712,57.632 80.704,55.472 C79.696,53.312 78.256,51.152 76.384,48.992 C74.944,47.264 73.216,45.68 71.344,44.24 C69.472,42.8 67.456,41.36 65.296,40.064 C64.144,39.344 62.992,38.624 61.696,37.904 C60.4,37.184 59.104,36.32 57.664,35.456 C62.704,32 68.608,28.4 75.376,24.656 C82.144,20.912 89.776,17.024 98.272,13.136 C100.144,9.248 101.584,6.368 102.592,4.352 C103.6,2.336 104.032,1.328 104.032,1.184 C104.032,1.04 104.032,0.896 103.888,0.896 L103.456,0.896 C103.312,0.896 103.024,1.04 102.736,1.184 C102.448,1.328 102.016,1.472 101.584,1.616 C92.224,6.224 83.728,10.832 75.952,15.44 C68.176,20.048 61.12,24.656 54.928,29.264 C54.784,29.408 54.64,29.984 54.496,30.992 C54.352,32 54.208,33.44 54.064,35.312 C53.92,36.896 53.776,38.192 53.632,39.344 C53.488,40.496 53.488,41.36 53.488,42.08 C53.488,42.368 53.92,42.8 54.64,43.376 C55.36,43.952 56.512,44.672 58.096,45.536 C60.112,46.832 61.84,47.984 63.424,48.992 C65.008,50 66.304,51.008 67.312,51.872 C70.912,54.752 73.648,57.488 75.376,60.08 C77.104,62.672 77.968,64.976 77.968,67.136 C77.968,68 77.392,68.864 76.24,69.728 C75.088,70.592 73.216,71.6 70.768,72.608 C69.184,73.328 67.6,73.904 66.016,74.336 C64.432,74.768 62.848,75.2 61.408,75.488 L57.808,75.776 C53.776,75.92 49.888,76.064 46.288,76.208 C42.688,76.352 39.232,76.496 35.92,76.496 L33.472,76.496 L32.32,76.496 C24.112,76.496 17.92,75.344 13.744,73.04 C9.568,70.736 7.552,67.28 7.552,62.672 C7.552,61.952 7.696,60.8 7.984,59.36 C8.272,57.92 8.848,56.048 9.568,53.888 C9.856,52.88 10.144,52.016 10.432,51.296 C10.72,50.576 10.864,50.144 11.008,49.856 C10.576,49.568 10.144,49.28 9.568,48.992 C8.992,48.704 8.56,48.56 8.416,48.56 C7.984,48.56 7.408,49.136 6.688,50.288 C5.968,51.44 5.104,53.168 4.096,55.472 C3.088,57.92 2.224,60.224 1.648,62.384 C1.072,64.544 0.784,66.56 0.784,68.432 C0.784,74.336 3.376,78.8 8.416,81.824 C13.456,84.848 21.088,86.432 31.168,86.432 L31.456,86 Z M11.44,50.432 L11.44,49.568 L11.44,49.28 L11.152,49.28 C11.152,49.28 11.008,49.424 10.864,49.568 C11.008,49.712 11.152,49.856 11.296,50 C11.44,50.144 11.44,50.288 11.44,50.432 L11.44,50.432 Z" id="ک"></path>
                <path d="M7.112,170.384 C10.76,170.384 14.248,168.496 14.248,161.904 L14.248,148.912 L12.872,148.912 L12.872,161.744 C12.872,167.344 10.152,169.04 7.112,169.04 C4.136,169.04 1.512,167.344 1.512,161.744 L1.512,148.912 L0.04,148.912 L0.04,161.904 C0.04,168.496 3.496,170.384 7.112,170.384 L7.112,170.384 Z M24.296,166.48 L25.608,166.48 L25.608,160.048 L31.528,160.048 L31.528,158.832 L25.608,158.832 L25.608,152.4 L24.296,152.4 L24.296,158.832 L18.376,158.832 L18.376,160.048 L24.296,160.048 L24.296,166.48 Z M40.264,170.384 C44.168,170.384 46.376,166.512 46.376,159.696 C46.376,152.912 44.168,149.168 40.264,149.168 C36.36,149.168 34.152,152.912 34.152,159.696 C34.152,166.512 36.36,170.384 40.264,170.384 L40.264,170.384 Z M40.264,169.168 C37.448,169.168 35.592,165.936 35.592,159.696 C35.592,153.456 37.448,150.384 40.264,150.384 C43.112,150.384 44.936,153.456 44.936,159.696 C44.936,165.936 43.112,169.168 40.264,169.168 L40.264,169.168 Z M56.328,169.168 C53,169.168 51.336,166.256 51.08,161.936 C52.744,159.696 54.6,158.864 56.04,158.864 C59.144,158.864 60.456,161.04 60.456,163.984 C60.456,166.896 58.696,169.168 56.328,169.168 L56.328,169.168 Z M61.448,151.152 C60.392,149.968 59.048,149.168 57.128,149.168 C53.192,149.168 49.608,152.144 49.608,160.72 C49.608,166.928 52.2,170.384 56.296,170.384 C59.336,170.384 61.896,167.696 61.896,163.984 C61.896,159.856 59.784,157.648 56.2,157.648 C54.312,157.648 52.456,158.768 51.048,160.496 C51.112,152.976 53.896,150.416 57.128,150.416 C58.44,150.416 59.688,150.992 60.584,152.112 L61.448,151.152 Z M67.944,161.52 L69.288,157.584 C70.152,155.088 70.888,152.88 71.624,150.288 L71.752,150.288 C72.488,152.88 73.224,155.088 74.088,157.584 L75.432,161.52 L67.944,161.52 Z M78.312,170 L79.848,170 L72.424,148.912 L70.952,148.912 L63.528,170 L65,170 L67.496,162.768 L75.848,162.768 L78.312,170 Z M87.336,160.688 C84.2,160.688 82.888,158.512 82.888,155.536 C82.888,152.624 84.68,150.384 87.016,150.384 C90.344,150.384 92.04,153.264 92.296,157.584 C90.664,159.824 88.776,160.688 87.336,160.688 L87.336,160.688 Z M81.896,168.4 C82.92,169.584 84.328,170.384 86.216,170.384 C90.184,170.384 93.736,167.376 93.736,158.8 C93.736,152.592 91.144,149.168 87.08,149.168 C84.04,149.168 81.48,151.824 81.48,155.536 C81.48,159.664 83.592,161.872 87.144,161.872 C89.064,161.872 90.92,160.752 92.328,159.056 C92.264,166.576 89.48,169.136 86.248,169.136 C84.904,169.136 83.656,168.56 82.76,167.44 L81.896,168.4 Z"></path>
            </g>
            <path d="M0.656,35 L17.456,35 L17.456,33.08 L2.864,33.08 L2.864,3.368 L0.656,3.368 L0.656,35 Z M30.704,35.576 C36.272,35.576 41.072,31.16 41.072,23.528 C41.072,15.8 36.272,11.384 30.704,11.384 C25.184,11.384 20.384,15.8 20.384,23.528 C20.384,31.16 25.184,35.576 30.704,35.576 L30.704,35.576 Z M30.704,33.704 C26.048,33.704 22.592,29.576 22.592,23.528 C22.592,17.432 26.048,13.256 30.704,13.256 C35.36,13.256 38.864,17.432 38.864,23.528 C38.864,29.576 35.36,33.704 30.704,33.704 L30.704,33.704 Z M55.52,46.088 C62.144,46.088 66.416,42.296 66.416,38.312 C66.416,34.664 64.016,33.032 58.832,33.032 L53.888,33.032 C50.432,33.032 49.472,31.688 49.472,30.008 C49.472,28.472 50.336,27.512 51.344,26.696 C52.4,27.32 53.888,27.656 55.184,27.656 C59.696,27.656 63.2,24.248 63.2,19.544 C63.2,17.096 62.144,15.032 60.656,13.736 L66.032,13.736 L66.032,11.96 L58.208,11.96 C57.488,11.672 56.432,11.384 55.184,11.384 C50.672,11.384 47.072,14.744 47.072,19.496 C47.072,22.28 48.512,24.584 49.952,25.832 L49.952,26.024 C48.944,26.744 47.456,28.184 47.456,30.248 C47.456,32.024 48.32,33.272 49.472,33.944 L49.472,34.136 C47.36,35.672 46.064,37.688 46.064,39.704 C46.064,43.592 49.712,46.088 55.52,46.088 L55.52,46.088 Z M55.184,25.976 C51.968,25.976 49.184,23.384 49.184,19.496 C49.184,15.56 51.92,13.112 55.184,13.112 C58.448,13.112 61.136,15.608 61.136,19.496 C61.136,23.384 58.352,25.976 55.184,25.976 L55.184,25.976 Z M55.76,44.36 C50.864,44.36 48.08,42.392 48.08,39.512 C48.08,37.88 48.992,36.104 51.104,34.664 C52.304,34.952 53.504,35.048 53.984,35.048 L58.928,35.048 C62.384,35.048 64.256,36.008 64.256,38.552 C64.256,41.432 60.944,44.36 55.76,44.36 L55.76,44.36 Z M71.36,35 L73.472,35 L73.472,11.96 L71.36,11.96 L71.36,35 Z M72.464,6.392 C73.52,6.392 74.384,5.624 74.384,4.52 C74.384,3.32 73.52,2.6 72.464,2.6 C71.408,2.6 70.544,3.32 70.544,4.52 C70.544,5.624 71.408,6.392 72.464,6.392 L72.464,6.392 Z M90.896,35.576 C93.824,35.576 96.272,34.28 98.24,32.552 L97.136,31.064 C95.552,32.504 93.44,33.704 90.992,33.704 C85.952,33.704 82.64,29.576 82.64,23.528 C82.64,17.432 86.288,13.256 90.992,13.256 C93.248,13.256 94.976,14.312 96.464,15.704 L97.712,14.216 C96.128,12.776 94.112,11.384 90.944,11.384 C85.328,11.384 80.432,15.8 80.432,23.528 C80.432,31.16 84.944,35.576 90.896,35.576 L90.896,35.576 Z M108.464,35.576 C111.488,35.576 114.272,33.896 116.624,32.024 L116.768,32.024 L116.96,35 L118.784,35 L118.784,20.264 C118.784,15.32 116.912,11.384 111.488,11.384 C107.744,11.384 104.528,13.208 102.896,14.36 L103.856,15.944 C105.44,14.792 108.128,13.256 111.2,13.256 C115.76,13.256 116.72,17.048 116.672,20.552 C106.4,21.704 101.792,24.152 101.792,29.24 C101.792,33.608 104.816,35.576 108.464,35.576 L108.464,35.576 Z M108.848,33.752 C106.208,33.752 103.952,32.456 103.952,29.144 C103.952,25.496 107.168,23.288 116.672,22.184 L116.672,30.008 C113.792,32.456 111.488,33.752 108.848,33.752 L108.848,33.752 Z M129.824,35.576 C130.496,35.576 130.928,35.48 131.36,35.336 L130.976,33.608 C130.496,33.704 130.304,33.704 130.112,33.704 C129.536,33.704 129.104,33.224 129.104,32.216 L129.104,0.488 L126.992,0.488 L126.992,31.928 C126.992,34.424 127.952,35.576 129.824,35.576 L129.824,35.576 Z M156.368,35.576 C161.936,35.576 166.736,31.16 166.736,23.528 C166.736,15.8 161.936,11.384 156.368,11.384 C150.848,11.384 146.048,15.8 146.048,23.528 C146.048,31.16 150.848,35.576 156.368,35.576 L156.368,35.576 Z M156.368,33.704 C151.712,33.704 148.256,29.576 148.256,23.528 C148.256,17.432 151.712,13.256 156.368,13.256 C161.024,13.256 164.528,17.432 164.528,23.528 C164.528,29.576 161.024,33.704 156.368,33.704 L156.368,33.704 Z M173.648,35 L175.76,35 L175.76,19.304 C177.536,14.984 179.984,13.4 182.048,13.4 C182.96,13.4 183.392,13.496 184.16,13.784 L184.64,11.864 C183.872,11.48 183.2,11.384 182.336,11.384 C179.6,11.384 177.344,13.4 175.808,16.232 L175.664,16.232 L175.472,11.96 L173.648,11.96 L173.648,35 Z M196.016,35.576 C199.088,35.576 201.632,33.896 203.504,32.024 L203.648,32.024 L203.84,35 L205.664,35 L205.664,0.488 L203.552,0.488 L203.552,9.992 L203.648,14.216 C201.344,12.44 199.472,11.384 196.688,11.384 C191.216,11.384 186.464,16.088 186.464,23.528 C186.464,31.304 190.208,35.576 196.016,35.576 L196.016,35.576 Z M196.304,33.704 C191.408,33.704 188.72,29.624 188.72,23.528 C188.72,17.72 192.224,13.256 196.832,13.256 C199.088,13.256 201.104,14.072 203.552,16.232 L203.552,29.912 C201.104,32.36 198.848,33.704 196.304,33.704 L196.304,33.704 Z M223.232,35.576 C226.592,35.576 228.656,34.424 230.48,33.32 L229.616,31.688 C227.888,32.936 225.92,33.752 223.424,33.752 C218.24,33.752 214.832,29.576 214.736,23.768 L231.344,23.768 C231.44,23.192 231.44,22.616 231.44,22.04 C231.44,15.272 228.08,11.384 222.608,11.384 C217.472,11.384 212.576,15.992 212.576,23.528 C212.576,31.064 217.328,35.576 223.232,35.576 L223.232,35.576 Z M214.736,22.04 C215.216,16.52 218.72,13.208 222.656,13.208 C226.784,13.208 229.424,16.136 229.424,22.04 L214.736,22.04 Z M237.68,35 L239.792,35 L239.792,19.304 C241.568,14.984 244.016,13.4 246.08,13.4 C246.992,13.4 247.424,13.496 248.192,13.784 L248.672,11.864 C247.904,11.48 247.232,11.384 246.368,11.384 C243.632,11.384 241.376,13.4 239.84,16.232 L239.696,16.232 L239.504,11.96 L237.68,11.96 L237.68,35 Z" id="Logical-order"></path>
        </g>
    </g>
</svg>