<?xml version="1.0" encoding="UTF-8" standalone="no"?>
<svg width="501px" height="216px" viewBox="0 0 501 216" version="1.1" xmlns="http://www.w3.org/2000/svg" xmlns:xlink="http://www.w3.org/1999/xlink">
    <!-- Generator: Sketch 3.7.2 (28276) - http://www.bohemiancoding.com/sketch -->
    <title>order-of-directional-runs</title>
    <desc>Created with Sketch.</desc>
    <defs></defs>
    <g id="Order-of-directional-runs" stroke="none" stroke-width="1" fill="none" fill-rule="evenodd">
        <g id="Group-Copy-3">
            <g id="Group-2" transform="translate(250.000000, 10.000000)">
                <path d="M11.008,24.576 C16.72,24.576 21.808,20.112 21.808,12.384 C21.808,4.56 16.72,0.096 11.008,0.096 C5.296,0.096 0.208,4.56 0.208,12.384 C0.208,20.112 5.296,24.576 11.008,24.576 L11.008,24.576 Z M11.008,21.312 C7.024,21.312 4.288,17.712 4.288,12.384 C4.288,7.008 7.024,3.36 11.008,3.36 C15.04,3.36 17.728,7.008 17.728,12.384 C17.728,17.712 15.04,21.312 11.008,21.312 L11.008,21.312 Z M27.952,24 L31.888,24 L31.888,7.104 C34.24,4.752 35.872,3.504 38.272,3.504 C41.344,3.504 42.688,5.376 42.688,9.744 L42.688,24 L46.624,24 L46.624,9.216 C46.624,3.264 44.416,0.096 39.52,0.096 C36.304,0.096 33.904,1.824 31.696,4.032 L31.552,4.032 L31.216,0.672 L27.952,0.672 L27.952,24 Z M63.664,24.576 C66.832,24.576 69.328,23.472 71.344,22.176 L69.952,19.584 C68.224,20.688 66.352,21.408 64.144,21.408 C59.68,21.408 56.656,18.24 56.368,13.296 L72.112,13.296 C72.208,12.72 72.256,11.856 72.256,11.04 C72.256,4.368 68.896,0.096 62.944,0.096 C57.616,0.096 52.48,4.752 52.48,12.384 C52.48,20.016 57.424,24.576 63.664,24.576 L63.664,24.576 Z M56.32,10.464 C56.8,5.856 59.776,3.216 63.04,3.216 C66.688,3.216 68.8,5.76 68.8,10.464 L56.32,10.464 Z" id="one" fill="#000000"></path>
                <polygon id="←-copy" fill="#D0011B" transform="translate(35.772000, 59.816000) scale(-1, 1) translate(-35.772000, -59.816000) " points="13.104 72.632 15.12 70.424 5.472 61.448 71.544 61.448 71.544 58.184 5.472 58.184 15.12 49.208 13.104 47 0 59.72 0 59.912"></polygon>
                <path d="M29.512,80 L35.524,80 L35.524,79.298 L33.022,79.298 L33.022,68.498 L32.374,68.498 C31.834,68.804 31.096,69.056 30.16,69.218 L30.16,69.758 L32.212,69.758 L32.212,79.298 L29.512,79.298 L29.512,80 Z" id="1" fill="#000000"></path>
            </g>
            <g id="Group-4" transform="translate(340.500000, 9.000000)">
                <path d="M34.8,6.824 C33.84,5.544 32.752,4.392 31.6,3.368 C30.448,2.344 29.104,1.448 27.632,0.744 C27.44,0.616 27.248,0.552 27.12,0.616 C26.992,0.68 26.928,0.872 26.864,1.128 L25.904,5.288 C26.544,5.608 27.056,5.864 27.44,6.056 C27.824,6.248 28.08,6.376 28.208,6.44 C28.72,6.76 29.296,7.144 29.872,7.592 C30.448,8.04 31.088,8.616 31.728,9.256 C32.688,10.216 33.456,11.304 34.032,12.456 C34.608,13.608 34.992,14.888 35.184,16.232 C35.248,16.744 35.312,17.192 35.312,17.512 C35.312,17.832 35.248,18.088 35.184,18.216 C35.056,18.472 34.672,18.728 34.032,18.984 C33.392,19.24 32.496,19.496 31.344,19.752 C30.32,20.008 29.424,20.2 28.72,20.328 C28.016,20.456 27.44,20.52 26.992,20.52 C26.224,20.52 25.584,20.456 25.136,20.392 C24.688,20.328 24.368,20.2 24.176,20.008 C24.048,19.88 23.92,19.624 23.856,19.304 C23.792,18.984 23.728,18.536 23.664,17.96 C23.6,17.896 23.536,17.832 23.408,17.832 L22.96,17.832 L22.448,17.832 C22.32,17.832 22.256,17.896 22.256,17.96 C22,19.176 21.808,20.328 21.744,21.416 C21.68,22.504 21.68,23.464 21.744,24.36 C22.064,24.616 22.576,24.808 23.216,24.936 C23.856,25.064 24.624,25.128 25.52,25.128 C26.544,25.128 27.632,25 28.784,24.808 C29.936,24.616 31.152,24.296 32.368,23.912 C33.456,23.592 34.288,23.272 34.928,22.952 C35.568,22.632 36.016,22.376 36.208,22.184 C36.272,21.992 36.336,21.672 36.464,21.288 C36.592,20.904 36.72,20.392 36.912,19.752 C37.104,18.92 37.296,18.152 37.424,17.512 C37.552,16.872 37.616,16.232 37.616,15.656 C37.616,14.12 37.36,12.648 36.848,11.176 C36.336,9.704 35.568,8.296 34.544,6.952 L34.8,6.824 Z M14.896,12.328 C14.192,11.496 13.552,10.856 12.912,10.472 C12.272,10.088 11.632,9.896 11.056,9.896 C10.544,9.896 9.968,10.152 9.392,10.6 C8.816,11.048 8.176,11.752 7.472,12.648 C6.64,13.672 6,14.76 5.552,15.912 C5.104,17.064 4.848,18.216 4.784,19.432 C4.72,20.52 4.72,21.416 4.784,22.12 C4.848,22.824 4.976,23.336 5.168,23.656 C5.296,23.848 5.552,24.04 5.936,24.232 C6.32,24.424 6.832,24.616 7.472,24.744 C8.048,24.872 8.56,25 9.008,25.064 C9.456,25.128 9.904,25.192 10.288,25.192 C11.376,25.192 12.336,25.192 13.104,25.128 C13.872,25.064 14.512,25 15.024,24.872 C14.768,26.344 14.192,27.816 13.232,29.288 C12.272,30.76 10.992,32.232 9.328,33.704 C8.112,34.792 6.832,35.752 5.552,36.52 C4.272,37.288 2.928,37.992 1.52,38.568 C1.264,38.632 1.072,38.696 0.944,38.76 C0.816,38.824 0.752,38.888 0.752,38.952 C0.816,39.016 0.88,39.08 1.008,39.208 C1.136,39.336 1.328,39.464 1.584,39.592 C2.608,40.168 3.632,40.616 4.656,40.936 C5.68,41.256 6.704,41.384 7.664,41.384 C7.92,41.384 8.304,41.192 8.752,40.744 C9.2,40.296 9.84,39.656 10.608,38.76 C11.696,37.48 12.592,36.328 13.36,35.24 C14.128,34.152 14.704,33.192 15.152,32.36 C15.984,30.696 16.624,28.968 17.008,27.24 C17.392,25.512 17.584,23.72 17.584,21.864 C17.584,19.944 17.328,18.216 16.88,16.68 C16.432,15.144 15.728,13.8 14.768,12.712 L14.896,12.328 Z M10.736,21.032 C9.776,21.032 9.008,20.904 8.496,20.584 C7.984,20.264 7.728,19.816 7.728,19.24 C7.728,18.856 7.792,18.408 7.92,17.96 C8.048,17.512 8.24,17 8.432,16.488 C8.688,15.912 8.944,15.464 9.264,15.144 C9.584,14.824 9.904,14.696 10.224,14.696 C10.8,14.696 11.376,14.888 11.888,15.208 C12.4,15.528 12.912,15.976 13.36,16.552 C13.808,17.128 14.128,17.704 14.32,18.28 C14.512,18.856 14.64,19.432 14.64,20.008 C14.192,20.328 13.616,20.52 12.976,20.648 C12.336,20.776 11.568,20.84 10.736,20.84 L10.736,21.032 Z" id="دو" fill="#000000"></path>
                <polygon id="←" fill="#D0011B" points="13.104 73.632 15.12 71.424 5.472 62.448 37.544 62.448 37.544 59.184 5.472 59.184 15.12 50.208 13.104 48 0 60.72 0 60.912"></polygon>
                <path d="M18.738,81 L25.794,81 L25.794,80.28 L21.87,80.28 C21.24,80.28 20.574,80.334 19.944,80.37 C23.13,76.986 25.218,74.79 25.218,72.504 C25.218,70.56 24.03,69.282 21.978,69.282 C20.574,69.282 19.566,70.02 18.702,70.974 L19.224,71.478 C19.926,70.614 20.862,69.966 21.906,69.966 C23.634,69.966 24.408,71.082 24.408,72.522 C24.408,74.52 22.518,76.662 18.738,80.496 L18.738,81 Z" id="2" fill="#000000"></path>
            </g>
            <g id="Group-3" transform="translate(397.000000, 0.000000)">
                <path d="M10.28,35.576 C11.72,35.576 13.304,35.144 14.6,34.712 L13.832,31.736 C13.064,32.024 12.008,32.36 11.192,32.36 C8.504,32.36 7.592,30.728 7.592,27.848 L7.592,14.888 L13.88,14.888 L13.88,11.672 L7.592,11.672 L7.592,5.144 L4.28,5.144 L3.8,11.672 L0.152,11.912 L0.152,14.888 L3.608,14.888 L3.608,27.8 C3.608,32.408 5.288,35.576 10.28,35.576 L10.28,35.576 Z M19.16,35 L23.096,35 L23.096,18.104 C25.448,15.752 27.08,14.504 29.48,14.504 C32.552,14.504 33.896,16.376 33.896,20.744 L33.896,35 L37.832,35 L37.832,20.216 C37.832,14.264 35.624,11.096 30.728,11.096 C27.512,11.096 25.16,12.824 22.952,14.936 L23.096,10.136 L23.096,0.824 L19.16,0.824 L19.16,35 Z M45.272,35 L49.208,35 L49.208,20.024 C50.792,16.088 53.144,14.648 55.112,14.648 C56.072,14.648 56.6,14.792 57.368,15.032 L58.136,11.576 C57.368,11.24 56.648,11.096 55.64,11.096 C53,11.096 50.6,12.968 49.016,15.896 L48.872,15.896 L48.536,11.672 L45.272,11.672 L45.272,35 Z M70.904,35.576 C74.072,35.576 76.568,34.472 78.584,33.176 L77.192,30.584 C75.464,31.688 73.592,32.408 71.384,32.408 C66.92,32.408 63.896,29.24 63.608,24.296 L79.352,24.296 C79.448,23.72 79.496,22.856 79.496,22.04 C79.496,15.368 76.136,11.096 70.184,11.096 C64.856,11.096 59.72,15.752 59.72,23.384 C59.72,31.016 64.664,35.576 70.904,35.576 L70.904,35.576 Z M63.56,21.464 C64.04,16.856 67.016,14.216 70.28,14.216 C73.928,14.216 76.04,16.76 76.04,21.464 L63.56,21.464 Z M94.712,35.576 C97.88,35.576 100.376,34.472 102.392,33.176 L101,30.584 C99.272,31.688 97.4,32.408 95.192,32.408 C90.728,32.408 87.704,29.24 87.416,24.296 L103.16,24.296 C103.256,23.72 103.304,22.856 103.304,22.04 C103.304,15.368 99.944,11.096 93.992,11.096 C88.664,11.096 83.528,15.752 83.528,23.384 C83.528,31.016 88.472,35.576 94.712,35.576 L94.712,35.576 Z M87.368,21.464 C87.848,16.856 90.824,14.216 94.088,14.216 C97.736,14.216 99.848,16.76 99.848,21.464 L87.368,21.464 Z" id="three" fill="#000000"></path>
                <polygon id="←-copy-2" fill="#D0011B" transform="translate(51.272000, 69.816000) scale(-1, 1) translate(-51.272000, -69.816000) " points="13.104 82.632 15.12 80.424 5.472 71.448 102.544 71.448 102.544 68.184 5.472 68.184 15.12 59.208 13.104 57 -5.68434189e-14 69.72 -5.68434189e-14 69.912"></polygon>
                <path d="M48.176,90.216 C50.156,90.216 51.686,88.956 51.686,86.958 C51.686,85.338 50.498,84.276 49.076,83.97 L49.076,83.898 C50.336,83.466 51.272,82.566 51.272,81.054 C51.272,79.29 49.904,78.282 48.122,78.282 C46.79,78.282 45.8,78.912 45.008,79.686 L45.476,80.226 C46.142,79.524 47.06,78.966 48.122,78.966 C49.526,78.966 50.444,79.812 50.444,81.108 C50.444,82.494 49.508,83.61 46.844,83.61 L46.844,84.312 C49.724,84.312 50.858,85.392 50.858,86.976 C50.858,88.506 49.724,89.514 48.176,89.514 C46.592,89.514 45.674,88.794 44.99,88.038 L44.522,88.596 C45.26,89.37 46.34,90.216 48.176,90.216 L48.176,90.216 Z" id="3" fill="#000000"></path>
            </g>
            <path d="M1.104,24 L12.304,24 L12.304,22.72 L2.576,22.72 L2.576,2.912 L1.104,2.912 L1.104,24 Z M21.36,24.384 C23.6,24.384 24.976,23.616 26.192,22.88 L25.616,21.792 C24.464,22.624 23.152,23.168 21.488,23.168 C18.032,23.168 15.76,20.384 15.696,16.512 L26.768,16.512 C26.832,16.128 26.832,15.744 26.832,15.36 C26.832,10.848 24.592,8.256 20.944,8.256 C17.52,8.256 14.256,11.328 14.256,16.352 C14.256,21.376 17.424,24.384 21.36,24.384 L21.36,24.384 Z M15.696,15.36 C16.016,11.68 18.352,9.472 20.976,9.472 C23.728,9.472 25.488,11.424 25.488,15.36 L15.696,15.36 Z M44.56,22.656 C44.016,22.912 43.216,23.136 42.64,23.136 C40.528,23.136 40.016,21.824 40.016,19.872 L40.016,9.856 L44.496,9.856 L44.496,8.64 L40.016,8.64 L40.016,4.192 L38.832,4.192 L38.64,8.64 L32.624,8.64 L32.624,5.312 C32.624,3.072 33.392,1.824 35.024,1.824 C35.6,1.824 36.24,1.952 36.88,2.272 L37.264,1.12 C36.56,0.8 35.728,0.608 35.024,0.608 C32.592,0.608 31.216,2.176 31.216,5.216 L31.216,8.64 L29.104,8.768 L29.104,9.856 L31.216,9.856 L31.216,24 L32.624,24 L32.624,9.856 L38.608,9.856 L38.608,19.744 C38.608,22.496 39.472,24.384 42.416,24.384 C43.056,24.384 44.048,24.128 44.944,23.808 L44.56,22.656 Z M46.576,16.64 L53.616,16.64 L53.616,15.392 L46.576,15.392 L46.576,16.64 Z M61.072,24.384 C61.712,24.384 62.672,24.128 63.568,23.808 L63.184,22.656 C62.64,22.912 61.84,23.136 61.264,23.136 C59.152,23.136 58.672,21.824 58.672,19.872 L58.672,9.856 L63.12,9.856 L63.12,8.64 L58.672,8.64 L58.672,4.192 L57.456,4.192 L57.264,8.64 L54.832,8.768 L54.832,9.856 L57.232,9.856 L57.232,19.744 C57.232,22.496 58.096,24.384 61.072,24.384 L61.072,24.384 Z M72.112,24.384 C75.824,24.384 79.024,21.44 79.024,16.352 C79.024,11.2 75.824,8.256 72.112,8.256 C68.432,8.256 65.232,11.2 65.232,16.352 C65.232,21.44 68.432,24.384 72.112,24.384 L72.112,24.384 Z M72.112,23.136 C69.008,23.136 66.704,20.384 66.704,16.352 C66.704,12.288 69.008,9.504 72.112,9.504 C75.216,9.504 77.552,12.288 77.552,16.352 C77.552,20.384 75.216,23.136 72.112,23.136 L72.112,23.136 Z M82.256,16.64 L89.296,16.64 L89.296,15.392 L82.256,15.392 L82.256,16.64 Z M93.488,24 L94.896,24 L94.896,13.536 C96.08,10.656 97.712,9.6 99.088,9.6 C99.696,9.6 99.984,9.664 100.496,9.856 L100.816,8.576 C100.304,8.32 99.856,8.256 99.28,8.256 C97.456,8.256 95.952,9.6 94.928,11.488 L94.832,11.488 L94.704,8.64 L93.488,8.64 L93.488,24 Z M103.632,24 L105.04,24 L105.04,8.64 L103.632,8.64 L103.632,24 Z M104.368,4.928 C105.072,4.928 105.648,4.416 105.648,3.68 C105.648,2.88 105.072,2.4 104.368,2.4 C103.664,2.4 103.088,2.88 103.088,3.68 C103.088,4.416 103.664,4.928 104.368,4.928 L104.368,4.928 Z M115.984,31.392 C120.4,31.392 123.248,28.864 123.248,26.208 C123.248,23.776 121.648,22.688 118.192,22.688 L114.896,22.688 C112.592,22.688 111.952,21.792 111.952,20.672 C111.952,19.648 112.528,19.008 113.2,18.464 C113.904,18.88 114.896,19.104 115.76,19.104 C118.768,19.104 121.104,16.832 121.104,13.696 C121.104,12.064 120.4,10.688 119.408,9.824 L122.992,9.824 L122.992,8.64 L117.776,8.64 C117.296,8.448 116.592,8.256 115.76,8.256 C112.752,8.256 110.352,10.496 110.352,13.664 C110.352,15.52 111.312,17.056 112.272,17.888 L112.272,18.016 C111.6,18.496 110.608,19.456 110.608,20.832 C110.608,22.016 111.184,22.848 111.952,23.296 L111.952,23.424 C110.544,24.448 109.68,25.792 109.68,27.136 C109.68,29.728 112.112,31.392 115.984,31.392 L115.984,31.392 Z M115.76,17.984 C113.616,17.984 111.76,16.256 111.76,13.664 C111.76,11.04 113.584,9.408 115.76,9.408 C117.936,9.408 119.728,11.072 119.728,13.664 C119.728,16.256 117.872,17.984 115.76,17.984 L115.76,17.984 Z M116.144,30.24 C112.88,30.24 111.024,28.928 111.024,27.008 C111.024,25.92 111.632,24.736 113.04,23.776 C113.84,23.968 114.64,24.032 114.96,24.032 L118.256,24.032 C120.56,24.032 121.808,24.672 121.808,26.368 C121.808,28.288 119.6,30.24 116.144,30.24 L116.144,30.24 Z M126.544,24 L127.952,24 L127.952,12.416 C129.84,10.496 131.152,9.536 132.976,9.536 C135.472,9.536 136.496,11.072 136.496,14.336 L136.496,24 L137.904,24 L137.904,14.144 C137.904,10.176 136.432,8.256 133.264,8.256 C131.152,8.256 129.552,9.44 127.952,11.04 L127.952,0.992 L126.544,0.992 L126.544,24 Z M147.632,24.384 C148.272,24.384 149.232,24.128 150.128,23.808 L149.744,22.656 C149.2,22.912 148.4,23.136 147.824,23.136 C145.712,23.136 145.232,21.824 145.232,19.872 L145.232,9.856 L149.68,9.856 L149.68,8.64 L145.232,8.64 L145.232,4.192 L144.016,4.192 L143.824,8.64 L141.392,8.768 L141.392,9.856 L143.792,9.856 L143.792,19.744 C143.792,22.496 144.656,24.384 147.632,24.384 L147.632,24.384 Z M6.96,64.384 C10.576,64.384 13.744,61.312 13.744,56.096 C13.744,51.328 11.696,48.256 7.6,48.256 C5.712,48.256 3.856,49.344 2.288,50.656 L2.352,47.648 L2.352,40.992 L0.944,40.992 L0.944,64 L2.128,64 L2.288,62.432 L2.352,62.432 C3.792,63.616 5.488,64.384 6.96,64.384 L6.96,64.384 Z M6.896,63.136 C5.712,63.136 4.048,62.592 2.352,61.152 L2.352,52.032 C4.176,50.4 5.84,49.504 7.376,49.504 C10.896,49.504 12.24,52.32 12.24,56.096 C12.24,60.256 10,63.136 6.896,63.136 L6.896,63.136 Z M21.168,64.384 C23.184,64.384 25.04,63.264 26.608,62.016 L26.704,62.016 L26.832,64 L28.048,64 L28.048,54.176 C28.048,50.88 26.8,48.256 23.184,48.256 C20.688,48.256 18.544,49.472 17.456,50.24 L18.096,51.296 C19.152,50.528 20.944,49.504 22.992,49.504 C26.032,49.504 26.672,52.032 26.64,54.368 C19.792,55.136 16.72,56.768 16.72,60.16 C16.72,63.072 18.736,64.384 21.168,64.384 L21.168,64.384 Z M21.424,63.168 C19.664,63.168 18.16,62.304 18.16,60.096 C18.16,57.664 20.304,56.192 26.64,55.456 L26.64,60.672 C24.72,62.304 23.184,63.168 21.424,63.168 L21.424,63.168 Z M37.232,64.384 C40.56,64.384 42.416,62.368 42.416,60.064 C42.416,57.056 39.792,56.256 37.392,55.36 C35.568,54.688 33.776,54.016 33.776,52.256 C33.776,50.848 34.864,49.472 37.232,49.472 C38.8,49.472 39.888,50.08 40.912,50.848 L41.68,49.856 C40.56,48.928 38.928,48.256 37.296,48.256 C34.096,48.256 32.336,50.112 32.336,52.352 C32.336,54.976 34.896,55.904 37.232,56.736 C38.992,57.376 40.976,58.208 40.976,60.128 C40.976,61.76 39.728,63.168 37.328,63.168 C35.12,63.168 33.744,62.304 32.432,61.216 L31.6,62.272 C32.976,63.424 34.96,64.384 37.232,64.384 L37.232,64.384 Z M52.304,64.384 C54.544,64.384 55.92,63.616 57.136,62.88 L56.56,61.792 C55.408,62.624 54.096,63.168 52.432,63.168 C48.976,63.168 46.704,60.384 46.64,56.512 L57.712,56.512 C57.776,56.128 57.776,55.744 57.776,55.36 C57.776,50.848 55.536,48.256 51.888,48.256 C48.464,48.256 45.2,51.328 45.2,56.352 C45.2,61.376 48.368,64.384 52.304,64.384 L52.304,64.384 Z M46.64,55.36 C46.96,51.68 49.296,49.472 51.92,49.472 C54.672,49.472 56.432,51.424 56.432,55.36 L46.64,55.36 Z M73.424,64.384 C75.472,64.384 77.168,63.264 78.416,62.016 L78.512,62.016 L78.64,64 L79.856,64 L79.856,40.992 L78.448,40.992 L78.448,47.328 L78.512,50.144 C76.976,48.96 75.728,48.256 73.872,48.256 C70.224,48.256 67.056,51.392 67.056,56.352 C67.056,61.536 69.552,64.384 73.424,64.384 L73.424,64.384 Z M73.616,63.136 C70.352,63.136 68.56,60.416 68.56,56.352 C68.56,52.48 70.896,49.504 73.968,49.504 C75.472,49.504 76.816,50.048 78.448,51.488 L78.448,60.608 C76.816,62.24 75.312,63.136 73.616,63.136 L73.616,63.136 Z M85.744,64 L87.152,64 L87.152,48.64 L85.744,48.64 L85.744,64 Z M86.48,44.928 C87.184,44.928 87.76,44.416 87.76,43.68 C87.76,42.88 87.184,42.4 86.48,42.4 C85.776,42.4 85.2,42.88 85.2,43.68 C85.2,44.416 85.776,44.928 86.48,44.928 L86.48,44.928 Z M93.072,64 L94.48,64 L94.48,53.536 C95.664,50.656 97.296,49.6 98.672,49.6 C99.28,49.6 99.568,49.664 100.08,49.856 L100.4,48.576 C99.888,48.32 99.44,48.256 98.864,48.256 C97.04,48.256 95.536,49.6 94.512,51.488 L94.416,51.488 L94.288,48.64 L93.072,48.64 L93.072,64 Z M108.72,64.384 C110.96,64.384 112.336,63.616 113.552,62.88 L112.976,61.792 C111.824,62.624 110.512,63.168 108.848,63.168 C105.392,63.168 103.12,60.384 103.056,56.512 L114.128,56.512 C114.192,56.128 114.192,55.744 114.192,55.36 C114.192,50.848 111.952,48.256 108.304,48.256 C104.88,48.256 101.616,51.328 101.616,56.352 C101.616,61.376 104.784,64.384 108.72,64.384 L108.72,64.384 Z M103.056,55.36 C103.376,51.68 105.712,49.472 108.336,49.472 C111.088,49.472 112.848,51.424 112.848,55.36 L103.056,55.36 Z M124.048,64.384 C126,64.384 127.632,63.52 128.944,62.368 L128.208,61.376 C127.152,62.336 125.744,63.136 124.112,63.136 C120.752,63.136 118.544,60.384 118.544,56.352 C118.544,52.288 120.976,49.504 124.112,49.504 C125.616,49.504 126.768,50.208 127.76,51.136 L128.592,50.144 C127.536,49.184 126.192,48.256 124.08,48.256 C120.336,48.256 117.072,51.2 117.072,56.352 C117.072,61.44 120.08,64.384 124.048,64.384 L124.048,64.384 Z M136.592,64.384 C137.232,64.384 138.192,64.128 139.088,63.808 L138.704,62.656 C138.16,62.912 137.36,63.136 136.784,63.136 C134.672,63.136 134.192,61.824 134.192,59.872 L134.192,49.856 L138.64,49.856 L138.64,48.64 L134.192,48.64 L134.192,44.192 L132.976,44.192 L132.784,48.64 L130.352,48.768 L130.352,49.856 L132.752,49.856 L132.752,59.744 C132.752,62.496 133.616,64.384 136.592,64.384 L136.592,64.384 Z M142.384,64 L143.792,64 L143.792,48.64 L142.384,48.64 L142.384,64 Z M143.12,44.928 C143.824,44.928 144.4,44.416 144.4,43.68 C144.4,42.88 143.824,42.4 143.12,42.4 C142.416,42.4 141.84,42.88 141.84,43.68 C141.84,44.416 142.416,44.928 143.12,44.928 L143.12,44.928 Z M155.312,64.384 C159.024,64.384 162.224,61.44 162.224,56.352 C162.224,51.2 159.024,48.256 155.312,48.256 C151.632,48.256 148.432,51.2 148.432,56.352 C148.432,61.44 151.632,64.384 155.312,64.384 L155.312,64.384 Z M155.312,63.136 C152.208,63.136 149.904,60.384 149.904,56.352 C149.904,52.288 152.208,49.504 155.312,49.504 C158.416,49.504 160.752,52.288 160.752,56.352 C160.752,60.384 158.416,63.136 155.312,63.136 L155.312,63.136 Z M166.832,64 L168.24,64 L168.24,52.416 C170.128,50.496 171.44,49.536 173.264,49.536 C175.76,49.536 176.784,51.072 176.784,54.336 L176.784,64 L178.192,64 L178.192,54.144 C178.192,50.176 176.72,48.256 173.552,48.256 C171.44,48.256 169.84,49.44 168.272,51.008 L168.176,51.008 L168.048,48.64 L166.832,48.64 L166.832,64 Z" id="Visual-order" fill="#000000"></path>
        </g>
        <g id="Group-Copy-2" transform="translate(1.000000, 124.000000)">
            <g id="Group-2" transform="translate(424.000000, 11.000000)">
                <path d="M11.008,24.576 C16.72,24.576 21.808,20.112 21.808,12.384 C21.808,4.56 16.72,0.096 11.008,0.096 C5.296,0.096 0.208,4.56 0.208,12.384 C0.208,20.112 5.296,24.576 11.008,24.576 L11.008,24.576 Z M11.008,21.312 C7.024,21.312 4.288,17.712 4.288,12.384 C4.288,7.008 7.024,3.36 11.008,3.36 C15.04,3.36 17.728,7.008 17.728,12.384 C17.728,17.712 15.04,21.312 11.008,21.312 L11.008,21.312 Z M27.952,24 L31.888,24 L31.888,7.104 C34.24,4.752 35.872,3.504 38.272,3.504 C41.344,3.504 42.688,5.376 42.688,9.744 L42.688,24 L46.624,24 L46.624,9.216 C46.624,3.264 44.416,0.096 39.52,0.096 C36.304,0.096 33.904,1.824 31.696,4.032 L31.552,4.032 L31.216,0.672 L27.952,0.672 L27.952,24 Z M63.664,24.576 C66.832,24.576 69.328,23.472 71.344,22.176 L69.952,19.584 C68.224,20.688 66.352,21.408 64.144,21.408 C59.68,21.408 56.656,18.24 56.368,13.296 L72.112,13.296 C72.208,12.72 72.256,11.856 72.256,11.04 C72.256,4.368 68.896,0.096 62.944,0.096 C57.616,0.096 52.48,4.752 52.48,12.384 C52.48,20.016 57.424,24.576 63.664,24.576 L63.664,24.576 Z M56.32,10.464 C56.8,5.856 59.776,3.216 63.04,3.216 C66.688,3.216 68.8,5.76 68.8,10.464 L56.32,10.464 Z" id="one" fill="#000000"></path>
                <polygon id="←-copy" fill="#D0011B" transform="translate(35.772000, 59.816000) scale(-1, 1) translate(-35.772000, -59.816000) " points="13.104 72.632 15.12 70.424 5.472 61.448 71.544 61.448 71.544 58.184 5.472 58.184 15.12 49.208 13.104 47 0 59.72 0 59.912"></polygon>
                <path d="M29.512,80 L35.524,80 L35.524,79.298 L33.022,79.298 L33.022,68.498 L32.374,68.498 C31.834,68.804 31.096,69.056 30.16,69.218 L30.16,69.758 L32.212,69.758 L32.212,79.298 L29.512,79.298 L29.512,80 Z" id="1" fill="#000000"></path>
            </g>
            <g id="Group-4" transform="translate(369.500000, 10.000000)">
                <path d="M34.8,6.824 C33.84,5.544 32.752,4.392 31.6,3.368 C30.448,2.344 29.104,1.448 27.632,0.744 C27.44,0.616 27.248,0.552 27.12,0.616 C26.992,0.68 26.928,0.872 26.864,1.128 L25.904,5.288 C26.544,5.608 27.056,5.864 27.44,6.056 C27.824,6.248 28.08,6.376 28.208,6.44 C28.72,6.76 29.296,7.144 29.872,7.592 C30.448,8.04 31.088,8.616 31.728,9.256 C32.688,10.216 33.456,11.304 34.032,12.456 C34.608,13.608 34.992,14.888 35.184,16.232 C35.248,16.744 35.312,17.192 35.312,17.512 C35.312,17.832 35.248,18.088 35.184,18.216 C35.056,18.472 34.672,18.728 34.032,18.984 C33.392,19.24 32.496,19.496 31.344,19.752 C30.32,20.008 29.424,20.2 28.72,20.328 C28.016,20.456 27.44,20.52 26.992,20.52 C26.224,20.52 25.584,20.456 25.136,20.392 C24.688,20.328 24.368,20.2 24.176,20.008 C24.048,19.88 23.92,19.624 23.856,19.304 C23.792,18.984 23.728,18.536 23.664,17.96 C23.6,17.896 23.536,17.832 23.408,17.832 L22.96,17.832 L22.448,17.832 C22.32,17.832 22.256,17.896 22.256,17.96 C22,19.176 21.808,20.328 21.744,21.416 C21.68,22.504 21.68,23.464 21.744,24.36 C22.064,24.616 22.576,24.808 23.216,24.936 C23.856,25.064 24.624,25.128 25.52,25.128 C26.544,25.128 27.632,25 28.784,24.808 C29.936,24.616 31.152,24.296 32.368,23.912 C33.456,23.592 34.288,23.272 34.928,22.952 C35.568,22.632 36.016,22.376 36.208,22.184 C36.272,21.992 36.336,21.672 36.464,21.288 C36.592,20.904 36.72,20.392 36.912,19.752 C37.104,18.92 37.296,18.152 37.424,17.512 C37.552,16.872 37.616,16.232 37.616,15.656 C37.616,14.12 37.36,12.648 36.848,11.176 C36.336,9.704 35.568,8.296 34.544,6.952 L34.8,6.824 Z M14.896,12.328 C14.192,11.496 13.552,10.856 12.912,10.472 C12.272,10.088 11.632,9.896 11.056,9.896 C10.544,9.896 9.968,10.152 9.392,10.6 C8.816,11.048 8.176,11.752 7.472,12.648 C6.64,13.672 6,14.76 5.552,15.912 C5.104,17.064 4.848,18.216 4.784,19.432 C4.72,20.52 4.72,21.416 4.784,22.12 C4.848,22.824 4.976,23.336 5.168,23.656 C5.296,23.848 5.552,24.04 5.936,24.232 C6.32,24.424 6.832,24.616 7.472,24.744 C8.048,24.872 8.56,25 9.008,25.064 C9.456,25.128 9.904,25.192 10.288,25.192 C11.376,25.192 12.336,25.192 13.104,25.128 C13.872,25.064 14.512,25 15.024,24.872 C14.768,26.344 14.192,27.816 13.232,29.288 C12.272,30.76 10.992,32.232 9.328,33.704 C8.112,34.792 6.832,35.752 5.552,36.52 C4.272,37.288 2.928,37.992 1.52,38.568 C1.264,38.632 1.072,38.696 0.944,38.76 C0.816,38.824 0.752,38.888 0.752,38.952 C0.816,39.016 0.88,39.08 1.008,39.208 C1.136,39.336 1.328,39.464 1.584,39.592 C2.608,40.168 3.632,40.616 4.656,40.936 C5.68,41.256 6.704,41.384 7.664,41.384 C7.92,41.384 8.304,41.192 8.752,40.744 C9.2,40.296 9.84,39.656 10.608,38.76 C11.696,37.48 12.592,36.328 13.36,35.24 C14.128,34.152 14.704,33.192 15.152,32.36 C15.984,30.696 16.624,28.968 17.008,27.24 C17.392,25.512 17.584,23.72 17.584,21.864 C17.584,19.944 17.328,18.216 16.88,16.68 C16.432,15.144 15.728,13.8 14.768,12.712 L14.896,12.328 Z M10.736,21.032 C9.776,21.032 9.008,20.904 8.496,20.584 C7.984,20.264 7.728,19.816 7.728,19.24 C7.728,18.856 7.792,18.408 7.92,17.96 C8.048,17.512 8.24,17 8.432,16.488 C8.688,15.912 8.944,15.464 9.264,15.144 C9.584,14.824 9.904,14.696 10.224,14.696 C10.8,14.696 11.376,14.888 11.888,15.208 C12.4,15.528 12.912,15.976 13.36,16.552 C13.808,17.128 14.128,17.704 14.32,18.28 C14.512,18.856 14.64,19.432 14.64,20.008 C14.192,20.328 13.616,20.52 12.976,20.648 C12.336,20.776 11.568,20.84 10.736,20.84 L10.736,21.032 Z" id="دو" fill="#000000"></path>
                <polygon id="←" fill="#D0011B" points="13.104 73.632 15.12 71.424 5.472 62.448 37.544 62.448 37.544 59.184 5.472 59.184 15.12 50.208 13.104 48 0 60.72 0 60.912"></polygon>
                <path d="M18.738,81 L25.794,81 L25.794,80.28 L21.87,80.28 C21.24,80.28 20.574,80.334 19.944,80.37 C23.13,76.986 25.218,74.79 25.218,72.504 C25.218,70.56 24.03,69.282 21.978,69.282 C20.574,69.282 19.566,70.02 18.702,70.974 L19.224,71.478 C19.926,70.614 20.862,69.966 21.906,69.966 C23.634,69.966 24.408,71.082 24.408,72.522 C24.408,74.52 22.518,76.662 18.738,80.496 L18.738,81 Z" id="2" fill="#000000"></path>
            </g>
            <g id="Group-3" transform="translate(248.000000, 1.000000)">
                <path d="M10.28,35.576 C11.72,35.576 13.304,35.144 14.6,34.712 L13.832,31.736 C13.064,32.024 12.008,32.36 11.192,32.36 C8.504,32.36 7.592,30.728 7.592,27.848 L7.592,14.888 L13.88,14.888 L13.88,11.672 L7.592,11.672 L7.592,5.144 L4.28,5.144 L3.8,11.672 L0.152,11.912 L0.152,14.888 L3.608,14.888 L3.608,27.8 C3.608,32.408 5.288,35.576 10.28,35.576 L10.28,35.576 Z M19.16,35 L23.096,35 L23.096,18.104 C25.448,15.752 27.08,14.504 29.48,14.504 C32.552,14.504 33.896,16.376 33.896,20.744 L33.896,35 L37.832,35 L37.832,20.216 C37.832,14.264 35.624,11.096 30.728,11.096 C27.512,11.096 25.16,12.824 22.952,14.936 L23.096,10.136 L23.096,0.824 L19.16,0.824 L19.16,35 Z M45.272,35 L49.208,35 L49.208,20.024 C50.792,16.088 53.144,14.648 55.112,14.648 C56.072,14.648 56.6,14.792 57.368,15.032 L58.136,11.576 C57.368,11.24 56.648,11.096 55.64,11.096 C53,11.096 50.6,12.968 49.016,15.896 L48.872,15.896 L48.536,11.672 L45.272,11.672 L45.272,35 Z M70.904,35.576 C74.072,35.576 76.568,34.472 78.584,33.176 L77.192,30.584 C75.464,31.688 73.592,32.408 71.384,32.408 C66.92,32.408 63.896,29.24 63.608,24.296 L79.352,24.296 C79.448,23.72 79.496,22.856 79.496,22.04 C79.496,15.368 76.136,11.096 70.184,11.096 C64.856,11.096 59.72,15.752 59.72,23.384 C59.72,31.016 64.664,35.576 70.904,35.576 L70.904,35.576 Z M63.56,21.464 C64.04,16.856 67.016,14.216 70.28,14.216 C73.928,14.216 76.04,16.76 76.04,21.464 L63.56,21.464 Z M94.712,35.576 C97.88,35.576 100.376,34.472 102.392,33.176 L101,30.584 C99.272,31.688 97.4,32.408 95.192,32.408 C90.728,32.408 87.704,29.24 87.416,24.296 L103.16,24.296 C103.256,23.72 103.304,22.856 103.304,22.04 C103.304,15.368 99.944,11.096 93.992,11.096 C88.664,11.096 83.528,15.752 83.528,23.384 C83.528,31.016 88.472,35.576 94.712,35.576 L94.712,35.576 Z M87.368,21.464 C87.848,16.856 90.824,14.216 94.088,14.216 C97.736,14.216 99.848,16.76 99.848,21.464 L87.368,21.464 Z" id="three" fill="#000000"></path>
                <polygon id="←-copy-2" fill="#D0011B" transform="translate(51.272000, 69.816000) scale(-1, 1) translate(-51.272000, -69.816000) " points="13.104 82.632 15.12 80.424 5.472 71.448 102.544 71.448 102.544 68.184 5.472 68.184 15.12 59.208 13.104 57 -5.68434189e-14 69.72 -5.68434189e-14 69.912"></polygon>
                <path d="M48.176,90.216 C50.156,90.216 51.686,88.956 51.686,86.958 C51.686,85.338 50.498,84.276 49.076,83.97 L49.076,83.898 C50.336,83.466 51.272,82.566 51.272,81.054 C51.272,79.29 49.904,78.282 48.122,78.282 C46.79,78.282 45.8,78.912 45.008,79.686 L45.476,80.226 C46.142,79.524 47.06,78.966 48.122,78.966 C49.526,78.966 50.444,79.812 50.444,81.108 C50.444,82.494 49.508,83.61 46.844,83.61 L46.844,84.312 C49.724,84.312 50.858,85.392 50.858,86.976 C50.858,88.506 49.724,89.514 48.176,89.514 C46.592,89.514 45.674,88.794 44.99,88.038 L44.522,88.596 C45.26,89.37 46.34,90.216 48.176,90.216 L48.176,90.216 Z" id="3" fill="#000000"></path>
            </g>
            <path d="M2.576,13.088 L2.576,4.16 L6.768,4.16 C10.48,4.16 12.56,5.312 12.56,8.48 C12.56,11.584 10.48,13.088 6.768,13.088 L2.576,13.088 Z M14.48,24 L8.656,14.208 C11.984,13.792 14.064,11.84 14.064,8.48 C14.064,4.448 11.344,2.912 7.152,2.912 L1.104,2.912 L1.104,24 L2.576,24 L2.576,14.304 L7.056,14.304 L12.784,24 L14.48,24 Z M18.352,24 L19.76,24 L19.76,8.64 L18.352,8.64 L18.352,24 Z M19.088,4.928 C19.792,4.928 20.368,4.416 20.368,3.68 C20.368,2.88 19.792,2.4 19.088,2.4 C18.384,2.4 17.808,2.88 17.808,3.68 C17.808,4.416 18.384,4.928 19.088,4.928 L19.088,4.928 Z M30.704,31.392 C35.12,31.392 37.968,28.864 37.968,26.208 C37.968,23.776 36.368,22.688 32.912,22.688 L29.616,22.688 C27.312,22.688 26.672,21.792 26.672,20.672 C26.672,19.648 27.248,19.008 27.92,18.464 C28.624,18.88 29.616,19.104 30.48,19.104 C33.488,19.104 35.824,16.832 35.824,13.696 C35.824,12.064 35.12,10.688 34.128,9.824 L37.712,9.824 L37.712,8.64 L32.496,8.64 C32.016,8.448 31.312,8.256 30.48,8.256 C27.472,8.256 25.072,10.496 25.072,13.664 C25.072,15.52 26.032,17.056 26.992,17.888 L26.992,18.016 C26.32,18.496 25.328,19.456 25.328,20.832 C25.328,22.016 25.904,22.848 26.672,23.296 L26.672,23.424 C25.264,24.448 24.4,25.792 24.4,27.136 C24.4,29.728 26.832,31.392 30.704,31.392 L30.704,31.392 Z M30.48,17.984 C28.336,17.984 26.48,16.256 26.48,13.664 C26.48,11.04 28.304,9.408 30.48,9.408 C32.656,9.408 34.448,11.072 34.448,13.664 C34.448,16.256 32.592,17.984 30.48,17.984 L30.48,17.984 Z M30.864,30.24 C27.6,30.24 25.744,28.928 25.744,27.008 C25.744,25.92 26.352,24.736 27.76,23.776 C28.56,23.968 29.36,24.032 29.68,24.032 L32.976,24.032 C35.28,24.032 36.528,24.672 36.528,26.368 C36.528,28.288 34.32,30.24 30.864,30.24 L30.864,30.24 Z M41.264,24 L42.672,24 L42.672,12.416 C44.56,10.496 45.872,9.536 47.696,9.536 C50.192,9.536 51.216,11.072 51.216,14.336 L51.216,24 L52.624,24 L52.624,14.144 C52.624,10.176 51.152,8.256 47.984,8.256 C45.872,8.256 44.272,9.44 42.672,11.04 L42.672,0.992 L41.264,0.992 L41.264,24 Z M62.352,24.384 C62.992,24.384 63.952,24.128 64.848,23.808 L64.464,22.656 C63.92,22.912 63.12,23.136 62.544,23.136 C60.432,23.136 59.952,21.824 59.952,19.872 L59.952,9.856 L64.4,9.856 L64.4,8.64 L59.952,8.64 L59.952,4.192 L58.736,4.192 L58.544,8.64 L56.112,8.768 L56.112,9.856 L58.512,9.856 L58.512,19.744 C58.512,22.496 59.376,24.384 62.352,24.384 L62.352,24.384 Z M65.84,16.64 L72.88,16.64 L72.88,15.392 L65.84,15.392 L65.84,16.64 Z M80.336,24.384 C80.976,24.384 81.936,24.128 82.832,23.808 L82.448,22.656 C81.904,22.912 81.104,23.136 80.528,23.136 C78.416,23.136 77.936,21.824 77.936,19.872 L77.936,9.856 L82.384,9.856 L82.384,8.64 L77.936,8.64 L77.936,4.192 L76.72,4.192 L76.528,8.64 L74.096,8.768 L74.096,9.856 L76.496,9.856 L76.496,19.744 C76.496,22.496 77.36,24.384 80.336,24.384 L80.336,24.384 Z M91.376,24.384 C95.088,24.384 98.288,21.44 98.288,16.352 C98.288,11.2 95.088,8.256 91.376,8.256 C87.696,8.256 84.496,11.2 84.496,16.352 C84.496,21.44 87.696,24.384 91.376,24.384 L91.376,24.384 Z M91.376,23.136 C88.272,23.136 85.968,20.384 85.968,16.352 C85.968,12.288 88.272,9.504 91.376,9.504 C94.48,9.504 96.816,12.288 96.816,16.352 C96.816,20.384 94.48,23.136 91.376,23.136 L91.376,23.136 Z M101.52,16.64 L108.56,16.64 L108.56,15.392 L101.52,15.392 L101.52,16.64 Z M114.64,24.384 C115.088,24.384 115.376,24.32 115.664,24.224 L115.408,23.072 C115.088,23.136 114.96,23.136 114.832,23.136 C114.448,23.136 114.16,22.816 114.16,22.144 L114.16,0.992 L112.752,0.992 L112.752,21.952 C112.752,23.616 113.392,24.384 114.64,24.384 L114.64,24.384 Z M126.16,24.384 C128.4,24.384 129.776,23.616 130.992,22.88 L130.416,21.792 C129.264,22.624 127.952,23.168 126.288,23.168 C122.832,23.168 120.56,20.384 120.496,16.512 L131.568,16.512 C131.632,16.128 131.632,15.744 131.632,15.36 C131.632,10.848 129.392,8.256 125.744,8.256 C122.32,8.256 119.056,11.328 119.056,16.352 C119.056,21.376 122.224,24.384 126.16,24.384 L126.16,24.384 Z M120.496,15.36 C120.816,11.68 123.152,9.472 125.776,9.472 C128.528,9.472 130.288,11.424 130.288,15.36 L120.496,15.36 Z M149.36,22.656 C148.816,22.912 148.016,23.136 147.44,23.136 C145.328,23.136 144.816,21.824 144.816,19.872 L144.816,9.856 L149.296,9.856 L149.296,8.64 L144.816,8.64 L144.816,4.192 L143.632,4.192 L143.44,8.64 L137.424,8.64 L137.424,5.312 C137.424,3.072 138.192,1.824 139.824,1.824 C140.4,1.824 141.04,1.952 141.68,2.272 L142.064,1.12 C141.36,0.8 140.528,0.608 139.824,0.608 C137.392,0.608 136.016,2.176 136.016,5.216 L136.016,8.64 L133.904,8.768 L133.904,9.856 L136.016,9.856 L136.016,24 L137.424,24 L137.424,9.856 L143.408,9.856 L143.408,19.744 C143.408,22.496 144.272,24.384 147.216,24.384 C147.856,24.384 148.848,24.128 149.744,23.808 L149.36,22.656 Z M6.96,64.384 C10.576,64.384 13.744,61.312 13.744,56.096 C13.744,51.328 11.696,48.256 7.6,48.256 C5.712,48.256 3.856,49.344 2.288,50.656 L2.352,47.648 L2.352,40.992 L0.944,40.992 L0.944,64 L2.128,64 L2.288,62.432 L2.352,62.432 C3.792,63.616 5.488,64.384 6.96,64.384 L6.96,64.384 Z M6.896,63.136 C5.712,63.136 4.048,62.592 2.352,61.152 L2.352,52.032 C4.176,50.4 5.84,49.504 7.376,49.504 C10.896,49.504 12.24,52.32 12.24,56.096 C12.24,60.256 10,63.136 6.896,63.136 L6.896,63.136 Z M21.168,64.384 C23.184,64.384 25.04,63.264 26.608,62.016 L26.704,62.016 L26.832,64 L28.048,64 L28.048,54.176 C28.048,50.88 26.8,48.256 23.184,48.256 C20.688,48.256 18.544,49.472 17.456,50.24 L18.096,51.296 C19.152,50.528 20.944,49.504 22.992,49.504 C26.032,49.504 26.672,52.032 26.64,54.368 C19.792,55.136 16.72,56.768 16.72,60.16 C16.72,63.072 18.736,64.384 21.168,64.384 L21.168,64.384 Z M21.424,63.168 C19.664,63.168 18.16,62.304 18.16,60.096 C18.16,57.664 20.304,56.192 26.64,55.456 L26.64,60.672 C24.72,62.304 23.184,63.168 21.424,63.168 L21.424,63.168 Z M37.232,64.384 C40.56,64.384 42.416,62.368 42.416,60.064 C42.416,57.056 39.792,56.256 37.392,55.36 C35.568,54.688 33.776,54.016 33.776,52.256 C33.776,50.848 34.864,49.472 37.232,49.472 C38.8,49.472 39.888,50.08 40.912,50.848 L41.68,49.856 C40.56,48.928 38.928,48.256 37.296,48.256 C34.096,48.256 32.336,50.112 32.336,52.352 C32.336,54.976 34.896,55.904 37.232,56.736 C38.992,57.376 40.976,58.208 40.976,60.128 C40.976,61.76 39.728,63.168 37.328,63.168 C35.12,63.168 33.744,62.304 32.432,61.216 L31.6,62.272 C32.976,63.424 34.96,64.384 37.232,64.384 L37.232,64.384 Z M52.304,64.384 C54.544,64.384 55.92,63.616 57.136,62.88 L56.56,61.792 C55.408,62.624 54.096,63.168 52.432,63.168 C48.976,63.168 46.704,60.384 46.64,56.512 L57.712,56.512 C57.776,56.128 57.776,55.744 57.776,55.36 C57.776,50.848 55.536,48.256 51.888,48.256 C48.464,48.256 45.2,51.328 45.2,56.352 C45.2,61.376 48.368,64.384 52.304,64.384 L52.304,64.384 Z M46.64,55.36 C46.96,51.68 49.296,49.472 51.92,49.472 C54.672,49.472 56.432,51.424 56.432,55.36 L46.64,55.36 Z M73.424,64.384 C75.472,64.384 77.168,63.264 78.416,62.016 L78.512,62.016 L78.64,64 L79.856,64 L79.856,40.992 L78.448,40.992 L78.448,47.328 L78.512,50.144 C76.976,48.96 75.728,48.256 73.872,48.256 C70.224,48.256 67.056,51.392 67.056,56.352 C67.056,61.536 69.552,64.384 73.424,64.384 L73.424,64.384 Z M73.616,63.136 C70.352,63.136 68.56,60.416 68.56,56.352 C68.56,52.48 70.896,49.504 73.968,49.504 C75.472,49.504 76.816,50.048 78.448,51.488 L78.448,60.608 C76.816,62.24 75.312,63.136 73.616,63.136 L73.616,63.136 Z M85.744,64 L87.152,64 L87.152,48.64 L85.744,48.64 L85.744,64 Z M86.48,44.928 C87.184,44.928 87.76,44.416 87.76,43.68 C87.76,42.88 87.184,42.4 86.48,42.4 C85.776,42.4 85.2,42.88 85.2,43.68 C85.2,44.416 85.776,44.928 86.48,44.928 L86.48,44.928 Z M93.072,64 L94.48,64 L94.48,53.536 C95.664,50.656 97.296,49.6 98.672,49.6 C99.28,49.6 99.568,49.664 100.08,49.856 L100.4,48.576 C99.888,48.32 99.44,48.256 98.864,48.256 C97.04,48.256 95.536,49.6 94.512,51.488 L94.416,51.488 L94.288,48.64 L93.072,48.64 L93.072,64 Z M108.72,64.384 C110.96,64.384 112.336,63.616 113.552,62.88 L112.976,61.792 C111.824,62.624 110.512,63.168 108.848,63.168 C105.392,63.168 103.12,60.384 103.056,56.512 L114.128,56.512 C114.192,56.128 114.192,55.744 114.192,55.36 C114.192,50.848 111.952,48.256 108.304,48.256 C104.88,48.256 101.616,51.328 101.616,56.352 C101.616,61.376 104.784,64.384 108.72,64.384 L108.72,64.384 Z M103.056,55.36 C103.376,51.68 105.712,49.472 108.336,49.472 C111.088,49.472 112.848,51.424 112.848,55.36 L103.056,55.36 Z M124.048,64.384 C126,64.384 127.632,63.52 128.944,62.368 L128.208,61.376 C127.152,62.336 125.744,63.136 124.112,63.136 C120.752,63.136 118.544,60.384 118.544,56.352 C118.544,52.288 120.976,49.504 124.112,49.504 C125.616,49.504 126.768,50.208 127.76,51.136 L128.592,50.144 C127.536,49.184 126.192,48.256 124.08,48.256 C120.336,48.256 117.072,51.2 117.072,56.352 C117.072,61.44 120.08,64.384 124.048,64.384 L124.048,64.384 Z M136.592,64.384 C137.232,64.384 138.192,64.128 139.088,63.808 L138.704,62.656 C138.16,62.912 137.36,63.136 136.784,63.136 C134.672,63.136 134.192,61.824 134.192,59.872 L134.192,49.856 L138.64,49.856 L138.64,48.64 L134.192,48.64 L134.192,44.192 L132.976,44.192 L132.784,48.64 L130.352,48.768 L130.352,49.856 L132.752,49.856 L132.752,59.744 C132.752,62.496 133.616,64.384 136.592,64.384 L136.592,64.384 Z M142.384,64 L143.792,64 L143.792,48.64 L142.384,48.64 L142.384,64 Z M143.12,44.928 C143.824,44.928 144.4,44.416 144.4,43.68 C144.4,42.88 143.824,42.4 143.12,42.4 C142.416,42.4 141.84,42.88 141.84,43.68 C141.84,44.416 142.416,44.928 143.12,44.928 L143.12,44.928 Z M155.312,64.384 C159.024,64.384 162.224,61.44 162.224,56.352 C162.224,51.2 159.024,48.256 155.312,48.256 C151.632,48.256 148.432,51.2 148.432,56.352 C148.432,61.44 151.632,64.384 155.312,64.384 L155.312,64.384 Z M155.312,63.136 C152.208,63.136 149.904,60.384 149.904,56.352 C149.904,52.288 152.208,49.504 155.312,49.504 C158.416,49.504 160.752,52.288 160.752,56.352 C160.752,60.384 158.416,63.136 155.312,63.136 L155.312,63.136 Z M166.832,64 L168.24,64 L168.24,52.416 C170.128,50.496 171.44,49.536 173.264,49.536 C175.76,49.536 176.784,51.072 176.784,54.336 L176.784,64 L178.192,64 L178.192,54.144 C178.192,50.176 176.72,48.256 173.552,48.256 C171.44,48.256 169.84,49.44 168.272,51.008 L168.176,51.008 L168.048,48.64 L166.832,48.64 L166.832,64 Z" id="Visual-order" fill="#000000"></path>
        </g>
    </g>
</svg>