<?xml version="1.0" encoding="UTF-8" standalone="no"?>
<svg width="1280px" height="433px" viewBox="0 0 1280 433" version="1.1" xmlns="http://www.w3.org/2000/svg" xmlns:xlink="http://www.w3.org/1999/xlink">
    <!-- Generator: Sketch 3.7.2 (28276) - http://www.bohemiancoding.com/sketch -->
    <title>order-when-displayed</title>
    <desc>Created with Sketch.</desc>
    <defs></defs>
    <g id="Logical-and-visual-order" stroke="none" stroke-width="1" fill="none" fill-rule="evenodd">
        <g id="Visual-order-Copy" transform="translate(1.000000, 0.000000)">
            <g id="Separator-lines" transform="translate(144.000000, 0.000000)" fill="#D0021B">
                <polygon id="Line" points="992 2 992 431 992 432.5 995 432.5 995 431 995 2 995 0.5 992 0.5"></polygon>
                <polygon id="Line" points="822 2 822 431 822 432.5 825 432.5 825 431 825 2 825 0.5 822 0.5"></polygon>
                <polygon id="Line" points="662 2 662 431 662 432.5 665 432.5 665 431 665 2 665 0.5 662 0.5"></polygon>
                <polygon id="Line" points="492 2 492 431 492 432.5 495 432.5 495 431 495 2 495 0.5 492 0.5"></polygon>
                <polygon id="Line" points="322 2 322 431 322 432.5 325 432.5 325 431 325 2 325 0.5 322 0.5"></polygon>
                <polygon id="Line" points="162 2 162 431 162 432.5 165 432.5 165 431 165 2 165 0.5 162 0.5"></polygon>
                <polygon id="Line" points="0 384 0 431 0 432.5 3 432.5 3 431 3 384 3 382.5 0 382.5"></polygon>
                <polygon id="Line" points="0 265 0 337 0 338.5 3 338.5 3 337 3 265 3 263.5 0 263.5"></polygon>
                <polygon id="Line" points="0 2 0 219 0 220.5 3 220.5 3 219 3 2 3 0.5 0 0.5"></polygon>
            </g>
            <g id="Position-in-display" transform="translate(0.000000, 344.000000)" fill="#000000">
                <path d="M1212.768,86 L1214.496,86 C1214.856,77 1216.224,71.24 1221.732,63.932 L1221.732,62.996 L1207.584,62.996 L1207.584,64.4 L1219.716,64.4 C1215.072,70.88 1213.128,76.712 1212.768,86 L1212.768,86 Z" id="7"></path>
                <path d="M1049.57486,85.064 C1045.83086,85.064 1043.95886,81.788 1043.67086,76.928 C1045.54286,74.408 1047.63086,73.472 1049.25086,73.472 C1052.74286,73.472 1054.21886,75.92 1054.21886,79.232 C1054.21886,82.508 1052.23886,85.064 1049.57486,85.064 L1049.57486,85.064 Z M1055.33486,64.796 C1054.14686,63.464 1052.63486,62.564 1050.47486,62.564 C1046.04686,62.564 1042.01486,65.912 1042.01486,75.56 C1042.01486,82.544 1044.93086,86.432 1049.53886,86.432 C1052.95886,86.432 1055.83886,83.408 1055.83886,79.232 C1055.83886,74.588 1053.46286,72.104 1049.43086,72.104 C1047.30686,72.104 1045.21886,73.364 1043.63486,75.308 C1043.70686,66.848 1046.83886,63.968 1050.47486,63.968 C1051.95086,63.968 1053.35486,64.616 1054.36286,65.876 L1055.33486,64.796 Z" id="6"></path>
                <path d="M882.457714,86.432 C886.165714,86.432 889.801714,83.66 889.801714,78.764 C889.801714,73.724 886.669714,71.492 882.781714,71.492 C881.089714,71.492 879.865714,71.996 878.677714,72.716 L879.397714,64.4 L888.577714,64.4 L888.577714,62.996 L877.957714,62.996 L877.129714,73.76 L878.245714,74.444 C879.613714,73.508 880.765714,72.896 882.529714,72.896 C885.949714,72.896 888.145714,75.128 888.145714,78.836 C888.145714,82.544 885.481714,85.028 882.421714,85.028 C879.289714,85.028 877.489714,83.624 876.121714,82.22 L875.221714,83.336 C876.697714,84.812 878.785714,86.432 882.457714,86.432 L882.457714,86.432 Z" id="5"></path>
                <path d="M710.948571,77.756 L717.716571,68.252 C718.364571,67.208 719.012571,66.344 719.588571,65.372 L719.732571,65.372 C719.660571,66.416 719.588571,68.288 719.588571,69.332 L719.588571,77.756 L710.948571,77.756 Z M724.556571,77.756 L721.136571,77.756 L721.136571,62.996 L719.696571,62.996 L709.004571,78.188 L709.004571,79.124 L719.588571,79.124 L719.588571,86 L721.136571,86 L721.136571,79.124 L724.556571,79.124 L724.556571,77.756 Z" id="4"></path>
                <path d="M550.923429,86.432 C554.883429,86.432 557.943429,83.912 557.943429,79.916 C557.943429,76.676 555.567429,74.552 552.723429,73.94 L552.723429,73.796 C555.243429,72.932 557.115429,71.132 557.115429,68.108 C557.115429,64.58 554.379429,62.564 550.815429,62.564 C548.151429,62.564 546.171429,63.824 544.587429,65.372 L545.523429,66.452 C546.855429,65.048 548.691429,63.932 550.815429,63.932 C553.623429,63.932 555.459429,65.624 555.459429,68.216 C555.459429,70.988 553.587429,73.22 548.259429,73.22 L548.259429,74.624 C554.019429,74.624 556.287429,76.784 556.287429,79.952 C556.287429,83.012 554.019429,85.028 550.923429,85.028 C547.755429,85.028 545.919429,83.588 544.551429,82.076 L543.615429,83.192 C545.091429,84.74 547.251429,86.432 550.923429,86.432 L550.923429,86.432 Z" id="3"></path>
                <path d="M378.190286,86 L392.302286,86 L392.302286,84.56 L384.454286,84.56 C383.194286,84.56 381.862286,84.668 380.602286,84.74 C386.974286,77.972 391.150286,73.58 391.150286,69.008 C391.150286,65.12 388.774286,62.564 384.670286,62.564 C381.862286,62.564 379.846286,64.04 378.118286,65.948 L379.162286,66.956 C380.566286,65.228 382.438286,63.932 384.526286,63.932 C387.982286,63.932 389.530286,66.164 389.530286,69.044 C389.530286,73.04 385.750286,77.324 378.190286,84.992 L378.190286,86 Z" id="2"></path>
                <path d="M213.881143,86 L225.905143,86 L225.905143,84.596 L220.901143,84.596 L220.901143,62.996 L219.605143,62.996 C218.525143,63.608 217.049143,64.112 215.177143,64.436 L215.177143,65.516 L219.281143,65.516 L219.281143,84.596 L213.881143,84.596 L213.881143,86 Z" id="1"></path>
                <path d="M53.604,86.432 C57.996,86.432 60.48,82.076 60.48,74.408 C60.48,66.776 57.996,62.564 53.604,62.564 C49.212,62.564 46.728,66.776 46.728,74.408 C46.728,82.076 49.212,86.432 53.604,86.432 L53.604,86.432 Z M53.604,85.064 C50.436,85.064 48.348,81.428 48.348,74.408 C48.348,67.388 50.436,63.932 53.604,63.932 C56.808,63.932 58.86,67.388 58.86,74.408 C58.86,81.428 56.808,85.064 53.604,85.064 L53.604,85.064 Z" id="0"></path>
                <path d="M0.26,26 L3.068,26 L4.94,16.496 L8.72,16.496 C14.732,16.496 19.052,13.94 19.052,8.144 C19.052,4.04 16.064,2.384 11.636,2.384 L4.976,2.384 L0.26,26 Z M5.408,14.228 L7.316,4.616 L10.952,4.616 C14.408,4.616 16.28,5.768 16.28,8.504 C16.28,12.284 13.688,14.228 8.828,14.228 L5.408,14.228 Z M25.712,26.432 C30.5,26.432 35.18,21.716 35.18,15.092 C35.18,10.736 32.696,8.072 28.916,8.072 C24.128,8.072 19.484,12.788 19.484,19.412 C19.484,23.768 21.932,26.432 25.712,26.432 L25.712,26.432 Z M26,24.128 C23.588,24.128 22.256,22.4 22.256,19.232 C22.256,14.336 25.424,10.34 28.628,10.34 C31.04,10.34 32.372,12.104 32.372,15.272 C32.372,20.168 29.24,24.128 26,24.128 L26,24.128 Z M42.488,26.432 C46.268,26.432 49.04,24.308 49.04,21.032 C49.04,19.124 48.068,17.792 44.936,16.064 C43.352,15.2 41.84,14.444 41.84,12.968 C41.84,11.492 43.28,10.232 45.152,10.232 C46.736,10.232 47.852,10.988 48.788,11.96 L50.372,10.412 C49.076,9.044 47.348,8.072 45.224,8.072 C41.948,8.072 39.212,10.196 39.212,13.292 C39.212,15.272 40.508,16.604 43.208,18.08 C45.656,19.412 46.412,20.132 46.412,21.392 C46.412,22.976 44.72,24.308 42.704,24.308 C40.868,24.308 39.284,23.264 38.204,21.752 L36.476,23.12 C37.664,24.956 40.148,26.432 42.488,26.432 L42.488,26.432 Z M52.208,26 L54.944,26 L58.472,8.504 L55.7,8.504 L52.208,26 Z M58.04,4.868 C59.156,4.868 60.128,4.004 60.128,2.816 C60.128,1.772 59.3,1.16 58.364,1.16 C57.248,1.16 56.276,2.06 56.276,3.248 C56.276,4.292 57.104,4.868 58.04,4.868 L58.04,4.868 Z M66.284,26.432 C67.652,26.432 68.804,26 69.596,25.64 L68.984,23.66 C68.444,23.912 67.832,24.2 67.148,24.2 C65.492,24.2 64.916,23.48 64.916,22.04 C64.916,21.572 64.952,21.176 65.024,20.744 L67.076,10.736 L71.576,10.736 L72.008,8.504 L67.58,8.504 L68.552,3.68 L66.212,3.68 L64.916,8.504 L62.18,8.684 L61.784,10.736 L64.34,10.736 L62.288,20.6 C62.216,21.248 62.108,21.824 62.108,22.544 C62.108,24.704 63.224,26.432 66.284,26.432 L66.284,26.432 Z M72.44,26 L75.176,26 L78.704,8.504 L75.932,8.504 L72.44,26 Z M78.272,4.868 C79.388,4.868 80.36,4.004 80.36,2.816 C80.36,1.772 79.532,1.16 78.596,1.16 C77.48,1.16 76.508,2.06 76.508,3.248 C76.508,4.292 77.336,4.868 78.272,4.868 L78.272,4.868 Z M87.488,26.432 C92.276,26.432 96.956,21.716 96.956,15.092 C96.956,10.736 94.472,8.072 90.692,8.072 C85.904,8.072 81.26,12.788 81.26,19.412 C81.26,23.768 83.708,26.432 87.488,26.432 L87.488,26.432 Z M87.776,24.128 C85.364,24.128 84.032,22.4 84.032,19.232 C84.032,14.336 87.2,10.34 90.404,10.34 C92.816,10.34 94.148,12.104 94.148,15.272 C94.148,20.168 91.016,24.128 87.776,24.128 L87.776,24.128 Z M99.512,26 L102.248,26 L104.732,13.616 C106.928,11.42 108.62,10.448 109.988,10.448 C111.788,10.448 112.58,11.384 112.58,13.148 C112.58,13.76 112.472,14.264 112.292,15.2 L110.132,26 L112.868,26 L115.1,14.84 C115.316,13.868 115.388,13.256 115.388,12.428 C115.388,9.728 114.2,8.072 111.248,8.072 C109.052,8.072 107.108,9.404 105.128,11.132 L104.984,11.132 L105.236,8.504 L102.968,8.504 L99.512,26 Z M125.324,26 L128.06,26 L131.588,8.504 L128.816,8.504 L125.324,26 Z M131.156,4.868 C132.272,4.868 133.244,4.004 133.244,2.816 C133.244,1.772 132.416,1.16 131.48,1.16 C130.364,1.16 129.392,2.06 129.392,3.248 C129.392,4.292 130.22,4.868 131.156,4.868 L131.156,4.868 Z M133.856,26 L136.592,26 L139.076,13.616 C141.272,11.42 142.964,10.448 144.332,10.448 C146.132,10.448 146.924,11.384 146.924,13.148 C146.924,13.76 146.816,14.264 146.636,15.2 L144.476,26 L147.212,26 L149.444,14.84 C149.66,13.868 149.732,13.256 149.732,12.428 C149.732,9.728 148.544,8.072 145.592,8.072 C143.396,8.072 141.452,9.404 139.472,11.132 L139.328,11.132 L139.58,8.504 L137.312,8.504 L133.856,26 Z M173.672,10.628 L173.564,10.628 C172.7,9.08 171.296,8.072 169.424,8.072 C164.564,8.072 159.956,13.364 159.956,20.096 C159.956,24.2 161.936,26.432 164.996,26.432 C167.192,26.432 169.388,25.208 171.08,23.408 L171.224,23.408 L170.936,26 L173.204,26 L178.388,0.368 L175.616,0.368 L174.248,7.208 L173.672,10.628 Z M166.004,24.128 C164.06,24.128 162.8,22.688 162.8,19.664 C162.8,14.84 166.04,10.376 169.532,10.376 C170.864,10.376 172.088,11.132 173.096,12.968 L171.512,20.78 C169.748,23.048 167.84,24.128 166.004,24.128 L166.004,24.128 Z M178.928,26 L181.664,26 L185.192,8.504 L182.42,8.504 L178.928,26 Z M184.76,4.868 C185.876,4.868 186.848,4.004 186.848,2.816 C186.848,1.772 186.02,1.16 185.084,1.16 C183.968,1.16 182.996,2.06 182.996,3.248 C182.996,4.292 183.824,4.868 184.76,4.868 L184.76,4.868 Z M192.212,26.432 C195.992,26.432 198.764,24.308 198.764,21.032 C198.764,19.124 197.792,17.792 194.66,16.064 C193.076,15.2 191.564,14.444 191.564,12.968 C191.564,11.492 193.004,10.232 194.876,10.232 C196.46,10.232 197.576,10.988 198.512,11.96 L200.096,10.412 C198.8,9.044 197.072,8.072 194.948,8.072 C191.672,8.072 188.936,10.196 188.936,13.292 C188.936,15.272 190.232,16.604 192.932,18.08 C195.38,19.412 196.136,20.132 196.136,21.392 C196.136,22.976 194.444,24.308 192.428,24.308 C190.592,24.308 189.008,23.264 187.928,21.752 L186.2,23.12 C187.388,24.956 189.872,26.432 192.212,26.432 L192.212,26.432 Z M204.956,23.912 L205.028,23.912 C205.928,25.388 207.404,26.432 209.24,26.432 C214.064,26.432 218.672,21.14 218.672,14.408 C218.672,10.34 216.692,8.072 213.632,8.072 C211.436,8.072 209.348,9.332 207.584,10.808 L207.476,10.808 L207.692,8.504 L205.424,8.504 L200.456,33.38 L203.192,33.38 L204.308,27.656 L204.956,23.912 Z M212.624,10.376 C214.604,10.376 215.828,11.852 215.828,14.804 C215.828,19.664 212.624,24.128 209.132,24.128 C207.764,24.128 206.54,23.408 205.568,21.608 L207.224,13.256 C208.88,11.456 211.004,10.376 212.624,10.376 L212.624,10.376 Z M224,26.432 C224.756,26.432 225.26,26.324 225.728,26.144 L225.692,24.02 C225.368,24.128 225.26,24.128 225.116,24.128 C224.756,24.128 224.504,23.912 224.504,23.48 C224.504,23.336 224.504,23.156 224.576,22.796 L229.076,0.368 L226.304,0.368 L221.876,22.652 C221.732,23.264 221.66,23.768 221.66,24.164 C221.66,25.604 222.452,26.432 224,26.432 L224,26.432 Z M235.448,26.432 C237.644,26.432 239.84,25.208 241.532,23.408 L241.676,23.408 L241.388,26 L243.656,26 L247.148,8.504 L244.916,8.504 L244.232,10.7 L244.088,10.7 C243.26,9.116 241.748,8.072 239.876,8.072 C235.016,8.072 230.408,13.364 230.408,20.096 C230.408,24.2 232.388,26.432 235.448,26.432 L235.448,26.432 Z M236.456,24.128 C234.512,24.128 233.252,22.688 233.252,19.664 C233.252,14.84 236.492,10.376 239.984,10.376 C241.316,10.376 242.54,11.132 243.548,12.968 L241.964,20.78 C240.236,23.048 238.292,24.128 236.456,24.128 L236.456,24.128 Z M248.12,33.524 C251.468,33.524 253.592,30.896 255.428,27.476 L265.724,8.504 L262.988,8.504 L257.948,18.332 C257.084,19.988 256.184,21.896 255.356,23.552 L255.212,23.552 C255.068,21.896 254.888,19.916 254.636,18.332 L253.268,8.504 L250.532,8.504 L253.52,26.036 L252.872,27.296 C251.684,29.708 250.064,31.292 248.3,31.292 C247.832,31.292 247.436,31.184 247.004,30.968 L246.104,33.02 C246.788,33.38 247.616,33.524 248.12,33.524 L248.12,33.524 Z"></path>
            </g>
            <g id="Position-in-memory" transform="translate(0.000000, 225.000000)" fill="#000000">
                <path d="M1214.604,85.432 C1218.996,85.432 1221.48,81.076 1221.48,73.408 C1221.48,65.776 1218.996,61.564 1214.604,61.564 C1210.212,61.564 1207.728,65.776 1207.728,73.408 C1207.728,81.076 1210.212,85.432 1214.604,85.432 L1214.604,85.432 Z M1214.604,84.064 C1211.436,84.064 1209.348,80.428 1209.348,73.408 C1209.348,66.388 1211.436,62.932 1214.604,62.932 C1217.808,62.932 1219.86,66.388 1219.86,73.408 C1219.86,80.428 1217.808,84.064 1214.604,84.064 L1214.604,84.064 Z" id="0"></path>
                <path d="M1043.16686,85 L1055.19086,85 L1055.19086,83.596 L1050.18686,83.596 L1050.18686,61.996 L1048.89086,61.996 C1047.81086,62.608 1046.33486,63.112 1044.46286,63.436 L1044.46286,64.516 L1048.56686,64.516 L1048.56686,83.596 L1043.16686,83.596 L1043.16686,85 Z" id="1"></path>
                <path d="M875.761714,85 L889.873714,85 L889.873714,83.56 L882.025714,83.56 C880.765714,83.56 879.433714,83.668 878.173714,83.74 C884.545714,76.972 888.721714,72.58 888.721714,68.008 C888.721714,64.12 886.345714,61.564 882.241714,61.564 C879.433714,61.564 877.417714,63.04 875.689714,64.948 L876.733714,65.956 C878.137714,64.228 880.009714,62.932 882.097714,62.932 C885.553714,62.932 887.101714,65.164 887.101714,68.044 C887.101714,72.04 883.321714,76.324 875.761714,83.992 L875.761714,85 Z" id="2"></path>
                <path d="M716.780571,85.432 C720.740571,85.432 723.800571,82.912 723.800571,78.916 C723.800571,75.676 721.424571,73.552 718.580571,72.94 L718.580571,72.796 C721.100571,71.932 722.972571,70.132 722.972571,67.108 C722.972571,63.58 720.236571,61.564 716.672571,61.564 C714.008571,61.564 712.028571,62.824 710.444571,64.372 L711.380571,65.452 C712.712571,64.048 714.548571,62.932 716.672571,62.932 C719.480571,62.932 721.316571,64.624 721.316571,67.216 C721.316571,69.988 719.444571,72.22 714.116571,72.22 L714.116571,73.624 C719.876571,73.624 722.144571,75.784 722.144571,78.952 C722.144571,82.012 719.876571,84.028 716.780571,84.028 C713.612571,84.028 711.776571,82.588 710.408571,81.076 L709.472571,82.192 C710.948571,83.74 713.108571,85.432 716.780571,85.432 L716.780571,85.432 Z" id="3"></path>
                <path d="M549.339429,85 L551.067429,85 C551.427429,76 552.795429,70.24 558.303429,62.932 L558.303429,61.996 L544.155429,61.996 L544.155429,63.4 L556.287429,63.4 C551.643429,69.88 549.699429,75.712 549.339429,85 L549.339429,85 Z" id="7"></path>
                <path d="M386.146286,84.064 C382.402286,84.064 380.530286,80.788 380.242286,75.928 C382.114286,73.408 384.202286,72.472 385.822286,72.472 C389.314286,72.472 390.790286,74.92 390.790286,78.232 C390.790286,81.508 388.810286,84.064 386.146286,84.064 L386.146286,84.064 Z M391.906286,63.796 C390.718286,62.464 389.206286,61.564 387.046286,61.564 C382.618286,61.564 378.586286,64.912 378.586286,74.56 C378.586286,81.544 381.502286,85.432 386.110286,85.432 C389.530286,85.432 392.410286,82.408 392.410286,78.232 C392.410286,73.588 390.034286,71.104 386.002286,71.104 C383.878286,71.104 381.790286,72.364 380.206286,74.308 C380.278286,65.848 383.410286,62.968 387.046286,62.968 C388.522286,62.968 389.926286,63.616 390.934286,64.876 L391.906286,63.796 Z" id="6"></path>
                <path d="M219.029143,85.432 C222.737143,85.432 226.373143,82.66 226.373143,77.764 C226.373143,72.724 223.241143,70.492 219.353143,70.492 C217.661143,70.492 216.437143,70.996 215.249143,71.716 L215.969143,63.4 L225.149143,63.4 L225.149143,61.996 L214.529143,61.996 L213.701143,72.76 L214.817143,73.444 C216.185143,72.508 217.337143,71.896 219.101143,71.896 C222.521143,71.896 224.717143,74.128 224.717143,77.836 C224.717143,81.544 222.053143,84.028 218.993143,84.028 C215.861143,84.028 214.061143,82.624 212.693143,81.22 L211.793143,82.336 C213.269143,83.812 215.357143,85.432 219.029143,85.432 L219.029143,85.432 Z" id="5"></path>
                <path d="M47.52,76.756 L54.288,67.252 C54.936,66.208 55.584,65.344 56.16,64.372 L56.304,64.372 C56.232,65.416 56.16,67.288 56.16,68.332 L56.16,76.756 L47.52,76.756 Z M61.128,76.756 L57.708,76.756 L57.708,61.996 L56.268,61.996 L45.576,77.188 L45.576,78.124 L56.16,78.124 L56.16,85 L57.708,85 L57.708,78.124 L61.128,78.124 L61.128,76.756 Z" id="4"></path>
                <path d="M0.26,25 L3.068,25 L4.94,15.496 L8.72,15.496 C14.732,15.496 19.052,12.94 19.052,7.144 C19.052,3.04 16.064,1.384 11.636,1.384 L4.976,1.384 L0.26,25 Z M5.408,13.228 L7.316,3.616 L10.952,3.616 C14.408,3.616 16.28,4.768 16.28,7.504 C16.28,11.284 13.688,13.228 8.828,13.228 L5.408,13.228 Z M25.712,25.432 C30.5,25.432 35.18,20.716 35.18,14.092 C35.18,9.736 32.696,7.072 28.916,7.072 C24.128,7.072 19.484,11.788 19.484,18.412 C19.484,22.768 21.932,25.432 25.712,25.432 L25.712,25.432 Z M26,23.128 C23.588,23.128 22.256,21.4 22.256,18.232 C22.256,13.336 25.424,9.34 28.628,9.34 C31.04,9.34 32.372,11.104 32.372,14.272 C32.372,19.168 29.24,23.128 26,23.128 L26,23.128 Z M42.488,25.432 C46.268,25.432 49.04,23.308 49.04,20.032 C49.04,18.124 48.068,16.792 44.936,15.064 C43.352,14.2 41.84,13.444 41.84,11.968 C41.84,10.492 43.28,9.232 45.152,9.232 C46.736,9.232 47.852,9.988 48.788,10.96 L50.372,9.412 C49.076,8.044 47.348,7.072 45.224,7.072 C41.948,7.072 39.212,9.196 39.212,12.292 C39.212,14.272 40.508,15.604 43.208,17.08 C45.656,18.412 46.412,19.132 46.412,20.392 C46.412,21.976 44.72,23.308 42.704,23.308 C40.868,23.308 39.284,22.264 38.204,20.752 L36.476,22.12 C37.664,23.956 40.148,25.432 42.488,25.432 L42.488,25.432 Z M52.208,25 L54.944,25 L58.472,7.504 L55.7,7.504 L52.208,25 Z M58.04,3.868 C59.156,3.868 60.128,3.004 60.128,1.816 C60.128,0.772 59.3,0.16 58.364,0.16 C57.248,0.16 56.276,1.06 56.276,2.248 C56.276,3.292 57.104,3.868 58.04,3.868 L58.04,3.868 Z M66.284,25.432 C67.652,25.432 68.804,25 69.596,24.64 L68.984,22.66 C68.444,22.912 67.832,23.2 67.148,23.2 C65.492,23.2 64.916,22.48 64.916,21.04 C64.916,20.572 64.952,20.176 65.024,19.744 L67.076,9.736 L71.576,9.736 L72.008,7.504 L67.58,7.504 L68.552,2.68 L66.212,2.68 L64.916,7.504 L62.18,7.684 L61.784,9.736 L64.34,9.736 L62.288,19.6 C62.216,20.248 62.108,20.824 62.108,21.544 C62.108,23.704 63.224,25.432 66.284,25.432 L66.284,25.432 Z M72.44,25 L75.176,25 L78.704,7.504 L75.932,7.504 L72.44,25 Z M78.272,3.868 C79.388,3.868 80.36,3.004 80.36,1.816 C80.36,0.772 79.532,0.16 78.596,0.16 C77.48,0.16 76.508,1.06 76.508,2.248 C76.508,3.292 77.336,3.868 78.272,3.868 L78.272,3.868 Z M87.488,25.432 C92.276,25.432 96.956,20.716 96.956,14.092 C96.956,9.736 94.472,7.072 90.692,7.072 C85.904,7.072 81.26,11.788 81.26,18.412 C81.26,22.768 83.708,25.432 87.488,25.432 L87.488,25.432 Z M87.776,23.128 C85.364,23.128 84.032,21.4 84.032,18.232 C84.032,13.336 87.2,9.34 90.404,9.34 C92.816,9.34 94.148,11.104 94.148,14.272 C94.148,19.168 91.016,23.128 87.776,23.128 L87.776,23.128 Z M99.512,25 L102.248,25 L104.732,12.616 C106.928,10.42 108.62,9.448 109.988,9.448 C111.788,9.448 112.58,10.384 112.58,12.148 C112.58,12.76 112.472,13.264 112.292,14.2 L110.132,25 L112.868,25 L115.1,13.84 C115.316,12.868 115.388,12.256 115.388,11.428 C115.388,8.728 114.2,7.072 111.248,7.072 C109.052,7.072 107.108,8.404 105.128,10.132 L104.984,10.132 L105.236,7.504 L102.968,7.504 L99.512,25 Z M125.324,25 L128.06,25 L131.588,7.504 L128.816,7.504 L125.324,25 Z M131.156,3.868 C132.272,3.868 133.244,3.004 133.244,1.816 C133.244,0.772 132.416,0.16 131.48,0.16 C130.364,0.16 129.392,1.06 129.392,2.248 C129.392,3.292 130.22,3.868 131.156,3.868 L131.156,3.868 Z M133.856,25 L136.592,25 L139.076,12.616 C141.272,10.42 142.964,9.448 144.332,9.448 C146.132,9.448 146.924,10.384 146.924,12.148 C146.924,12.76 146.816,13.264 146.636,14.2 L144.476,25 L147.212,25 L149.444,13.84 C149.66,12.868 149.732,12.256 149.732,11.428 C149.732,8.728 148.544,7.072 145.592,7.072 C143.396,7.072 141.452,8.404 139.472,10.132 L139.328,10.132 L139.58,7.504 L137.312,7.504 L133.856,25 Z M159.668,25 L162.404,25 L164.888,12.616 C166.94,10.42 168.776,9.448 169.82,9.448 C171.548,9.448 172.34,10.384 172.34,12.148 C172.34,12.76 172.232,13.264 172.052,14.2 L169.892,25 L172.628,25 L175.112,12.616 C177.2,10.42 179.036,9.448 180.044,9.448 C181.772,9.448 182.6,10.384 182.6,12.148 C182.6,12.76 182.492,13.264 182.312,14.2 L180.116,25 L182.888,25 L185.12,13.84 C185.3,12.868 185.408,12.256 185.408,11.428 C185.408,8.728 184.184,7.072 181.268,7.072 C179.468,7.072 177.308,8.368 175.076,10.492 C174.824,8.584 173.816,7.072 171.044,7.072 C169.208,7.072 167.12,8.404 165.284,10.132 L165.14,10.132 L165.392,7.504 L163.124,7.504 L159.668,25 Z M188.648,18.124 C188.648,22.804 191.384,25.432 195.524,25.432 C197.792,25.432 199.772,24.568 201.176,23.56 L200.096,21.724 C198.98,22.552 197.54,23.236 196.172,23.236 C193.112,23.236 190.772,21.328 191.42,16.828 L202.796,16.828 C203.012,16.18 203.408,14.812 203.408,13.408 C203.408,9.808 201.932,7.072 198.008,7.072 C193.436,7.072 188.648,11.536 188.648,18.124 L188.648,18.124 Z M191.708,14.956 C192.608,11.5 195.128,9.268 197.684,9.268 C200.204,9.268 201.068,11.176 201.068,13.156 C201.068,13.84 200.996,14.38 200.888,14.956 L191.708,14.956 Z M205.748,25 L208.484,25 L210.968,12.616 C213.02,10.42 214.856,9.448 215.9,9.448 C217.628,9.448 218.42,10.384 218.42,12.148 C218.42,12.76 218.312,13.264 218.132,14.2 L215.972,25 L218.708,25 L221.192,12.616 C223.28,10.42 225.116,9.448 226.124,9.448 C227.852,9.448 228.68,10.384 228.68,12.148 C228.68,12.76 228.572,13.264 228.392,14.2 L226.196,25 L228.968,25 L231.2,13.84 C231.38,12.868 231.488,12.256 231.488,11.428 C231.488,8.728 230.264,7.072 227.348,7.072 C225.548,7.072 223.388,8.368 221.156,10.492 C220.904,8.584 219.896,7.072 217.124,7.072 C215.288,7.072 213.2,8.404 211.364,10.132 L211.22,10.132 L211.472,7.504 L209.204,7.504 L205.748,25 Z M241.028,25.432 C245.816,25.432 250.496,20.716 250.496,14.092 C250.496,9.736 248.012,7.072 244.232,7.072 C239.444,7.072 234.8,11.788 234.8,18.412 C234.8,22.768 237.248,25.432 241.028,25.432 L241.028,25.432 Z M241.316,23.128 C238.904,23.128 237.572,21.4 237.572,18.232 C237.572,13.336 240.74,9.34 243.944,9.34 C246.356,9.34 247.688,11.104 247.688,14.272 C247.688,19.168 244.556,23.128 241.316,23.128 L241.316,23.128 Z M253.052,25 L255.788,25 L257.984,13.948 C259.46,11.104 261.404,9.556 263.132,9.556 C263.78,9.556 264.284,9.664 264.644,9.844 L265.616,7.396 C265.112,7.18 264.608,7.072 263.96,7.072 C261.8,7.072 259.928,8.728 258.524,10.852 L258.38,10.852 L258.776,7.504 L256.508,7.504 L253.052,25 Z M264.248,32.524 C267.596,32.524 269.72,29.896 271.556,26.476 L281.852,7.504 L279.116,7.504 L274.076,17.332 C273.212,18.988 272.312,20.896 271.484,22.552 L271.34,22.552 C271.196,20.896 271.016,18.916 270.764,17.332 L269.396,7.504 L266.66,7.504 L269.648,25.036 L269,26.296 C267.812,28.708 266.192,30.292 264.428,30.292 C263.96,30.292 263.564,30.184 263.132,29.968 L262.232,32.02 C262.916,32.38 263.744,32.524 264.248,32.524 L264.248,32.524 Z"></path>
            </g>
            <g id="Characters" transform="translate(2.000000, 2.000000)" fill="#000000">
                <g id="U+06A9" transform="translate(1172.000000, 0.000000)">
                    <path d="M31.456,86 L42.976,86 C49.024,86 54.496,85.568 59.392,84.704 C64.288,83.84 68.464,82.544 72.064,80.672 C74.224,79.664 76.096,78.512 77.536,77.216 C78.976,75.92 80.128,74.48 80.992,72.896 C81.424,72.176 81.712,70.88 81.856,69.008 C82,67.136 82.144,64.688 82.144,61.664 C82.144,59.648 81.712,57.632 80.704,55.472 C79.696,53.312 78.256,51.152 76.384,48.992 C74.944,47.264 73.216,45.68 71.344,44.24 C69.472,42.8 67.456,41.36 65.296,40.064 C64.144,39.344 62.992,38.624 61.696,37.904 C60.4,37.184 59.104,36.32 57.664,35.456 C62.704,32 68.608,28.4 75.376,24.656 C82.144,20.912 89.776,17.024 98.272,13.136 C100.144,9.248 101.584,6.368 102.592,4.352 C103.6,2.336 104.032,1.328 104.032,1.184 C104.032,1.04 104.032,0.896 103.888,0.896 L103.456,0.896 C103.312,0.896 103.024,1.04 102.736,1.184 C102.448,1.328 102.016,1.472 101.584,1.616 C92.224,6.224 83.728,10.832 75.952,15.44 C68.176,20.048 61.12,24.656 54.928,29.264 C54.784,29.408 54.64,29.984 54.496,30.992 C54.352,32 54.208,33.44 54.064,35.312 C53.92,36.896 53.776,38.192 53.632,39.344 C53.488,40.496 53.488,41.36 53.488,42.08 C53.488,42.368 53.92,42.8 54.64,43.376 C55.36,43.952 56.512,44.672 58.096,45.536 C60.112,46.832 61.84,47.984 63.424,48.992 C65.008,50 66.304,51.008 67.312,51.872 C70.912,54.752 73.648,57.488 75.376,60.08 C77.104,62.672 77.968,64.976 77.968,67.136 C77.968,68 77.392,68.864 76.24,69.728 C75.088,70.592 73.216,71.6 70.768,72.608 C69.184,73.328 67.6,73.904 66.016,74.336 C64.432,74.768 62.848,75.2 61.408,75.488 L57.808,75.776 C53.776,75.92 49.888,76.064 46.288,76.208 C42.688,76.352 39.232,76.496 35.92,76.496 L33.472,76.496 L32.32,76.496 C24.112,76.496 17.92,75.344 13.744,73.04 C9.568,70.736 7.552,67.28 7.552,62.672 C7.552,61.952 7.696,60.8 7.984,59.36 C8.272,57.92 8.848,56.048 9.568,53.888 C9.856,52.88 10.144,52.016 10.432,51.296 C10.72,50.576 10.864,50.144 11.008,49.856 C10.576,49.568 10.144,49.28 9.568,48.992 C8.992,48.704 8.56,48.56 8.416,48.56 C7.984,48.56 7.408,49.136 6.688,50.288 C5.968,51.44 5.104,53.168 4.096,55.472 C3.088,57.92 2.224,60.224 1.648,62.384 C1.072,64.544 0.784,66.56 0.784,68.432 C0.784,74.336 3.376,78.8 8.416,81.824 C13.456,84.848 21.088,86.432 31.168,86.432 L31.456,86 Z M11.44,50.432 L11.44,49.568 L11.44,49.28 L11.152,49.28 C11.152,49.28 11.008,49.424 10.864,49.568 C11.008,49.712 11.152,49.856 11.296,50 C11.44,50.144 11.44,50.288 11.44,50.432 L11.44,50.432 Z" id="ک"></path>
                    <path d="M7.112,170.384 C10.76,170.384 14.248,168.496 14.248,161.904 L14.248,148.912 L12.872,148.912 L12.872,161.744 C12.872,167.344 10.152,169.04 7.112,169.04 C4.136,169.04 1.512,167.344 1.512,161.744 L1.512,148.912 L0.04,148.912 L0.04,161.904 C0.04,168.496 3.496,170.384 7.112,170.384 L7.112,170.384 Z M24.296,166.48 L25.608,166.48 L25.608,160.048 L31.528,160.048 L31.528,158.832 L25.608,158.832 L25.608,152.4 L24.296,152.4 L24.296,158.832 L18.376,158.832 L18.376,160.048 L24.296,160.048 L24.296,166.48 Z M40.264,170.384 C44.168,170.384 46.376,166.512 46.376,159.696 C46.376,152.912 44.168,149.168 40.264,149.168 C36.36,149.168 34.152,152.912 34.152,159.696 C34.152,166.512 36.36,170.384 40.264,170.384 L40.264,170.384 Z M40.264,169.168 C37.448,169.168 35.592,165.936 35.592,159.696 C35.592,153.456 37.448,150.384 40.264,150.384 C43.112,150.384 44.936,153.456 44.936,159.696 C44.936,165.936 43.112,169.168 40.264,169.168 L40.264,169.168 Z M56.328,169.168 C53,169.168 51.336,166.256 51.08,161.936 C52.744,159.696 54.6,158.864 56.04,158.864 C59.144,158.864 60.456,161.04 60.456,163.984 C60.456,166.896 58.696,169.168 56.328,169.168 L56.328,169.168 Z M61.448,151.152 C60.392,149.968 59.048,149.168 57.128,149.168 C53.192,149.168 49.608,152.144 49.608,160.72 C49.608,166.928 52.2,170.384 56.296,170.384 C59.336,170.384 61.896,167.696 61.896,163.984 C61.896,159.856 59.784,157.648 56.2,157.648 C54.312,157.648 52.456,158.768 51.048,160.496 C51.112,152.976 53.896,150.416 57.128,150.416 C58.44,150.416 59.688,150.992 60.584,152.112 L61.448,151.152 Z M67.944,161.52 L69.288,157.584 C70.152,155.088 70.888,152.88 71.624,150.288 L71.752,150.288 C72.488,152.88 73.224,155.088 74.088,157.584 L75.432,161.52 L67.944,161.52 Z M78.312,170 L79.848,170 L72.424,148.912 L70.952,148.912 L63.528,170 L65,170 L67.496,162.768 L75.848,162.768 L78.312,170 Z M87.336,160.688 C84.2,160.688 82.888,158.512 82.888,155.536 C82.888,152.624 84.68,150.384 87.016,150.384 C90.344,150.384 92.04,153.264 92.296,157.584 C90.664,159.824 88.776,160.688 87.336,160.688 L87.336,160.688 Z M81.896,168.4 C82.92,169.584 84.328,170.384 86.216,170.384 C90.184,170.384 93.736,167.376 93.736,158.8 C93.736,152.592 91.144,149.168 87.08,149.168 C84.04,149.168 81.48,151.824 81.48,155.536 C81.48,159.664 83.592,161.872 87.144,161.872 C89.064,161.872 90.92,160.752 92.328,159.056 C92.264,166.576 89.48,169.136 86.248,169.136 C84.904,169.136 83.656,168.56 82.76,167.44 L81.896,168.4 Z"></path>
                </g>
                <g id="U+0644" transform="translate(1001.000000, 0.000000)">
                    <path d="M68.616,9.248 L68.616,9.104 L68.616,9.248 Z M42.84,119.264 C46.296,119.264 49.752,118.832 53.208,117.968 C56.664,117.104 60.12,115.808 63.576,114.224 C66.168,112.928 68.328,111.776 70.056,110.624 C71.784,109.472 73.08,108.32 73.8,107.312 C74.232,106.88 74.664,106.16 75.24,105.008 C75.816,103.856 76.536,102.416 77.256,100.544 C77.976,98.672 78.552,97.088 78.984,95.792 C79.416,94.496 79.704,93.632 79.704,93.056 L79.704,75.2 L78.552,27.68 L78.12,16.592 C79.128,16.88 79.992,17.168 80.712,17.312 C81.432,17.456 82.008,17.6 82.44,17.6 C82.44,17.456 82.152,16.736 81.72,15.44 C81.288,14.144 80.568,12.272 79.56,9.824 C78.264,6.8 77.256,4.496 76.536,2.912 C75.816,1.328 75.384,0.32 75.24,0.032 C73.656,1.904 72.36,3.488 71.208,4.928 C70.056,6.368 69.048,7.52 68.328,8.528 C68.472,8.672 68.616,9.392 68.76,10.688 C68.904,11.984 69.192,13.712 69.48,15.872 C70.488,23.36 71.352,30.56 71.928,37.328 C72.504,44.096 72.792,50.576 72.936,56.624 L73.8,97.376 C73.8,98.384 72.648,99.68 70.344,101.12 C68.04,102.56 64.44,104.144 59.688,106.016 C57.384,106.88 54.936,107.6 52.344,108.032 C49.752,108.464 47.016,108.752 43.992,108.752 C41.688,108.752 39.528,108.464 37.512,108.032 C35.496,107.6 33.48,106.88 31.608,105.872 C29.448,104.576 27.72,103.136 26.568,101.408 C25.416,99.68 24.84,97.664 24.84,95.504 C24.84,94.64 24.984,93.344 25.272,91.616 C25.56,89.888 25.992,87.728 26.568,85.28 C26.856,84.128 27.144,83.12 27.288,82.256 C27.432,81.392 27.576,80.816 27.72,80.384 C27.288,80.096 26.712,79.808 25.992,79.52 C25.272,79.232 24.84,79.088 24.552,79.088 C24.264,79.088 23.832,79.664 23.256,80.96 C22.68,82.256 21.96,84.128 21.096,86.576 C20.088,89.312 19.368,91.904 18.936,94.208 C18.504,96.512 18.216,98.528 18.216,100.4 C18.216,103.712 18.936,106.592 20.232,109.04 C21.528,111.488 23.544,113.504 26.28,115.088 C28.44,116.384 30.888,117.392 33.624,117.968 C36.36,118.544 39.528,118.832 42.984,118.832 L42.84,119.264 Z M28.152,80.96 L28.152,80.096 L28.152,79.808 C28.152,79.808 28.152,79.808 28.152,79.952 C28.152,80.096 28.008,80.24 27.864,80.384 C28.008,80.528 28.152,80.672 28.296,80.816 C28.44,80.96 28.44,81.104 28.44,81.248 L28.152,80.96 Z" id="ل"></path>
                    <path d="M7.82628571,170.384 C11.4742857,170.384 14.9622857,168.496 14.9622857,161.904 L14.9622857,148.912 L13.5862857,148.912 L13.5862857,161.744 C13.5862857,167.344 10.8662857,169.04 7.82628571,169.04 C4.85028571,169.04 2.22628571,167.344 2.22628571,161.744 L2.22628571,148.912 L0.754285714,148.912 L0.754285714,161.904 C0.754285714,168.496 4.21028571,170.384 7.82628571,170.384 L7.82628571,170.384 Z M25.0102857,166.48 L26.3222857,166.48 L26.3222857,160.048 L32.2422857,160.048 L32.2422857,158.832 L26.3222857,158.832 L26.3222857,152.4 L25.0102857,152.4 L25.0102857,158.832 L19.0902857,158.832 L19.0902857,160.048 L25.0102857,160.048 L25.0102857,166.48 Z M40.9782857,170.384 C44.8822857,170.384 47.0902857,166.512 47.0902857,159.696 C47.0902857,152.912 44.8822857,149.168 40.9782857,149.168 C37.0742857,149.168 34.8662857,152.912 34.8662857,159.696 C34.8662857,166.512 37.0742857,170.384 40.9782857,170.384 L40.9782857,170.384 Z M40.9782857,169.168 C38.1622857,169.168 36.3062857,165.936 36.3062857,159.696 C36.3062857,153.456 38.1622857,150.384 40.9782857,150.384 C43.8262857,150.384 45.6502857,153.456 45.6502857,159.696 C45.6502857,165.936 43.8262857,169.168 40.9782857,169.168 L40.9782857,169.168 Z M57.0422857,169.168 C53.7142857,169.168 52.0502857,166.256 51.7942857,161.936 C53.4582857,159.696 55.3142857,158.864 56.7542857,158.864 C59.8582857,158.864 61.1702857,161.04 61.1702857,163.984 C61.1702857,166.896 59.4102857,169.168 57.0422857,169.168 L57.0422857,169.168 Z M62.1622857,151.152 C61.1062857,149.968 59.7622857,149.168 57.8422857,149.168 C53.9062857,149.168 50.3222857,152.144 50.3222857,160.72 C50.3222857,166.928 52.9142857,170.384 57.0102857,170.384 C60.0502857,170.384 62.6102857,167.696 62.6102857,163.984 C62.6102857,159.856 60.4982857,157.648 56.9142857,157.648 C55.0262857,157.648 53.1702857,158.768 51.7622857,160.496 C51.8262857,152.976 54.6102857,150.416 57.8422857,150.416 C59.1542857,150.416 60.4022857,150.992 61.2982857,152.112 L62.1622857,151.152 Z M66.2262857,162.672 L72.2422857,154.224 C72.8182857,153.296 73.3942857,152.528 73.9062857,151.664 L74.0342857,151.664 C73.9702857,152.592 73.9062857,154.256 73.9062857,155.184 L73.9062857,162.672 L66.2262857,162.672 Z M78.3222857,162.672 L75.2822857,162.672 L75.2822857,149.552 L74.0022857,149.552 L64.4982857,163.056 L64.4982857,163.888 L73.9062857,163.888 L73.9062857,170 L75.2822857,170 L75.2822857,163.888 L78.3222857,163.888 L78.3222857,162.672 Z M81.5542857,162.672 L87.5702857,154.224 C88.1462857,153.296 88.7222857,152.528 89.2342857,151.664 L89.3622857,151.664 C89.2982857,152.592 89.2342857,154.256 89.2342857,155.184 L89.2342857,162.672 L81.5542857,162.672 Z M93.6502857,162.672 L90.6102857,162.672 L90.6102857,149.552 L89.3302857,149.552 L79.8262857,163.056 L79.8262857,163.888 L89.2342857,163.888 L89.2342857,170 L90.6102857,170 L90.6102857,163.888 L93.6502857,163.888 L93.6502857,162.672 Z"></path>
                </g>
                <g id="U+0645" transform="translate(835.000000, 46.000000)">
                    <path d="M46.072,22.72 C45.64,22 45.352,20.848 45.208,19.264 C45.064,17.68 44.92,15.808 44.92,13.504 C44.92,12.64 45.208,11.92 45.64,11.488 C46.072,11.056 46.792,10.768 47.8,10.768 C51.832,10.768 55.288,11.632 58.168,13.36 C61.048,15.088 63.352,17.68 65.08,21.28 C62.056,21.136 59.032,21.28 55.864,21.568 C52.696,21.856 49.384,22.288 45.928,22.72 L46.072,22.72 Z M36.568,68.08 L36.568,66.496 L36.568,64.768 C36.568,63.472 36.424,61.312 36.28,58.144 C36.136,54.976 35.848,50.944 35.56,46.048 C35.416,43.744 35.272,41.872 35.128,40.288 C34.984,38.704 34.84,37.552 34.696,36.688 C35.128,36.112 35.992,35.536 37.288,34.96 C38.584,34.384 40.312,33.808 42.472,33.232 C44.776,32.512 47.08,31.936 49.24,31.504 C51.4,31.072 53.416,30.784 55.288,30.64 C56.008,30.496 56.728,30.352 57.304,30.352 L58.6,30.352 L61.048,30.352 L63.496,30.352 L63.784,30.352 C65.08,30.352 66.088,30.208 66.808,30.064 C67.528,29.92 67.96,29.632 68.104,29.344 C68.68,28.192 69.544,26.032 70.552,23.008 C71.56,19.984 72.136,17.968 72.136,16.96 C72.136,16.24 71.848,15.232 71.272,14.08 C70.696,12.928 69.688,11.632 68.392,10.048 C67.24,8.752 66.232,7.6 65.224,6.736 C64.216,5.872 63.352,5.152 62.488,4.72 C60.328,3.28 58.024,2.128 55.72,1.408 C53.416,0.688 51.112,0.256 48.808,0.256 C47.224,0.256 45.784,0.688 44.488,1.408 C43.192,2.128 42.04,3.28 41.032,4.72 C40.168,6.016 39.448,7.456 39.016,8.896 C38.584,10.336 38.296,11.92 38.296,13.504 C38.296,15.088 38.44,16.816 38.872,18.544 C39.304,20.272 39.88,22 40.6,23.872 L35.272,26.608 C33.976,27.328 32.968,27.904 32.248,28.48 C31.528,29.056 30.952,29.632 30.664,30.064 C30.232,31.648 29.8,33.376 29.368,35.104 C28.936,36.832 28.504,38.416 28.072,40 C28.504,42.16 28.936,44.464 29.224,46.912 C29.512,49.36 29.656,51.808 29.8,54.4 C29.944,57.712 30.088,61.168 30.088,64.768 C30.088,68.368 30.232,72.112 30.376,76 C31.384,75.424 32.68,74.128 34.264,72.256 C35.848,70.384 36.712,68.944 36.712,67.936 L36.568,68.08 Z" id="م"></path>
                    <path d="M7.54057143,124.384 C11.1885714,124.384 14.6765714,122.496 14.6765714,115.904 L14.6765714,102.912 L13.3005714,102.912 L13.3005714,115.744 C13.3005714,121.344 10.5805714,123.04 7.54057143,123.04 C4.56457143,123.04 1.94057143,121.344 1.94057143,115.744 L1.94057143,102.912 L0.468571429,102.912 L0.468571429,115.904 C0.468571429,122.496 3.92457143,124.384 7.54057143,124.384 L7.54057143,124.384 Z M24.7245714,120.48 L26.0365714,120.48 L26.0365714,114.048 L31.9565714,114.048 L31.9565714,112.832 L26.0365714,112.832 L26.0365714,106.4 L24.7245714,106.4 L24.7245714,112.832 L18.8045714,112.832 L18.8045714,114.048 L24.7245714,114.048 L24.7245714,120.48 Z M40.6925714,124.384 C44.5965714,124.384 46.8045714,120.512 46.8045714,113.696 C46.8045714,106.912 44.5965714,103.168 40.6925714,103.168 C36.7885714,103.168 34.5805714,106.912 34.5805714,113.696 C34.5805714,120.512 36.7885714,124.384 40.6925714,124.384 L40.6925714,124.384 Z M40.6925714,123.168 C37.8765714,123.168 36.0205714,119.936 36.0205714,113.696 C36.0205714,107.456 37.8765714,104.384 40.6925714,104.384 C43.5405714,104.384 45.3645714,107.456 45.3645714,113.696 C45.3645714,119.936 43.5405714,123.168 40.6925714,123.168 L40.6925714,123.168 Z M56.7565714,123.168 C53.4285714,123.168 51.7645714,120.256 51.5085714,115.936 C53.1725714,113.696 55.0285714,112.864 56.4685714,112.864 C59.5725714,112.864 60.8845714,115.04 60.8845714,117.984 C60.8845714,120.896 59.1245714,123.168 56.7565714,123.168 L56.7565714,123.168 Z M61.8765714,105.152 C60.8205714,103.968 59.4765714,103.168 57.5565714,103.168 C53.6205714,103.168 50.0365714,106.144 50.0365714,114.72 C50.0365714,120.928 52.6285714,124.384 56.7245714,124.384 C59.7645714,124.384 62.3245714,121.696 62.3245714,117.984 C62.3245714,113.856 60.2125714,111.648 56.6285714,111.648 C54.7405714,111.648 52.8845714,112.768 51.4765714,114.496 C51.5405714,106.976 54.3245714,104.416 57.5565714,104.416 C58.8685714,104.416 60.1165714,104.992 61.0125714,106.112 L61.8765714,105.152 Z M65.9405714,116.672 L71.9565714,108.224 C72.5325714,107.296 73.1085714,106.528 73.6205714,105.664 L73.7485714,105.664 C73.6845714,106.592 73.6205714,108.256 73.6205714,109.184 L73.6205714,116.672 L65.9405714,116.672 Z M78.0365714,116.672 L74.9965714,116.672 L74.9965714,103.552 L73.7165714,103.552 L64.2125714,117.056 L64.2125714,117.888 L73.6205714,117.888 L73.6205714,124 L74.9965714,124 L74.9965714,117.888 L78.0365714,117.888 L78.0365714,116.672 Z M86.2925714,124.384 C89.5885714,124.384 92.8205714,121.92 92.8205714,117.568 C92.8205714,113.088 90.0365714,111.104 86.5805714,111.104 C85.0765714,111.104 83.9885714,111.552 82.9325714,112.192 L83.5725714,104.8 L91.7325714,104.8 L91.7325714,103.552 L82.2925714,103.552 L81.5565714,113.12 L82.5485714,113.728 C83.7645714,112.896 84.7885714,112.352 86.3565714,112.352 C89.3965714,112.352 91.3485714,114.336 91.3485714,117.632 C91.3485714,120.928 88.9805714,123.136 86.2605714,123.136 C83.4765714,123.136 81.8765714,121.888 80.6605714,120.64 L79.8605714,121.632 C81.1725714,122.944 83.0285714,124.384 86.2925714,124.384 L86.2925714,124.384 Z"></path>
                </g>
                <g id="U+0647" transform="translate(669.000000, 43.000000)">
                    <path d="M44.7348571,0.376 C42.5748571,5.272 40.8468571,9.16 39.5508571,12.04 C38.2548571,14.92 37.5348571,16.792 37.2468571,17.512 C35.9508571,20.536 34.9428571,23.272 34.2228571,25.576 C33.5028571,27.88 33.2148571,29.896 33.2148571,31.48 C33.2148571,33.352 33.5028571,34.936 34.0788571,36.376 C34.6548571,37.816 35.5188571,39.112 36.6708571,40.12 C37.8228571,41.128 39.1188571,41.848 40.7028571,42.424 C42.2868571,43 44.0148571,43.288 45.8868571,43.288 C49.4868571,43.288 52.5108571,42.856 54.9588571,42.136 C57.4068571,41.416 59.2788571,40.264 60.5748571,38.824 C61.5828571,37.816 62.7348571,35.8 64.0308571,32.776 C65.3268571,29.752 65.9028571,27.592 65.9028571,26.296 C65.9028571,20.968 64.1748571,16.216 60.5748571,12.04 C56.9748571,7.864 51.6468571,4.12 44.4468571,0.952 L44.7348571,0.376 Z M54.5268571,32.92 C52.9428571,33.352 51.6468571,33.64 50.4948571,33.928 C49.3428571,34.216 48.3348571,34.36 47.6148571,34.36 C46.7508571,34.36 45.8868571,34.216 45.0228571,33.928 C44.1588571,33.64 43.2948571,33.208 42.4308571,32.632 C41.5668571,32.056 40.8468571,31.336 40.4148571,30.616 C39.9828571,29.896 39.6948571,29.176 39.6948571,28.456 C39.6948571,27.16 40.1268571,25.288 40.9908571,22.696 C41.8548571,20.104 43.2948571,16.792 45.1668571,12.904 C49.9188571,15.64 53.5188571,18.376 55.9668571,21.256 C58.4148571,24.136 59.5668571,27.016 59.5668571,30.04 C59.5668571,30.616 59.1348571,31.192 58.2708571,31.768 C57.4068571,32.344 56.1108571,32.92 54.3828571,33.352 L54.5268571,32.92 Z" id="ه"></path>
                    <path d="M7.25485714,127.384 C10.9028571,127.384 14.3908571,125.496 14.3908571,118.904 L14.3908571,105.912 L13.0148571,105.912 L13.0148571,118.744 C13.0148571,124.344 10.2948571,126.04 7.25485714,126.04 C4.27885714,126.04 1.65485714,124.344 1.65485714,118.744 L1.65485714,105.912 L0.182857143,105.912 L0.182857143,118.904 C0.182857143,125.496 3.63885714,127.384 7.25485714,127.384 L7.25485714,127.384 Z M24.4388571,123.48 L25.7508571,123.48 L25.7508571,117.048 L31.6708571,117.048 L31.6708571,115.832 L25.7508571,115.832 L25.7508571,109.4 L24.4388571,109.4 L24.4388571,115.832 L18.5188571,115.832 L18.5188571,117.048 L24.4388571,117.048 L24.4388571,123.48 Z M40.4068571,127.384 C44.3108571,127.384 46.5188571,123.512 46.5188571,116.696 C46.5188571,109.912 44.3108571,106.168 40.4068571,106.168 C36.5028571,106.168 34.2948571,109.912 34.2948571,116.696 C34.2948571,123.512 36.5028571,127.384 40.4068571,127.384 L40.4068571,127.384 Z M40.4068571,126.168 C37.5908571,126.168 35.7348571,122.936 35.7348571,116.696 C35.7348571,110.456 37.5908571,107.384 40.4068571,107.384 C43.2548571,107.384 45.0788571,110.456 45.0788571,116.696 C45.0788571,122.936 43.2548571,126.168 40.4068571,126.168 L40.4068571,126.168 Z M56.4708571,126.168 C53.1428571,126.168 51.4788571,123.256 51.2228571,118.936 C52.8868571,116.696 54.7428571,115.864 56.1828571,115.864 C59.2868571,115.864 60.5988571,118.04 60.5988571,120.984 C60.5988571,123.896 58.8388571,126.168 56.4708571,126.168 L56.4708571,126.168 Z M61.5908571,108.152 C60.5348571,106.968 59.1908571,106.168 57.2708571,106.168 C53.3348571,106.168 49.7508571,109.144 49.7508571,117.72 C49.7508571,123.928 52.3428571,127.384 56.4388571,127.384 C59.4788571,127.384 62.0388571,124.696 62.0388571,120.984 C62.0388571,116.856 59.9268571,114.648 56.3428571,114.648 C54.4548571,114.648 52.5988571,115.768 51.1908571,117.496 C51.2548571,109.976 54.0388571,107.416 57.2708571,107.416 C58.5828571,107.416 59.8308571,107.992 60.7268571,109.112 L61.5908571,108.152 Z M65.6548571,119.672 L71.6708571,111.224 C72.2468571,110.296 72.8228571,109.528 73.3348571,108.664 L73.4628571,108.664 C73.3988571,109.592 73.3348571,111.256 73.3348571,112.184 L73.3348571,119.672 L65.6548571,119.672 Z M77.7508571,119.672 L74.7108571,119.672 L74.7108571,106.552 L73.4308571,106.552 L63.9268571,120.056 L63.9268571,120.888 L73.3348571,120.888 L73.3348571,127 L74.7108571,127 L74.7108571,120.888 L77.7508571,120.888 L77.7508571,119.672 Z M84.7588571,127 L86.2948571,127 C86.6148571,119 87.8308571,113.88 92.7268571,107.384 L92.7268571,106.552 L80.1508571,106.552 L80.1508571,107.8 L90.9348571,107.8 C86.8068571,113.56 85.0788571,118.744 84.7588571,127 L84.7588571,127 Z"></path>
                </g>
                <g id="U+0064" transform="translate(498.000000, 10.000000)">
                    <path d="M41.76,87.44 C48.6,87.44 54.84,83.6 59.4,79.16 L59.76,79.16 L60.6,86 L68.76,86 L68.76,0.56 L58.8,0.56 L58.8,23 L59.28,32.96 C54.12,28.76 49.68,26.24 42.96,26.24 C29.64,26.24 17.64,38 17.64,56.96 C17.64,76.4 27.12,87.44 41.76,87.44 L41.76,87.44 Z M43.92,79.16 C33.72,79.16 27.84,70.76 27.84,56.84 C27.84,43.52 35.28,34.52 44.64,34.52 C49.44,34.52 53.88,36.2 58.8,40.64 L58.8,71.12 C54,76.52 49.32,79.16 43.92,79.16 L43.92,79.16 Z" id="d"></path>
                    <path d="M7.112,160.384 C10.76,160.384 14.248,158.496 14.248,151.904 L14.248,138.912 L12.872,138.912 L12.872,151.744 C12.872,157.344 10.152,159.04 7.112,159.04 C4.136,159.04 1.512,157.344 1.512,151.744 L1.512,138.912 L0.04,138.912 L0.04,151.904 C0.04,158.496 3.496,160.384 7.112,160.384 L7.112,160.384 Z M24.296,156.48 L25.608,156.48 L25.608,150.048 L31.528,150.048 L31.528,148.832 L25.608,148.832 L25.608,142.4 L24.296,142.4 L24.296,148.832 L18.376,148.832 L18.376,150.048 L24.296,150.048 L24.296,156.48 Z M40.264,160.384 C44.168,160.384 46.376,156.512 46.376,149.696 C46.376,142.912 44.168,139.168 40.264,139.168 C36.36,139.168 34.152,142.912 34.152,149.696 C34.152,156.512 36.36,160.384 40.264,160.384 L40.264,160.384 Z M40.264,159.168 C37.448,159.168 35.592,155.936 35.592,149.696 C35.592,143.456 37.448,140.384 40.264,140.384 C43.112,140.384 44.936,143.456 44.936,149.696 C44.936,155.936 43.112,159.168 40.264,159.168 L40.264,159.168 Z M55.592,160.384 C59.496,160.384 61.704,156.512 61.704,149.696 C61.704,142.912 59.496,139.168 55.592,139.168 C51.688,139.168 49.48,142.912 49.48,149.696 C49.48,156.512 51.688,160.384 55.592,160.384 L55.592,160.384 Z M55.592,159.168 C52.776,159.168 50.92,155.936 50.92,149.696 C50.92,143.456 52.776,140.384 55.592,140.384 C58.44,140.384 60.264,143.456 60.264,149.696 C60.264,155.936 58.44,159.168 55.592,159.168 L55.592,159.168 Z M71.656,159.168 C68.328,159.168 66.664,156.256 66.408,151.936 C68.072,149.696 69.928,148.864 71.368,148.864 C74.472,148.864 75.784,151.04 75.784,153.984 C75.784,156.896 74.024,159.168 71.656,159.168 L71.656,159.168 Z M76.776,141.152 C75.72,139.968 74.376,139.168 72.456,139.168 C68.52,139.168 64.936,142.144 64.936,150.72 C64.936,156.928 67.528,160.384 71.624,160.384 C74.664,160.384 77.224,157.696 77.224,153.984 C77.224,149.856 75.112,147.648 71.528,147.648 C69.64,147.648 67.784,148.768 66.376,150.496 C66.44,142.976 69.224,140.416 72.456,140.416 C73.768,140.416 75.016,140.992 75.912,142.112 L76.776,141.152 Z M80.84,152.672 L86.856,144.224 C87.432,143.296 88.008,142.528 88.52,141.664 L88.648,141.664 C88.584,142.592 88.52,144.256 88.52,145.184 L88.52,152.672 L80.84,152.672 Z M92.936,152.672 L89.896,152.672 L89.896,139.552 L88.616,139.552 L79.112,153.056 L79.112,153.888 L88.52,153.888 L88.52,160 L89.896,160 L89.896,153.888 L92.936,153.888 L92.936,152.672 Z"></path>
                </g>
                <g id="U+0072" transform="translate(332.000000, 36.000000)">
                    <path d="M34.6257143,60 L44.4657143,60 L44.4657143,22.56 C48.4257143,12.72 54.3057143,9.12 59.2257143,9.12 C61.6257143,9.12 62.9457143,9.48 64.8657143,10.08 L66.7857143,1.44 C64.8657143,0.6 63.0657143,0.24 60.5457143,0.24 C53.9457143,0.24 47.9457143,4.92 43.9857143,12.24 L43.6257143,12.24 L42.7857143,1.68 L34.6257143,1.68 L34.6257143,60 Z" id="r"></path>
                    <path d="M7.39771429,134.384 C11.0457143,134.384 14.5337143,132.496 14.5337143,125.904 L14.5337143,112.912 L13.1577143,112.912 L13.1577143,125.744 C13.1577143,131.344 10.4377143,133.04 7.39771429,133.04 C4.42171429,133.04 1.79771429,131.344 1.79771429,125.744 L1.79771429,112.912 L0.325714286,112.912 L0.325714286,125.904 C0.325714286,132.496 3.78171429,134.384 7.39771429,134.384 L7.39771429,134.384 Z M24.5817143,130.48 L25.8937143,130.48 L25.8937143,124.048 L31.8137143,124.048 L31.8137143,122.832 L25.8937143,122.832 L25.8937143,116.4 L24.5817143,116.4 L24.5817143,122.832 L18.6617143,122.832 L18.6617143,124.048 L24.5817143,124.048 L24.5817143,130.48 Z M40.5497143,134.384 C44.4537143,134.384 46.6617143,130.512 46.6617143,123.696 C46.6617143,116.912 44.4537143,113.168 40.5497143,113.168 C36.6457143,113.168 34.4377143,116.912 34.4377143,123.696 C34.4377143,130.512 36.6457143,134.384 40.5497143,134.384 L40.5497143,134.384 Z M40.5497143,133.168 C37.7337143,133.168 35.8777143,129.936 35.8777143,123.696 C35.8777143,117.456 37.7337143,114.384 40.5497143,114.384 C43.3977143,114.384 45.2217143,117.456 45.2217143,123.696 C45.2217143,129.936 43.3977143,133.168 40.5497143,133.168 L40.5497143,133.168 Z M55.8777143,134.384 C59.7817143,134.384 61.9897143,130.512 61.9897143,123.696 C61.9897143,116.912 59.7817143,113.168 55.8777143,113.168 C51.9737143,113.168 49.7657143,116.912 49.7657143,123.696 C49.7657143,130.512 51.9737143,134.384 55.8777143,134.384 L55.8777143,134.384 Z M55.8777143,133.168 C53.0617143,133.168 51.2057143,129.936 51.2057143,123.696 C51.2057143,117.456 53.0617143,114.384 55.8777143,114.384 C58.7257143,114.384 60.5497143,117.456 60.5497143,123.696 C60.5497143,129.936 58.7257143,133.168 55.8777143,133.168 L55.8777143,133.168 Z M69.5737143,134 L71.1097143,134 C71.4297143,126 72.6457143,120.88 77.5417143,114.384 L77.5417143,113.552 L64.9657143,113.552 L64.9657143,114.8 L75.7497143,114.8 C71.6217143,120.56 69.8937143,125.744 69.5737143,134 L69.5737143,134 Z M80.1977143,134 L92.7417143,134 L92.7417143,132.72 L85.7657143,132.72 C84.6457143,132.72 83.4617143,132.816 82.3417143,132.88 C88.0057143,126.864 91.7177143,122.96 91.7177143,118.896 C91.7177143,115.44 89.6057143,113.168 85.9577143,113.168 C83.4617143,113.168 81.6697143,114.48 80.1337143,116.176 L81.0617143,117.072 C82.3097143,115.536 83.9737143,114.384 85.8297143,114.384 C88.9017143,114.384 90.2777143,116.368 90.2777143,118.928 C90.2777143,122.48 86.9177143,126.288 80.1977143,133.104 L80.1977143,134 Z"></path>
                </g>
                <g id="U+006F" transform="translate(166.000000, 36.000000)">
                    <path d="M45.52,61.44 C59.8,61.44 72.52,50.28 72.52,30.96 C72.52,11.4 59.8,0.24 45.52,0.24 C31.24,0.24 18.52,11.4 18.52,30.96 C18.52,50.28 31.24,61.44 45.52,61.44 L45.52,61.44 Z M45.52,53.28 C35.56,53.28 28.72,44.28 28.72,30.96 C28.72,17.52 35.56,8.4 45.52,8.4 C55.6,8.4 62.32,17.52 62.32,30.96 C62.32,44.28 55.6,53.28 45.52,53.28 L45.52,53.28 Z" id="o"></path>
                    <path d="M7.68342857,134.384 C11.3314286,134.384 14.8194286,132.496 14.8194286,125.904 L14.8194286,112.912 L13.4434286,112.912 L13.4434286,125.744 C13.4434286,131.344 10.7234286,133.04 7.68342857,133.04 C4.70742857,133.04 2.08342857,131.344 2.08342857,125.744 L2.08342857,112.912 L0.611428571,112.912 L0.611428571,125.904 C0.611428571,132.496 4.06742857,134.384 7.68342857,134.384 L7.68342857,134.384 Z M24.8674286,130.48 L26.1794286,130.48 L26.1794286,124.048 L32.0994286,124.048 L32.0994286,122.832 L26.1794286,122.832 L26.1794286,116.4 L24.8674286,116.4 L24.8674286,122.832 L18.9474286,122.832 L18.9474286,124.048 L24.8674286,124.048 L24.8674286,130.48 Z M40.8354286,134.384 C44.7394286,134.384 46.9474286,130.512 46.9474286,123.696 C46.9474286,116.912 44.7394286,113.168 40.8354286,113.168 C36.9314286,113.168 34.7234286,116.912 34.7234286,123.696 C34.7234286,130.512 36.9314286,134.384 40.8354286,134.384 L40.8354286,134.384 Z M40.8354286,133.168 C38.0194286,133.168 36.1634286,129.936 36.1634286,123.696 C36.1634286,117.456 38.0194286,114.384 40.8354286,114.384 C43.6834286,114.384 45.5074286,117.456 45.5074286,123.696 C45.5074286,129.936 43.6834286,133.168 40.8354286,133.168 L40.8354286,133.168 Z M56.1634286,134.384 C60.0674286,134.384 62.2754286,130.512 62.2754286,123.696 C62.2754286,116.912 60.0674286,113.168 56.1634286,113.168 C52.2594286,113.168 50.0514286,116.912 50.0514286,123.696 C50.0514286,130.512 52.2594286,134.384 56.1634286,134.384 L56.1634286,134.384 Z M56.1634286,133.168 C53.3474286,133.168 51.4914286,129.936 51.4914286,123.696 C51.4914286,117.456 53.3474286,114.384 56.1634286,114.384 C59.0114286,114.384 60.8354286,117.456 60.8354286,123.696 C60.8354286,129.936 59.0114286,133.168 56.1634286,133.168 L56.1634286,133.168 Z M72.2274286,133.168 C68.8994286,133.168 67.2354286,130.256 66.9794286,125.936 C68.6434286,123.696 70.4994286,122.864 71.9394286,122.864 C75.0434286,122.864 76.3554286,125.04 76.3554286,127.984 C76.3554286,130.896 74.5954286,133.168 72.2274286,133.168 L72.2274286,133.168 Z M77.3474286,115.152 C76.2914286,113.968 74.9474286,113.168 73.0274286,113.168 C69.0914286,113.168 65.5074286,116.144 65.5074286,124.72 C65.5074286,130.928 68.0994286,134.384 72.1954286,134.384 C75.2354286,134.384 77.7954286,131.696 77.7954286,127.984 C77.7954286,123.856 75.6834286,121.648 72.0994286,121.648 C70.2114286,121.648 68.3554286,122.768 66.9474286,124.496 C67.0114286,116.976 69.7954286,114.416 73.0274286,114.416 C74.3394286,114.416 75.5874286,114.992 76.4834286,116.112 L77.3474286,115.152 Z M82.2754286,134 L83.7474286,134 L83.7474286,123.856 L92.2274286,123.856 L92.2274286,122.576 L83.7474286,122.576 L83.7474286,114.192 L93.7634286,114.192 L93.7634286,112.912 L82.2754286,112.912 L82.2754286,134 Z"></path>
                </g>
                <g id="U+0077" transform="translate(0.000000, 37.000000)">
                    <path d="M21.9371429,59 L33.4571429,59 L41.6171429,27.8 C43.1771429,22.28 44.3771429,16.76 45.6971429,10.88 L46.1771429,10.88 C47.6171429,16.76 48.6971429,22.16 50.1371429,27.68 L58.5371429,59 L70.5371429,59 L86.1371429,0.68 L76.7771429,0.68 L68.2571429,34.4 C67.0571429,39.92 65.9771429,45.2 64.6571429,50.6 L64.1771429,50.6 C62.8571429,45.2 61.5371429,39.92 60.0971429,34.4 L50.9771429,0.68 L41.3771429,0.68 L32.3771429,34.4 C30.9371429,39.8 29.7371429,45.2 28.4171429,50.6 L27.9371429,50.6 C26.8571429,45.2 25.7771429,39.92 24.4571429,34.4 L15.8171429,0.68 L5.73714286,0.68 L21.9371429,59 Z" id="w"></path>
                    <path d="M7.96914286,133.384 C11.6171429,133.384 15.1051429,131.496 15.1051429,124.904 L15.1051429,111.912 L13.7291429,111.912 L13.7291429,124.744 C13.7291429,130.344 11.0091429,132.04 7.96914286,132.04 C4.99314286,132.04 2.36914286,130.344 2.36914286,124.744 L2.36914286,111.912 L0.897142857,111.912 L0.897142857,124.904 C0.897142857,131.496 4.35314286,133.384 7.96914286,133.384 L7.96914286,133.384 Z M25.1531429,129.48 L26.4651429,129.48 L26.4651429,123.048 L32.3851429,123.048 L32.3851429,121.832 L26.4651429,121.832 L26.4651429,115.4 L25.1531429,115.4 L25.1531429,121.832 L19.2331429,121.832 L19.2331429,123.048 L25.1531429,123.048 L25.1531429,129.48 Z M41.1211429,133.384 C45.0251429,133.384 47.2331429,129.512 47.2331429,122.696 C47.2331429,115.912 45.0251429,112.168 41.1211429,112.168 C37.2171429,112.168 35.0091429,115.912 35.0091429,122.696 C35.0091429,129.512 37.2171429,133.384 41.1211429,133.384 L41.1211429,133.384 Z M41.1211429,132.168 C38.3051429,132.168 36.4491429,128.936 36.4491429,122.696 C36.4491429,116.456 38.3051429,113.384 41.1211429,113.384 C43.9691429,113.384 45.7931429,116.456 45.7931429,122.696 C45.7931429,128.936 43.9691429,132.168 41.1211429,132.168 L41.1211429,132.168 Z M56.4491429,133.384 C60.3531429,133.384 62.5611429,129.512 62.5611429,122.696 C62.5611429,115.912 60.3531429,112.168 56.4491429,112.168 C52.5451429,112.168 50.3371429,115.912 50.3371429,122.696 C50.3371429,129.512 52.5451429,133.384 56.4491429,133.384 L56.4491429,133.384 Z M56.4491429,132.168 C53.6331429,132.168 51.7771429,128.936 51.7771429,122.696 C51.7771429,116.456 53.6331429,113.384 56.4491429,113.384 C59.2971429,113.384 61.1211429,116.456 61.1211429,122.696 C61.1211429,128.936 59.2971429,132.168 56.4491429,132.168 L56.4491429,132.168 Z M70.1451429,133 L71.6811429,133 C72.0011429,125 73.2171429,119.88 78.1131429,113.384 L78.1131429,112.552 L65.5371429,112.552 L65.5371429,113.8 L76.3211429,113.8 C72.1931429,119.56 70.4651429,124.744 70.1451429,133 L70.1451429,133 Z M85.4731429,133 L87.0091429,133 C87.3291429,125 88.5451429,119.88 93.4411429,113.384 L93.4411429,112.552 L80.8651429,112.552 L80.8651429,113.8 L91.6491429,113.8 C87.5211429,119.56 85.7931429,124.744 85.4731429,133 L85.4731429,133 Z"></path>
                </g>
            </g>
        </g>
    </g>
</svg>