<?xml version="1.0" encoding="UTF-8" standalone="no"?>
<svg width="237px" height="141px" viewBox="0 0 237 141" version="1.1" xmlns="http://www.w3.org/2000/svg" xmlns:xlink="http://www.w3.org/1999/xlink">
    <!-- Generator: Sketch 3.7.2 (28276) - http://www.bohemiancoding.com/sketch -->
    <title>right-joining-letter</title>
    <desc>Created with Sketch.</desc>
    <defs></defs>
    <g id="Different-joining-shapes" stroke="none" stroke-width="1" fill="none" fill-rule="evenodd">
        <g id="Right-joining-Copy" transform="translate(-3.000000, 0.000000)" fill="#000000">
            <path d="M209.90625,26.6484375 C208.593743,42.8203934 201.000069,58.0311787 187.125,72.28125 C183.703108,72.28125 180.058613,71.7656302 176.191406,70.734375 C172.324199,69.7031198 169.593758,68.5312566 168,67.21875 C178.359427,62.2030999 186.773405,56.2500345 193.242188,49.359375 C198.72659,43.5468459 201.937495,38.1797121 202.875,33.2578125 C202.265622,26.3202778 198.93753,20.0390906 192.890625,14.4140625 L197.953125,0 C200.765639,3.98439492 203.390613,8.83590891 205.828125,14.5546875 C207.984386,19.5703376 209.343747,23.6015473 209.90625,26.6484375 L209.90625,26.6484375 Z" id="ر"></path>
            <path d="M59.8984375,31.359375 C59.8984375,32.6250063 59.2187568,33.2578125 57.859375,33.2578125 L56.2421875,33.2578125 C53.5702991,33.2578125 50.7109527,31.9218884 47.6640625,29.25 C46.5859321,37.7812927 44.195331,45.4452785 40.4921875,52.2421875 C36.8827945,58.8047203 31.0937898,66.2108962 23.125,74.4609375 C19.7031079,74.4609375 16.0586131,73.9453177 12.1914062,72.9140625 C8.32419941,71.8828073 5.59375797,70.7109441 4,69.3984375 C15.203181,64.101536 24.3437146,57.5859762 31.421875,49.8515625 C37.0937784,43.6171563 40.3749955,38.0859616 41.265625,33.2578125 C40.3749955,26.7890302 36.7422194,20.507843 30.3671875,14.4140625 L35.21875,0 L42.4609375,11.25 C47.1484609,18.5156613 51.742165,22.1484375 56.2421875,22.1484375 L57.859375,22.1484375 C59.2187568,22.1484375 59.8984375,22.9218673 59.8984375,24.46875 L59.8984375,31.359375 Z" id="‍ر"></path>
            <text id="Isolated-Copy" font-family="SourceSansPro-Light, Source Sans Pro" font-size="32" font-weight="300">
                <tspan x="140" y="140">Isolated</tspan>
            </text>
            <text id="Final-Copy" font-family="SourceSansPro-Light, Source Sans Pro" font-size="32" font-weight="300">
                <tspan x="0" y="140">Final</tspan>
            </text>
        </g>
    </g>
</svg>