<?xml version="1.0" encoding="UTF-8" standalone="no"?>
<svg width="657px" height="146px" viewBox="0 0 657 146" version="1.1" xmlns="http://www.w3.org/2000/svg" xmlns:xlink="http://www.w3.org/1999/xlink">
    <!-- Generator: Sketch 3.7.2 (28276) - http://www.bohemiancoding.com/sketch -->
    <title>spacing-joined-letters</title>
    <desc>Created with Sketch.</desc>
    <defs></defs>
    <g id="Page-8" stroke="none" stroke-width="1" fill="none" fill-rule="evenodd">
        <path d="M123.857143,0.577272727 C123.571429,0.288636364 123.285714,-2.27373675e-13 123,-2.27373675e-13 C122.714286,-2.27373675e-13 122.428571,0.288636364 122.142857,0.865909091 C119.571429,8.08181818 117.571429,13.5659091 116.142857,17.3181818 C114.714286,21.0704545 113.857143,23.0909091 113.857143,23.3795455 C113.857143,23.6681818 115.571429,26.5545455 119,32.0386364 C122.428571,37.5227273 124.142857,40.6977273 124.142857,41.275 C124.142857,43.8727273 123,46.1818182 121,48.2022727 C119,50.2227273 116.142857,51.9545455 112.428571,53.3977273 C109.285714,54.2636364 106.428571,55.1295455 103.571429,55.7068182 C100.714286,56.2840909 97.8571429,56.5727273 94.7142857,57.0572956 L85,57.0572956 L85,77.1014875 L98.1428571,77.1014875 C108.142857,76.2 117,72.1590909 125,64.0772727 C133,55.9954545 137,47.0477273 137,36.9454545 C137,31.4613636 135.857143,25.6886364 133.571429,19.6272727 C131.285714,13.5659091 127.857143,7.21590909 123.571429,0.577272727 L123.857143,0.577272727 Z M119,97.2704545 L103.571429,112.856818 L119.857143,127 L134.142857,111.990909 L119,97.2704545 Z" id="ب‍" fill="#000000"></path>
        <path d="M42.4666667,44.8505747 L42.4666667,45.137931 L42.4666667,44.8505747 Z M43.6222222,133.356322 C46.2222222,129.908046 48.8222222,126.45977 51.1333333,123.011494 C53.4444444,119.563218 55.4666667,116.114943 57.2,112.954023 C61.5333333,104.62069 65,96.862069 67.3111111,89.9655172 C69.6222222,83.0689655 71.0666667,76.7471264 71.6444444,71 C73.0888889,73.0114943 75.1111111,74.4482759 77.7111111,75.3103448 C80.3111111,76.1724138 83.2,76.7471264 86.3777778,76.7471264 L91,76.7471264 L91,56.8432112 L83.7777778,56.8432112 C80.6,57.2068966 77.4222222,55.7701149 74.2444444,53.183908 C71.0666667,50.5977011 67.8888889,46.5747126 64.7111111,41.1149425 C62.1111111,36.8045977 59.8,33.0689655 57.7777778,29.908046 C55.7555556,26.7471264 54.0222222,24.1609195 52.5777778,22.1494253 C52.2888889,21.2873563 52,21 51.7111111,21 C51.4222222,21 51.1333333,21.5747126 50.8444444,22.4367816 C48.8222222,29.045977 47.0888889,34.2183908 45.9333333,37.954023 C44.7777778,41.6896552 43.9111111,43.7011494 43.6222222,43.9885057 C49.6888889,51.1724138 54.3111111,57.4942529 57.4888889,62.6666667 C60.6666667,67.8390805 62.1111111,72.1494253 62.1111111,75.3103448 C62.1111111,80.1954023 60.3777778,85.3678161 56.9111111,90.8275862 C53.4444444,96.2873563 48.2444444,102.321839 41.3111111,108.931034 C35.2444444,114.965517 28.8888889,120.137931 22.5333333,124.735632 C16.1777778,129.333333 9.53333333,133.068966 2.88888889,135.942529 C2.02222222,136.229885 1.44444444,136.517241 0.866666667,136.804598 C0.288888889,137.091954 0,137.37931 0,137.666667 C0,137.954023 0.288888889,138.241379 0.866666667,138.528736 C1.44444444,138.816092 2.02222222,139.103448 2.88888889,139.390805 C8.66666667,141.402299 13.5777778,143.126437 17.9111111,144.275862 C22.2444444,145.425287 25.7111111,146 28.3111111,146 C30.3333333,146 32.6444444,144.850575 35.5333333,142.551724 C38.4222222,140.252874 41.6,136.804598 45.0666667,132.494253 L43.6222222,133.356322 Z" id="‍ر" fill="#000000"></path>
        <path d="M363.857143,0.577272727 C363.571429,0.288636364 363.285714,-2.27373675e-13 363,-2.27373675e-13 C362.714286,-2.27373675e-13 362.428571,0.288636364 362.142857,0.865909091 C359.571429,8.08181818 357.571429,13.5659091 356.142857,17.3181818 C354.714286,21.0704545 353.857143,23.0909091 353.857143,23.3795455 C353.857143,23.6681818 355.571429,26.5545455 359,32.0386364 C362.428571,37.5227273 364.142857,40.6977273 364.142857,41.275 C364.142857,43.8727273 363,46.1818182 361,48.2022727 C359,50.2227273 356.142857,51.9545455 352.428571,53.3977273 C349.285714,54.2636364 346.428571,55.1295455 343.571429,55.7068182 C340.714286,56.2840909 337.857143,56.5727273 334.714286,57.0572956 L325,57.0572956 L325,77.1014875 L338.142857,77.1014875 C348.142857,76.2 357,72.1590909 365,64.0772727 C373,55.9954545 377,47.0477273 377,36.9454545 C377,31.4613636 375.857143,25.6886364 373.571429,19.6272727 C371.285714,13.5659091 367.857143,7.21590909 363.571429,0.577272727 L363.857143,0.577272727 Z M359,97.2704545 L343.571429,112.856818 L359.857143,127 L374.142857,111.990909 L359,97.2704545 Z" id="ب‍-copy" fill="#000000"></path>
        <path d="M309.466667,44.8505747 L309.466667,45.137931 L309.466667,44.8505747 Z M310.622222,133.356322 C313.222222,129.908046 315.822222,126.45977 318.133333,123.011494 C320.444444,119.563218 322.466667,116.114943 324.2,112.954023 C328.533333,104.62069 332,96.862069 334.311111,89.9655172 C336.622222,83.0689655 338.066667,76.7471264 338.644444,71 C340.088889,73.0114943 342.111111,74.4482759 344.711111,75.3103448 C347.311111,76.1724138 350.2,76.7471264 353.377778,76.7471264 L358,76.7471264 L358,56.8432112 L350.777778,56.8432112 C347.6,57.2068966 344.422222,55.7701149 341.244444,53.183908 C338.066667,50.5977011 334.888889,46.5747126 331.711111,41.1149425 C329.111111,36.8045977 326.8,33.0689655 324.777778,29.908046 C322.755556,26.7471264 321.022222,24.1609195 319.577778,22.1494253 C319.288889,21.2873563 319,21 318.711111,21 C318.422222,21 318.133333,21.5747126 317.844444,22.4367816 C315.822222,29.045977 314.088889,34.2183908 312.933333,37.954023 C311.777778,41.6896552 310.911111,43.7011494 310.622222,43.9885057 C316.688889,51.1724138 321.311111,57.4942529 324.488889,62.6666667 C327.666667,67.8390805 329.111111,72.1494253 329.111111,75.3103448 C329.111111,80.1954023 327.377778,85.3678161 323.911111,90.8275862 C320.444444,96.2873563 315.244444,102.321839 308.311111,108.931034 C302.244444,114.965517 295.888889,120.137931 289.533333,124.735632 C283.177778,129.333333 276.533333,133.068966 269.888889,135.942529 C269.022222,136.229885 268.444444,136.517241 267.866667,136.804598 C267.288889,137.091954 267,137.37931 267,137.666667 C267,137.954023 267.288889,138.241379 267.866667,138.528736 C268.444444,138.816092 269.022222,139.103448 269.888889,139.390805 C275.666667,141.402299 280.577778,143.126437 284.911111,144.275862 C289.244444,145.425287 292.711111,146 295.311111,146 C297.333333,146 299.644444,144.850575 302.533333,142.551724 C305.422222,140.252874 308.6,136.804598 312.066667,132.494253 L310.622222,133.356322 Z" id="‍ر-copy" fill="#000000"></path>
        <path d="M643.857143,0.577272727 C643.571429,0.288636364 643.285714,-2.27373675e-13 643,-2.27373675e-13 C642.714286,-2.27373675e-13 642.428571,0.288636364 642.142857,0.865909091 C639.571429,8.08181818 637.571429,13.5659091 636.142857,17.3181818 C634.714286,21.0704545 633.857143,23.0909091 633.857143,23.3795455 C633.857143,23.6681818 635.571429,26.5545455 639,32.0386364 C642.428571,37.5227273 644.142857,40.6977273 644.142857,41.275 C644.142857,43.8727273 643,46.1818182 641,48.2022727 C639,50.2227273 636.142857,51.9545455 632.428571,53.3977273 C629.285714,54.2636364 626.428571,55.1295455 623.571429,55.7068182 C620.714286,56.2840909 617.857143,56.5727273 614.714286,57.0572956 L605,57.0572956 L605,77.1014875 L618.142857,77.1014875 C628.142857,76.2 637,72.1590909 645,64.0772727 C653,55.9954545 657,47.0477273 657,36.9454545 C657,31.4613636 655.857143,25.6886364 653.571429,19.6272727 C651.285714,13.5659091 647.857143,7.21590909 643.571429,0.577272727 L643.857143,0.577272727 Z M639,97.2704545 L623.571429,112.856818 L639.857143,127 L654.142857,111.990909 L639,97.2704545 Z" id="ب‍-copy-2" fill="#000000"></path>
        <path d="M547.466667,44.8505747 L547.466667,45.137931 L547.466667,44.8505747 Z M548.622222,133.356322 C551.222222,129.908046 553.822222,126.45977 556.133333,123.011494 C558.444444,119.563218 560.466667,116.114943 562.2,112.954023 C566.533333,104.62069 570,96.862069 572.311111,89.9655172 C574.622222,83.0689655 576.066667,76.7471264 576.644444,71 C578.088889,73.0114943 580.111111,74.4482759 582.711111,75.3103448 C585.311111,76.1724138 588.2,76.7471264 591.377778,76.7471264 L596,76.7471264 L596,56.8432112 L588.777778,56.8432112 C585.6,57.2068966 582.422222,55.7701149 579.244444,53.183908 C576.066667,50.5977011 572.888889,46.5747126 569.711111,41.1149425 C567.111111,36.8045977 564.8,33.0689655 562.777778,29.908046 C560.755556,26.7471264 559.022222,24.1609195 557.577778,22.1494253 C557.288889,21.2873563 557,21 556.711111,21 C556.422222,21 556.133333,21.5747126 555.844444,22.4367816 C553.822222,29.045977 552.088889,34.2183908 550.933333,37.954023 C549.777778,41.6896552 548.911111,43.7011494 548.622222,43.9885057 C554.688889,51.1724138 559.311111,57.4942529 562.488889,62.6666667 C565.666667,67.8390805 567.111111,72.1494253 567.111111,75.3103448 C567.111111,80.1954023 565.377778,85.3678161 561.911111,90.8275862 C558.444444,96.2873563 553.244444,102.321839 546.311111,108.931034 C540.244444,114.965517 533.888889,120.137931 527.533333,124.735632 C521.177778,129.333333 514.533333,133.068966 507.888889,135.942529 C507.022222,136.229885 506.444444,136.517241 505.866667,136.804598 C505.288889,137.091954 505,137.37931 505,137.666667 C505,137.954023 505.288889,138.241379 505.866667,138.528736 C506.444444,138.816092 507.022222,139.103448 507.888889,139.390805 C513.666667,141.402299 518.577778,143.126437 522.911111,144.275862 C527.244444,145.425287 530.711111,146 533.311111,146 C535.333333,146 537.644444,144.850575 540.533333,142.551724 C543.422222,140.252874 546.6,136.804598 550.066667,132.494253 L548.622222,133.356322 Z" id="‍ر-copy-2" fill="#000000"></path>
    </g>
</svg>