<?xml version="1.0" encoding="UTF-8"?>
<svg width="452px" height="156px" viewBox="0 0 452 156" version="1.1" xmlns="http://www.w3.org/2000/svg" xmlns:xlink="http://www.w3.org/1999/xlink">
    <!-- Generator: Sketch 3.7.2 (28276) - http://www.bohemiancoding.com/sketch -->
    <title>styling-individual-letters</title>
    <desc>Created with Sketch.</desc>
    <defs></defs>
    <g id="Page-10" stroke="none" stroke-width="1" fill="none" fill-rule="evenodd">
        <g id="Group-Copy">
            <path d="M44.2984104,76.064 L46.432,76.064 C47.584,76.064 49.024,75.488 50.752,74.192 C52.48,72.896 54.496,71.024 56.8,68.576 C59.68,65.408 62.128,62.816 64.144,60.944 C66.16,59.072 67.6,57.776 68.608,57.2 C69.616,56.624 70.624,56.192 71.632,55.904 C72.64,55.616 73.792,55.472 74.944,55.472 C76.096,55.472 77.104,55.616 77.824,55.76 C78.544,55.904 79.12,56.192 79.408,56.48 C80.992,58.352 82.576,60.224 84.16,62.096 C85.744,63.968 87.328,65.984 88.912,68 C91.072,70.736 93.232,72.752 95.248,74.048 C97.264,75.344 99.136,76.064 101.008,76.064 L101.728,76.064 L102.448,76.064 C103.456,76.064 104.608,75.92 105.76,75.632 C106.912,75.344 108.064,75.056 109.36,74.624 C110.944,74.192 112.24,73.616 113.104,72.896 C113.968,72.176 114.4,71.456 114.256,70.736 L111.664,26.672 C111.52,23.936 111.376,21.344 111.088,18.896 C110.8,16.448 110.512,14.144 110.224,11.984 C110.224,11.84 110.512,11.408 110.944,10.688 C111.376,9.968 112.096,8.96 112.96,7.664 C113.392,6.944 113.968,6.08 114.544,5.072 C115.12,4.064 115.84,2.912 116.704,1.616 C116.848,1.472 116.992,1.328 117.136,1.184 C117.28,1.04 117.424,0.896 117.568,0.752 C117.712,0.896 117.856,1.04 117.856,1.328 L117.856,2.48 C118.576,22.208 119.152,37.472 119.728,48.128 C120.304,58.784 120.736,64.832 120.88,66.128 C121.456,69.44 122.32,71.888 123.472,73.616 C124.624,75.344 126.064,76.208 127.936,76.208 L131.248,76.208 L131.239403,76.496 L131.392,76.496 C135.856,76.496 139.888,76.064 143.488,75.2 C147.088,74.336 150.256,73.04 152.992,71.456 C154.432,70.592 155.584,69.728 156.304,69.008 C157.024,68.288 157.456,67.568 157.456,66.848 C157.456,64.4 156.592,61.952 154.864,59.36 C153.136,56.768 150.4,54.176 146.8,51.584 C145.792,50.864 144.496,50 142.912,48.992 C141.328,47.984 139.456,46.832 137.296,45.536 C135.712,44.528 134.56,43.808 133.84,43.232 C133.12,42.656 132.688,42.224 132.688,41.936 C132.688,41.216 132.688,40.352 132.832,39.2 C132.976,38.048 133.12,36.752 133.264,35.168 C133.408,33.296 133.552,31.856 133.696,30.848 C133.84,29.84 133.984,29.264 134.128,29.12 C140.608,24.368 147.664,19.616 155.44,15.008 C163.216,10.4 171.712,5.936 180.784,1.472 C181.36,1.184 181.792,1.04 182.224,0.896 C182.656,0.752 182.944,0.752 183.088,0.752 L183.376,0.752 L183.376,1.04 C183.376,1.184 183.232,1.472 183.088,1.76 C182.944,2.048 182.8,2.48 182.656,2.912 L182.368,3.2 C181.936,4.064 181.36,5.36 180.496,7.088 C179.632,8.816 178.624,10.832 177.328,13.28 C168.976,17.456 161.488,21.344 154.864,25.088 C148.24,28.832 142.48,32.432 137.728,35.888 C138.448,36.32 139.456,36.896 140.752,37.616 C142.048,38.336 143.488,39.344 145.216,40.496 C147.376,41.792 149.392,43.232 151.264,44.672 C153.136,46.112 154.864,47.696 156.448,49.424 C158.32,51.584 159.76,53.744 160.624,55.904 C161.488,58.064 161.92,60.08 161.92,62.096 C161.92,65.408 161.776,68 161.632,70.016 C161.488,72.032 161.2,73.472 160.768,74.192 C158.464,78.224 154.864,81.248 149.824,83.264 C144.784,85.28 138.448,86.288 130.816,86.288 L127.648,86.288 L127.648,85.856 C125.2,85.856 123.04,85.136 121.312,83.696 C119.584,82.256 118.144,80.096 117.136,77.36 C115.264,80.096 113.104,82.256 110.512,83.696 C107.92,85.136 105.04,85.856 101.872,85.856 L99.136,85.856 L99.136,85.4187155 C97.4885138,85.3585321 95.7125138,84.7842936 93.808,83.696 C91.792,82.544 89.632,80.816 87.328,78.512 C87.184,78.944 86.752,79.664 86.176,80.672 C85.6,81.68 84.88,82.976 84.016,84.56 C83.008,86.144 82.144,87.44 81.568,88.304 C80.992,89.168 80.56,89.6 80.416,89.6 C78.544,89.6 76.528,89.312 74.368,88.736 C72.208,88.16 69.904,87.152 67.6,85.856 C65.44,84.56 63.424,83.264 61.696,81.824 C59.968,80.384 58.384,78.944 57.088,77.36 C55.216,80.096 53.488,82.256 51.904,83.696 C50.4311858,85.034922 48.9583715,85.7513745 47.6013126,85.8453575 L47.584,86.144 L45.28,86.144 C43.12,86.144 41.248,85.712 39.664,84.992 C38.08,84.272 36.64,83.12 35.488,81.68 C34.624,80.672 33.76,79.376 33.04,77.648 C32.32,75.92 31.6,73.904 30.88,71.456 C29.872,72.608 28.864,73.76 27.856,74.912 C26.848,76.064 25.696,77.216 24.4,78.368 C22.528,78.512 20.512,78.512 18.352,78.368 C16.192,78.224 13.744,77.792 11.152,77.216 C7.84,76.64 5.248,75.92 3.52,74.912 C1.792,73.904 0.928,72.752 0.928,71.456 C0.928,71.024 1.648,68.864 2.944,64.832 C4.24,60.8 4.96,58.784 5.104,58.64 C6.688,57.056 9.136,55.328 12.592,53.6 C16.048,51.872 20.368,50 25.696,48.128 L24.112,38.768 C24.256,38.336 24.688,37.328 25.408,35.888 C26.128,34.448 27.136,32.432 28.288,29.84 C28.72,28.832 29.008,28.832 29.152,29.696 C29.296,30.56 30.88,38.48 33.76,53.456 C34.48,56.768 35.056,59.504 35.632,61.664 C36.208,63.824 36.64,65.552 37.072,66.848 C38.08,69.872 39.376,72.176 40.816,73.76 C41.9143294,74.9681623 43.0964315,75.7574609 44.2984104,76.064 Z M70.768,76.784 C69.76,76.208 68.608,75.344 67.312,74.336 C66.016,73.328 64.576,72.176 62.992,70.88 C63.28,70.448 63.712,70.016 64.288,69.44 C64.864,68.864 65.584,68.288 66.448,67.568 C67.456,66.704 68.464,65.984 69.328,65.552 C70.192,65.12 71.056,64.832 71.776,64.832 C73.504,64.832 75.088,65.264 76.384,66.128 C77.68,66.992 78.832,68.288 79.696,70.016 C80.416,71.312 80.992,72.896 81.28,74.624 C81.568,76.352 81.712,78.08 81.568,79.952 C79.264,79.52 77.248,79.088 75.52,78.512 C73.792,77.936 72.208,77.36 70.912,76.64 L70.768,76.784 Z M9.568,65.84 C9.424,65.696 9.28,65.552 9.136,65.408 C8.992,65.264 8.992,65.12 8.992,64.976 C8.992,63.968 9.856,62.816 11.44,61.664 C13.024,60.512 15.472,59.216 18.64,57.92 L26.992,54.608 C27.712,58.208 28.432,61.232 29.008,63.68 C29.584,66.128 30.016,67.856 30.304,68.864 C24.976,68.72 20.512,68.432 17.056,68 C13.6,67.568 11.152,66.848 9.712,65.84 L9.568,65.84 Z" id="کلمه-copy" fill="#000000"></path>
            <path d="M103.456,76.064 L101.008,76.064 C99.136,76.064 97.264,75.344 95.248,74.048 C93.232,72.752 91.072,70.736 88.912,68 C87.328,65.984 85.744,63.968 84.16,62.096 C82.576,60.224 80.992,58.352 79.408,56.48 C79.12,56.192 78.544,55.904 77.824,55.76 C77.104,55.616 76.096,55.472 74.944,55.472 C73.792,55.472 72.64,55.616 71.632,55.904 C70.624,56.192 69.616,56.624 68.608,57.2 C67.6,57.776 66.16,59.072 64.144,60.944 C62.128,62.816 59.68,65.408 56.8,68.576 C54.496,71.024 52.48,72.896 50.752,74.192 C49.024,75.488 47.584,76.064 46.432,76.064 L44.128,76.064 L44.128,85.856 L47.296,85.856 C48.736,85.856 50.32,85.136 51.904,83.696 C53.488,82.256 55.216,80.096 57.088,77.36 C58.384,78.944 59.968,80.384 61.696,81.824 C63.424,83.264 65.44,84.56 67.6,85.856 C69.904,87.152 72.208,88.16 74.368,88.736 C76.528,89.312 78.544,89.6 80.416,89.6 C80.56,89.6 80.992,89.168 81.568,88.304 C82.144,87.44 83.008,86.144 84.016,84.56 C84.88,82.976 85.6,81.68 86.176,80.672 C86.752,79.664 87.184,78.944 87.328,78.512 C89.632,80.816 91.792,82.544 93.808,83.696 C95.824,84.848 97.696,85.424 99.424,85.424 L103.312,85.424 L103.456,76.064 Z M70.768,76.784 C69.76,76.208 68.608,75.344 67.312,74.336 C66.016,73.328 64.576,72.176 62.992,70.88 C63.28,70.448 63.712,70.016 64.288,69.44 C64.864,68.864 65.584,68.288 66.448,67.568 C67.456,66.704 68.464,65.984 69.328,65.552 C70.192,65.12 71.056,64.832 71.776,64.832 C73.504,64.832 75.088,65.264 76.384,66.128 C77.68,66.992 78.832,68.288 79.696,70.016 C80.416,71.312 80.992,72.896 81.28,74.624 C81.568,76.352 81.712,78.08 81.568,79.952 C79.264,79.52 77.248,79.088 75.52,78.512 C73.792,77.936 72.208,77.36 70.912,76.64 L70.768,76.784 Z" id="Combined-Shape" fill="#FF0000"></path>
            <path d="M399.272,76.496 C403.736,76.496 407.768,76.064 411.368,75.2 C414.968,74.336 418.136,73.04 420.872,71.456 C422.312,70.592 423.464,69.728 424.184,69.008 C424.904,68.288 425.336,67.568 425.336,66.848 C425.336,64.4 424.472,61.952 422.744,59.36 C421.016,56.768 418.28,54.176 414.68,51.584 C413.672,50.864 412.376,50 410.792,48.992 C409.208,47.984 407.336,46.832 405.176,45.536 C403.592,44.528 402.44,43.808 401.72,43.232 C401,42.656 400.568,42.224 400.568,41.936 C400.568,41.216 400.568,40.352 400.712,39.2 C400.856,38.048 401,36.752 401.144,35.168 C401.288,33.296 401.432,31.856 401.576,30.848 C401.72,29.84 401.864,29.264 402.008,29.12 C408.488,24.368 415.544,19.616 423.32,15.008 C431.096,10.4 439.592,5.936 448.664,1.472 C449.24,1.184 449.672,1.04 450.104,0.896 C450.536,0.752 450.824,0.752 450.968,0.752 L451.256,0.752 L451.256,1.04 C451.256,1.184 451.112,1.472 450.968,1.76 C450.824,2.048 450.68,2.48 450.536,2.912 L450.248,3.2 C449.816,4.064 449.24,5.36 448.376,7.088 C447.512,8.816 446.504,10.832 445.208,13.28 C436.856,17.456 429.368,21.344 422.744,25.088 C416.12,28.832 410.36,32.432 405.608,35.888 C406.328,36.32 407.336,36.896 408.632,37.616 C409.928,38.336 411.368,39.344 413.096,40.496 C415.256,41.792 417.272,43.232 419.144,44.672 C421.016,46.112 422.744,47.696 424.328,49.424 C426.2,51.584 427.64,53.744 428.504,55.904 C429.368,58.064 429.8,60.08 429.8,62.096 C429.8,65.408 429.656,68 429.512,70.016 C429.368,72.032 429.08,73.472 428.648,74.192 C426.344,78.224 422.744,81.248 417.704,83.264 C412.664,85.28 406.328,86.288 398.696,86.288 L395.528,86.288 L395.528,85.6498635 C394.335575,85.498082 393.231575,85.0618915 392.216,84.272 C390.92,83.264 389.624,81.824 388.472,79.952 C388.328,80.24 388.184,81.68 388.04,84.128 C387.896,86.576 387.752,90.176 387.608,94.928 C387.464,95.504 387.176,96.368 386.888,97.52 C386.6,98.672 386.024,100.112 385.304,101.84 C384.584,103.28 384.008,104.432 383.576,105.44 C383.144,106.448 382.712,107.024 382.424,107.312 C381.704,108.32 380.408,109.472 378.68,110.624 C376.952,111.776 374.792,113.072 372.2,114.368 C368.6,116.096 365,117.392 361.4,118.256 C357.8,119.12 354.056,119.552 350.312,119.552 L350.456,119.552 C347,119.552 343.832,119.264 341.096,118.544 C338.36,117.824 335.912,116.816 333.752,115.52 C331.016,113.936 329,111.92 327.704,109.472 C326.408,107.024 325.688,104.144 325.688,100.832 C325.688,98.96 325.976,96.944 326.408,94.64 C326.84,92.336 327.56,89.744 328.568,87.008 C329.432,84.56 330.152,82.688 330.728,81.392 C331.304,80.096 331.736,79.52 332.024,79.52 C332.312,79.52 332.744,79.664 333.32,79.952 C333.896,80.24 334.472,80.528 334.904,80.672 C334.76,81.104 334.616,81.68 334.472,82.544 C334.328,83.408 334.184,84.416 334.04,85.568 C333.464,88.016 333.032,90.176 332.744,91.904 C332.456,93.632 332.312,94.928 332.312,95.792 C332.312,97.952 332.888,99.968 334.04,101.696 C335.192,103.424 336.92,104.864 339.08,106.16 C340.952,107.168 342.968,107.888 344.984,108.32 C347,108.752 349.16,109.04 351.464,109.04 C354.488,109.04 357.368,108.896 360.104,108.464 C362.84,108.032 365.288,107.456 367.448,106.592 C368.456,106.16 369.608,105.584 370.904,105.008 C372.2,104.432 373.64,103.712 375.224,102.848 C377.384,101.696 378.968,100.688 379.976,99.824 C380.984,98.96 381.56,98.24 381.56,97.808 C381.704,87.728 381.56,76.928 381.272,65.264 C380.984,53.6 380.408,41.216 379.544,28.112 C379.4,24.8 379.256,21.776 379.112,19.04 C378.968,16.304 378.824,13.712 378.68,11.264 C378.68,11.12 379.544,9.68 381.128,7.088 C382.712,4.496 383.864,2.768 384.44,1.76 C384.728,1.328 385.016,0.896 385.16,0.608 C385.304,0.32 385.448,0.176 385.592,0.032 C385.736,0.176 385.88,0.32 385.88,0.608 L385.88,1.76 C386.168,10.976 386.456,19.472 386.744,27.104 C387.032,34.736 387.32,41.504 387.608,47.408 C387.896,52.88 388.184,57.344 388.472,60.656 C388.76,63.968 389.048,66.272 389.336,67.424 C389.912,70.16 390.776,72.32 392.072,73.76 C393.368,75.2 394.952,75.92 396.824,75.92 L399.272,75.92 L399.272,76.496 Z M335.624,81.536 L335.624,80.672 L335.624,80.384 C335.48,80.384 335.336,80.384 335.336,80.528 L335.336,80.96 C335.48,81.104 335.624,81.248 335.768,81.392 C335.912,81.536 335.912,81.68 335.912,81.824 L335.624,81.536 Z M251.592,43.376 C249.432,48.272 247.704,52.16 246.408,55.04 C245.112,57.92 244.392,59.792 244.104,60.512 C242.808,63.536 241.8,66.272 241.08,68.576 C240.36,70.88 240.072,72.896 240.072,74.48 C240.072,76.352 240.36,77.936 240.936,79.376 C241.512,80.816 242.376,82.112 243.528,83.12 C244.68,84.128 245.976,84.848 247.56,85.424 C249.144,86 250.872,86.288 252.744,86.288 C256.344,86.288 259.368,85.856 261.816,85.136 C264.264,84.416 266.136,83.264 267.432,81.824 C268.44,80.816 269.592,78.8 270.888,75.776 C272.184,72.752 272.76,70.592 272.76,69.296 C272.76,63.968 271.032,59.216 267.432,55.04 C263.832,50.864 258.504,47.12 251.304,43.952 L251.592,43.376 Z M261.384,75.92 C259.8,76.352 258.504,76.64 257.352,76.928 C256.2,77.216 255.192,77.36 254.472,77.36 C253.608,77.36 252.744,77.216 251.88,76.928 C251.016,76.64 250.152,76.208 249.288,75.632 C248.424,75.056 247.704,74.336 247.272,73.616 C246.84,72.896 246.552,72.176 246.552,71.456 C246.552,70.16 246.984,68.288 247.848,65.696 C248.712,63.104 250.152,59.792 252.024,55.904 C256.776,58.64 260.376,61.376 262.824,64.256 C265.272,67.136 266.424,70.016 266.424,73.04 C266.424,73.616 265.992,74.192 265.128,74.768 C264.264,75.344 262.968,75.92 261.24,76.352 L261.384,75.92 Z" id="کل‌م‌ه-copy" fill="#000000"></path>
            <path d="M285.616,114.08 L285.616,112.496 L285.616,110.768 C285.616,109.472 285.472,107.312 285.328,104.144 C285.184,100.976 284.896,96.944 284.608,92.048 C284.464,89.744 284.32,87.872 284.176,86.288 C284.032,84.704 283.888,83.552 283.744,82.688 C284.176,82.112 285.04,81.536 286.336,80.96 C287.632,80.384 289.36,79.808 291.52,79.232 C293.824,78.512 296.128,77.936 298.288,77.504 C300.448,77.072 302.464,76.784 304.336,76.64 C305.056,76.496 305.776,76.352 306.352,76.352 L307.648,76.352 L310.096,76.352 L312.544,76.352 L312.832,76.352 C314.128,76.352 315.136,76.208 315.856,76.064 C316.576,75.92 317.008,75.632 317.152,75.344 C317.728,74.192 318.592,72.032 319.6,69.008 C320.608,65.984 321.184,63.968 321.184,62.96 C321.184,62.24 320.896,61.232 320.32,60.08 C319.744,58.928 318.736,57.632 317.44,56.048 C316.288,54.752 315.28,53.6 314.272,52.736 C313.264,51.872 312.4,51.152 311.536,50.72 C309.376,49.28 307.072,48.128 304.768,47.408 C302.464,46.688 300.16,46.256 297.856,46.256 C296.272,46.256 294.832,46.688 293.536,47.408 C292.24,48.128 291.088,49.28 290.08,50.72 C289.216,52.016 288.496,53.456 288.064,54.896 C287.632,56.336 287.344,57.92 287.344,59.504 C287.344,61.088 287.488,62.816 287.92,64.544 C288.352,66.272 288.928,68 289.648,69.872 L284.32,72.608 C283.024,73.328 282.016,73.904 281.296,74.48 C280.576,75.056 280,75.632 279.712,76.064 C279.28,77.648 278.848,79.376 278.416,81.104 C277.984,82.832 277.552,84.416 277.12,86 C277.552,88.16 277.984,90.464 278.272,92.912 C278.56,95.36 278.704,97.808 278.848,100.4 C278.992,103.712 279.136,107.168 279.136,110.768 C279.136,114.368 279.28,118.112 279.424,122 C280.432,121.424 281.728,120.128 283.312,118.256 C284.896,116.384 285.76,114.944 285.76,113.936 L285.616,114.08 Z M295.12,68.72 C294.688,68 294.4,66.848 294.256,65.264 C294.112,63.68 293.968,61.808 293.968,59.504 C293.968,58.64 294.256,57.92 294.688,57.488 C295.12,57.056 295.84,56.768 296.848,56.768 C300.88,56.768 304.336,57.632 307.216,59.36 C310.096,61.088 312.4,63.68 314.128,67.28 C311.104,67.136 308.08,67.28 304.912,67.568 C301.744,67.856 298.432,68.288 294.976,68.72 L295.12,68.72 Z" id="Combined-Shape" fill="#FF0000"></path>
            <path d="M58.112,150.288 C60.152,150.288 61.688,149.448 62.936,148.008 L61.832,146.76 C60.824,147.864 59.696,148.536 58.184,148.536 C55.208,148.536 53.312,146.04 53.312,142.08 C53.312,138.168 55.28,135.72 58.256,135.72 C59.6,135.72 60.632,136.32 61.472,137.208 L62.552,135.912 C61.64,134.88 60.152,133.968 58.232,133.968 C54.224,133.968 51.248,137.064 51.248,142.128 C51.248,147.264 54.176,150.288 58.112,150.288 L58.112,150.288 Z M70.208,150.288 C73.064,150.288 75.608,148.056 75.608,144.192 C75.608,140.28 73.064,138.048 70.208,138.048 C67.352,138.048 64.808,140.28 64.808,144.192 C64.808,148.056 67.352,150.288 70.208,150.288 L70.208,150.288 Z M70.208,148.656 C68.216,148.656 66.848,146.856 66.848,144.192 C66.848,141.504 68.216,139.68 70.208,139.68 C72.224,139.68 73.568,141.504 73.568,144.192 C73.568,146.856 72.224,148.656 70.208,148.656 L70.208,148.656 Z M78.68,150 L80.648,150 L80.648,142.512 C81.44,140.544 82.616,139.824 83.6,139.824 C84.08,139.824 84.344,139.896 84.728,140.016 L85.112,138.288 C84.728,138.12 84.368,138.048 83.864,138.048 C82.544,138.048 81.344,138.984 80.552,140.448 L80.48,140.448 L80.312,138.336 L78.68,138.336 L78.68,150 Z M87.008,150 L88.976,150 L88.976,142.512 C89.768,140.544 90.944,139.824 91.928,139.824 C92.408,139.824 92.672,139.896 93.056,140.016 L93.44,138.288 C93.056,138.12 92.696,138.048 92.192,138.048 C90.872,138.048 89.672,138.984 88.88,140.448 L88.808,140.448 L88.64,138.336 L87.008,138.336 L87.008,150 Z M99.824,150.288 C101.408,150.288 102.656,149.736 103.664,149.088 L102.968,147.792 C102.104,148.344 101.168,148.704 100.064,148.704 C97.832,148.704 96.32,147.12 96.176,144.648 L104.048,144.648 C104.096,144.36 104.12,143.928 104.12,143.52 C104.12,140.184 102.44,138.048 99.464,138.048 C96.8,138.048 94.232,140.376 94.232,144.192 C94.232,148.008 96.704,150.288 99.824,150.288 L99.824,150.288 Z M96.152,143.232 C96.392,140.928 97.88,139.608 99.512,139.608 C101.336,139.608 102.392,140.88 102.392,143.232 L96.152,143.232 Z M111.608,150.288 C113,150.288 114.32,149.736 115.376,148.8 L114.512,147.48 C113.792,148.128 112.856,148.656 111.776,148.656 C109.64,148.656 108.176,146.856 108.176,144.192 C108.176,141.504 109.712,139.68 111.824,139.68 C112.76,139.68 113.48,140.112 114.152,140.712 L115.16,139.416 C114.344,138.672 113.288,138.048 111.752,138.048 C108.752,138.048 106.136,140.28 106.136,144.192 C106.136,148.056 108.512,150.288 111.608,150.288 L111.608,150.288 Z M121.376,150.288 C122.096,150.288 122.888,150.072 123.536,149.856 L123.152,148.368 C122.768,148.512 122.24,148.68 121.832,148.68 C120.488,148.68 120.032,147.864 120.032,146.424 L120.032,139.944 L123.176,139.944 L123.176,138.336 L120.032,138.336 L120.032,135.072 L118.376,135.072 L118.136,138.336 L116.312,138.456 L116.312,139.944 L118.04,139.944 L118.04,146.4 C118.04,148.704 118.88,150.288 121.376,150.288 L121.376,150.288 Z" id="Correct-Copy" fill="#000000"></path>
            <path d="M310.888,150 L313.264,150 L315.592,140.52 C315.856,139.296 316.144,138.168 316.384,136.944 L316.48,136.944 C316.72,138.168 316.96,139.296 317.248,140.52 L319.624,150 L322.024,150 L325.288,134.256 L323.368,134.256 L321.712,142.824 C321.4,144.504 321.112,146.208 320.824,147.912 L320.728,147.912 C320.344,146.208 319.96,144.48 319.576,142.824 L317.392,134.256 L315.568,134.256 L313.384,142.824 C313.024,144.504 312.64,146.208 312.28,147.912 L312.184,147.912 C311.896,146.208 311.56,144.528 311.272,142.824 L309.616,134.256 L307.552,134.256 L310.888,150 Z M327.832,150 L329.8,150 L329.8,142.512 C330.592,140.544 331.768,139.824 332.752,139.824 C333.232,139.824 333.496,139.896 333.88,140.016 L334.264,138.288 C333.88,138.12 333.52,138.048 333.016,138.048 C331.696,138.048 330.496,138.984 329.704,140.448 L329.632,140.448 L329.464,138.336 L327.832,138.336 L327.832,150 Z M340.456,150.288 C343.312,150.288 345.856,148.056 345.856,144.192 C345.856,140.28 343.312,138.048 340.456,138.048 C337.6,138.048 335.056,140.28 335.056,144.192 C335.056,148.056 337.6,150.288 340.456,150.288 L340.456,150.288 Z M340.456,148.656 C338.464,148.656 337.096,146.856 337.096,144.192 C337.096,141.504 338.464,139.68 340.456,139.68 C342.472,139.68 343.816,141.504 343.816,144.192 C343.816,146.856 342.472,148.656 340.456,148.656 L340.456,148.656 Z M348.928,150 L350.896,150 L350.896,141.552 C352.072,140.376 352.888,139.752 354.088,139.752 C355.624,139.752 356.296,140.688 356.296,142.872 L356.296,150 L358.264,150 L358.264,142.608 C358.264,139.632 357.16,138.048 354.712,138.048 C353.104,138.048 351.904,138.912 350.8,140.016 L350.728,140.016 L350.56,138.336 L348.928,138.336 L348.928,150 Z M365.992,155.376 C369.616,155.376 371.896,153.504 371.896,151.344 C371.896,149.4 370.528,148.56 367.816,148.56 L365.56,148.56 C363.976,148.56 363.496,148.032 363.496,147.288 C363.496,146.64 363.832,146.256 364.24,145.896 C364.768,146.16 365.416,146.304 365.992,146.304 C368.368,146.304 370.264,144.744 370.264,142.248 C370.264,141.264 369.856,140.376 369.304,139.848 L371.704,139.848 L371.704,138.336 L367.648,138.336 C367.216,138.168 366.64,138.048 365.992,138.048 C363.616,138.048 361.6,139.656 361.6,142.2 C361.6,143.592 362.344,144.72 363.112,145.344 L363.112,145.44 C362.512,145.848 361.84,146.616 361.84,147.6 C361.84,148.512 362.296,149.136 362.872,149.496 L362.872,149.592 C361.816,150.312 361.168,151.248 361.168,152.232 C361.168,154.248 363.136,155.376 365.992,155.376 L365.992,155.376 Z M365.992,144.984 C364.648,144.984 363.52,143.904 363.52,142.2 C363.52,140.496 364.624,139.488 365.992,139.488 C367.36,139.488 368.464,140.496 368.464,142.2 C368.464,143.904 367.336,144.984 365.992,144.984 L365.992,144.984 Z M366.28,154.008 C364.168,154.008 362.896,153.216 362.896,151.968 C362.896,151.296 363.256,150.6 364.096,150 C364.6,150.144 365.152,150.192 365.608,150.192 L367.624,150.192 C369.136,150.192 369.976,150.552 369.976,151.632 C369.976,152.856 368.512,154.008 366.28,154.008 L366.28,154.008 Z" id="Wrong-Copy" fill="#000000"></path>
        </g>
    </g>
</svg>