<?xml version="1.0" encoding="UTF-8"?>
<svg width="459px" height="96px" viewBox="0 0 459 96" version="1.1" xmlns="http://www.w3.org/2000/svg" xmlns:xlink="http://www.w3.org/1999/xlink">
    <!-- Generator: Sketch 43.2 (39069) - http://www.bohemiancoding.com/sketch -->
    <title>Group</title>
    <desc>Created with Sketch.</desc>
    <defs></defs>
    <g stroke="none" stroke-width="1" fill="none" fill-rule="evenodd">
        <g transform="translate(-4.000000, -20.000000)">
            <text font-family="SourceSansPro-Regular, Source Sans Pro" font-size="48" font-weight="normal" fill="#000000">
                <tspan x="0" y="47">Hello is </tspan>
                <tspan x="165.04325" y="47" font-family="IRMitra" font-size="64">سلام</tspan>
                <tspan x="248.62625" y="47"> in Persian.</tspan>
            </text>
            <polygon fill="#D0011B" points="173.104 107.632 175.12 105.424 165.472 96.448 246.544 96.448 246.544 93.184 165.472 93.184 175.12 84.208 173.104 82 160 94.72 160 94.912"></polygon>
            <polygon fill="#D0011B" transform="translate(74.772000, 94.816000) scale(-1, 1) translate(-74.772000, -94.816000) " points="17.104 107.632 19.12 105.424 9.472 96.448 145.544 96.448 145.544 93.184 9.472 93.184 19.12 84.208 17.104 82 4 94.72 4 94.912"></polygon>
            <polygon fill="#D0011B" transform="translate(361.272000, 94.816000) scale(-1, 1) translate(-361.272000, -94.816000) " points="273.104 107.632 275.12 105.424 265.472 96.448 462.544 96.448 462.544 93.184 265.472 93.184 275.12 84.208 273.104 82 260 94.72 260 94.912"></polygon>
            <text font-family="SourceSansPro-Light, Source Sans Pro" font-size="18" font-weight="300" fill="#000000">
                <tspan x="54" y="115">Run 1</tspan>
            </text>
            <text font-family="SourceSansPro-Light, Source Sans Pro" font-size="18" font-weight="300" fill="#000000">
                <tspan x="182" y="115">Run 2</tspan>
            </text>
            <text font-family="SourceSansPro-Light, Source Sans Pro" font-size="18" font-weight="300" fill="#000000">
                <tspan x="340" y="115">Run 3</tspan>
            </text>
        </g>
    </g>
</svg>