<?xml version="1.0" encoding="UTF-8"?>
<svg width="716px" height="158px" viewBox="0 0 716 158" version="1.1" xmlns="http://www.w3.org/2000/svg" xmlns:xlink="http://www.w3.org/1999/xlink">
    <!-- Generator: Sketch 43.2 (39069) - http://www.bohemiancoding.com/sketch -->
    <title>Transparency</title>
    <desc>Created with Sketch.</desc>
    <defs></defs>
    <g stroke="none" stroke-width="1" fill="none" fill-rule="evenodd">
        <g transform="translate(-4.000000, -45.000000)" fill="#000000">
            <g font-weight="normal">
                <text font-family="IRMitra" font-size="144">
                    <tspan x="0" y="133">کلمه</tspan>
                </text>
                <text font-family="SourceSansPro-Regular, Source Sans Pro" font-size="24">
                    <tspan x="57" y="197">Normal</tspan>
                </text>
            </g>
            <g transform="translate(247.500000, 0.000000)" font-weight="normal">
                <text opacity="0.5" font-family="IRMitra" font-size="144">
                    <tspan x="8" y="133">کلمه</tspan>
                </text>
                <text font-family="SourceSansPro-Regular, Source Sans Pro" font-size="24">
                    <tspan x="0" y="197">Transparent (wrong)</tspan>
                </text>
            </g>
            <g transform="translate(511.000000, 48.000000)">
                <text font-family="SourceSansPro-Regular, Source Sans Pro" font-size="24" font-weight="normal">
                    <tspan x="0" y="149">Transparent (correct)</tspan>
                </text>
                <path d="M61.6733126,85.0933575 C63.0303715,84.9993745 64.5031858,84.282922 65.976,82.944 C67.56,81.504 69.288,79.344 71.16,76.608 C72.456,78.192 74.04,79.632 75.768,81.072 C77.496,82.512 79.512,83.808 81.672,85.104 C83.976,86.4 86.28,87.408 88.44,87.984 C90.6,88.56 92.616,88.848 94.488,88.848 C94.632,88.848 95.064,88.416 95.64,87.552 C96.216,86.688 97.08,85.392 98.088,83.808 C98.952,82.224 99.672,80.928 100.248,79.92 C100.824,78.912 101.256,78.192 101.4,77.76 C103.704,80.064 105.864,81.792 107.88,82.944 C109.784514,84.0322936 111.560514,84.6065321 113.208,84.6667155 L113.208,85.104 L115.944,85.104 C119.112,85.104 121.992,84.384 124.584,82.944 C127.176,81.504 129.336,79.344 131.208,76.608 C132.216,79.344 133.656,81.504 135.384,82.944 C137.112,84.384 139.272,85.104 141.72,85.104 L141.72,85.536 L144.888,85.536 C152.52,85.536 158.856,84.528 163.896,82.512 C168.936,80.496 172.536,77.472 174.84,73.44 C175.272,72.72 175.56,71.28 175.704,69.264 C175.848,67.248 175.992,64.656 175.992,61.344 C175.992,59.328 175.56,57.312 174.696,55.152 C173.832,52.992 172.392,50.832 170.52,48.672 C168.936,46.944 167.208,45.36 165.336,43.92 C163.464,42.48 161.448,41.04 159.288,39.744 C157.56,38.592 156.12,37.584 154.824,36.864 C153.528,36.144 152.52,35.568 151.8,35.136 C156.552,31.68 162.312,28.08 168.936,24.336 C175.56,20.592 183.048,16.704 191.4,12.528 C192.696,10.08 193.704,8.064 194.568,6.336 C195.432,4.608 196.008,3.312 196.44,2.448 L196.728,2.16 C196.872,1.728 197.016,1.296 197.16,1.008 C197.304,0.72 197.448,0.432 197.448,0.288 L197.448,5.68434189e-14 L197.16,5.68434189e-14 C197.016,5.68434189e-14 196.728,5.68434189e-14 196.296,0.144 C195.864,0.288 195.432,0.432 194.856,0.72 C185.784,5.184 177.288,9.648 169.512,14.256 C161.736,18.864 154.68,23.616 148.2,28.368 C148.056,28.512 147.912,29.088 147.768,30.096 C147.624,31.104 147.48,32.544 147.336,34.416 C147.192,36 147.048,37.296 146.904,38.448 C146.76,39.6 146.76,40.464 146.76,41.184 C146.76,41.472 147.192,41.904 147.912,42.48 C148.632,43.056 149.784,43.776 151.368,44.784 C153.528,46.08 155.4,47.232 156.984,48.24 C158.568,49.248 159.864,50.112 160.872,50.832 C164.472,53.424 167.208,56.016 168.936,58.608 C170.664,61.2 171.528,63.648 171.528,66.096 C171.528,66.816 171.096,67.536 170.376,68.256 C169.656,68.976 168.504,69.84 167.064,70.704 C164.328,72.288 161.16,73.584 157.56,74.448 C153.96,75.312 149.928,75.744 145.464,75.744 L145.311403,75.744 L145.32,75.456 L142.008,75.456 C140.136,75.456 138.696,74.592 137.544,72.864 C136.392,71.136 135.528,68.688 134.952,65.376 C134.808,64.08 134.376,58.032 133.8,47.376 C133.224,36.72 132.648,21.456 131.928,1.728 L131.928,0.576 C131.928,0.288 131.784,0.144 131.64,5.68434189e-14 C131.496,0.144 131.352,0.288 131.208,0.432 L130.776,0.864 C129.912,2.16 129.192,3.312 128.616,4.32 C128.04,5.328 127.464,6.192 127.032,6.912 C126.168,8.208 125.448,9.216 125.016,9.936 C124.584,10.656 124.296,11.088 124.296,11.232 C124.584,13.392 124.872,15.696 125.16,18.144 C125.448,20.592 125.592,23.184 125.736,25.92 L128.328,69.984 C128.472,70.704 128.04,71.424 127.176,72.144 C126.312,72.864 125.016,73.44 123.432,73.872 C122.136,74.304 120.984,74.592 119.832,74.88 C118.68,75.168 117.528,75.312 116.52,75.312 L115.8,75.312 L115.08,75.312 C113.208,75.312 111.336,74.592 109.32,73.296 C107.304,72 105.144,69.984 102.984,67.248 C101.4,65.232 99.816,63.216 98.232,61.344 C96.648,59.472 95.064,57.6 93.48,55.728 C93.192,55.44 92.616,55.152 91.896,55.008 C91.176,54.864 90.168,54.72 89.016,54.72 C87.864,54.72 86.712,54.864 85.704,55.152 C84.696,55.44 83.688,55.872 82.68,56.448 C81.672,57.024 80.232,58.32 78.216,60.192 C76.2,62.064 73.752,64.656 70.872,67.824 C68.568,70.272 66.552,72.144 64.824,73.44 C63.096,74.736 61.656,75.312 60.504,75.312 L58.3704104,75.312 C57.1684315,75.0054609 55.9863294,74.2161623 54.888,73.008 C53.448,71.424 52.152,69.12 51.144,66.096 C50.712,64.8 50.28,63.072 49.704,60.912 C49.128,58.752 48.552,56.016 47.832,52.704 C44.952,37.728 43.368,29.808 43.224,28.944 C43.08,28.08 42.792,28.08 42.36,29.088 C41.208,31.68 40.2,33.696 39.48,35.136 C38.76,36.576 38.328,37.584 38.184,38.016 L39.768,47.376 C34.44,49.248 30.12,51.12 26.664,52.848 C23.208,54.576 20.76,56.304 19.176,57.888 C19.032,58.032 18.312,60.048 17.016,64.08 C15.72,68.112 15,70.272 15,70.704 C15,72 15.864,73.152 17.592,74.16 C19.32,75.168 21.912,75.888 25.224,76.464 C27.816,77.04 30.264,77.472 32.424,77.616 C34.584,77.76 36.6,77.76 38.472,77.616 C39.768,76.464 40.92,75.312 41.928,74.16 C42.936,73.008 43.944,71.856 44.952,70.704 C45.672,73.152 46.392,75.168 47.112,76.896 C47.832,78.624 48.696,79.92 49.56,80.928 C50.712,82.368 52.152,83.52 53.736,84.24 C55.32,84.96 57.192,85.392 59.352,85.392 L61.656,85.392 L61.6733124,85.0933605 Z M84.84,76.032 C83.832,75.456 82.68,74.592 81.384,73.584 C80.088,72.576 78.648,71.424 77.064,70.128 C77.352,69.696 77.784,69.264 78.36,68.688 C78.936,68.112 79.656,67.536 80.52,66.816 C81.528,65.952 82.536,65.232 83.4,64.8 C84.264,64.368 85.128,64.08 85.848,64.08 C87.576,64.08 89.16,64.512 90.456,65.376 C91.752,66.24 92.904,67.536 93.768,69.264 C94.488,70.56 95.064,72.144 95.352,73.872 C95.64,75.6 95.784,77.328 95.64,79.2 C93.336,78.768 91.32,78.336 89.592,77.76 C87.864,77.184 86.28,76.608 84.984,75.888 L84.84,76.032 Z M23.64,65.088 C23.496,64.944 23.352,64.8 23.208,64.656 C23.064,64.512 23.064,64.368 23.064,64.224 C23.064,63.216 23.928,62.064 25.512,60.912 C27.096,59.76 29.544,58.464 32.712,57.168 L41.064,53.856 C41.784,57.456 42.504,60.48 43.08,62.928 C43.656,65.376 44.088,67.104 44.376,68.112 C39.048,67.968 34.584,67.68 31.128,67.248 C27.672,66.816 25.224,66.096 23.784,65.088 L23.64,65.088 Z" opacity="0.5"></path>
            </g>
        </g>
    </g>
</svg>