<?xml version="1.0" encoding="UTF-8"?>
<svg width="718px" height="163px" viewBox="0 0 718 163" version="1.1" xmlns="http://www.w3.org/2000/svg" xmlns:xlink="http://www.w3.org/1999/xlink">
    <!-- Generator: Sketch 43.2 (39069) - http://www.bohemiancoding.com/sketch -->
    <title>Text border</title>
    <desc>Created with Sketch.</desc>
    <defs></defs>
    <g stroke="none" stroke-width="1" fill="none" fill-rule="evenodd">
        <g transform="translate(-4.000000, -40.000000)" fill="#000000">
            <g font-weight="normal">
                <text font-family="IRMitra" font-size="144">
                    <tspan x="0" y="133">کلمه</tspan>
                </text>
                <text font-family="SourceSansPro-Regular, Source Sans Pro" font-size="24">
                    <tspan x="57" y="197">Normal</tspan>
                </text>
            </g>
            <g transform="translate(264.000000, 0.000000)" font-weight="normal">
                <text stroke="#4990E2" font-family="IRMitra" font-size="144">
                    <tspan x="0" y="133">کلمه</tspan>
                </text>
                <text font-family="SourceSansPro-Regular, Source Sans Pro" font-size="24">
                    <tspan x="2" y="197">Wrong Text Border</tspan>
                </text>
            </g>
            <g transform="translate(528.000000, 48.000000)">
                <text font-family="SourceSansPro-Regular, Source Sans Pro" font-size="24" font-weight="normal">
                    <tspan x="0" y="149">Correct Text Border</tspan>
                </text>
                <path d="M52.6733126,85.0933575 C54.0303715,84.9993745 55.5031858,84.282922 56.976,82.944 C58.56,81.504 60.288,79.344 62.16,76.608 C63.456,78.192 65.04,79.632 66.768,81.072 C68.496,82.512 70.512,83.808 72.672,85.104 C74.976,86.4 77.28,87.408 79.44,87.984 C81.6,88.56 83.616,88.848 85.488,88.848 C85.632,88.848 86.064,88.416 86.64,87.552 C87.216,86.688 88.08,85.392 89.088,83.808 C89.952,82.224 90.672,80.928 91.248,79.92 C91.824,78.912 92.256,78.192 92.4,77.76 C94.704,80.064 96.864,81.792 98.88,82.944 C100.784514,84.0322936 102.560514,84.6065321 104.208,84.6667155 L104.208,85.104 L106.944,85.104 C110.112,85.104 112.992,84.384 115.584,82.944 C118.176,81.504 120.336,79.344 122.208,76.608 C123.216,79.344 124.656,81.504 126.384,82.944 C128.112,84.384 130.272,85.104 132.72,85.104 L132.72,85.536 L135.888,85.536 C143.52,85.536 149.856,84.528 154.896,82.512 C159.936,80.496 163.536,77.472 165.84,73.44 C166.272,72.72 166.56,71.28 166.704,69.264 C166.848,67.248 166.992,64.656 166.992,61.344 C166.992,59.328 166.56,57.312 165.696,55.152 C164.832,52.992 163.392,50.832 161.52,48.672 C159.936,46.944 158.208,45.36 156.336,43.92 C154.464,42.48 152.448,41.04 150.288,39.744 C148.56,38.592 147.12,37.584 145.824,36.864 C144.528,36.144 143.52,35.568 142.8,35.136 C147.552,31.68 153.312,28.08 159.936,24.336 C166.56,20.592 174.048,16.704 182.4,12.528 C183.696,10.08 184.704,8.064 185.568,6.336 C186.432,4.608 187.008,3.312 187.44,2.448 L187.728,2.16 C187.872,1.728 188.016,1.296 188.16,1.008 C188.304,0.72 188.448,0.432 188.448,0.288 L188.448,0 L188.16,0 C188.016,0 187.728,0 187.296,0.144 C186.864,0.288 186.432,0.432 185.856,0.72 C176.784,5.184 168.288,9.648 160.512,14.256 C152.736,18.864 145.68,23.616 139.2,28.368 C139.056,28.512 138.912,29.088 138.768,30.096 C138.624,31.104 138.48,32.544 138.336,34.416 C138.192,36 138.048,37.296 137.904,38.448 C137.76,39.6 137.76,40.464 137.76,41.184 C137.76,41.472 138.192,41.904 138.912,42.48 C139.632,43.056 140.784,43.776 142.368,44.784 C144.528,46.08 146.4,47.232 147.984,48.24 C149.568,49.248 150.864,50.112 151.872,50.832 C155.472,53.424 158.208,56.016 159.936,58.608 C161.664,61.2 162.528,63.648 162.528,66.096 C162.528,66.816 162.096,67.536 161.376,68.256 C160.656,68.976 159.504,69.84 158.064,70.704 C155.328,72.288 152.16,73.584 148.56,74.448 C144.96,75.312 140.928,75.744 136.464,75.744 L136.311403,75.744 L136.32,75.456 L133.008,75.456 C131.136,75.456 129.696,74.592 128.544,72.864 C127.392,71.136 126.528,68.688 125.952,65.376 C125.808,64.08 125.376,58.032 124.8,47.376 C124.224,36.72 123.648,21.456 122.928,1.728 L122.928,0.576 C122.928,0.288 122.784,0.144 122.64,0 C122.496,0.144 122.352,0.288 122.208,0.432 L121.776,0.864 C120.912,2.16 120.192,3.312 119.616,4.32 C119.04,5.328 118.464,6.192 118.032,6.912 C117.168,8.208 116.448,9.216 116.016,9.936 C115.584,10.656 115.296,11.088 115.296,11.232 C115.584,13.392 115.872,15.696 116.16,18.144 C116.448,20.592 116.592,23.184 116.736,25.92 L119.328,69.984 C119.472,70.704 119.04,71.424 118.176,72.144 C117.312,72.864 116.016,73.44 114.432,73.872 C113.136,74.304 111.984,74.592 110.832,74.88 C109.68,75.168 108.528,75.312 107.52,75.312 L106.8,75.312 L106.08,75.312 C104.208,75.312 102.336,74.592 100.32,73.296 C98.304,72 96.144,69.984 93.984,67.248 C92.4,65.232 90.816,63.216 89.232,61.344 C87.648,59.472 86.064,57.6 84.48,55.728 C84.192,55.44 83.616,55.152 82.896,55.008 C82.176,54.864 81.168,54.72 80.016,54.72 C78.864,54.72 77.712,54.864 76.704,55.152 C75.696,55.44 74.688,55.872 73.68,56.448 C72.672,57.024 71.232,58.32 69.216,60.192 C67.2,62.064 64.752,64.656 61.872,67.824 C59.568,70.272 57.552,72.144 55.824,73.44 C54.096,74.736 52.656,75.312 51.504,75.312 L49.3704104,75.312 C48.1684315,75.0054609 46.9863294,74.2161623 45.888,73.008 C44.448,71.424 43.152,69.12 42.144,66.096 C41.712,64.8 41.28,63.072 40.704,60.912 C40.128,58.752 39.552,56.016 38.832,52.704 C35.952,37.728 34.368,29.808 34.224,28.944 C34.08,28.08 33.792,28.08 33.36,29.088 C32.208,31.68 31.2,33.696 30.48,35.136 C29.76,36.576 29.328,37.584 29.184,38.016 L30.768,47.376 C25.44,49.248 21.12,51.12 17.664,52.848 C14.208,54.576 11.76,56.304 10.176,57.888 C10.032,58.032 9.312,60.048 8.016,64.08 C6.72,68.112 6,70.272 6,70.704 C6,72 6.864,73.152 8.592,74.16 C10.32,75.168 12.912,75.888 16.224,76.464 C18.816,77.04 21.264,77.472 23.424,77.616 C25.584,77.76 27.6,77.76 29.472,77.616 C30.768,76.464 31.92,75.312 32.928,74.16 C33.936,73.008 34.944,71.856 35.952,70.704 C36.672,73.152 37.392,75.168 38.112,76.896 C38.832,78.624 39.696,79.92 40.56,80.928 C41.712,82.368 43.152,83.52 44.736,84.24 C46.32,84.96 48.192,85.392 50.352,85.392 L52.656,85.392 L52.6733124,85.0933605 Z M75.84,76.032 C74.832,75.456 73.68,74.592 72.384,73.584 C71.088,72.576 69.648,71.424 68.064,70.128 C68.352,69.696 68.784,69.264 69.36,68.688 C69.936,68.112 70.656,67.536 71.52,66.816 C72.528,65.952 73.536,65.232 74.4,64.8 C75.264,64.368 76.128,64.08 76.848,64.08 C78.576,64.08 80.16,64.512 81.456,65.376 C82.752,66.24 83.904,67.536 84.768,69.264 C85.488,70.56 86.064,72.144 86.352,73.872 C86.64,75.6 86.784,77.328 86.64,79.2 C84.336,78.768 82.32,78.336 80.592,77.76 C78.864,77.184 77.28,76.608 75.984,75.888 L75.84,76.032 Z M14.64,65.088 L14.208,64.656 C14.064,64.512 14.064,64.368 14.064,64.224 C14.064,63.216 14.928,62.064 16.512,60.912 C18.096,59.76 20.544,58.464 23.712,57.168 L32.064,53.856 C32.784,57.456 33.504,60.48 34.08,62.928 C34.656,65.376 35.088,67.104 35.376,68.112 C30.048,67.968 25.584,67.68 22.128,67.248 C18.672,66.816 16.224,66.096 14.784,65.088 L14.64,65.088 Z" stroke="#4990E2" stroke-width="3"></path>
            </g>
        </g>
    </g>
</svg>