<?xml version="1.0" standalone="no"?><!DOCTYPE svg PUBLIC "-//W3C//DTD SVG 1.1//EN" "http://www.w3.org/Graphics/SVG/1.1/DTD/svg11.dtd"><svg width="100%" height="100%" viewBox="0 0 300 300" version="1.1" xmlns="http://www.w3.org/2000/svg" xmlns:xlink="http://www.w3.org/1999/xlink" xml:space="preserve" style="fill-rule:evenodd;clip-rule:evenodd;stroke-linejoin:round;stroke-miterlimit:1.41421;"><g id="U+0653"><g id="Base"><circle id="Dot 15" cx="130.9" cy="103.729" r="5" style="fill:#000;"/><circle id="Dot 14" cx="114.6" cy="114.529" r="5" style="fill:#000;"/><circle id="Dot 13" cx="103.8" cy="130.829" r="5" style="fill:#000;"/><circle id="Dot 12" cx="100" cy="149.929" r="5" style="fill:#000;"/><circle id="Dot 11" cx="103.8" cy="169.029" r="5" style="fill:#000;"/><circle id="Dot 10" cx="114.6" cy="185.329" r="5" style="fill:#000;"/><circle id="Dot 9" cx="130.9" cy="196.129" r="5" style="fill:#000;"/><circle id="Dot 8" cx="150" cy="199.929" r="5" style="fill:#000;"/><circle id="Dot 7" cx="169.1" cy="196.129" r="5" style="fill:#000;"/><circle id="Dot 6" cx="185.4" cy="185.329" r="5" style="fill:#000;"/><circle id="Dot 5" cx="196.2" cy="169.029" r="5" style="fill:#000;"/><circle id="Dot 4" cx="200" cy="149.929" r="5" style="fill:#000;"/><circle id="Dot 3" cx="196.2" cy="130.829" r="5" style="fill:#000;"/><circle id="Dot 2" cx="185.4" cy="114.529" r="5" style="fill:#000;"/><circle id="Dot 1" cx="169.1" cy="103.729" r="5" style="fill:#000;"/><circle id="Dot 0" cx="150" cy="99.929" r="5" style="fill:#000;"/></g><path d="M174.422,44.967c-7.91,6.348 -18.359,9.522 -31.347,9.522c-5.86,0 -9.571,-0.098 -11.133,-0.293c-1.953,3.418 -3.076,7.324 -3.369,11.719c-4.199,0 -6.738,-0.196 -7.617,-0.586c0,-8.887 1.66,-16.895 4.98,-24.024c4.883,1.27 11.719,1.905 20.508,1.905c11.133,0 20.459,-2.539 27.978,-7.618l0,9.375Z" style="fill:#000;fill-rule:nonzero;"/></g></svg>