<?xml version="1.0" standalone="no"?><!DOCTYPE svg PUBLIC "-//W3C//DTD SVG 1.1//EN" "http://www.w3.org/Graphics/SVG/1.1/DTD/svg11.dtd"><svg width="100%" height="100%" viewBox="0 0 300 300" version="1.1" xmlns="http://www.w3.org/2000/svg" xmlns:xlink="http://www.w3.org/1999/xlink" xml:space="preserve" style="fill-rule:evenodd;clip-rule:evenodd;stroke-linejoin:round;stroke-miterlimit:1.41421;"><g id="U+064F"><g id="Base"><circle id="Dot 15" cx="130.9" cy="103.764" r="5" style="fill:#000;"/><circle id="Dot 14" cx="114.6" cy="114.564" r="5" style="fill:#000;"/><circle id="Dot 13" cx="103.8" cy="130.864" r="5" style="fill:#000;"/><circle id="Dot 12" cx="100" cy="149.964" r="5" style="fill:#000;"/><circle id="Dot 11" cx="103.8" cy="169.064" r="5" style="fill:#000;"/><circle id="Dot 10" cx="114.6" cy="185.364" r="5" style="fill:#000;"/><circle id="Dot 9" cx="130.9" cy="196.164" r="5" style="fill:#000;"/><circle id="Dot 8" cx="150" cy="199.964" r="5" style="fill:#000;"/><circle id="Dot 7" cx="169.1" cy="196.164" r="5" style="fill:#000;"/><circle id="Dot 6" cx="185.4" cy="185.364" r="5" style="fill:#000;"/><circle id="Dot 5" cx="196.2" cy="169.064" r="5" style="fill:#000;"/><circle id="Dot 4" cx="200" cy="149.964" r="5" style="fill:#000;"/><circle id="Dot 3" cx="196.2" cy="130.864" r="5" style="fill:#000;"/><circle id="Dot 2" cx="185.4" cy="114.564" r="5" style="fill:#000;"/><circle id="Dot 1" cx="169.1" cy="103.764" r="5" style="fill:#000;"/><circle id="Dot 0" cx="150" cy="99.964" r="5" style="fill:#000;"/></g><path d="M159.798,48.344c-7.617,11.523 -19.971,20.263 -37.061,26.22l0,-13.623c6.543,-1.074 12.134,-2.905 16.773,-5.493c4.638,-2.588 8.471,-5.786 11.499,-9.594c-3.809,-1.27 -7.178,-2.71 -10.108,-4.322c-2.929,-1.611 -5.371,-3.54 -7.324,-5.786c0.586,-3.906 1.611,-7.544 3.076,-10.913c1.465,-3.369 3.296,-6.25 5.493,-8.643c2.198,-2.392 4.712,-4.272 7.544,-5.639c2.832,-1.367 5.86,-2.051 9.082,-2.051c5.176,2.344 7.764,7.715 7.764,16.113c0,4.004 -1.025,8.936 -3.076,14.795c1.465,0.684 2.856,1.245 4.175,1.685c1.318,0.439 2.563,0.757 3.735,0.952l0,11.133l-11.572,-4.834ZM159.212,29.447c0,-4.98 -1.758,-8.154 -5.274,-9.521c-6.152,0 -10.107,3.76 -11.865,11.279c1.465,1.465 3.418,2.808 5.86,4.028c2.441,1.221 5.322,2.417 8.642,3.589c0.977,-1.367 1.66,-2.832 2.051,-4.394c0.391,-1.563 0.586,-3.223 0.586,-4.981Z" style="fill:#000;fill-rule:nonzero;"/></g></svg>