<?xml version="1.0" standalone="no"?><!DOCTYPE svg PUBLIC "-//W3C//DTD SVG 1.1//EN" "http://www.w3.org/Graphics/SVG/1.1/DTD/svg11.dtd"><svg width="100%" height="100%" viewBox="0 0 300 300" version="1.1" xmlns="http://www.w3.org/2000/svg" xmlns:xlink="http://www.w3.org/1999/xlink" xml:space="preserve" style="fill-rule:evenodd;clip-rule:evenodd;stroke-linejoin:round;stroke-miterlimit:1.41421;"><g id="U+0652"><g id="Base"><circle id="Dot 15" cx="130.9" cy="103.729" r="5" style="fill:#000;"/><circle id="Dot 14" cx="114.6" cy="114.529" r="5" style="fill:#000;"/><circle id="Dot 13" cx="103.8" cy="130.829" r="5" style="fill:#000;"/><circle id="Dot 12" cx="100" cy="149.929" r="5" style="fill:#000;"/><circle id="Dot 11" cx="103.8" cy="169.029" r="5" style="fill:#000;"/><circle id="Dot 10" cx="114.6" cy="185.329" r="5" style="fill:#000;"/><circle id="Dot 9" cx="130.9" cy="196.129" r="5" style="fill:#000;"/><circle id="Dot 8" cx="150" cy="199.929" r="5" style="fill:#000;"/><circle id="Dot 7" cx="169.1" cy="196.129" r="5" style="fill:#000;"/><circle id="Dot 6" cx="185.4" cy="185.329" r="5" style="fill:#000;"/><circle id="Dot 5" cx="196.2" cy="169.029" r="5" style="fill:#000;"/><circle id="Dot 4" cx="200" cy="149.929" r="5" style="fill:#000;"/><circle id="Dot 3" cx="196.2" cy="130.829" r="5" style="fill:#000;"/><circle id="Dot 2" cx="185.4" cy="114.529" r="5" style="fill:#000;"/><circle id="Dot 1" cx="169.1" cy="103.729" r="5" style="fill:#000;"/><circle id="Dot 0" cx="150" cy="99.929" r="5" style="fill:#000;"/></g><path d="M168.82,52.368c0,2.636 -0.733,5.859 -2.198,9.668c-3.125,3.125 -6.225,5.42 -9.301,6.885c-3.077,1.464 -6.128,2.197 -9.156,2.197c-4.98,0 -9.009,-1.343 -12.085,-4.029c-3.076,-2.685 -4.614,-6.176 -4.614,-10.473c0,-6.738 4.883,-17.481 14.648,-32.227c15.137,7.715 22.706,17.041 22.706,27.979ZM161.935,53.979c-1.465,-7.031 -6.738,-12.598 -15.821,-16.699c-2.539,3.613 -4.418,6.689 -5.639,9.228c-1.221,2.539 -1.831,4.688 -1.831,6.446c0,4.004 3.515,6.006 10.547,6.006c5.761,0 10.009,-1.661 12.744,-4.981Z" style="fill:#000;fill-rule:nonzero;"/></g></svg>