<?xml version="1.0" standalone="no"?><!DOCTYPE svg PUBLIC "-//W3C//DTD SVG 1.1//EN" "http://www.w3.org/Graphics/SVG/1.1/DTD/svg11.dtd"><svg width="100%" height="100%" viewBox="0 0 300 300" version="1.1" xmlns="http://www.w3.org/2000/svg" xmlns:xlink="http://www.w3.org/1999/xlink" xml:space="preserve" style="fill-rule:evenodd;clip-rule:evenodd;stroke-linejoin:round;stroke-miterlimit:1.41421;"><g id="U+064C"><g id="Base"><circle id="Dot 15" cx="130.9" cy="103.764" r="5" style="fill:#000;"/><circle id="Dot 14" cx="114.6" cy="114.564" r="5" style="fill:#000;"/><circle id="Dot 13" cx="103.8" cy="130.864" r="5" style="fill:#000;"/><circle id="Dot 12" cx="100" cy="149.964" r="5" style="fill:#000;"/><circle id="Dot 11" cx="103.8" cy="169.064" r="5" style="fill:#000;"/><circle id="Dot 10" cx="114.6" cy="185.364" r="5" style="fill:#000;"/><circle id="Dot 9" cx="130.9" cy="196.164" r="5" style="fill:#000;"/><circle id="Dot 8" cx="150" cy="199.964" r="5" style="fill:#000;"/><circle id="Dot 7" cx="169.1" cy="196.164" r="5" style="fill:#000;"/><circle id="Dot 6" cx="185.4" cy="185.364" r="5" style="fill:#000;"/><circle id="Dot 5" cx="196.2" cy="169.064" r="5" style="fill:#000;"/><circle id="Dot 4" cx="200" cy="149.964" r="5" style="fill:#000;"/><circle id="Dot 3" cx="196.2" cy="130.864" r="5" style="fill:#000;"/><circle id="Dot 2" cx="185.4" cy="114.564" r="5" style="fill:#000;"/><circle id="Dot 1" cx="169.1" cy="103.764" r="5" style="fill:#000;"/><circle id="Dot 0" cx="150" cy="99.964" r="5" style="fill:#000;"/></g><path d="M158.203,48.797c-7.226,11.329 -18.896,19.776 -35.01,25.342c0,-6.445 -0.048,-11.694 -0.146,-15.747c-0.098,-4.053 -0.391,-6.567 -0.879,-7.544c-2.148,1.953 -4.492,3.662 -7.031,5.127c-2.539,1.465 -5.42,2.93 -8.643,4.395l0,-13.33c9.18,-2.93 15.283,-6.641 18.311,-11.133c1.465,2.539 2.563,5.859 3.296,9.961c0.732,4.101 1.196,8.789 1.391,14.062c4.395,-1.66 8.35,-3.589 11.865,-5.786c3.516,-2.197 6.543,-4.858 9.082,-7.983c-3.906,-1.172 -7.446,-2.759 -10.62,-4.761c-3.173,-2.002 -5.59,-4.126 -7.251,-6.372c0.489,-3.809 1.441,-7.251 2.857,-10.327c1.416,-3.076 3.247,-5.884 5.493,-8.423c4.492,-5.078 10.01,-7.617 16.553,-7.617c5.273,2.343 7.91,7.715 7.91,16.113c0,4.199 -1.026,9.277 -3.076,15.234l6.445,1.905l0,11.133l-10.547,-4.249ZM157.764,29.462c0,-4.883 -1.758,-8.008 -5.274,-9.375c-5.761,0 -9.57,3.515 -11.426,10.546c1.563,1.563 3.614,2.979 6.153,4.248c2.539,1.27 5.42,2.491 8.642,3.663c0.489,-0.977 0.928,-2.247 1.319,-3.809c0.39,-1.563 0.586,-3.32 0.586,-5.273Z" style="fill:#000;fill-rule:nonzero;"/></g></svg>