<?xml version="1.0" standalone="no"?><!DOCTYPE svg PUBLIC "-//W3C//DTD SVG 1.1//EN" "http://www.w3.org/Graphics/SVG/1.1/DTD/svg11.dtd"><svg width="100%" height="100%" viewBox="0 0 300 300" version="1.1" xmlns="http://www.w3.org/2000/svg" xmlns:xlink="http://www.w3.org/1999/xlink" xml:space="preserve" style="fill-rule:evenodd;clip-rule:evenodd;stroke-linejoin:round;stroke-miterlimit:1.41421;"><g id="U+0670"><g id="Base"><circle id="Dot 15" cx="130.9" cy="103.729" r="5" style="fill:#000;"/><circle id="Dot 14" cx="114.6" cy="114.529" r="5" style="fill:#000;"/><circle id="Dot 13" cx="103.8" cy="130.829" r="5" style="fill:#000;"/><circle id="Dot 12" cx="100" cy="149.929" r="5" style="fill:#000;"/><circle id="Dot 11" cx="103.8" cy="169.029" r="5" style="fill:#000;"/><circle id="Dot 10" cx="114.6" cy="185.329" r="5" style="fill:#000;"/><circle id="Dot 9" cx="130.9" cy="196.129" r="5" style="fill:#000;"/><circle id="Dot 8" cx="150" cy="199.929" r="5" style="fill:#000;"/><circle id="Dot 7" cx="169.1" cy="196.129" r="5" style="fill:#000;"/><circle id="Dot 6" cx="185.4" cy="185.329" r="5" style="fill:#000;"/><circle id="Dot 5" cx="196.2" cy="169.029" r="5" style="fill:#000;"/><circle id="Dot 4" cx="200" cy="149.929" r="5" style="fill:#000;"/><circle id="Dot 3" cx="196.2" cy="130.829" r="5" style="fill:#000;"/><circle id="Dot 2" cx="185.4" cy="114.529" r="5" style="fill:#000;"/><circle id="Dot 1" cx="169.1" cy="103.729" r="5" style="fill:#000;"/><circle id="Dot 0" cx="150" cy="99.929" r="5" style="fill:#000;"/></g><path d="M138.149,29.77l6.738,-11.865c3.028,4.785 5.469,10.327 7.324,16.626c1.856,6.299 2.784,11.841 2.784,16.626c0,4.297 -0.782,10.058 -2.344,17.285l-5.127,2.197c0.293,-1.465 0.439,-4.834 0.439,-10.107c0,-4.004 -0.952,-8.936 -2.856,-14.795c-1.904,-5.859 -4.224,-11.182 -6.958,-15.967Z" style="fill:#000;fill-rule:nonzero;"/></g></svg>