<?xml version="1.0" standalone="no"?><!DOCTYPE svg PUBLIC "-//W3C//DTD SVG 1.1//EN" "http://www.w3.org/Graphics/SVG/1.1/DTD/svg11.dtd"><svg width="100%" height="100%" viewBox="0 0 300 300" version="1.1" xmlns="http://www.w3.org/2000/svg" xmlns:xlink="http://www.w3.org/1999/xlink" xml:space="preserve" style="fill-rule:evenodd;clip-rule:evenodd;stroke-linejoin:round;stroke-miterlimit:1.41421;"><g id="U+0654"><g id="Base"><circle id="Dot 15" cx="130.9" cy="103.729" r="5" style="fill:#000;"/><circle id="Dot 14" cx="114.6" cy="114.529" r="5" style="fill:#000;"/><circle id="Dot 13" cx="103.8" cy="130.829" r="5" style="fill:#000;"/><circle id="Dot 12" cx="100" cy="149.929" r="5" style="fill:#000;"/><circle id="Dot 11" cx="103.8" cy="169.029" r="5" style="fill:#000;"/><circle id="Dot 10" cx="114.6" cy="185.329" r="5" style="fill:#000;"/><circle id="Dot 9" cx="130.9" cy="196.129" r="5" style="fill:#000;"/><circle id="Dot 8" cx="150" cy="199.929" r="5" style="fill:#000;"/><circle id="Dot 7" cx="169.1" cy="196.129" r="5" style="fill:#000;"/><circle id="Dot 6" cx="185.4" cy="185.329" r="5" style="fill:#000;"/><circle id="Dot 5" cx="196.2" cy="169.029" r="5" style="fill:#000;"/><circle id="Dot 4" cx="200" cy="149.929" r="5" style="fill:#000;"/><circle id="Dot 3" cx="196.2" cy="130.829" r="5" style="fill:#000;"/><circle id="Dot 2" cx="185.4" cy="114.529" r="5" style="fill:#000;"/><circle id="Dot 1" cx="169.1" cy="103.729" r="5" style="fill:#000;"/><circle id="Dot 0" cx="150" cy="99.929" r="5" style="fill:#000;"/></g><path d="M167.883,58.551c-2.246,0.293 -5.127,0.953 -8.642,1.978c-3.516,1.025 -7.203,2.246 -11.06,3.662c-3.857,1.416 -7.617,2.954 -11.279,4.614c-3.662,1.66 -6.763,3.272 -9.302,4.834l0,-9.228c1.66,-0.879 3.638,-1.856 5.933,-2.93c2.295,-1.074 4.858,-1.953 7.69,-2.637l0,-0.439c-7.715,-2.637 -11.572,-7.471 -11.572,-14.502c8.203,-12.207 16.26,-18.311 24.17,-18.311c4.883,0 9.082,2.735 12.597,8.204l-7.617,6.152c-1.758,-1.758 -3.491,-3.027 -5.2,-3.809c-1.709,-0.781 -3.149,-1.172 -4.321,-1.172c-3.614,0 -7.422,2.686 -11.426,8.057c2.93,6.055 7.861,9.229 14.795,9.522c2.539,-0.684 5.322,-1.49 8.349,-2.417c3.028,-0.928 6.397,-1.685 10.108,-2.271l-3.223,10.693Z" style="fill:#000;fill-rule:nonzero;"/></g></svg>