<?xml version="1.0" standalone="no"?><!DOCTYPE svg PUBLIC "-//W3C//DTD SVG 1.1//EN" "http://www.w3.org/Graphics/SVG/1.1/DTD/svg11.dtd"><svg width="100%" height="100%" viewBox="0 0 300 300" version="1.1" xmlns="http://www.w3.org/2000/svg" xmlns:xlink="http://www.w3.org/1999/xlink" xml:space="preserve" style="fill-rule:evenodd;clip-rule:evenodd;stroke-linejoin:round;stroke-miterlimit:1.41421;"><g id="U+0651"><g id="Base"><circle id="Dot 15" cx="130.9" cy="103.729" r="5" style="fill:#000;"/><circle id="Dot 14" cx="114.6" cy="114.529" r="5" style="fill:#000;"/><circle id="Dot 13" cx="103.8" cy="130.829" r="5" style="fill:#000;"/><circle id="Dot 12" cx="100" cy="149.929" r="5" style="fill:#000;"/><circle id="Dot 11" cx="103.8" cy="169.029" r="5" style="fill:#000;"/><circle id="Dot 10" cx="114.6" cy="185.329" r="5" style="fill:#000;"/><circle id="Dot 9" cx="130.9" cy="196.129" r="5" style="fill:#000;"/><circle id="Dot 8" cx="150" cy="199.929" r="5" style="fill:#000;"/><circle id="Dot 7" cx="169.1" cy="196.129" r="5" style="fill:#000;"/><circle id="Dot 6" cx="185.4" cy="185.329" r="5" style="fill:#000;"/><circle id="Dot 5" cx="196.2" cy="169.029" r="5" style="fill:#000;"/><circle id="Dot 4" cx="200" cy="149.929" r="5" style="fill:#000;"/><circle id="Dot 3" cx="196.2" cy="130.829" r="5" style="fill:#000;"/><circle id="Dot 2" cx="185.4" cy="114.529" r="5" style="fill:#000;"/><circle id="Dot 1" cx="169.1" cy="103.729" r="5" style="fill:#000;"/><circle id="Dot 0" cx="150" cy="99.929" r="5" style="fill:#000;"/></g><path d="M171.286,41.608c0,12.402 -4.395,18.604 -13.184,18.604c-2.246,0 -4.077,-0.855 -5.493,-2.564c-1.416,-1.709 -2.319,-4.37 -2.71,-7.983l-0.439,0.293c-1.856,11.621 -6.641,17.431 -14.356,17.431c-2.051,0 -3.784,-0.415 -5.2,-1.245c-1.416,-0.83 -2.564,-2.27 -3.443,-4.321c-0.878,-2.051 -1.513,-4.761 -1.904,-8.13c-0.39,-3.369 -0.586,-7.593 -0.586,-12.671l7.764,-3.223l0,10.84c0.586,4.785 2.246,7.178 4.98,7.178c5.079,0 7.618,-5.029 7.618,-15.088c0,-1.172 0,-2.173 0,-3.003c0,-0.83 -0.098,-1.587 -0.293,-2.27l7.91,-2.93c0,10.937 2.148,16.406 6.445,16.406c3.32,0 4.981,-3.808 4.981,-11.426c0,-0.195 -0.049,-0.976 -0.147,-2.343c-0.098,-1.367 -0.244,-3.467 -0.439,-6.299l8.496,-3.223l0,15.967Z" style="fill:#000;fill-rule:nonzero;"/></g></svg>