<?xml version="1.0" standalone="no"?><!DOCTYPE svg PUBLIC "-//W3C//DTD SVG 1.1//EN" "http://www.w3.org/Graphics/SVG/1.1/DTD/svg11.dtd"><svg width="100%" height="100%" viewBox="0 0 300 300" version="1.1" xmlns="http://www.w3.org/2000/svg" xmlns:xlink="http://www.w3.org/1999/xlink" xml:space="preserve" style="fill-rule:evenodd;clip-rule:evenodd;stroke-linejoin:round;stroke-miterlimit:1.41421;"><g id="U+064B"><g id="Base"><circle id="Dot 15" cx="130.9" cy="103.764" r="5" style="fill:#000;"/><circle id="Dot 14" cx="114.6" cy="114.564" r="5" style="fill:#000;"/><circle id="Dot 13" cx="103.8" cy="130.864" r="5" style="fill:#000;"/><circle id="Dot 12" cx="100" cy="149.964" r="5" style="fill:#000;"/><circle id="Dot 11" cx="103.8" cy="169.064" r="5" style="fill:#000;"/><circle id="Dot 10" cx="114.6" cy="185.364" r="5" style="fill:#000;"/><circle id="Dot 9" cx="130.9" cy="196.164" r="5" style="fill:#000;"/><circle id="Dot 8" cx="150" cy="199.964" r="5" style="fill:#000;"/><circle id="Dot 7" cx="169.1" cy="196.164" r="5" style="fill:#000;"/><circle id="Dot 6" cx="185.4" cy="185.364" r="5" style="fill:#000;"/><circle id="Dot 5" cx="196.2" cy="169.064" r="5" style="fill:#000;"/><circle id="Dot 4" cx="200" cy="149.964" r="5" style="fill:#000;"/><circle id="Dot 3" cx="196.2" cy="130.864" r="5" style="fill:#000;"/><circle id="Dot 2" cx="185.4" cy="114.564" r="5" style="fill:#000;"/><circle id="Dot 1" cx="169.1" cy="103.764" r="5" style="fill:#000;"/><circle id="Dot 0" cx="150" cy="99.964" r="5" style="fill:#000;"/></g><path d="M124.365,74.139l0,-10.4l48.633,-19.336l0,10.547l-48.633,19.189ZM124.365,51.581l0,-10.694l48.633,-19.189l0,10.547l-48.633,19.336Z" style="fill:#000;fill-rule:nonzero;"/></g></svg>