<?xml version="1.0" standalone="no"?><!DOCTYPE svg PUBLIC "-//W3C//DTD SVG 1.1//EN" "http://www.w3.org/Graphics/SVG/1.1/DTD/svg11.dtd"><svg width="100%" height="100%" viewBox="0 0 300 300" version="1.1" xmlns="http://www.w3.org/2000/svg" xmlns:xlink="http://www.w3.org/1999/xlink" xml:space="preserve" style="fill-rule:evenodd;clip-rule:evenodd;stroke-linejoin:round;stroke-miterlimit:1.41421;"><path d="M35,265l10,0l0,10l-20,0l0,-20l10,0l0,10ZM95,275l-40,0l0,-10l40,0l0,10ZM145,275l-40,0l0,-10l40,0l0,10ZM195,275l-40,0l0,-10l40,0l0,10ZM245,275l-40,0l0,-10l40,0l0,10ZM275,275l-20,0l0,-10l10,0l0,-10l10,0l0,20ZM275,245l-10,0l0,-40l10,0l0,40ZM35,245l-10,0l0,-40l10,0l0,40ZM275,195l-10,0l0,-40l10,0l0,40ZM35,195l-10,0l0,-40l10,0l0,40ZM275,145l-10,0l0,-40l10,0l0,40ZM35,145l-10,0l0,-40l10,0l0,40ZM275,95l-10,0l0,-40l10,0l0,40ZM35,95l-10,0l0,-40l10,0l0,40ZM275,45l-10,0l0,-10l-10,0l0,-10l20,0l0,20ZM45,35l-10,0l0,10l-10,0l0,-20l20,0l0,10ZM95,35l-40,0l0,-10l40,0l0,10ZM145,35l-40,0l0,-10l40,0l0,10ZM195,35l-40,0l0,-10l40,0l0,10ZM245,35l-40,0l0,-10l40,0l0,10Z" style="fill:#000;"/><g transform="matrix(1,3.08149e-33,6.16298e-32,1,-7.77422,-684.231)"><text x="84.974px" y="815.199px" style="font-family:'SourceCodePro-Bold';font-size:112px;fill:#000;">Z<tspan x="163.374px " y="815.199px ">W</tspan></text><text x="84.974px" y="927.199px" style="font-family:'SourceCodePro-Bold';font-size:112px;fill:#000;">N<tspan x="163.374px " y="927.199px ">J</tspan></text></g></svg>